<svg xmlns="http://www.w3.org/2000/svg" viewBox="0 0 147.58 176.17"><defs><style>.cls-1{isolation:isolate;}.cls-2{fill:#d8482b;}.cls-3{fill:#f26949;}.cls-4{fill:#fca22b;}.cls-5{fill:#ffc033;}.cls-6{opacity:0.72;}.cls-10,.cls-6{mix-blend-mode:multiply;}.cls-7{fill:#84324c;}.cls-8{fill:#edcca6;}.cls-9{fill:#ffe9ca;}.cls-10{opacity:0.56;}.cls-11{fill:#492a26;}.cls-12{fill:#633d36;}.cls-13{fill:#efc797;}.cls-14{fill:#7c4437;}.cls-15{fill:#6d4135;}.cls-16{fill:#d63440;}.cls-17{fill:#c6361e;}.cls-18{fill:#542521;}.cls-19{fill:#fff4de;}.cls-20{fill:#bcddd8;}.cls-21{fill:#5b2f27;}.cls-22{fill:#ef8f41;}.cls-23{fill:#edae5a;}</style></defs><g class="cls-1"><g id="Warstwa_2" data-name="Warstwa 2"><g id="_11" data-name="11"><path class="cls-2" d="M56.9,81.62s-3.59,2.7-5,2.49c-2.13-.31-9.87,2.23-10.71,3.76,1.15.23,5.91,6.07,5.91,6.07A26.91,26.91,0,0,0,54,91.22c.77-.5,3.23-.73,5.22-1.51C61.92,88.66,56.9,81.62,56.9,81.62Z"/><path class="cls-3" d="M70.06,73.86l7,10c-5.78,6.29-20,4.48-24.12,5.5L49,86.26S62.41,75.56,70.06,73.86Z"/><path class="cls-2" d="M75.5,79.12,77,83.88c-5.78,6.29-21.62,6.44-25.7,7.46l-1.59-5.91C55.5,84.7,69.53,84.3,75.5,79.12Z"/><path class="cls-3" d="M85.7,60.09c0,9.15-4.54,20-8.62,22.86s-13.5-4.81-10.42-7.17c7-5.38,1.93-26.63,8.61-29.12C80.11,44.86,85.7,53.29,85.7,60.09Z"/><path class="cls-2" d="M76.8,71.11c0-5.78-2.42-10.61-5.65-11.77.42-6,.92-11.49,4.12-12.68,4.84-1.8,10.43,6.63,10.43,13.43,0,9.15-4.59,20.9-8.67,23.79-1.62,1.15-6.17.28-8.35-1.09C72.09,81.88,76.8,77.1,76.8,71.11Z"/><path class="cls-3" d="M80.37,59.92l25.84-13.15s7.7,26.07,3.62,44.08L81.39,87.91C85.13,78.27,83.66,67.4,80.37,59.92Z"/><path class="cls-2" d="M80.37,59.92l25.84-13.15s7.7,26.07,3.62,44.08l-10.62-1.1C98,82.48,92.83,70.16,90,70.16c-2.5,0-5.94,11.13-6.89,17.92l-1.72-.17C85.13,78.27,83.66,67.4,80.37,59.92Z"/><path class="cls-4" d="M111.11,91.53c1.86,15.29.65,41.93.65,41.93l-2.44-1.13L106,134.87l-4.08-6.46S110.22,84.23,111.11,91.53Z"/><path class="cls-3" d="M131,176.17H118.46s-.49-4.82,1.21-5.17S128.94,174.08,131,176.17Z"/><path class="cls-3" d="M37.77,176.17H50.93s.51-4.82-1.27-5.17S39.92,174.08,37.77,176.17Z"/><path class="cls-3" d="M97.43,92.84l11.67,2.48S106.41,129.86,107,133c.79,4.36,14.3,40.48,14.3,40.48h-.91c-6.71-12.22-21.32-34.68-22.63-40.79C97.06,129.54,97.43,92.84,97.43,92.84Z"/><path class="cls-2" d="M97.43,92.84l11.67,2.48s-1.91,24.6-2.17,34.15a62.43,62.43,0,0,0-3.06,15.86c-3.19-5.61-5.63-10.33-6.13-12.66C97.06,129.54,97.43,92.84,97.43,92.84Z"/><path class="cls-3" d="M78.1,92.78,85.9,102s-22.09,26.66-23.45,29.57c-1.9,4.06-12.1,41.93-12.1,41.93l-.72-.56c1.76-14.12,3.19-41.47,5.68-47.28C56.59,122.64,78.1,92.78,78.1,92.78Z"/><path class="cls-2" d="M71.73,101.68c3.61-5.06,6.37-8.9,6.37-8.9L85.9,102S75.73,114.23,68.77,123C71.48,115.53,72.48,106.55,71.73,101.68Z"/><path class="cls-5" d="M109.1,95.32C96,97.12,97.94,142.18,97.94,142.18l-1.7-1.36-.17,4.25-2.89-4.42,1,8.16-2.38-5.27-1.36,2.89-2-3.4-2.72,3.4L84.34,143l-1.87,2.89-1.19-4.25L79.92,143s-7.77-17.85-3.34-48.43A13.3,13.3,0,0,1,81.05,86c2.39-1.73,29.63,4.36,29.63,4.36S112.45,94.87,109.1,95.32Z"/><path class="cls-4" d="M96.55,126.71c0-20.63-6.11-37.36-13.65-37.36-2.17,0-4.22,1.4-6.05,3.88A12.87,12.87,0,0,1,81.05,86c2.39-1.73,29.63,4.36,29.63,4.36s1.77,4.53-1.58,5C96,97.12,97.94,142.18,97.94,142.18l-1.7-1.36-.17,4.25-1-1.51A93.22,93.22,0,0,0,96.55,126.71Z"/><path class="cls-4" d="M94.1,148l.1.77L94,148.4Z"/><g class="cls-6"><path class="cls-7" d="M96.91,139.85c-2.4.09-5.66-6.8-5.94-8.92-.42-3.13,2.07-8.27,5.94-6.81a4,4,0,0,1,1.25.81c-.36,6-.35,11.34-.3,14.45A1.36,1.36,0,0,1,96.91,139.85Z"/><path class="cls-7" d="M86.47,129.37a2,2,0,0,1,1.48.29,1.7,1.7,0,0,1,.4.62,8,8,0,0,1,.54,1.77,8.19,8.19,0,0,1,.08,2.47c-.08.61-.3,1.31-.88,1.52C84.83,137.25,82.09,129.68,86.47,129.37Z"/><path class="cls-7" d="M88.73,138a.63.63,0,0,1,.66-.25c.64.11,1,.76,1.34,1.34l3,5.7.5,4-2.38-5.27-1.36,2.89-1.52-2.52a8,8,0,0,1-.24-1.2C88.58,141.75,88.28,138.89,88.73,138Z"/><path class="cls-7" d="M88.46,126.3a2.38,2.38,0,0,1-.41-1.33,18.22,18.22,0,0,1,0-2.45c0-.27,0-.55.07-.82a3.51,3.51,0,0,1,.36-1.43,1.4,1.4,0,0,1,1.19-.76c1.53,0,2.48,2.36,2.3,3.64-.14,1.07-1.79,3.71-3.15,3.38A.68.68,0,0,1,88.46,126.3Z"/><path class="cls-7" d="M96.64,120.68c-1.73-1.5-3.52-3.11-4.23-5.29a2.44,2.44,0,0,1,2.35-3.65,6.53,6.53,0,0,1,4.6,1.72c-.43,2.67-.74,5.44-1,8.15a1.7,1.7,0,0,1-.5-.09A4,4,0,0,1,96.64,120.68Z"/><path class="cls-7" d="M98.45,108.74a9.92,9.92,0,0,1-1-2.5,1.09,1.09,0,0,1,0-.87A.94.94,0,0,1,98,105a3.55,3.55,0,0,1,3.1.11l.14.1c-.48,1.56-.89,3.25-1.25,5A3.26,3.26,0,0,1,98.45,108.74Z"/><path class="cls-7" d="M90.29,108.7a3.41,3.41,0,0,1-1.35-1.1,19.94,19.94,0,0,1-4.09-8.07,5,5,0,0,1,.28-4,3.59,3.59,0,0,1,4.57-.86,6.72,6.72,0,0,1,3,4,1.28,1.28,0,0,1,0,.27,18.61,18.61,0,0,1,2,5.07,3.19,3.19,0,0,1,.08,1.47,3.55,3.55,0,0,1-.81,1.32,7.21,7.21,0,0,1-1.6,1.52A2.45,2.45,0,0,1,90.29,108.7Z"/><path class="cls-7" d="M85.31,107.12a4.23,4.23,0,0,1,.52,3.27,1.49,1.49,0,0,1-2.06,1.18c-1.14-.27-2.55-4.26-2.52-5.28a1.24,1.24,0,0,1,.21-.82,1.17,1.17,0,0,1,1.12-.23A4.22,4.22,0,0,1,85.31,107.12Z"/><path class="cls-7" d="M77.71,111a25.55,25.55,0,0,1,2,9.93,5.83,5.83,0,0,1-.54,2.68,2.36,2.36,0,0,1-2.25,1.31,2.22,2.22,0,0,1-1.16-.61,113.32,113.32,0,0,1-.48-15.82,1.11,1.11,0,0,1,.82.22A4.79,4.79,0,0,1,77.71,111Z"/><path class="cls-7" d="M82.84,120.63c.44.12.63.64.7,1.09a5.25,5.25,0,0,1-.56,3.11,12.2,12.2,0,0,1,0,1.71.49.49,0,0,1-.12.37c-.17.13-.42,0-.56-.17a2.79,2.79,0,0,1-.47-1.42,27.47,27.47,0,0,1-.18-3,2.41,2.41,0,0,1,.19-1.16A.91.91,0,0,1,82.84,120.63Z"/><path class="cls-7" d="M77.27,127.38a2.83,2.83,0,0,1,.88.66,10.36,10.36,0,0,1,2.21,2.85,4.89,4.89,0,0,1,.43,3.51,2.65,2.65,0,0,1-1,1.47c-.49.35-2-.44-2.24-.54-.5-2.18-1-4.79-1.42-7.84l0,0A1.13,1.13,0,0,1,77.27,127.38Z"/><path class="cls-7" d="M79.3,137.7a6,6,0,0,1,2.41,1.75,13.39,13.39,0,0,1,2.44,3.88l-1.68,2.59-1.19-4.25L79.92,143a42.32,42.32,0,0,1-1.77-5.44h0A2.31,2.31,0,0,1,79.3,137.7Z"/><path class="cls-7" d="M80,93.48a4,4,0,0,1,.9,3,12.41,12.41,0,0,1-1,5.14c-.73,1.58-4,4.26-4.44,4.15.21-3.5.58-7.22,1.15-11.16.07-.48.17-.92.27-1.35A2.76,2.76,0,0,1,80,93.48Z"/><path class="cls-7" d="M84.12,114.92a2.54,2.54,0,0,1,2.21.31,2.26,2.26,0,0,1,1,2,1.56,1.56,0,0,1-.37,1,1.6,1.6,0,0,1-2.29-.11,2.2,2.2,0,0,1-.48-1.55,2.08,2.08,0,0,1-.37-1,.55.55,0,0,1,.11-.42A.51.51,0,0,1,84.12,114.92Z"/><path class="cls-7" d="M81.29,90.62a3.17,3.17,0,0,1-2.2-2.51,10.51,10.51,0,0,1,1.53-1.77c.63-.19,1.56-.45,2.6-.66a52.27,52.27,0,0,1,6.32.63,1.42,1.42,0,0,1,.13.53C89.85,90.05,83.39,91.32,81.29,90.62Z"/><path class="cls-7" d="M98.24,95.62c-2.24-1.85-2-4.32-1.65-7.1a2.8,2.8,0,0,1,.27-1c2.79.51,5.53,1.06,7.82,1.53a17,17,0,0,1,4.54,4,13.39,13.39,0,0,1,1.13,1.75,2.29,2.29,0,0,1-1.25.52c-2.68.37-4.73,2.56-6.29,5.79C101.23,99.32,100.09,97.15,98.24,95.62Z"/></g><path class="cls-5" d="M65.87,16.86c.75,8.87,3,24.85,5.76,25.2.25.78.36,1.09.36,1.09s-2.71,4.47-1.42,9.27c1.66,6.19,6.57,10.66,16.15,14.3,17,6.46,18-21.53,24.93-25.38s-5-4.88-5-4.88,1.13-2.26-1-2.6a6.74,6.74,0,0,0-3.06,0s1.25-2.38-.11-2.95-1.81-.45-1.81-.45-3.4-15.41-4.31-16.55S95.1,7.12,93,5.19A10.69,10.69,0,0,0,86,2.36a76.34,76.34,0,0,0-9,1.47Z"/><path class="cls-4" d="M90.31,56.2c0-7.1-6.76-12.85-15.1-12.85a17.58,17.58,0,0,0-3.52.36c.17-.35.3-.56.3-.56l-.33-1a23.92,23.92,0,0,0,6.48-.58C84.41,40.29,88.05,40,89,32c1.44-12.15,1.18-18-5.22-18-2.24,0-17.08,3.56-17.69,5.07-.09-.73-.17-1.45-.23-2.14l11.22-13a76.34,76.34,0,0,1,9-1.47A10.69,10.69,0,0,1,93,5.19c2.15,1.93,2.49,7.59,3.4,8.72s4.31,16.55,4.31,16.55.45-.12,1.81.45.11,2.95.11,2.95a6.74,6.74,0,0,1,3.06,0c2.15.34,1,2.6,1,2.6s11.9,1,5,4.88-7.94,31.84-24.93,25.38c-.61-.23-1.2-.47-1.77-.71A12.15,12.15,0,0,0,90.31,56.2Z"/><path class="cls-8" d="M74.25,3.6C67,2.37,60.47,11,61.06,16.52c.21,1.93,3.21,3.63,5.7,3.85S77.9,9.13,77.9,9.13,78.91,4.4,74.25,3.6Z"/><path class="cls-9" d="M72.7,4c-5.36-.91-10.25,5.49-9.81,9.61.16,1.43,3.86,4.68,4.24,2.86,1.47-7,5.71-9.55,5.71-9.55S76.17,4.58,72.7,4Z"/><path class="cls-5" d="M81.07,42.68C96.55,40.44,98.79,40,98,37.94S81.07,42.68,81.07,42.68Z"/><g class="cls-10"><path class="cls-7" d="M80.21,57.68a4.49,4.49,0,0,1,5.72,1,6.27,6.27,0,0,1,.84,6,3.48,3.48,0,0,1-1,1.59,41.23,41.23,0,0,1-7.14-3.6C78.4,60.88,79,58.49,80.21,57.68Z"/><path class="cls-7" d="M76.28,53.77a7.77,7.77,0,0,1-.23,4.65,2.54,2.54,0,0,1-.81,1.32.75.75,0,0,1-.29.09A17.08,17.08,0,0,1,72.64,57c0-1.46.54-3.73,1.23-4.36C74.76,51.86,75.85,52.45,76.28,53.77Z"/><path class="cls-7" d="M81.05,50.79a3.42,3.42,0,0,1,2.81,1.44,2.23,2.23,0,0,1-.34,2.4C79.89,58.86,75.18,50.19,81.05,50.79Z"/><path class="cls-7" d="M77.85,45.78a1.43,1.43,0,0,1,.88,1.55,1.56,1.56,0,0,1-.57.68,6.3,6.3,0,0,1-3.2.59,1.45,1.45,0,0,1-.85-1.13,1.56,1.56,0,0,1,.5-1.14A2.84,2.84,0,0,1,77.85,45.78Z"/><path class="cls-7" d="M73,47.7c0,1.38-1.29,2.79-2.6,3.76a13.34,13.34,0,0,1,1.39-7.88,2.69,2.69,0,0,1,.22.28A6.47,6.47,0,0,1,73,47.7Z"/><path class="cls-7" d="M79,43.36a2.62,2.62,0,0,1-2.6-1.42,4.48,4.48,0,0,1-.28-1.55,2.56,2.56,0,0,1,.37-1.83,2.26,2.26,0,0,1,.93-.58,6.81,6.81,0,0,1,1.77-.42c.46,0,2.63,1.07,2.78,1.84a3.33,3.33,0,0,1-.44,2.26A3.44,3.44,0,0,1,79,43.36Z"/><path class="cls-7" d="M82.44,48.18c-.08-.69,3.51-2.31,4.34-2.13a2.08,2.08,0,0,1,1,.42,1.68,1.68,0,0,1-.14,2.2,3.74,3.74,0,0,1-3,1.4,2.34,2.34,0,0,1-1.81-.8A2.22,2.22,0,0,1,82.44,48.18Z"/><path class="cls-7" d="M90.74,64.88a15.16,15.16,0,0,1-1.64-7.13,3.15,3.15,0,0,1,.34-1.8,2.12,2.12,0,0,1,1.63-.85c1.56-.11,2.94,1,4,2.14A13.51,13.51,0,0,1,98,61.54a7.53,7.53,0,0,1,.5,3.08,10,10,0,0,1-5.35,2.9A8.28,8.28,0,0,1,90.74,64.88Z"/><path class="cls-7" d="M94.87,48.82a2.38,2.38,0,0,1,1,2.32c-.48,2.34-4.78,2.94-5.86.79C88.57,49.12,92.86,47.33,94.87,48.82Z"/><path class="cls-7" d="M89.19,37.9a4.9,4.9,0,0,1,1.66-.48,30.06,30.06,0,0,1,3.41-.34,10.31,10.31,0,0,1,4.24.52A2.62,2.62,0,0,1,100.08,39a3.11,3.11,0,0,1,.14,1.14c0,1-3,4.53-4.19,4.61a9.88,9.88,0,0,1-2.77-.09,6.13,6.13,0,0,1-4.73-5.53,1.45,1.45,0,0,1,.09-.66A1.22,1.22,0,0,1,89.19,37.9Z"/><path class="cls-7" d="M107.8,38a5,5,0,0,1-3.26,1.34.79.79,0,0,1-.4-.13.74.74,0,0,1-.19-.42,5.59,5.59,0,0,1,.16-3.64,4,4,0,0,1,1.15-1.35l.38,0c2.15.34,1,2.6,1,2.6s.9.08,2,.27A3.94,3.94,0,0,1,107.8,38Z"/><path class="cls-7" d="M98.73,33.54a1.11,1.11,0,0,1-1-.27,1.15,1.15,0,0,1-.2-.57,5.3,5.3,0,0,1,.18-3.37,4,4,0,0,1,1.56-1.5c.25-.14.5-.27.76-.39.4,1.79.68,3,.68,3a3.14,3.14,0,0,1,1.5.33A5,5,0,0,1,98.73,33.54Z"/><path class="cls-7" d="M92.39,31.27a5.19,5.19,0,0,1-2.48.66,8.31,8.31,0,0,1-5.63-1.63,1.18,1.18,0,0,1-.87-.74,1.17,1.17,0,0,1,0-.2.69.69,0,0,1-.11-.13l.09.06a3.88,3.88,0,0,1-.09-1,4.42,4.42,0,0,1,.65-2.4,3.46,3.46,0,0,1,2.51-1.32,9.72,9.72,0,0,1,2.89.27c1.43.29,3,.67,3.87,1.82A3.31,3.31,0,0,1,92.39,31.27Z"/><path class="cls-7" d="M94.8,20.1a1.36,1.36,0,0,1-1.3.33,1.38,1.38,0,0,1-.61-.83,6.11,6.11,0,0,1,2.8-7.43,5.47,5.47,0,0,0,.66,1.74,13.62,13.62,0,0,1,1,2.82,8.51,8.51,0,0,1-.82,1.48A9.11,9.11,0,0,1,94.8,20.1Z"/><path class="cls-7" d="M89.18,5.62a3.88,3.88,0,0,1-1.84.51,9.07,9.07,0,0,1-4.45-.5,4.38,4.38,0,0,1-2.38-2.49A40.87,40.87,0,0,1,86,2.36a10,10,0,0,1,4.31,1.07s0,.07,0,.11A2.87,2.87,0,0,1,89.18,5.62Z"/><path class="cls-7" d="M70,23.61A2.06,2.06,0,0,1,71,24a2.47,2.47,0,0,1,.46,2.63c-.32,1.18-2.08,2.38-4,3.31-.31-1.82-.58-3.71-.82-5.56A5.08,5.08,0,0,1,70,23.61Z"/><path class="cls-7" d="M73,34.62a1.15,1.15,0,0,1,.52.18c1.23,1-1.65,4.12-3.92,4.14a35.84,35.84,0,0,1-1-3.54A6.22,6.22,0,0,1,73,34.62Z"/></g><path class="cls-2" d="M84.82,16.39c3,8.21,1.22,18.15-1.39,20.53S74,40,72.21,39.07c0,0-6.34-18.22-2.49-26.27S83.8,13.56,84.82,16.39Z"/><path class="cls-3" d="M82.44,37.63c-3,1.79-8.61,2.25-10.23,1.44,0,0-4.51-13-3.61-21.84,4.48-3.75,12.81,2.6,13.72,4.79C84.65,27.61,84.06,34.11,82.44,37.63Z"/><path class="cls-11" d="M77.18,23.16c-.12-1.27.16-2.34.64-2.39S78.8,21.7,79,23Z"/><path class="cls-11" d="M70.86,24.08c-.12-1.28.16-2.34.63-2.39s1,.93,1.13,2.21Z"/><path class="cls-9" d="M75.27,3.6C83.18,2.37,91.79,11,91.14,16.52c-.23,1.93-3.52,3.63-6.23,3.85S72.71,9.13,72.71,9.13,70.18,4.4,75.27,3.6Z"/><path class="cls-8" d="M75.27,3.6C83.18,2.37,91.79,11,91.14,16.52c-.23,1.93-3.52,3.63-6.23,3.85S72.71,9.13,72.71,9.13,70.18,4.4,75.27,3.6Z"/><path class="cls-9" d="M75.39,4c5.52.37,11.91,3.85,11.87,7.71,0,1.34-2.14,2.76-4,3.11s-11.5-8.25-11.5-8.25S70.18,3.67,75.39,4Z"/><path class="cls-12" d="M80.05,3.23C76.29,1.34,74.48.54,73.23,1s-2.35,2.71-2.35,2.71l3,1.93Z"/><path class="cls-4" d="M105,6.55s-7.14-.57-10.08,5L91.31,4S99.86.66,105,6.55Z"/><path class="cls-2" d="M101.94,5.85s-5.24,0-6.77,3.09l-2.62-4S97.88,2.28,101.94,5.85Z"/><path class="cls-13" d="M104.9,94.93l37.4-16.66c6.29,18.53,7.31,29.58,1.19,39.78v-3.91l-3.06,4.93-.68-4.08A17.73,17.73,0,0,0,137,125.36a18,18,0,0,1-1.7-5.78,23.77,23.77,0,0,0-7.65,14.61s-2-7.48-1.87-10.87c0,0-3.74,2.88-3.91,7,0,0-1.36-5.09-1-8.49s-3.06-4.76-3.57-.34a39.39,39.39,0,0,1-2.89,9.68s.68-8.83-1.36-12.57-3.91-.17-2.38,4.08C110.68,122.64,103.54,113,104.9,94.93Z"/><path class="cls-14" d="M91.68,48.64a4.44,4.44,0,0,1,2.55-4.72,103.71,103.71,0,0,1,27.25-8.4,5.45,5.45,0,0,1,5.83,2.88c11.66,22.77,16.37,38.13,19.58,63.66a6,6,0,0,1-3.31,6.11c-9.75,4.73-16.82,7.43-27.24,8.4a4.49,4.49,0,0,1-4.5-2.61C100.58,89.17,95.24,72.29,91.68,48.64Z"/><path class="cls-15" d="M136,66.64a78.69,78.69,0,0,0-.85-11.56c6.19,14.83,9.39,28.14,11.76,47a6,6,0,0,1-3.31,6.11c-9.75,4.73-16.82,7.43-27.24,8.4a4.49,4.49,0,0,1-4.5-2.61l-.3-.68C125.31,110.43,136,90.64,136,66.64Z"/><path class="cls-13" d="M115.68,77.71c-1.85-6-1.1-11.49,1.68-12.35s6.53,3.27,8.38,9.23,1.1,11.49-1.68,12.35S117.53,83.67,115.68,77.71Z"/><path class="cls-13" d="M139.7,99.19c-.39-1.25-.23-2.42.35-2.6s1.37.69,1.76,1.94.23,2.42-.35,2.6S140.09,100.44,139.7,99.19Z"/><path class="cls-13" d="M122.39,44.5c-.39-1.25-.23-2.41.36-2.59s1.37.69,1.76,1.94.23,2.41-.35,2.59S122.78,45.76,122.39,44.5Z"/><path class="cls-13" d="M133.65,70.49c-.39-1.25-.23-2.41.35-2.59s1.37.68,1.76,1.94.23,2.41-.35,2.59S134,71.74,133.65,70.49Z"/><path class="cls-13" d="M114.57,107.1c-.39-1.26-.23-2.42.35-2.6s1.38.69,1.76,1.94.24,2.41-.35,2.6S115,108.35,114.57,107.1Z"/><path class="cls-13" d="M104.14,82.91c-.39-1.25-.23-2.41.36-2.59s1.37.69,1.76,1.94.23,2.41-.36,2.59S104.53,84.17,104.14,82.91Z"/><path class="cls-13" d="M97.49,53.41c-.39-1.25-.23-2.42.35-2.6s1.37.69,1.76,1.94.23,2.42-.35,2.6S97.88,54.66,97.49,53.41Z"/><path class="cls-13" d="M109.91,48c-.39-1.25-.23-2.41.35-2.59s1.38.69,1.77,1.94.23,2.41-.36,2.59S110.3,49.23,109.91,48Z"/><path class="cls-13" d="M127.66,105.32c-.39-1.25-.23-2.41.35-2.6s1.37.69,1.76,1.94.23,2.42-.35,2.6S128.05,106.57,127.66,105.32Z"/><path class="cls-5" d="M112.12,110.05c-10.18-22.42-14.89-37.68-18-58.3a4.64,4.64,0,0,1,2.65-4.9,93.31,93.31,0,0,1,24.4-7.52,5.46,5.46,0,0,1,5.9,2.91c10.37,20.26,14.62,34.08,17.49,56.87a6,6,0,0,1-3.31,6.11c-8.89,4.31-15.12,6.66-24.47,7.54l-.43,0A4.67,4.67,0,0,1,112.12,110.05Zm9.3-69.42a91.31,91.31,0,0,0-24.09,7.43,3.3,3.3,0,0,0-1.89,3.49h0c3.09,20.49,7.77,35.65,17.89,58a3.31,3.31,0,0,0,3.33,1.93c9.16-.85,15.27-3.16,24-7.41a4.64,4.64,0,0,0,2.57-4.75C140.4,76.66,136.19,63,125.89,42.84a4.16,4.16,0,0,0-3.7-2.28A5,5,0,0,0,121.42,40.63Z"/><path class="cls-2" d="M86.66,84.48c0-.25,1.91-.3,4.23-.12s4.17.54,4.15.8-1.91.3-4.23.11S86.64,84.73,86.66,84.48Z"/><path class="cls-16" d="M117.88,77c-1-3.35-.62-6.46,1-7s3.67,1.84,4.71,5.19.62,6.46-.94,7S118.92,80.38,117.88,77Z"/><path class="cls-17" d="M74.42,20.8c-.28,2.44-2.44,9.76-2.33,10.54s4.49-1.26,4.49-1.26Z"/><path class="cls-3" d="M74.77,20.36c-.28,2.48-2.13,9.64-2,10.43s4.54-1.34,4.54-1.34Z"/><path class="cls-12" d="M81.38,20.79a33.06,33.06,0,0,1-7.19,1.09l-.35-1.58L80,17.81Z"/><path class="cls-12" d="M68.35,22.34a28.41,28.41,0,0,0,5.87-.4l-.14-1.58L68,19.6Z"/><path class="cls-18" d="M79.45,29.66c-2.37,0-5.49,2.21-6.65,3l.79,1.74s7.12-.13,8.11-1.2C82.17,32.69,81.7,29.66,79.45,29.66Z"/><path class="cls-19" d="M78.76,30.14c-2,0-4.67,1.88-5.66,2.55l.67,1.49s6.06-.12,6.9-1C81.07,32.72,80.67,30.14,78.76,30.14Z"/><path class="cls-18" d="M77.44,31.92l2.77-1.19-.49-.8s1.55.22,1.63,2.6l-.64-1.08Z"/><path class="cls-17" d="M75.4,35.4c0-.13.65-.31,1.49-.4s1.53-.06,1.54.07-.65.31-1.49.4S75.41,35.53,75.4,35.4Z"/><path class="cls-20" d="M9.33,3.3A2.4,2.4,0,0,1,11.38.65,2.3,2.3,0,0,1,14,2.71a2.39,2.39,0,0,1-2,2.65A2.31,2.31,0,0,1,9.33,3.3Z"/><path class="cls-20" d="M4.23,5.3a2.4,2.4,0,0,1,2-2.66A2.31,2.31,0,0,1,8.85,4.7a2.4,2.4,0,0,1-2,2.66A2.31,2.31,0,0,1,4.23,5.3Z"/><path class="cls-20" d="M0,8.07a2.38,2.38,0,0,1,2-2.65A2.29,2.29,0,0,1,4.63,7.48a2.39,2.39,0,0,1-2,2.65A2.31,2.31,0,0,1,0,8.07Z"/><path class="cls-20" d="M2.34,12.52a2.38,2.38,0,0,1,2-2.65A2.31,2.31,0,0,1,7,11.93a2.4,2.4,0,0,1-2,2.65A2.31,2.31,0,0,1,2.34,12.52Z"/><path class="cls-20" d="M4.66,17a2.39,2.39,0,0,1,2-2.65,2.31,2.31,0,0,1,2.58,2.06,2.39,2.39,0,0,1-2,2.65A2.3,2.3,0,0,1,4.66,17Z"/><path class="cls-20" d="M7,21.43a2.4,2.4,0,0,1,2-2.66,2.31,2.31,0,0,1,2.58,2.06,2.4,2.4,0,0,1-2,2.66A2.31,2.31,0,0,1,7,21.43Z"/><path class="cls-20" d="M9.3,25.88a2.4,2.4,0,0,1,2-2.65,2.3,2.3,0,0,1,2.57,2.06,2.39,2.39,0,0,1-2,2.65A2.31,2.31,0,0,1,9.3,25.88Z"/><path class="cls-20" d="M11.63,30.33a2.38,2.38,0,0,1,2-2.65,2.31,2.31,0,0,1,2.57,2.06,2.38,2.38,0,0,1-2,2.65A2.29,2.29,0,0,1,11.63,30.33Z"/><path class="cls-20" d="M14,34.79a2.4,2.4,0,0,1,2-2.66,2.32,2.32,0,0,1,2.58,2.06,2.41,2.41,0,0,1-2.05,2.66A2.31,2.31,0,0,1,14,34.79Z"/><path class="cls-20" d="M16.27,39.24a2.39,2.39,0,0,1,2-2.65,2.3,2.3,0,0,1,2.58,2.06,2.4,2.4,0,0,1-2,2.65A2.31,2.31,0,0,1,16.27,39.24Z"/><path class="cls-20" d="M18.59,43.69a2.39,2.39,0,0,1,2-2.65,2.31,2.31,0,0,1,2.58,2.06,2.39,2.39,0,0,1-2,2.65A2.31,2.31,0,0,1,18.59,43.69Z"/><path class="cls-20" d="M20.91,48.15A2.41,2.41,0,0,1,23,45.49a2.31,2.31,0,0,1,2.57,2.06,2.39,2.39,0,0,1-2,2.65A2.3,2.3,0,0,1,20.91,48.15Z"/><path class="cls-20" d="M23.23,52.6A2.4,2.4,0,0,1,25.28,50a2.29,2.29,0,0,1,2.57,2,2.39,2.39,0,0,1-2,2.66A2.32,2.32,0,0,1,23.23,52.6Z"/><path class="cls-20" d="M25.56,57.05a2.38,2.38,0,0,1,2-2.65,2.31,2.31,0,0,1,2.58,2.06,2.4,2.4,0,0,1-2.05,2.65A2.3,2.3,0,0,1,25.56,57.05Z"/><path class="cls-20" d="M27.88,61.5a2.39,2.39,0,0,1,2-2.65,2.31,2.31,0,0,1,2.58,2.06,2.4,2.4,0,0,1-2.05,2.65A2.3,2.3,0,0,1,27.88,61.5Z"/><path class="cls-20" d="M30.2,66a2.4,2.4,0,0,1,2-2.66,2.31,2.31,0,0,1,2.58,2.06,2.4,2.4,0,0,1-2,2.66A2.31,2.31,0,0,1,30.2,66Z"/><path class="cls-20" d="M32.52,70.41a2.4,2.4,0,0,1,2-2.65,2.31,2.31,0,0,1,2.58,2.06,2.39,2.39,0,0,1-2,2.65A2.31,2.31,0,0,1,32.52,70.41Z"/><path class="cls-20" d="M34.84,74.86a2.4,2.4,0,0,1,2-2.65,2.31,2.31,0,0,1,2.57,2.06,2.38,2.38,0,0,1-2,2.65A2.31,2.31,0,0,1,34.84,74.86Z"/><path class="cls-20" d="M37.17,79.32a2.4,2.4,0,0,1,2-2.66,2.31,2.31,0,0,1,2.57,2.06,2.4,2.4,0,0,1-2,2.66A2.31,2.31,0,0,1,37.17,79.32Z"/><path class="cls-20" d="M14.32,2.29a2.29,2.29,0,1,1,2.29,2.29A2.29,2.29,0,0,1,14.32,2.29Z"/><path class="cls-20" d="M16.1,6.84a2.29,2.29,0,1,1,2.28,2.28A2.28,2.28,0,0,1,16.1,6.84Z"/><path class="cls-20" d="M17.87,11.38a2.29,2.29,0,1,1,2.29,2.29A2.29,2.29,0,0,1,17.87,11.38Z"/><path class="cls-20" d="M19.65,15.93a2.29,2.29,0,1,1,2.28,2.29A2.29,2.29,0,0,1,19.65,15.93Z"/><path class="cls-20" d="M21.42,20.48a2.29,2.29,0,1,1,2.29,2.29A2.3,2.3,0,0,1,21.42,20.48Z"/><path class="cls-20" d="M23.2,25a2.29,2.29,0,1,1,2.28,2.28A2.28,2.28,0,0,1,23.2,25Z"/><path class="cls-20" d="M25,29.57a2.29,2.29,0,1,1,2.29,2.29A2.28,2.28,0,0,1,25,29.57Z"/><path class="cls-20" d="M26.75,34.12A2.29,2.29,0,1,1,29,36.41,2.29,2.29,0,0,1,26.75,34.12Z"/><path class="cls-20" d="M28.52,38.67A2.29,2.29,0,1,1,30.81,41,2.29,2.29,0,0,1,28.52,38.67Z"/><circle class="cls-20" cx="32.58" cy="43.22" r="2.29"/><path class="cls-20" d="M32.07,47.77a2.29,2.29,0,1,1,2.29,2.28A2.28,2.28,0,0,1,32.07,47.77Z"/><path class="cls-20" d="M33.84,52.31a2.29,2.29,0,1,1,2.29,2.29A2.29,2.29,0,0,1,33.84,52.31Z"/><path class="cls-20" d="M35.62,56.86a2.29,2.29,0,1,1,2.29,2.29A2.29,2.29,0,0,1,35.62,56.86Z"/><path class="cls-20" d="M37.39,61.41a2.29,2.29,0,1,1,2.29,2.29A2.3,2.3,0,0,1,37.39,61.41Z"/><path class="cls-20" d="M39.17,66a2.29,2.29,0,1,1,2.29,2.29A2.28,2.28,0,0,1,39.17,66Z"/><path class="cls-20" d="M40.94,70.51a2.29,2.29,0,1,1,2.29,2.28A2.29,2.29,0,0,1,40.94,70.51Z"/><circle class="cls-20" cx="45.01" cy="75.05" r="2.29"/><polygon class="cls-21" points="47.48 82.7 53.51 96.01 51.4 97.23 44.08 85.02 47.48 82.7"/><polygon class="cls-22" points="48.14 82.25 15.96 1.57 1.69 7.01 43.16 85.65 48.14 82.25"/><path class="cls-23" d="M9.24,5.89C15,10.94,22.05,22.21,27.58,36.15c5,12.49,7.56,24.23,7.51,32L3.41,8.11Z"/><polygon class="cls-14" points="49.5 82.39 42.75 87.13 39.87 81.7 47.52 77.71 49.5 82.39"/><path class="cls-14" d="M54.62,95a2.91,2.91,0,1,1-2.91-2.91A2.91,2.91,0,0,1,54.62,95Z"/><path class="cls-5" d="M53.12,95a1.42,1.42,0,1,1-1.41-1.41A1.41,1.41,0,0,1,53.12,95Z"/><path class="cls-12" d="M86.07,3.58c3.16,1.08,5.57,3.5,4,3.58S86.07,3.58,86.07,3.58Z"/><path class="cls-3" d="M57.65,84.14c-3.58-1.91-6.66-2-8.25-1.64s-3.77,2.44-3.91,3.57,3.62,3.48,4.37,3.7,2-1.19,1.68-1.81-1.73-1.3-1.53-1.62a2.33,2.33,0,0,1,.72-.59S56.34,86.49,57.65,84.14Z"/><path class="cls-3" d="M47,87.8c.36-1.15-1.52-2.42-2.11-2s-4.44,2.07-4.28,3S42.05,91,42.67,90.9,46.71,88.73,47,87.8Z"/><path class="cls-3" d="M49.69,89.94c.36-1.15-1.52-2.42-2.11-2s-4.44,2.07-4.28,3,1.43,2.32,2.05,2.18S49.39,90.87,49.69,89.94Z"/><path class="cls-3" d="M52,92.31c.32-1.12-1.45-2.47-2-2.12S46,92.06,46.15,93s1.36,2.35,1.93,2.23S51.77,93.22,52,92.31Z"/></g></g></g></svg>