<svg xmlns="http://www.w3.org/2000/svg" viewBox="0 0 109.1 205.21"><defs><style>.cls-1{isolation:isolate;}.cls-2{fill:#ffb882;}.cls-3{fill:#844134;}.cls-4{fill:#723128;}.cls-5{fill:#ff9566;}.cls-6{fill:#bf854b;}.cls-7{fill:#66302c;}.cls-8{fill:#ff794a;}.cls-9{fill:#969b3a;}.cls-10{fill:#84842c;}.cls-11,.cls-15,.cls-16,.cls-20{mix-blend-mode:multiply;}.cls-12,.cls-15{fill:#75a9cc;}.cls-13{opacity:0.3;mix-blend-mode:overlay;}.cls-14{fill:#ffe9d3;}.cls-16{opacity:0.6;}.cls-17{fill:#843131;}.cls-18{fill:#e23013;}.cls-19{fill:#ff5d31;}.cls-20{fill:#6db8e2;}.cls-21{fill:#542623;}.cls-22{fill:#ea7b59;}.cls-23{fill:#fff0d2;}.cls-24{fill:#c3d8d5;}.cls-25{fill:#9bb2af;}.cls-26{fill:#ffda82;}</style></defs><g class="cls-1"><g id="Warstwa_2" data-name="Warstwa 2"><g id="_11" data-name="11"><path class="cls-2" d="M98,122.84c-1,3.27-1.45,4.92-.82,6.15s4,3,5,2.94,1-3.66,1-4.32-1.39-1.45-1.85-1.06-1.21,2.11-1.52,2a1.92,1.92,0,0,1-.63-.48S100.23,123.49,98,122.84Z"/><path class="cls-3" d="M.81,122.75c2.38-12.07,5.33-18.62,12.74-28.09l41.09,25.7c-6.14,10.21-8.7,16.35-12.74,28.09Z"/><polygon class="cls-4" points="4.59 113.55 22.68 126.89 3.68 116 4.59 113.55"/><path class="cls-4" d="M26.87,117.31A61.64,61.64,0,0,0,7,104.43a72.2,72.2,0,0,1,6.6-9.77l41.09,25.7a119.1,119.1,0,0,0-11.57,24.73C42.65,137.22,36.73,126.57,26.87,117.31Z"/><path class="cls-2" d="M31.37,89.77C30.87,76.88,41.53,51,43.09,49.82S52.81,70,51.36,78.2,40.56,96,37.66,97.54,31.53,93.89,31.37,89.77Z"/><path class="cls-5" d="M44,50.47c2.63,3.61,8.61,20.6,7.35,27.73C49.91,86.42,40.56,96,37.66,97.54,35,99,32,94.56,31.45,90.63,40.19,86.79,40.56,60.39,44,50.47Z"/><path class="cls-6" d="M0,122.79l42.33,26.47c4.16-12.1,6.8-18.42,13.12-28.93L13.13,93.85C5.49,103.6,2.45,110.36,0,122.79ZM40.52,146,3.09,122.6c2.16-11,4.86-17,11.61-25.6l37.43,23.42C46.54,129.72,44.2,135.31,40.52,146Z"/><path class="cls-5" d="M22,118.69s-.46,3.15-1.26,4a31.5,31.5,0,0,0-4.13,5.1c-.42.66.91,4.43,1.56,5.69.69-.65,7.78-2,7.78-2a21,21,0,0,0,1.39-5.78c0-.74,1-2.47,1.44-4.13C29.34,119.31,22,118.69,22,118.69Z"/><path class="cls-2" d="M20.74,122.66c-3,1.49-5.79,3.21-6.27,4.44s.91,2.77,1.62,3.38,4.09-.8,4.59-1.19.15-1.88-.44-1.94-2.31.56-2.44.28a1.75,1.75,0,0,1-.06-.74S21.73,124.6,20.74,122.66Z"/><path class="cls-2" d="M20.27,129.4c-.62-.77-2.38-.11-2.4.45s-.69,3.87,0,4.19,2.26.11,2.46-.37S20.77,130,20.27,129.4Z"/><path class="cls-2" d="M23,128.61c-.61-.77-2.38-.11-2.4.45s-.69,3.87,0,4.19,2.27.11,2.46-.37S23.5,129.23,23,128.61Z"/><path class="cls-2" d="M25.72,128.15c-.61-.72-2.37-.17-2.38.34s-.65,3.52,0,3.83,2.26.18,2.45-.25S26.23,128.73,25.72,128.15Z"/><path class="cls-2" d="M21.36,122c.7-14.32,3.35-20,4.58-24.74s6.77-12.65,9.32-13.83c3-1.36,4.53,5.5,4.35,8.06S40.44,99,37.72,105c-1.46,3.22-10.85,19.51-10.85,19.51Z"/><path class="cls-5" d="M35.62,100.13c2.27-6.53,1.53-11.81,1.68-14.43,0-.56.61-2.84.42-3.69,2.22,1.17,3.29,7.38,3.15,9.41-.17,2.56.72,7.91-2,13.9-1.46,3.21-13.15,23.37-13.15,23.37L21.36,122C27.13,123.72,34.62,103,35.62,100.13Z"/><path class="cls-7" d="M22.94,106.26c5.88-.43,9.66.55,14.26,8.17L35,118.69c-3.87-6.59-7.42-8.9-13.16-8.86Z"/><path class="cls-7" d="M18.84,114.59c5.88-.44,9.66.55,14.25,8.17L30.9,127c-3.87-6.6-7.42-8.9-13.16-8.86Z"/><path class="cls-2" d="M82.83,51.19c4,5.91-1.89,22.75-6.31,28.63S75.05,105,75.05,105L43.29,96.68l.8-22.76s-1.64-.8-1.85-1.61S39.61,52.67,43.4,49.42,61,44.49,64.11,44.7,81.27,48.88,82.83,51.19Z"/><path class="cls-5" d="M42.27,72.37c2.39,2.13,11-.92,11-.92s8.83,5.49,15.77,3.46c6.21-1.82,13.25-24.5,13.77-23.72,4,5.91-1.89,22.75-6.31,28.63S75.05,105,75.05,105l-9.71-2.54C63.75,88.66,57.42,75.8,53,75.26S44.08,85,44.47,97l-1.18-.31.5-22.48A5.89,5.89,0,0,1,42.27,72.37Z"/><path class="cls-8" d="M42.91,73.34a9.37,9.37,0,0,0,3.71.47c-2.16,1.24-2.29,4.64-3.24,19l.41-18.62A10.12,10.12,0,0,1,42.91,73.34Z"/><path class="cls-2" d="M69.84,47.74a77.66,77.66,0,0,1-1.26-15.38L55.17,35.1l-2.2,12Z"/><path class="cls-9" d="M79.47,107.64C67.64,96.73,43.29,89.57,41.19,90s-1.69,5.89-1.69,5.89l2.74,1.82s-9.68,14.42-10.94,38,1.05,63.15,1.05,63.15h1.21S40,179.33,43.5,176.44c4.13-3.45,5.68-7,5.68-15.94s2.53-26.2,2.53-26.2l4.31.31s14.2,42.23,18.19,48.32,9.67,15.89,9.67,15.89h1.9s.11-29.19-.74-38.12-6.63-28-8-34.62C73.69,109.83,81.4,109.43,79.47,107.64Z"/><path class="cls-10" d="M39.09,177.86c10.3-3.45,11.15-42,11.15-42l-7.37-7.1c5.26,2,19.77,3.65,19.77,3.65l-5.88,3s15.77,39.19,20.82,48.12,3.57-13.6,4-20.91S72,122.52,70.22,118.87C68,114.34,48.37,103.18,41,99.8l1.25-2.11L39.5,95.87s0-.54,0-1.29c9.63,3.14,30.83,14,32.17,14.18,1.81.31,3.41.87,4-2,.42-1.86-5.21-5.12-17.28-11.53,7.4,3.07,15.58,7.32,21.07,12.38,1.93,1.79-4.21,2.24-.85,18.48,1.37,6.58,6.74,25.79,7.58,34.73s-.42,38-.42,38h-1.9s-6.52-8.12-10.51-14.22-18.09-48.53-18.09-48.53l-2.53-.2S50,152.11,50,161.05s-1.76,13-5.89,16.45c-3.47,2.89-10.57,21.32-10.57,21.32H32.35s-.82-14.07-1.22-30.42C33,174.66,35.55,179,39.09,177.86Z"/><path class="cls-2" d="M32.46,205.21H14.32c1.42-2.13,11.36-2.43,13.67-4,1.48-1,3.84-5.49,3.84-5.49l2.5,1.12C32.93,200.8,34.19,203.54,32.46,205.21Z"/><path class="cls-2" d="M82.46,205.21h17c-1.26-2.13-10.1-2.43-12.16-4-1.32-1-1.84-5.49-1.84-5.49l-2.22,1.12C84.49,200.8,80.92,203.54,82.46,205.21Z"/><path class="cls-2" d="M94.29,91.15c.5-12.9-9.94-38.79-11.46-40s-8.78,19-7.36,27.27,9.57,17.46,12.41,19S94.14,95.26,94.29,91.15Z"/><path class="cls-5" d="M78.15,60.47A27.14,27.14,0,0,0,77.47,70c1.42,8.23,9.41,21.67,12.25,23.2,1.63.87,3.37-.47,4.58-2.55,0,.15,0,.31,0,.47-.15,4.11-3.31,9.29-6.15,7.76s-12-11.11-13.41-19.34C74,75.15,75.93,66.93,78.15,60.47Z"/><path class="cls-2" d="M101.8,121.34C101.11,107,99.71,99.78,98.51,95S93,86,90.49,84.78c-2.92-1.37-5.67,5.45-5.5,8s-.7,7.91,2,13.9c1.43,3.21,12.18,17.66,12.18,17.66Z"/><path class="cls-5" d="M84.1,92.62c-.06-.87,0-4,1.64-3.46.57,4.38,1.94,12.37,4.06,17.12,1.14,2.57,8.25,12.34,11,16.14l-1.71,1.93s-11.32-14.19-12.75-17.41C83.72,101,84.27,95.18,84.1,92.62Z"/><g class="cls-11"><path class="cls-12" d="M41.13,75.51c-.79,4.48-5.73,8.68-9.47,9,0-.28.08-.56.12-.84a10.8,10.8,0,0,0,7-8.37,9.73,9.73,0,0,0-2.69-8.84l.27-.82C39.29,66.52,41.83,71.62,41.13,75.51Z"/><path class="cls-12" d="M37.35,74.85a8,8,0,0,1-5.09,5.87l.12-.62a7.34,7.34,0,0,0,3.85-5.26,6.65,6.65,0,0,0-1.15-5.17c.06-.21.13-.42.19-.63A6.29,6.29,0,0,1,37.35,74.85Z"/></g><g class="cls-11"><path class="cls-12" d="M71.18,46.28c.77.22,1.55.45,2.33.7-5.06,5.15-4.42,11.38-1.09,15.34,3.47,4.14,9.88,5.81,15.78,1.2.25.71.5,1.44.75,2.18C76.84,72.44,61.62,59.88,71.18,46.28Z"/><path class="cls-12" d="M80.2,61.47a6.27,6.27,0,0,1-5.46-7.56,7.52,7.52,0,0,1,3.82-5.16c2.14.87,3.79,1.73,4.27,2.44.5.39,2,3.42,3.66,7.78A7.38,7.38,0,0,1,80.2,61.47Z"/></g><path class="cls-5" d="M57.86,78.78c2.25,4.43,2.43,13.94,1.48,16.1,0,0,2.09-2.86,1.36-9.9A11.1,11.1,0,0,0,57.86,78.78Z"/><path class="cls-5" d="M47.43,90.4c-1.31-4.35.48-12.5,1.85-14.1,0,0-2.65,1.9-3.38,8.09A9.45,9.45,0,0,0,47.43,90.4Z"/><path class="cls-5" d="M50.58,89.2c0-.26.56-.36,1.36-.22s1.48.47,1.53.72-.56.36-1.36.22S50.62,89.45,50.58,89.2Z"/><path class="cls-8" d="M56.89,74.42c-1.11-.49-3.79-2-3.79-2l-4.22,1.41A11.22,11.22,0,0,1,56.89,74.42Z"/><path class="cls-5" d="M65.71,72.9c0-.43.71-.76,1.62-.74S69,72.57,69,73s-.71.77-1.62.74S65.73,73.34,65.71,72.9Z"/><path class="cls-5" d="M42.89,70.82c0-.43.71-.76,1.62-.74s1.67.41,1.69.84-.71.77-1.62.74S42.91,71.26,42.89,70.82Z"/><path class="cls-5" d="M54.39,61.15c0,2.18-.46,10.54-1,10.61C51.66,72,54.39,61.15,54.39,61.15Z"/><path class="cls-5" d="M60.12,50.44c6,.76,9.15-.31,9.23-1.3S60.12,50.44,60.12,50.44Z"/><path class="cls-5" d="M57.54,50.53c-4.28.59-6.53-.24-6.59-1S57.54,50.53,57.54,50.53Z"/><path class="cls-2" d="M65.64,84.17c4.26,3,6.37,4.45,4.58,4.34C67.77,88.36,65.64,84.17,65.64,84.17Z"/><path class="cls-2" d="M66.75,87.72c3.16,2.37,4.73,3.47,3.4,3.38C68.33,91,66.75,87.72,66.75,87.72Z"/><path class="cls-9" d="M83.46,199.44c-1.35-.83-4.14-3.12-3.78-4.37a2.85,2.85,0,0,1,1.74-2.14l1.21,1.38-.27-1.83c.9-.76,4.79-.15,4.79-.15a20.39,20.39,0,0,1-1,6.34Z"/><path class="cls-9" d="M33.82,198.69c1.49-.88,4.6-3.35,4.25-4.77a3.09,3.09,0,0,0-1.79-2.45L34.92,193l.35-2c-.93-.89-5.17-.34-5.17-.34s-.19,4.46.78,7.14Z"/><path class="cls-10" d="M42,153.8s6.1,8.12,5.16,17l-5.47,6.3C45.92,166.28,42,153.8,42,153.8Z"/><path class="cls-10" d="M67.9,144.56c5.37,11.87,3.26,19,5.79,36.34l-6-15.23C70.85,160.19,67.9,144.56,67.9,144.56Z"/><path class="cls-10" d="M75.5,110.29l-11.44-3.66C60,100.77,46.55,93.84,46.55,93.84,54.13,96.2,67.61,103.89,75.5,110.29Z"/><g class="cls-13"><path class="cls-14" d="M70,110.53l6-5.76c.43.32.88.64,1.3,1l.18.15c.72.57,1.41,1.16,2.06,1.75,1.38,1.28-1.36,1.88-1.81,8l-1.18,1.14Z"/><path class="cls-14" d="M62.27,103.09,66.5,99l.21.1.25.13c.84.44,1.68.9,2.5,1.36l.34.19c.8.46,1.59.93,2.37,1.42l.35.22c.7.44,1.38.89,2,1.36l-5.79,5.59Z"/><path class="cls-14" d="M54.57,95.66,56,94.3l2.41,1h0c1.84.77,3.72,1.6,5.6,2.5l.06,0,.88.44L61.08,102Z"/><path class="cls-14" d="M51.43,92.63c.91.31,1.87.65,2.85,1l-.9.87Z"/><path class="cls-14" d="M79.72,130.84c.56,2.31,1.24,5,2,7.93l-5.08-4.91Z"/><path class="cls-14" d="M68.89,126.43l7.36-7.11,1.53,1.48c.16,1.56.43,3.32.84,5.32.17.79.39,1.75.65,2.85l-3.87,3.74Z"/><polygon class="cls-14" points="61.19 119 68.55 111.89 75.06 118.17 67.7 125.28 61.19 119"/><polygon class="cls-14" points="53.5 111.56 60.86 104.46 67.36 110.74 60.01 117.85 53.5 111.56"/><polygon class="cls-14" points="45.8 104.13 53.16 97.03 59.67 103.31 52.31 110.42 45.8 104.13"/><path class="cls-14" d="M44.61,103,41.1,99.6c.7-1.24,1.14-1.91,1.14-1.91L39.5,95.87v-.13a1,1,0,0,1,0-.18v-.19l5-4.84c.79.19,1.69.44,2.69.73L52,95.88Z"/><path class="cls-14" d="M41.19,90a4.56,4.56,0,0,1,1.37.12l-3,2.89C39.73,91.6,40.16,90.18,41.19,90Z"/><path class="cls-14" d="M85.35,155.13c.33,1.78.59,3.43.76,4.86l-2.9-2.8Z"/><path class="cls-14" d="M75.51,149.76l7.16-6.91c.84,3.51,1.66,7.09,2.3,10.34L82,156Z"/><polygon class="cls-14" points="81.68 141.51 74.32 148.61 67.81 142.33 75.17 135.22 81.68 141.51"/><polygon class="cls-14" points="73.98 134.08 66.63 141.18 60.12 134.9 67.48 127.79 73.98 134.08"/><polygon class="cls-14" points="66.29 126.65 58.93 133.75 52.42 127.47 59.78 120.36 66.29 126.65"/><polygon class="cls-14" points="52.08 112.93 58.59 119.22 51.23 126.32 44.72 120.04 52.08 112.93"/><polygon class="cls-14" points="43.53 118.89 37.03 112.61 44.38 105.5 50.89 111.78 43.53 118.89"/><path class="cls-14" d="M36,111.33a77.36,77.36,0,0,1,4.17-9.93l3.06,2.95Z"/><path class="cls-14" d="M86.48,168.89c0,2.59,0,5.45,0,8.35l-4.3-4.15Z"/><path class="cls-14" d="M74.43,165.66l7.36-7.1L86.34,163c0,1.09.09,2.32.11,3.67L80.94,172Z"/><polygon class="cls-14" points="80.6 157.41 73.25 164.51 66.74 158.23 74.1 151.13 80.6 157.41"/><path class="cls-14" d="M72.91,150l-7.36,7.1-4.63-4.47c-.33-.92-.64-1.83-1-2.71l6.43-6.2Z"/><path class="cls-14" d="M51.67,143.06c0,.18-.05.36-.08.55l-.25-.24Z"/><path class="cls-14" d="M65.21,142.55l-5.83,5.63c-1.35-3.94-2.49-7.29-3.22-9.46l2.54-2.46Z"/><path class="cls-14" d="M43.65,135.94,51,128.83l6.51,6.29L55.58,137l-.3-.91-2.53-.2s-.3,1.8-.7,4.52l-1.9,1.83Z"/><polygon class="cls-14" points="35.95 128.51 43.31 121.4 49.82 127.69 42.46 134.79 35.95 128.51"/><path class="cls-14" d="M42.12,120.25l-7.36,7.11-2.28-2.21a88,88,0,0,1,2.43-10.5l.7-.68Z"/><path class="cls-14" d="M86.28,184c-.09,3.71-.21,7.15-.31,9.79L81.05,189Z"/><path class="cls-14" d="M73.36,181.56l7.36-7.1,5.66,5.46c0,.56,0,1.12,0,1.68l-6.47,6.25Z"/><path class="cls-14" d="M79.53,173.31l-7.36,7.11L70.68,179c-.85-2-1.79-4.4-2.78-7L73,167Z"/><path class="cls-14" d="M71.83,165.88l-4.56,4.41c-1.11-2.95-2.26-6.12-3.4-9.29l1.45-1.4Z"/><path class="cls-14" d="M63.26,159.29l-.9-2.55,1.77,1.71Z"/><path class="cls-14" d="M42.57,151.84l7.36-7.1L51.27,146c-.46,3.55-.9,7.53-1.11,11.05l-1.08,1Z"/><polygon class="cls-14" points="34.87 144.41 42.23 137.3 48.74 143.59 41.38 150.69 34.87 144.41"/><path class="cls-14" d="M41,136.16l-7.36,7.1-2.58-2.5c0-1.75.11-3.47.2-5.09.05-1,.13-1.93.21-2.87l3-2.93Z"/><path class="cls-14" d="M31.76,130.25c.11-.92.22-1.83.35-2.72l1.24,1.2Z"/><path class="cls-14" d="M85.87,196.38l0,.55-1.95,1.89h0s-2.61-3.26-5.55-7.2l1.31-1.26Z"/><path class="cls-14" d="M77.34,190.28c-1.39-1.89-2.79-3.87-4-5.68-.13-.19-.27-.43-.42-.7l5.5,5.31Z"/><path class="cls-14" d="M48.85,160.64,50,161.76c-.06,5.48-.83,9.07-2.46,11.82l-6.06-5.84Z"/><polygon class="cls-14" points="41.15 153.21 47.66 159.49 40.3 166.59 33.8 160.31 41.15 153.21"/><path class="cls-14" d="M40,152.06l-7.36,7.1L31,157.57c0-3.16,0-6.31,0-9.37l2.51-2.43Z"/><path class="cls-14" d="M31,145.87c0-.82,0-1.65,0-2.45l1.25,1.21Z"/><path class="cls-14" d="M32.72,176.21l7.36-7.1,6.33,6.11a16.93,16.93,0,0,1-2.28,2.28A7.92,7.92,0,0,0,42.86,179l-3.63,3.51Z"/><path class="cls-14" d="M38.89,168l-7.36,7.1-.21-.2,0-.8c0-.27,0-.54,0-.81q0-.92-.06-1.86c0-.26,0-.53,0-.79,0-.49,0-1,0-1.46,0-2-.09-4.08-.12-6.16l1.35-1.3Z"/><path class="cls-14" d="M31,160.73v-.4l.21.2Z"/><path class="cls-14" d="M32,192a1,1,0,0,1,0-.17L39,185l.35.33c-1.67,3.46-3.29,7.29-4.39,10L32,192.48C32,192.31,32,192.13,32,192Z"/><path class="cls-14" d="M31.89,189.58a1.34,1.34,0,0,1,0-.2l0-.7c0-.4,0-.82-.06-1.25,0-.27,0-.55,0-.83s0-.66,0-1,0-.76-.05-1.14l0-.94c0-.29,0-.58,0-.88,0-.48,0-1-.05-1.45,0-.3,0-.6,0-.9,0-.47,0-.93-.05-1.41s0-.71,0-1.07v-.14l6.4,6.18Z"/></g><path class="cls-3" d="M78.18,113.56C72.69,110.7,41.9,97.42,41.9,97.42l-.08.84,36,17.89S79.37,114.71,78.18,113.56Z"/><path class="cls-3" d="M57.07,105.06l1,.41c4,8.83,2.84,21.22,2.84,21.22l-2.84-.82S60.33,111.15,57.07,105.06Z"/><path class="cls-3" d="M56.31,104.45l-1.19-.16c-6.36,6.19-8.33,18.31-8.33,18.31l3.13.7S51.4,108.46,56.31,104.45Z"/><path class="cls-5" d="M98.51,95c.26,1,.53,2.23.81,3.56-3.72-8.18-7.36-11.92-12-14.42,0,0,4.41,2,6.38-.23.2,1.3.36,2.56.46,3.75A17.39,17.39,0,0,1,98.51,95Z"/><path class="cls-15" d="M54.28,67.89a7.61,7.61,0,0,0-2-1.41c-.64-.28-1.35-.38-2-.62a9.36,9.36,0,0,1-3.15-2.29,97.63,97.63,0,0,1-7.08-7.74,45,45,0,0,1,2.65-5.55,3.36,3.36,0,0,1,.68-.86,16.89,16.89,0,0,1,6.05-2.63l4.29,6.1a6.75,6.75,0,0,1,1.16,2.16c.19.73.12,1.49.24,2.24a9.86,9.86,0,0,0,2.23,4.2A147.59,147.59,0,0,1,74.13,89.94v.18C69.51,81.4,61.8,74.52,54.28,67.89Z"/><g class="cls-16"><path class="cls-17" d="M46.24,47.85a40.94,40.94,0,0,1,6.95-1.93l2-10.82,13.41-2.74a74.31,74.31,0,0,0,1,13.47c3.86,1,12.3,3.41,13.87,6.2C75.26,64.07,46.32,55.84,46.24,47.85Z"/></g><path class="cls-18" d="M56.46,3C61.38-1.7,71.76.9,71.76.9c-3.17.87,0,5.39,0,5.39,1-1.74,5.8-3.65,5.8-3.65s-4,4.69-1.41,6.26,8.62-3.13,8.62-3.13-2.11,3.48-1,4.87S92,6.29,92,6.29s-3.34,7.13-6.5,8.69.35,3.65.35,3.65c-1.41,1.74-10.55,4-7.56,4.87s5.45,3.82,3,3.82-3.87,6.26-3.87,6.26-4.58-1.91-7.22,1.22L52.06,19.33C51.18,12,51.53,7.68,56.46,3Z"/><path class="cls-19" d="M56.33,2.62C60.72-1.56,69.75.41,71.62.82c-9.79,4.28-10.16,16.65-8.26,28l-11.48-9.4C51,12.07,51.41,7.31,56.33,2.62Z"/><path class="cls-18" d="M65,2.57c-1.68,2.23-2.94,7.81-1.37,13L60.33,14C59.54,5.56,65,2.57,65,2.57Z"/><path class="cls-18" d="M56.34,4.9c-1.67,2.11-3.13,9.22-1,15.52L53,19.49C51.22,9.09,56.34,4.9,56.34,4.9Z"/><path class="cls-2" d="M70.16,15.3c-.63,7.16-2.68,21.32-4.26,23.3s-14.51,3.66-15.3,1.68-1-23.3,5.2-26.35S70.16,15.3,70.16,15.3Z"/><path class="cls-20" d="M69.08,24.41c-.31,2.2-.67,4.42-1,6.43L58.33,19.72l5.32,14.59L61.48,36,55.13,23.86l.44-4-1.87,2-1.63-2.2s1.19-4.42,3.73-5.71A13,13,0,0,1,64,13.19Z"/><path class="cls-19" d="M71.58,15.91c-1.74,16.6-1.26,25.54-1.26,25.54l-5,.66L64,43.33,62.27,42l-1.1,2.9-.79-3.05-2.05,2.74L58,41.8l-2.68,3.05-2.84-2.13-5.2,3L50,31.45s11.45-1,13.5-2.1,6.43-16.6,6.43-16.6Z"/><path class="cls-18" d="M65.24,34.85a39.29,39.29,0,0,0,3.89-19.48,10.66,10.66,0,0,1,.67-3.87L72.37,16c-1.73,16.6-2.05,25.43-2.05,25.43l-5,.66L64,43.33,62.27,42S63.86,37.67,65.24,34.85Z"/><path class="cls-21" d="M53.63,21.6c0,.92.52,3.74-.76,3.74s-1.31-2.62-1.31-3.86Z"/><path class="cls-22" d="M55.27,20.37S47.71,31.1,48,31.76c.16.39,5.53-.66,5.53-.66Z"/><path class="cls-2" d="M55.15,21.35s-6.81,9.29-6.54,10c.15.39,5.52-.66,5.52-.66Z"/><path class="cls-21" d="M60.79,32.46c1.89,1.54,1,4.59.45,4.53s-4.4-2.79-8.62-2.79l-.29-1.31S58.9,30.93,60.79,32.46Z"/><path class="cls-23" d="M59.79,32.66c1.56,1.26,1.13,3.58.64,3.53s-3.89-2.11-7.38-2.11L52.82,33S58.24,31.39,59.79,32.66Z"/><path class="cls-21" d="M58,33.48l2-.15L60,32.62a4,4,0,0,1,1.13,3.25l-.74-1.75Z"/><path class="cls-2" d="M70.08,22.81c.83-2.39,4.59-1.19,4.42,1.1s-3.84,5.48-5,4.6S69.61,24.16,70.08,22.81Z"/><path class="cls-21" d="M60.09,21.6c0,.92.58,3.74-.84,3.74s-1.44-2.62-1.44-3.86Z"/><path class="cls-19" d="M54.12,19.1c.26,0,.48.24.5.6a7.26,7.26,0,0,1,0,1.29c0,.46-.35.81-.67.8l-3-.07a.5.5,0,0,1-.4-.3,1,1,0,0,1-.07-.66A1.85,1.85,0,0,1,51,19.61,14.48,14.48,0,0,1,54.12,19.1Z"/><path class="cls-19" d="M56.8,19a.74.74,0,0,0-.75.6,6.31,6.31,0,0,0-.19,1.27.82.82,0,0,0,.7.86l4.53.41a1.09,1.09,0,0,0,.81-.26,1,1,0,0,0,.31-.77,1.63,1.63,0,0,0-.71-1.43A26.72,26.72,0,0,0,56.8,19Z"/><path class="cls-22" d="M70.75,23.74c.5-1.44,2.76-.72,2.66.66s-2.31,3.3-3,2.78S70.46,24.55,70.75,23.74Z"/><path class="cls-2" d="M70.56,25.43c.32-.91,1.76-.46,1.7.42S70.79,28,70.32,27.62,70.38,26,70.56,25.43Z"/><polygon class="cls-24" points="101.22 133.62 81.2 182.04 76.22 185.87 76.91 174.16 98.06 131.34 101.22 133.62"/><polygon class="cls-25" points="101.22 133.62 81.2 182.04 76.22 185.87 99.96 132.71 101.22 133.62"/><path class="cls-3" d="M107.71,122.18a2.69,2.69,0,0,1-3.36,1.7,2.57,2.57,0,0,1-1.76-3.24,2.69,2.69,0,0,1,3.36-1.7A2.57,2.57,0,0,1,107.71,122.18Z"/><polygon class="cls-3" points="104.34 120.59 106 122.26 101.79 132.59 99.27 131.19 104.34 120.59"/><polygon class="cls-3" points="104.04 133.4 103.15 135.47 96.11 131.02 97.27 129.13 104.04 133.4"/><path class="cls-26" d="M106.53,121.82a1.46,1.46,0,0,1-1.81.92,1.39,1.39,0,0,1-1-1.74,1.46,1.46,0,0,1,1.81-.92A1.39,1.39,0,0,1,106.53,121.82Z"/><path class="cls-2" d="M95.16,118.64s2.43,3.43,2.51,4.61a32.37,32.37,0,0,0,1.41,6.28c.22.78,4.16,2.49,5.62,2.91,0-1,4-7.14,4-7.14a22.93,22.93,0,0,0-3.57-5.16,15.09,15.09,0,0,1-3.92-7.81C100.85,109.9,95.16,118.64,95.16,118.64Z"/><path class="cls-2" d="M103,128c-1-.1-1.78,1.68-1.36,2.09s2.58,3.28,3.32,3,1.71-1.59,1.47-2.07S103.83,128.07,103,128Z"/><path class="cls-2" d="M104.31,125.42c-1-.1-1.78,1.68-1.35,2.09s2.57,3.28,3.31,3,1.71-1.59,1.47-2.07S105.16,125.49,104.31,125.42Z"/><path class="cls-2" d="M105.9,123.08c-1-.06-1.83,1.63-1.44,2s2.33,3,3.07,2.7,1.75-1.53,1.55-2S106.72,123.13,105.9,123.08Z"/></g></g></g></svg>