<svg xmlns="http://www.w3.org/2000/svg" viewBox="0 0 174.38 215.4"><defs><style>.cls-1{isolation:isolate;}.cls-2{fill:#d87a35;}.cls-3{fill:#d13d6b;}.cls-4{fill:#a58c7e;}.cls-5{fill:#59473d;}.cls-6{fill:#6b323d;}.cls-7{fill:#ef9b3f;}.cls-8{fill:#5e3f42;}.cls-9{fill:#4c3034;}.cls-10{fill:#ce6225;}.cls-11{fill:#382427;}.cls-12{fill:#894c55;}.cls-13{fill:#44272d;}.cls-14{fill:#9e8e85;}.cls-15{fill:#512f35;}.cls-16{fill:#c1b4a0;}.cls-17{fill:#843131;opacity:0.6;mix-blend-mode:multiply;}.cls-18{fill:#e5b751;}.cls-19{fill:#ffc7a1;}.cls-20{fill:#7a5841;}.cls-21{fill:#eaa373;}.cls-22{fill:#84736b;}.cls-23{fill:#7f6d62;}.cls-24{fill:#66564e;}.cls-25{fill:#eddfcc;}.cls-26{fill:#9bb2af;}</style></defs><g class="cls-1"><g id="Warstwa_2" data-name="Warstwa 2"><g id="_11" data-name="11"><path class="cls-2" d="M80.19,114.11a11.67,11.67,0,0,1-3.45-.59,35,35,0,0,0-6.33-2.44c-.77-.2-3.28,2.31-4,3.34.89.48,5.47,7,5.47,7a17.84,17.84,0,0,0,5.55-.46c.64-.22,2.59.22,4.19.1C83.79,120.9,80.19,114.11,80.19,114.11Z"/><path class="cls-3" d="M140.8,37.56C153,21.36,163,0,163,0s-23.35,31.88-25.22,35.15-.8,6.17-.45,6.17S140,38.69,140.8,37.56Z"/><polygon class="cls-4" points="138.85 48.35 137.37 41.33 129.83 42.8 138.85 48.35"/><path class="cls-5" d="M112.19,54.9l-4.6,26s12.28,2.33,18.12,1.16L128,61Z"/><path class="cls-6" d="M110.79,88.06c-6.89,8.21-9.11,27.37-16.55,29.53-2.86.84,7.09,10.28,9.2,9.35s10.39-5.14,12.49-9.69S113.83,84.44,110.79,88.06Z"/><polygon class="cls-2" points="114.29 121.57 115.11 109.77 100.63 103.47 96.91 113.45 114.29 121.57"/><path class="cls-7" d="M97.61,111.57a12.94,12.94,0,0,1,4.17,1.36c2.92,1.5,4.86,3.62,4.66,5l-9.53-4.45Z"/><path class="cls-8" d="M116.4,118.06l-19.26-10S104,87.36,114.8,84.16C114.8,84.16,121.48,98,116.4,118.06Z"/><path class="cls-9" d="M103.08,111.24c2-10.52,6.31-18.48,11-18.48a4.93,4.93,0,0,1,3.66,2,59.13,59.13,0,0,1-1.3,23.27Z"/><polygon class="cls-2" points="110.06 124.97 141.15 132.43 141.62 138.26 108.57 130.91 110.06 124.97"/><path class="cls-10" d="M123.14,131.23c-4.85-1.18-9.29-1-11.41.38l-3.16-.7,1.49-5.94,31.09,7.46.47,5.83-8.93-2C131.15,134.29,127.56,132.32,123.14,131.23Z"/><rect class="cls-11" x="103.79" y="142.64" width="36.78" height="28.72" transform="translate(210.64 335.19) rotate(-168.51)"/><path class="cls-12" d="M174.21,215.4h-7.48s-.61-3.81.37-4.19S171.42,213.67,174.21,215.4Z"/><path class="cls-12" d="M66.78,215.4H80.16s1.09-3.82-.65-4.19S71.77,213.67,66.78,215.4Z"/><path class="cls-12" d="M151,167s13.78,36.43,18,45.77h-.7L136,171.42Z"/><path class="cls-6" d="M154.73,195.43l-18.72-24L151,167s3.73,9.87,7.91,20.65A22.43,22.43,0,0,0,154.73,195.43Z"/><path class="cls-12" d="M107.21,167.17s-23.13,36.51-27.85,45.59l-.88-.5L94.27,160Z"/><path class="cls-6" d="M89.74,175l4.53-15,12.94,7.15s-7.64,12.05-15,24A78.5,78.5,0,0,0,89.74,175Z"/><path class="cls-8" d="M157,176.8c-15.41,7-38.77.23-38.77.23l1.17-29.66-1.31-.65-8.5,28.44L90,166.29l17.51-37.6,35.5,8.87Z"/><path class="cls-9" d="M137.27,136.13l5.75,1.43,14,39.24a33.22,33.22,0,0,1-6.53,2.11C150.5,165.06,144.62,147.51,137.27,136.13Z"/><path class="cls-9" d="M93.61,167.92,90,166.29l17.51-37.6,5.29,1.32C104.71,138.07,96.64,153.55,93.61,167.92Z"/><path class="cls-7" d="M91.5,163.08l16.24,7.43,8.57-26.75,5,1v30.3s19.32,4.48,34.53-1.56l1.54,3.33c-15.41,7-39.54.52-39.54.52L119,147.82l-.81-.22L110,175.83l-20.54-8.94Z"/><path class="cls-8" d="M142.73,132.6c-15-.82-33.81-5.78-33.81-5.78s-2.32-33.54,1.65-39.26,17-6.84,19.49-6.37,13.07,6.17,14.24,8.5S144.3,127.58,142.73,132.6Z"/><path class="cls-9" d="M136.17,128.73c1.3-4.16,2.38-34.86,5.32-36.95,1.43,1,2.83-.46,3.16.19,1.16,2.34,0,35.88-1.59,40.9-15-.82-34.14-6.05-34.14-6.05s0-.55-.09-1.52A183.13,183.13,0,0,0,136.17,128.73Z"/><path class="cls-13" d="M112.06,90.63l23.23.94-.46,35.26-24.17-3.39S110.65,100,112.06,90.63Z"/><path class="cls-14" d="M119.57,111.7l3.82.15c0,1.28,0,2.52-.07,3.69l-3.82-.27C119.52,114.12,119.54,112.93,119.57,111.7Z"/><path class="cls-14" d="M124,115.59c0-1.19,0-2.43.07-3.71l4.75.19c0,1.34,0,2.64,0,3.86Z"/><path class="cls-14" d="M111.55,111.37l3.1.12c0,1.2,0,2.35-.06,3.43l-3.1-.22C111.5,113.65,111.52,112.53,111.55,111.37Z"/><path class="cls-14" d="M115.36,111.52l3.51.15c0,1.23-.05,2.42-.07,3.55l-3.51-.25C115.31,113.87,115.33,112.72,115.36,111.52Z"/><path class="cls-14" d="M119.23,101.14l-3.49-.14c.07-1.42.16-2.8.25-4.1l3.48.14C119.38,98.34,119.3,99.72,119.23,101.14Z"/><path class="cls-14" d="M119.92,92.29c-.14,1.15-.27,2.47-.38,3.91l-3.48-.14c.11-1.44.24-2.76.39-3.91Z"/><path class="cls-14" d="M115.27,96.87c-.09,1.3-.18,2.68-.25,4.1l-3.09-.13c.08-1.42.17-2.81.27-4.09Z"/><path class="cls-14" d="M124.05,96.38l-3.79-.15c.11-1.43.24-2.75.38-3.91l3.78.15C124.28,93.62,124.16,95,124.05,96.38Z"/><path class="cls-14" d="M114.81,106l-3.1-.12c.05-1.4.11-2.81.18-4.18l3.09.13C114.91,103.19,114.86,104.59,114.81,106Z"/><path class="cls-14" d="M124.12,111c0-1.25.06-2.52.11-3.8l4.68.19c0,1.28,0,2.56-.06,3.81Z"/><path class="cls-14" d="M111.68,106.71l3.1.13c0,1.29-.08,2.57-.11,3.81l-3.1-.13C111.6,109.28,111.64,108,111.68,106.71Z"/><path class="cls-14" d="M118.89,110.82l-3.51-.14c0-1.25.07-2.53.11-3.81l3.5.14C119,108.3,118.92,109.58,118.89,110.82Z"/><path class="cls-14" d="M119.73,106.2c0-1.41.11-2.81.18-4.18l3.8.15c-.07,1.38-.12,2.78-.17,4.18Z"/><path class="cls-14" d="M124,97.23c-.09,1.3-.17,2.68-.24,4.1l-3.8-.16c.07-1.42.15-2.8.25-4.1Z"/><path class="cls-14" d="M123.41,111l-3.82-.15c0-1.25.07-2.53.11-3.81l3.81.16C123.47,108.48,123.44,109.76,123.41,111Z"/><path class="cls-14" d="M128.92,106.57l-4.66-.19c0-1.4.1-2.81.17-4.18l4.61.19C129,103.76,129,105.17,128.92,106.57Z"/><path class="cls-14" d="M119.19,102c-.07,1.37-.12,2.78-.17,4.18l-3.5-.15c0-1.4.11-2.8.18-4.17Z"/><path class="cls-14" d="M123.92,124c0-.81,0-1.84,0-3l4.88.48c0,1.57,0,2.72,0,3.24Z"/><path class="cls-14" d="M129.31,96.6l-4.54-.19c.11-1.42.23-2.74.36-3.91l4.52.18C129.51,93.83,129.4,95.15,129.31,96.6Z"/><path class="cls-14" d="M115.27,115.82l3.52.24c0,1.29,0,2.47,0,3.5l-3.52-.35C115.24,118.19,115.25,117.05,115.27,115.82Z"/><path class="cls-14" d="M111.47,115.55l3.11.22c0,1.26,0,2.4,0,3.37l-3.11-.3C111.44,117.89,111.46,116.78,111.47,115.55Z"/><path class="cls-14" d="M123.31,116.38c0,1.34,0,2.55,0,3.62l-3.82-.38c0-1.06,0-2.24,0-3.51Z"/><path class="cls-14" d="M129.51,121.46l4.2.42-.05,3.43-4.13-.58C129.53,123.88,129.52,122.77,129.51,121.46Z"/><path class="cls-14" d="M114.53,120c0,1.63,0,2.62,0,2.62l.68.1c0-.68,0-1.59,0-2.65l3.52.34c0,1.33,0,2.31,0,2.82l-7.3-1s0-1,0-2.52Z"/><path class="cls-14" d="M130,96.63c.1-1.44.2-2.76.33-3.92l3.73.15L134,96.79Z"/><path class="cls-14" d="M119.43,120.47l3.83.38c0,1.41,0,2.46,0,3l-3.84-.53C119.41,122.55,119.42,121.59,119.43,120.47Z"/><path class="cls-14" d="M115.34,96l-3.07-.13c.12-1.46.27-2.79.44-3.9l3,.12C115.58,93.26,115.45,94.58,115.34,96Z"/><path class="cls-14" d="M134,101.74l-4.18-.17c.05-1.42.12-2.8.19-4.1l4.05.17Z"/><path class="cls-14" d="M124.47,101.36c.07-1.42.15-2.8.24-4.1l4.55.18c-.08,1.3-.14,2.68-.19,4.1Z"/><path class="cls-14" d="M129.76,102.42l4.2.17-.05,4.18-4.27-.17C129.67,105.19,129.71,103.79,129.76,102.42Z"/><path class="cls-14" d="M124,120.07c0-1.11,0-2.33,0-3.64l4.82.34c0,1.39,0,2.67,0,3.78Z"/><path class="cls-14" d="M129.51,120.62v-3.8l4.26.3-.05,3.91Z"/><path class="cls-14" d="M129.52,116c0-1.25,0-2.54,0-3.88l4.28.18-.05,4Z"/><path class="cls-14" d="M129.56,111.26q0-1.89.06-3.81l4.27.17,0,3.81Z"/><path class="cls-12" d="M157.35,97.31c7.64,7.9,15.36,24.41,16.31,27.05,1.59,4.39-3,8.75-5.16,7.75S148.31,114,146.24,107.39C144.83,102.89,154,93.82,157.35,97.31Z"/><path class="cls-6" d="M156.3,96.65c-3.81,1.65-8.18,7.18-7.17,10.38,2,6.32,18.27,22.82,21.65,25.17a2.64,2.64,0,0,1-2.49.6c-2.18-1-20-18.8-22-25.41C145,103.3,152.4,95.45,156.3,96.65Z"/><path class="cls-6" d="M157.35,97.31c5.11,5.28,10.26,14.42,13.39,20.68a15.41,15.41,0,0,0-9.34,8.59c-6-6.07-13.83-14.94-15.16-19.19C144.83,102.89,154,93.82,157.35,97.31Z"/><path class="cls-2" d="M169.46,112c-1.65-4.23-6.69-10.61-9.6-13.24l-8.67,19,4.51,5.42Z"/><path class="cls-7" d="M155.23,122.59c.27-1.79,2.62-4.7,6.11-7.32a21.46,21.46,0,0,1,7.83-4l.29.69-13.76,11.2Z"/><path class="cls-8" d="M150.39,121.2,168,103.92s-7.21-11.69-29.09-18.44C138.93,85.48,138.18,105.2,150.39,121.2Z"/><path class="cls-9" d="M139.22,91.52a38.29,38.29,0,0,0,2,6.15c3.46,8.33,9.39,15,15.13,17.72l-6.18,6.52C142.12,111.41,139.94,98.6,139.22,91.52Z"/><path class="cls-12" d="M102,117a7.28,7.28,0,0,0-5.38-2.74c-4.18-.18-10,0-18.82.22l.5,5.42c13.38,8.45,23.86,6.6,23.86,6.6C103.53,123.92,104.47,120.2,102,117Z"/><path class="cls-6" d="M101.5,124.28c.9-1.69,2.08-3.72,1.67-6.06,1.85,3.06.69,6.53-.59,8.93,0,0-10.92,1.24-24.3-7.21l-.22-2.36C91.05,125.43,101.5,124.28,101.5,124.28Z"/><path class="cls-15" d="M137.17,84.46,136.6,79H115.35l-1.06,5.48S123.61,90.44,137.17,84.46Z"/><path class="cls-16" d="M119.57,111.7l3.82.15c0,1.28,0,2.52-.07,3.69l-3.82-.27C119.52,114.12,119.54,112.93,119.57,111.7Z"/><path class="cls-16" d="M124,115.59c0-1.19,0-2.43.07-3.71l4.75.19c0,1.34,0,2.64,0,3.86Z"/><path class="cls-16" d="M118.81,114.71l-1.24-3.1,1.3.06C118.85,112.72,118.83,113.74,118.81,114.71Z"/><path class="cls-16" d="M119.23,101.14l-3.49-.14c.07-1.42.16-2.8.25-4.1l3.48.14C119.38,98.34,119.3,99.72,119.23,101.14Z"/><path class="cls-16" d="M116.06,96.06c.11-1.44.24-2.76.39-3.91l3.47.14c-.14,1.15-.27,2.47-.38,3.91Z"/><path class="cls-16" d="M115.27,96.87c-.09,1.3-.18,2.68-.25,4.1l-1.72-.07-1.19-3c0-.4.06-.81.09-1.19Z"/><path class="cls-16" d="M120.64,92.32l.43,0,1.59,4-2.4-.09C120.37,94.8,120.5,93.48,120.64,92.32Z"/><path class="cls-16" d="M114.86,104.81l-1.22-3,1.34.06C114.93,102.8,114.89,103.81,114.86,104.81Z"/><path class="cls-16" d="M124.23,107.23l2.83.11,1.55,3.88-4.49-.19C124.15,109.78,124.18,108.51,124.23,107.23Z"/><path class="cls-16" d="M118.89,110.82l-1.66-.07-1.55-3.87L119,107C119,108.3,118.92,109.58,118.89,110.82Z"/><path class="cls-16" d="M119.91,102l3.8.15c-.07,1.38-.12,2.78-.17,4.18l-3.81-.15C119.78,104.79,119.84,103.39,119.91,102Z"/><path class="cls-16" d="M120,101.17c.07-1.42.15-2.8.25-4.1l2.81.12.85,2.12c0,.66-.08,1.33-.11,2Z"/><path class="cls-16" d="M119.7,107l3.81.16c0,1.28-.07,2.56-.1,3.8l-3.82-.15C119.62,109.6,119.66,108.32,119.7,107Z"/><path class="cls-16" d="M124.43,102.2l.59,0,1.7,4.25-2.46-.1C124.3,105,124.36,103.57,124.43,102.2Z"/><path class="cls-16" d="M119.19,102c-.07,1.37-.12,2.78-.17,4.18l-3.5-.15c0-1.4.11-2.8.18-4.17Z"/><path class="cls-16" d="M128.83,121.4c0,1.57,0,2.72,0,3.24l-4.93-.69c0-.81,0-1.84,0-3Z"/><path class="cls-16" d="M123.31,116.38c0,1.34,0,2.55,0,3.62l-2.44-.24-1.34-3.37v-.28Z"/><path class="cls-16" d="M129.53,124.73c0-.85,0-2,0-3.27l3.32.33.85,2.14,0,1.38Z"/><path class="cls-16" d="M123.24,123.85l-.83-.11-1.23-3.1,2.08.21C123.25,122.26,123.24,123.31,123.24,123.85Z"/><path class="cls-16" d="M112.27,95.9c.12-1.46.27-2.79.44-3.9l3,.12c-.16,1.14-.29,2.46-.4,3.91Z"/><path class="cls-16" d="M124.49,100.91l.18.45h-.2C124.47,101.2,124.48,101.06,124.49,100.91Z"/><path class="cls-16" d="M128.82,120.55l-4.87-.48c0-1.11,0-2.33,0-3.64l4.82.34C128.81,118.16,128.82,119.44,128.82,120.55Z"/><path class="cls-16" d="M129.51,116.82l1.37.1,1.59,4-3-.29Z"/><path class="cls-16" d="M129.53,113.54l1,2.51-1-.07C129.52,115.19,129.53,114.37,129.53,113.54Z"/><path class="cls-17" d="M103.27,95c2.85-4.66,6.6-9.15,11-10.7l1-5.38H136.6l.57,5.51h0c.6.34,1.19.68,1.77,1h0a61,61,0,0,1,7.29,3.19,69.93,69.93,0,0,1-15.8,5.85C119.15,97.3,108.81,97.33,103.27,95Z"/><path class="cls-18" d="M138.78,40.81c10.42-5.47,18.33-16.59,18.33-16.59l1-7.77s-18.31,20.48-19.76,22.71S137.09,41.69,138.78,40.81Z"/><path class="cls-19" d="M129.47,63.77l-1.9,13.11s-8.84,5.1-15.38,1c0,0-.06-20.58,2.27-23.38S129.71,56.18,129.47,63.77Z"/><path class="cls-20" d="M113.06,63.39a15,15,0,0,1,3.08,1.09L112.65,64Z"/><polygon class="cls-4" points="137.8 43.34 139.61 40.53 136.85 39.01 135.08 41.77 137.8 43.34"/><polygon class="cls-7" points="123.11 130.53 123.85 132.97 122.07 133.85 118.9 133.11 118.54 131.44 120.3 129.86 123.11 130.53"/><path class="cls-7" d="M121.85,133.26l2-.29a18.7,18.7,0,0,1,.74,9.31l-4.51-.15S122.59,135.48,121.85,133.26Z"/><path class="cls-7" d="M120.48,132.7l-1.42-1.51a18.19,18.19,0,0,0-6.4,6.81l3.72,2.78S118.51,134,120.48,132.7Z"/><path class="cls-21" d="M116,60.74c-.74,2.12-4.87,8.52-4.87,8.52l3.89,1Z"/><path class="cls-19" d="M116.8,60.69c-.7,2-4.73,8.08-4.73,8.08l3.91,1Z"/><path class="cls-13" d="M114.59,70.1c.44.07,3.25.29,4,7.19-1.77-7.09-6.7-7.93-7.24-.93C111.48,70.74,113.6,70,114.59,70.1Z"/><polygon class="cls-13" points="115.84 62.32 122.52 63.55 122.52 61.38 115.97 61.04 115.84 62.32"/><polygon class="cls-13" points="111.92 60.22 115.87 61.18 115.3 62.29 111.73 62.04 111.92 60.22"/><path class="cls-21" d="M116.65,73.69a3.23,3.23,0,0,0-3-1.52l0,.88Z"/><path class="cls-20" d="M118,63.9A24.94,24.94,0,0,1,122.1,65l-4.63-.45Z"/><path class="cls-17" d="M128.21,69.63,113,60.25a19.78,19.78,0,0,1,1.12-5.17l13.71,6.64Z"/><path class="cls-14" d="M124.07,59.92l-1.28,23.93s11.48.62,17.32-.55l-1.4-16.65Z"/><path class="cls-22" d="M135,76c-2.56-6.29-6.94-10.82-11.15-12.14l.21-4,14.64,6.73,1.4,16.65a31.35,31.35,0,0,1-3.18.44A26.82,26.82,0,0,0,135,76Z"/><path class="cls-23" d="M139,68,110.44,53.49s10.16-17.06,24.25-9.17C149.18,52.43,139,68,139,68Z"/><path class="cls-24" d="M122.78,54.48c7.28,0,13.19-3.64,13.19-8.13a5,5,0,0,0-.21-1.38C148.65,53.24,139,68,139,68L110.44,53.49a27.06,27.06,0,0,1,1.67-2.37C114.51,53.15,118.39,54.48,122.78,54.48Z"/><polygon class="cls-16" points="110.44 51.83 109.13 54.28 139 68.85 139.88 67.3 110.44 51.83"/><path class="cls-25" d="M123.63,61.36l-14.5-7.08,1.31-2.45L124.08,59A21.43,21.43,0,0,1,123.63,61.36Z"/><path class="cls-6" d="M87.56,123.43a12.44,12.44,0,0,0-.88-9.15l-9.79-.11,3.67,6.19Z"/><path class="cls-7" d="M85.42,124.4s1.83-5.54-1-10.55l-11.3-.13,4.24,7.14Z"/><path class="cls-2" d="M83.19,117.93c.59-1.16.13-2.68-1.06-4.11l2.28,0c2.84,5,1,10.55,1,10.55l-8.07-3.54-1.28-2.14C79.23,120,82.29,119.7,83.19,117.93Z"/><polygon class="cls-11" points="166.41 215.4 167.99 212.94 4.85 46.34 4.01 47.16 166.41 215.4"/><path class="cls-22" d="M133.29,73.63a1.4,1.4,0,0,0,1.41-1.24s0,0,0,.06a1.46,1.46,0,0,1-1.42,1.74,2,2,0,0,1-1.86-1.74,2.08,2.08,0,0,1,0-.5A2,2,0,0,0,133.29,73.63Z"/><path class="cls-22" d="M130,73.45a1.41,1.41,0,0,0,1.41-1.24s0,0,0,.05A1.45,1.45,0,0,1,130,74a2,2,0,0,1-1.86-1.74,1.6,1.6,0,0,1,0-.49A2,2,0,0,0,130,73.45Z"/><path class="cls-22" d="M126.75,73.08a1.42,1.42,0,0,0,1.41-1.24.43.43,0,0,0,0,0,1.46,1.46,0,0,1-1.42,1.74,2,2,0,0,1-1.86-1.74,2,2,0,0,1,0-.49A2,2,0,0,0,126.75,73.08Z"/><path class="cls-22" d="M134.7,78.1a1.4,1.4,0,0,0,1.4-1.24s0,0,0,.06a1.46,1.46,0,0,1-1.42,1.74,2,2,0,0,1-1.86-1.74,1.4,1.4,0,0,1,0-.5A2,2,0,0,0,134.7,78.1Z"/><path class="cls-22" d="M131.41,77.92a1.41,1.41,0,0,0,1.4-1.24s0,0,0,.06a1.46,1.46,0,0,1-1.42,1.73,2,2,0,0,1-1.86-1.73,2.07,2.07,0,0,1,0-.5A2,2,0,0,0,131.41,77.92Z"/><path class="cls-22" d="M128.16,77.55a1.41,1.41,0,0,0,1.4-1.24s0,0,0,.06a1.46,1.46,0,0,1-1.42,1.73,2,2,0,0,1-1.86-1.73,1.39,1.39,0,0,1,0-.5A2,2,0,0,0,128.16,77.55Z"/><path class="cls-22" d="M135.51,81.72a1.55,1.55,0,0,0,1.41-1.34.43.43,0,0,1,0,.05,1.59,1.59,0,0,1-1.42,1.85,1.81,1.81,0,0,1-1.86-1.6,2.08,2.08,0,0,1,0-.5A1.8,1.8,0,0,0,135.51,81.72Z"/><path class="cls-22" d="M132.22,81.78a1.54,1.54,0,0,0,1.41-1.34s0,0,0,0a1.59,1.59,0,0,1-1.42,1.85,1.81,1.81,0,0,1-1.86-1.6,2.08,2.08,0,0,1,0-.5A1.8,1.8,0,0,0,132.22,81.78Z"/><path class="cls-22" d="M129,81.66a1.56,1.56,0,0,0,1.41-1.35s0,0,0,.06A1.58,1.58,0,0,1,129,82.21a1.79,1.79,0,0,1-1.86-1.6,2,2,0,0,1,0-.49A1.8,1.8,0,0,0,129,81.66Z"/><path class="cls-22" d="M132.92,70.12a1.4,1.4,0,0,0,1.41-1.24s0,0,0,.06a1.46,1.46,0,0,1-1.42,1.74,2,2,0,0,1-1.86-1.74,1.67,1.67,0,0,1,0-.5A2,2,0,0,0,132.92,70.12Z"/><path class="cls-22" d="M129.64,69.94A1.41,1.41,0,0,0,131,68.7s0,0,0,0a1.45,1.45,0,0,1-1.41,1.74,2,2,0,0,1-1.87-1.74,1.6,1.6,0,0,1,0-.49A2,2,0,0,0,129.64,69.94Z"/><path class="cls-22" d="M126.31,69.57a1.41,1.41,0,0,0,1.4-1.24s0,0,0,0a1.46,1.46,0,0,1-1.42,1.74,2,2,0,0,1-1.86-1.74,2,2,0,0,1,0-.49A2,2,0,0,0,126.31,69.57Z"/><polygon class="cls-26" points="18.41 61.1 17.65 55.03 0 42.43 12.32 60.61 18.41 61.1"/><path class="cls-4" d="M129.71,43.58c-.81,2-3.63,3.88-7.28,4.72a12.94,12.94,0,0,1-6.91-.11C118.4,45.38,123.66,41.6,129.71,43.58Z"/><path class="cls-23" d="M140.88,53.53a15,15,0,0,0-.14-2c3.35,6.77-1.81,14.69-1.81,14.69l-2.75-1.4A15.75,15.75,0,0,0,140.88,53.53Z"/><path class="cls-7" d="M79.07,115.56c-2.72-2.47-7.32-5.54-8.6-5.62s-1.88,1.77-2,2.66,2.68,3.77,3.26,4.14,1.65-.46,1.41-1.06-1.61-2.09-1.43-2.3a1.29,1.29,0,0,1,.59-.3S77.93,117.14,79.07,115.56Z"/><path class="cls-7" d="M70.83,115.19c.35-.84-1.08-2.37-1.56-2.21s-3.6.56-3.52,1.33,1,2.26,1.51,2.3S70.55,115.88,70.83,115.19Z"/><path class="cls-7" d="M72.84,117.63c.34-.85-1.08-2.37-1.56-2.22s-3.6.56-3.53,1.34,1,2.26,1.52,2.29S72.56,118.31,72.84,117.63Z"/><path class="cls-7" d="M74.56,120.16c.31-.84-1-2.39-1.45-2.24s-3.29.49-3.21,1.26,1,2.28,1.42,2.32S74.32,120.83,74.56,120.16Z"/><path class="cls-7" d="M146.54,146.37c1.14-.12,1.82,1.54,1.33,1.94s-3,3.17-3.81,2.92-1.75-1.45-1.46-1.92S145.61,146.47,146.54,146.37Z"/><path class="cls-7" d="M145.27,144c1.14-.12,1.82,1.54,1.33,1.94s-3,3.17-3.81,2.92-1.75-1.45-1.45-1.92S144.34,144.07,145.27,144Z"/><path class="cls-7" d="M143.7,141.81c1.11-.08,1.88,1.49,1.43,1.85s-2.74,2.89-3.52,2.64-1.8-1.4-1.55-1.83S142.81,141.88,143.7,141.81Z"/><path class="cls-7" d="M151.09,140.55c-3.41-1.49-5.12-2.24-6.87-1.74s-4.06,2.59-4.42,3.66,2.46,2.85,3.21,3,2.36-1.28,2.12-1.84-1.52-.92-1.24-1.24.75-.82.75-.82S149.27,142.85,151.09,140.55Z"/><path class="cls-12" d="M173.47,129.64c-2.08,3.21-7,5.65-20.22,12.7l-3.32-4.26c4.57-12.17,7.72-13.16,13.5-16S177.06,124.09,173.47,129.64Z"/><path class="cls-6" d="M167,120.06c-5.71,2.77-11.18,7.92-15.71,19.71l-1.31-1.69c4.57-12.17,8-15.38,13.8-18.19C165.41,119.08,167.63,119.73,167,120.06Z"/><path class="cls-6" d="M155.75,128s5.21,4.32,5.63,9.8l-8,5.16-1.81-7.34Z"/><path class="cls-7" d="M153.9,128.51s6.89,6.37,7.57,12.32L151,146l-4.27-6Z"/><path class="cls-2" d="M159,139.62a21.39,21.39,0,0,0,1.78-1.37,10.11,10.11,0,0,1,.67,2.58L151,146S156,141.67,159,139.62Z"/><path class="cls-7" d="M149.07,137.22s-2.35,2.76-3.36,3c-1.55.4-4.37,1-4.13,2.38,1.64,9.93,3.78,8,3.78,8a34.89,34.89,0,0,0,5.48-4.39c1.86-2.23,2.71-3.63,4.19-4.67C156.76,140.34,149.07,137.22,149.07,137.22Z"/></g></g></g></svg>