<svg xmlns="http://www.w3.org/2000/svg" viewBox="0 0 231.62 186.13"><defs><style>.cls-1{isolation:isolate;}.cls-2{fill:#dd5f33;}.cls-3{fill:#ef8354;}.cls-4{fill:#b71a2d;}.cls-5{fill:#ffcb57;}.cls-6{fill:#ffb345;}.cls-7{fill:#fca43a;}.cls-8{fill:#edd6ae;}.cls-9{fill:#e2c798;}.cls-10{fill:#f4e0b8;}.cls-11{fill:#e8d0a6;}.cls-12{fill:#7f363f;}.cls-13{fill:#662933;}.cls-14{fill:#9bb2af;}.cls-15,.cls-18,.cls-19{fill:#843131;}.cls-15{opacity:0.6;}.cls-15,.cls-18{mix-blend-mode:multiply;}.cls-16{fill:#472421;}.cls-17{fill:#ed353e;}.cls-18{opacity:0.27;}.cls-20{fill:#d8502b;}.cls-21{fill:#633028;}</style></defs><g class="cls-1"><g id="Warstwa_2" data-name="Warstwa 2"><g id="_11" data-name="11"><path class="cls-2" d="M189.37,94.16c-1.06-.5-2.17.62-1.81,1.12s2,3.66,2.82,3.73,2.07-.58,1.92-1.07S190.22,94.56,189.37,94.16Z"/><path class="cls-2" d="M191.58,93.39c-1.11-.49-2.07.64-1.66,1.14s2.45,3.62,3.27,3.68,2-.6,1.78-1.08S192.48,93.78,191.58,93.39Z"/><path class="cls-2" d="M194.33,93.15c-1.09-.42-2.07.64-1.68,1.09s2.32,3.28,3.13,3.32,2-.6,1.78-1S195.2,93.49,194.33,93.15Z"/><path class="cls-3" d="M186.62,86.81a15.85,15.85,0,0,1-.16,5.68c-.18,1.17.22,3.87,1.21,4.35s3.73-.35,4.19-.77-.43-2.13-1.12-2.12-1.31.32-1.54.07a1.59,1.59,0,0,1-.29-.68S188.33,88.48,186.62,86.81Z"/><path class="cls-4" d="M112.69,10.36c.44,8,6.4,29.3,6.4,29.3S131.39,37,133,35.23C131,29.11,120.8,9.86,120.8,9.86Z"/><path class="cls-3" d="M129.88,24.18s8.76,2.61,11.7,14.7l-15.37,1.9a20.09,20.09,0,0,0-3.11-9.33Z"/><path class="cls-5" d="M125.46,139.62,82,146S63.38,69.69,71.81,37.33L107.28,32S124.91,59,125.46,139.62Z"/><path class="cls-6" d="M123.18,137.86,83.53,144S66.61,70.63,74.29,39.52l32.32-5.17S122.67,60.34,123.18,137.86Z"/><path class="cls-7" d="M74.29,39.52l32.32-5.17A42.73,42.73,0,0,1,109.28,40a15.39,15.39,0,0,0-1.79-.13c-16.07,0-29.1,29-29.1,64.79,0,14.74,2.21,28.32,5.94,39.2l-.8.13S66.61,70.63,74.29,39.52Z"/><path class="cls-2" d="M130.52,53.55C127,67.28,117.86,83.06,116.71,83.92s-6.92-3.89-7.54-5.72-.42-23.43,2.43-27.06S132.57,45.61,130.52,53.55Z"/><path class="cls-3" d="M113.46,62.05c0,7.47-2.44,14.25-4.36,15.84-.51-3-.26-21.49,2.15-26.18C112,54.54,113.46,57.83,113.46,62.05Z"/><path class="cls-3" d="M111.87,49.3c3.28-4.59,14.51-9.56,19.17-11.11s15,1.55,19.52,1.38,3.46,18.69,2.25,20.24-2.34,13.65-1.47,26.26L121.2,87.23c.86-6.22-6-21.76-6-21.76S108.59,53.9,111.87,49.3Z"/><path class="cls-2" d="M111.87,49.3c2.29-3.2,7.42-6.89,12.71-8.49,3.25,7.76,17.32,33.65,21.55,31.09,2.27-1.37-.79-20.74,7.54-27.87,1.44,5.62,1.34,14.68.51,15.74C153,61.33,151.77,73.41,152.63,86L121.2,87.23c.86-6.22-6-21.76-6-21.76S108.59,53.9,111.87,49.3Z"/><path class="cls-2" d="M148.88,53.52c-1.87,7.86-3.15,10-5.6,10s-8-.59-8-.59,8,3.63,12.49,1.37S148.88,53.52,148.88,53.52Z"/><path class="cls-2" d="M116.82,83.81c-6.47,4.89-19.38,2.7-28.69-2.1l-.91-4.65s20.32-3.09,23-2.45C116.76,76.18,116.82,83.81,116.82,83.81Z"/><path class="cls-2" d="M94.6,76s-2.4,1-3.5.41a34.18,34.18,0,0,0-6.56-2.83c-.82-.25-4.49,2.18-5.65,3.19.88.54,4.19,7.48,4.19,7.48a24.06,24.06,0,0,0,6.54-.17c.8-.19,2.92.37,4.81.33C97,84.34,94.6,76,94.6,76Z"/><path class="cls-3" d="M91.1,76.77c-2.39-2.68-5-5.08-6.43-5.23S82,73.25,81.5,74.15s2,4,2.51,4.41,2-.38,1.95-1-1.23-2.23-.95-2.43a1.88,1.88,0,0,1,.77-.27S89.3,78.33,91.1,76.77Z"/><path class="cls-3" d="M83.78,77.8c.66-.85-.53-2.48-1.13-2.35s-4.32.37-4.47,1.17.48,2.37,1,2.43S83.25,78.48,83.78,77.8Z"/><path class="cls-3" d="M85.36,80.39c.66-.84-.53-2.48-1.13-2.35s-4.32.38-4.47,1.18.48,2.36,1,2.43S84.83,81.08,85.36,80.39Z"/><path class="cls-3" d="M86.58,83.08c.61-.84-.45-2.5-1-2.37s-3.94.32-4.08,1.12.41,2.37.93,2.45S86.09,83.76,86.58,83.08Z"/><path class="cls-3" d="M87.22,77.06s11.56-1.76,18.38-2.35a3.35,3.35,0,0,1,0,.71C105,78.88,98.5,80.74,91,79.56a29.32,29.32,0,0,1-3.41-.75Z"/><path class="cls-3" d="M153.05,39.84c13.22,5.1,26.49,16.34,27.21,17.58s-1.47,10.24-3.36,10.65-22.78-4.13-26.05-7.38S145.39,36.89,153.05,39.84Z"/><path class="cls-2" d="M180,64.72h0c-1.09,1.7-2.34,3.17-3.16,3.35-1.89.41-23.08-3.34-26.35-6.59-1.2-1.19-2.67-6-3.15-9.83C149.91,60.17,178.86,65,180,64.72Z"/><path class="cls-3" d="M179.16,56.27c6.78,3,10.85,13.75,14.28,33.11L187.52,91S175.81,71.75,172,67.6C167.65,62.85,179.16,56.27,179.16,56.27Z"/><path class="cls-2" d="M169.89,63c4.65.67,9.66,8.71,19.42,27.54l-1.79.48s-12.91-19.42-16.71-23.56C169.37,65.83,168.56,64.36,169.89,63Z"/><path class="cls-3" d="M88.33,186.13H73.94s1.5-2,8.75-2.77c3.08-.34,5.65-4.29,5.65-4.29l1.14.49S89.83,184.05,88.33,186.13Z"/><path class="cls-3" d="M176.58,186.12h-14.4s.26-1.79,7-2.53c2.86-.32,2.92-4,2.92-4l1.45.46S176.75,184.22,176.58,186.12Z"/><path class="cls-3" d="M158.1,131.55c9.21,13.36,16.12,38.23,15.89,53.65h-1.62c-3-22.56-26.25-51.57-26.25-51.57Z"/><path class="cls-2" d="M155.65,147c-5.18-8-9.53-13.4-9.53-13.4l12-2.08c4.39,6.37,8.25,15.36,11.07,24.69A43.18,43.18,0,0,0,155.65,147Z"/><path class="cls-3" d="M100.87,134.2l11,2c-1.92,12.55-15,36.73-25.38,49H85.34C94.32,167.7,100.87,134.2,100.87,134.2Z"/><path class="cls-2" d="M99.19,142c.68-2.87,1.68-7.81,1.68-7.81l11,2c-1.1,7.19-5.87,18.2-11.69,28.62C102.18,154.09,100.36,147.19,99.19,142Z"/><path class="cls-8" d="M153.84,92.41c5.52,12.26,6.39,29.74,5.52,37,0,0,4.32,2.57,2.08,6s-8,4.9-9.94,5.47-15.1-9.79-20.11-25.5S153.84,92.41,153.84,92.41Z"/><path class="cls-9" d="M153.84,92.41a54.79,54.79,0,0,1,2.92,8.44,2.86,2.86,0,0,0-1.53-.84c-3.51-.51-7.51,6.94-8.94,16.65s.26,18,3.76,18.51,7.51-6.93,8.94-16.64c.13-.92.23-1.82.31-2.71a71.92,71.92,0,0,1,.06,13.57s4.32,2.57,2.08,6-8,4.9-9.94,5.47-15.1-9.79-20.11-25.5S153.84,92.41,153.84,92.41Z"/><path class="cls-8" d="M150.21,138.53c-.51-1,.69-2.57,2.95-3.76s5.39-2,5.89-1-1,3.55-3.23,4.74S150.71,139.5,150.21,138.53Z"/><path class="cls-8" d="M150,106.8c-5.7,7.77-9.54,20.45-8,22s3.54-10.13,5.4-14.26A38.37,38.37,0,0,0,150,106.8Z"/><path class="cls-8" d="M111,140.07c3.13-.34,4-5.52,4-5.52s16.75-16.24,20.9-22.28,18-19.86,18-19.86-32.47-3.11-37,.52-9.67,19.34-9.67,19.34-4.49,12.26-4.32,16.58c0,0-4.07,5.19-2.38,7.09S111,140.07,111,140.07Z"/><path class="cls-9" d="M115.67,122.52c2.42-11.15,1.62-21.34-1.59-26.06a14,14,0,0,1,2.8-3.53c4.49-3.63,37-.52,37-.52s-13.82,13.82-18,19.86S115,134.55,115,134.55s-.86,5.18-4,5.52c0,0-.8-.21-2-.54A52,52,0,0,0,115.67,122.52Z"/><path class="cls-8" d="M115.67,42.33c3-4,7.9-.91,7.9-.91s16.28,37,32.69,44.26c0,0-26.66,9.68-34-1.39C118.7,79,110.82,54.85,110,52S112.5,42.21,115.67,42.33Z"/><path class="cls-9" d="M110.49,47.8a54.43,54.43,0,0,0,3.18,11c4.42,11,7.39,20.26,14.66,20.95,19,1.79.35-21.83-3.93-34.51a35.4,35.4,0,0,0-1.73-4.3,6.6,6.6,0,0,1,.9.46s16.28,37,32.69,44.26c0,0-26.66,9.68-34-1.39C118.7,79,110.82,54.85,110,52A7.13,7.13,0,0,1,110.49,47.8Z"/><path class="cls-10" d="M155.05,93.62c-9,4.49-15.26,36.38-17.33,42.08-1.73,3.34-15.47,2.37-16.16-.4S119,95.06,115.85,92.93c0-2.42,2.76-9.5,4.14-11.05s33.68,1.72,35.92,2.41S157.15,92.57,155.05,93.62Z"/><path class="cls-11" d="M123.07,133.74c1.92,1.18,10.37,3.57,11.65.74,11.1-24.56,1.54-35.24-8.1-39.86,1.4.12,2.85.19,4.34.19,11.36,0,20.57-3.76,20.57-8.41a4.39,4.39,0,0,0-1.29-2.91c3,.34,5.15.64,5.67.8,2.25.69,1.24,8.28-.86,9.33-9,4.49-15.26,36.38-17.33,42.08-1.73,3.34-15.47,2.37-16.16-.4-.24-1-.65-6.42-1.21-13.08C121.47,128.75,122.23,133.22,123.07,133.74Z"/><path class="cls-11" d="M153.79,91.07c-14.94-1.57-35.49-.19-35.49-.19l30.78,2.06Z"/><path class="cls-11" d="M119.88,100.41c.59,8.36,3.19,29.6,3.19,29.6s.25-11.7-.83-18.49A99.87,99.87,0,0,0,119.88,100.41Z"/><path class="cls-11" d="M138,108.08c-1.89,14.07-2.51,18.64-3.77,23.32a35,35,0,0,0,3.33-10.28A81.52,81.52,0,0,0,138,108.08Z"/><polygon class="cls-12" points="17.71 114.74 231.62 92.64 231.46 89.99 17.57 113.37 17.71 114.74"/><path class="cls-12" d="M103.8,72.15c3.61,2.26,4.94,6.92,5.37,17.2l-4.58,1.37c.83-11.19,0-15.42-2.93-18.55Z"/><path class="cls-13" d="M106.15,75.79a9.78,9.78,0,0,0-2.21.25,10.19,10.19,0,0,0-2.28-3.87l2.14,0A8.27,8.27,0,0,1,107,75.83C106.69,75.81,106.42,75.79,106.15,75.79Z"/><path class="cls-13" d="M104.88,82.63a10.4,10.4,0,0,0,1.27.09,9.16,9.16,0,0,0,2.47-.33c.26,2,.44,4.28.55,7l-4.58,1.37C104.83,87.48,104.93,84.84,104.88,82.63Z"/><path class="cls-12" d="M91.1,72.14c3.45,2.19,4.5,6.74,4.34,16.76l-4.62,1.35c1.46-10.92.87-15-1.84-18.08Z"/><path class="cls-13" d="M91.38,77.64A9.89,9.89,0,0,0,89,72.17l2.12,0A8,8,0,0,1,94.45,77,8.32,8.32,0,0,0,91.38,77.64Z"/><path class="cls-13" d="M94.76,82.86c.2,0,.39,0,.58,0,.11,1.76.14,3.77.1,6.07l-4.62,1.35c.43-3.2.67-5.8.75-8A8.6,8.6,0,0,0,94.76,82.86Z"/><rect class="cls-7" x="87.83" y="71.07" width="4.5" height="1.47" transform="translate(180.15 143.61) rotate(-180)"/><rect class="cls-7" x="100.51" y="71.07" width="4.5" height="1.47" transform="translate(205.52 143.61) rotate(-180)"/><rect class="cls-7" x="89.89" y="88.47" width="6.49" height="2.88" transform="translate(186.27 179.81) rotate(-180)"/><rect class="cls-7" x="103.68" y="88.47" width="6.49" height="2.88" transform="translate(213.85 179.81) rotate(-180)"/><path class="cls-9" d="M114.79,42.49a2.48,2.48,0,0,1,.88-.16A5,5,0,0,1,117,41.09a99.93,99.93,0,0,0,2.82,15.57A89.5,89.5,0,0,1,114.79,42.49Z"/><polygon class="cls-14" points="25.94 113.24 20.65 110.19 0 116.66 21.88 117.8 25.94 113.24"/><path class="cls-9" d="M101.9,130.27c.54-.84,1-1.42,1-1.42a17.94,17.94,0,0,1,.48-3.86,37.6,37.6,0,0,0,5.59,7.47Z"/><path class="cls-9" d="M137.86,81.22c-6.78-6.47-13.76-16.79-13.76-16.79s2.32,7,5.87,10.61A35,35,0,0,0,137.86,81.22Z"/><path class="cls-15" d="M114.32,42.71a3.31,3.31,0,0,1,.47-.22,2.08,2.08,0,0,1,.41-.11,1.51,1.51,0,0,1,.47-.05,5.41,5.41,0,0,1,.62-.7s0,0,0,0a3.71,3.71,0,0,1,.63-.51h0c2-1.39,4.44-.69,5.71-.13h0l.62.3c.43-.16.86-.32,1.29-.45h0l1.58-.71a20.37,20.37,0,0,0-3.06-8.65L125.35,29a67.39,67.39,0,0,1,10.41-1,22.29,22.29,0,0,1,5.7,10.38c3.53.55,7,1.2,9.1,1.12a1.54,1.54,0,0,1,.48.06,3.47,3.47,0,0,1,2,.21,65,65,0,0,1,6.17,2.79c-5.18,3.47-14.36,6.46-23.91,6.46S118.38,46.15,114.32,42.71Z"/><path class="cls-3" d="M130.93,33.93c-2.65,4.43-15.43,3-15.43,3s-2.44-21.08-1.84-27.29C114.33,2.67,139.85,12.8,130.93,33.93Z"/><path class="cls-16" d="M119.93,18.32c0,1,0,3.2-1,3.2s-1.08-3.1-1.08-3.1Z"/><path class="cls-17" d="M134.59,41.48C130.88,26.84,126.12,14,126.12,14l-13.43-3.66c.69-9.32,16-13.2,24.22-8.09C148.83,9.69,152.46,32,152.46,32Z"/><path class="cls-8" d="M125.53,13.41l0,.3-.1.12-12.7-3.47a8.43,8.43,0,0,1,.83-3.08l10.55,4.57Z"/><path class="cls-8" d="M125.53,13.41l-1.46-1.56-7.6-8.15a14.88,14.88,0,0,1,3.24-1.94l6.15,9.16Z"/><path class="cls-8" d="M125.49,13.71l0-.3.33-2.49L127.3,0a20.34,20.34,0,0,1,3.91.22L127.3,11.67Z"/><path class="cls-8" d="M126.12,14l-.73-.19.1-.12,1.81-2,8.77-9.88q.44.22.84.48A19.14,19.14,0,0,1,140,4.63L126.57,15.27Z"/><path class="cls-8" d="M127.52,18,142,6.76a33.46,33.46,0,0,1,2.83,4l-16.57,9.32C128,19.29,127.74,18.6,127.52,18Z"/><path class="cls-8" d="M129.16,22.87l17.56-8.64c.62,1.25,1.18,2.51,1.69,3.76L130.18,26C129.83,24.93,129.49,23.87,129.16,22.87Z"/><path class="cls-8" d="M131.42,30.06l18.17-8.95c.48,1.4.9,2.74,1.25,4l-18.51,8.08C132,32.11,131.72,31.07,131.42,30.06Z"/><path class="cls-8" d="M151.69,28.32c.54,2.23.77,3.65.77,3.65l-17.87,9.51c-.25-1-.51-2-.77-2.95Z"/><path class="cls-18" d="M140.13,23.73c0-12.23-6.42-22.29-14.67-23.56a17.85,17.85,0,0,1,11.45,2.1C148.83,9.69,152.46,32,152.46,32l-17.87,9.51v0C138,37.11,140.13,30.79,140.13,23.73Z"/><polygon class="cls-19" points="134.59 41.48 126.2 11.53 125.39 13.82 134.59 41.48"/><polygon class="cls-19" points="112.69 10.36 126.46 13.9 126.51 15.47 112.71 10.8 112.69 10.36"/><polygon class="cls-19" points="131.2 7.28 125.49 13.71 126.2 11.53 131.2 7.28"/><path class="cls-20" d="M115.77,16.5c-2.43,6.79-4.2,10.69-4.2,11.43s4.83,1.33,5.13.82S115.77,16.5,115.77,16.5Z"/><path class="cls-3" d="M116.63,16c-2.43,6.79-4.2,10.69-4.2,11.43s4.79,1.62,5.09,1.11S116.63,16,116.63,16Z"/><polygon class="cls-21" points="115.77 16.5 122.24 15.72 122.53 18.86 115.7 18.52 115.77 16.5"/><polygon class="cls-21" points="115.31 16.85 111.96 16.57 112.54 18.89 115.13 18.66 115.31 16.85"/><path class="cls-20" d="M123,31.56l.49-.4c-1.19-1.48-4.56-2.35-7-.87l.29.33C118.8,29.42,122.25,30.58,123,31.56Z"/><path class="cls-20" d="M118.35,31.38c0-.17.42-.54,1-.54s1.18.37,1.18.54-.57.09-1.18.09S118.35,31.55,118.35,31.38Z"/><path class="cls-20" d="M174.15,69c-2.76-8.26-5.71-11.5-5.71-11.5l1.18,6.69Z"/><path class="cls-20" d="M140,60.84c0-.57.77-1,1.72-1s1.72.46,1.72,1-.77,1-1.72,1S140,61.41,140,60.84Z"/><rect class="cls-6" x="24.78" y="111.77" width="3.47" height="2.73" transform="translate(67.54 221.85) rotate(172.52)"/><path class="cls-3" d="M185.86,83.87s.88,4.51.91,5.73c0,1.87,2.07,3.87,2.71,6.68.19.82,8.53-2.53,8.53-2.53s-1.87-5.13-3.68-7.06a24.24,24.24,0,0,1-2.54-5.31C190.94,79,185.86,83.87,185.86,83.87Z"/><path class="cls-3" d="M191.63,93.4c-.83-.57-2.46.73-2.34,1.31s.31,4.22,1.09,4.3,2.35-.67,2.42-1.23S192.3,93.87,191.63,93.4Z"/><path class="cls-3" d="M194.2,92.52c-.88-.56-2.37.74-2.19,1.31s.76,4.19,1.56,4.26,2.26-.69,2.27-1.25S194.92,93,194.2,92.52Z"/><path class="cls-3" d="M197.06,92.24c-.89-.49-2.37.74-2.18,1.26s.78,3.79,1.58,3.83,2.26-.69,2.27-1.2S197.78,92.63,197.06,92.24Z"/></g></g></g></svg>