<svg xmlns="http://www.w3.org/2000/svg" viewBox="0 0 219.62 183.12"><defs><style>.cls-1{isolation:isolate;}.cls-2{fill:#ffb882;}.cls-3{fill:#b7183e;}.cls-4{fill:#471520;}.cls-5{fill:#601f2b;}.cls-6{fill:#e29437;}.cls-7{fill:#c15c23;}.cls-8{fill:#cc6a29;}.cls-9{fill:#ff9566;}.cls-10{fill:#dd2a4d;}.cls-11{fill:#b51a43;}.cls-12{fill:#ead2b5;}.cls-13{fill:#e27023;}.cls-14{fill:#4f2517;}.cls-15{fill:#873b1d;}.cls-16{fill:#bc1938;}.cls-17{fill:#f4952f;}.cls-18{fill:#f9ac46;}.cls-19{fill:#ffcb64;}.cls-20{fill:#843131;opacity:0.6;mix-blend-mode:multiply;}.cls-21{fill:#d1b290;}.cls-22{fill:#89493a;}.cls-23{fill:#512f35;}.cls-24{fill:#bcddd8;}.cls-25{fill:#9bb2af;}</style></defs><g class="cls-1"><g id="Warstwa_2" data-name="Warstwa 2"><g id="_11" data-name="11"><path class="cls-2" d="M166.68,116.8c-3.47-.06-5.23-.09-6.24.89s-1.77,4.9-1.39,5.87,3.87,0,4.52-.17,1-1.81.48-2.17-2.41-.62-2.4-1a2,2,0,0,1,.29-.77S166.7,119.24,166.68,116.8Z"/><path class="cls-3" d="M129.65,18.27l-3.9-16.41s23.87-7.64,32.45,10.46S152,45.39,164,57.4c0,0-15.69-4.65-12.49-26.52C153.76,15.4,138.7,15.77,129.65,18.27Z"/><path class="cls-4" d="M152.76,19.65c2.81,8.32.52,21.74.52,21.74l-6.76,2.8L133.21,20.9l-.42-6.35S150,11.33,152.76,19.65Z"/><path class="cls-5" d="M154.22,19.39c2.81,8.32.52,21.74.52,21.74L148,43.93,134.67,20.64l-.42-6.35S151.41,11.07,154.22,19.39Z"/><ellipse class="cls-6" cx="111.16" cy="95.34" rx="28.29" ry="36.83"/><path class="cls-7" d="M85.19,95.34c0-18.67,11.63-33.81,26-33.81s26,15.14,26,33.81-11.63,33.81-26,33.81S85.19,114,85.19,95.34Z"/><path class="cls-8" d="M90.82,116.35a40.49,40.49,0,0,1-5.63-21c0-18.67,11.63-33.81,26-33.81s25.87,15,26,33.57C132.93,85.12,93.06,96.35,90.82,116.35Z"/><path class="cls-9" d="M142.7,69.89c.67,15-10.65,29-11.94,29.84s-8.9-4.34-9.39-6.33-1.16-17.59,5.37-25.85C129.77,63.72,142.13,57.24,142.7,69.89Z"/><path class="cls-9" d="M109.8,96a8.24,8.24,0,0,1-3.25,0,30,30,0,0,0-6-1.76c-.74-.13-3.65,2.35-4.55,3.35.82.37,4.4,6,4.4,6a20.8,20.8,0,0,0,5.64-.84c.67-.25,2.55,0,4.18-.22C112.48,102.3,109.8,96,109.8,96Z"/><path class="cls-2" d="M106.55,96.07c-2.35-2.06-4.84-3.86-6.1-3.84S98.28,94,98,94.82s2.11,3.25,2.63,3.54,1.73-.54,1.58-1.06-1.29-1.8-1.08-2a1.76,1.76,0,0,1,.64-.31S105.16,97.6,106.55,96.07Z"/><path class="cls-2" d="M100.37,98c.48-.8-.71-2.09-1.22-1.91s-3.69.78-3.74,1.48.67,2,1.17,2S100,98.69,100.37,98Z"/><path class="cls-2" d="M102,100.12c.48-.8-.72-2.09-1.22-1.91s-3.7.78-3.74,1.48.67,2,1.16,2S101.63,100.76,102,100.12Z"/><path class="cls-2" d="M103.35,102.31c.43-.79-.66-2.11-1.12-1.94s-3.36.69-3.4,1.39.61,2,1.06,2S103,102.94,103.35,102.31Z"/><path class="cls-2" d="M130,100.88c-4.91,4.81-15,3.08-22.66.82l-1.88-5.28s13.49-5.64,19-4.23C131.08,93.89,135.64,95.39,130,100.88Z"/><path class="cls-9" d="M127.39,92c5.19,1.6,8.07,4.69,3.24,9.42s-19.32,3-26.95.72l.11-1.66C123,104,129.89,95.63,127.39,92Z"/><path class="cls-10" d="M141.75,90.18c-9.27,2.52-23.93-2.06-23.93-2.06S124,57.4,138.6,61C146.81,63,141.75,90.18,141.75,90.18Z"/><path class="cls-11" d="M120.34,79.17c-.12,2.3.25,3.84,1.12,4.08,1.73.49,4.8-4.37,6.87-10.83A32.2,32.2,0,0,0,130.07,63a9.71,9.71,0,0,1,8.53-2c8.21,2,3.15,29.21,3.15,29.21-9.27,2.52-24.55-1.52-24.55-1.52S118.62,84.11,120.34,79.17Z"/><path class="cls-12" d="M143.14,87.39c-.32,2.26-.59,3.7-.59,3.7-10,2.72-25.78-2.22-25.78-2.22s.29-1.46.9-3.72C121.55,86.24,134.2,89.41,143.14,87.39Z"/><path class="cls-10" d="M131.7,17.52,128,1.6S151.83-6,160.41,12.06s-7.65,33.69,4.37,45.71c0,0-14.28-5.28-11.08-27.15C156,15.14,140.75,15,131.7,17.52Z"/><path class="cls-13" d="M128.08,57.55l-4.48,2L125,44.14s4.81-.46,4.23-2.79-4-.69-4-.69.74-8.25,8.28-7.35S131.89,54.28,128.08,57.55Z"/><path class="cls-9" d="M129.57,31.06c3-5.51,13.52,5.7,12.69,10.48a83.65,83.65,0,0,1-3.43,11.75l-.11.32a25.3,25.3,0,0,1-12.53,1.76S126.55,36.58,129.57,31.06Z"/><path class="cls-14" d="M130.7,40.67c0-1.15.34-2.13.84-2.18s1,.85,1,2-.33,2.13-.83,2.18S130.75,41.82,130.7,40.67Z"/><polygon class="cls-15" points="128.17 41.67 135.79 39.92 135.34 36.37 127.85 39.25 128.17 41.67"/><path class="cls-2" d="M128.33,38S124,47.52,124,48s3.65,1.44,3.65,1.44Z"/><path class="cls-9" d="M125.66,44c1.22-2.8,2.67-6,2.67-6l-.05,9.39A5.82,5.82,0,0,0,125.66,44Z"/><polygon class="cls-5" points="132.07 101.48 155.92 106.3 155.79 109.97 130.87 105.26 132.07 101.48"/><path class="cls-2" d="M153.8,108.24c1.25,16.43,3.23,38.66,3.23,38.66l18,33.94h-1.46s-25.38-29.9-26-30.94-6.86-38.13-6.86-38.13Z"/><path class="cls-9" d="M146.67,145.87c-2-11-6-34.1-6-34.1l13.1-3.53c.93,12.23,2.42,29.48,3,36.58C153.91,142.79,148.71,143.47,146.67,145.87Z"/><path class="cls-2" d="M141.11,118.51,114,145.65,93.48,180.84h-1s13.73-37.66,15.6-40.57,19.76-31.62,19.76-31.62Z"/><path class="cls-9" d="M115.65,140.35a32.39,32.39,0,0,0-2.62-8c5.9-9.43,14.77-23.68,14.77-23.68l13.31,9.86-25,25C116,142.48,115.86,141.42,115.65,140.35Z"/><path class="cls-16" d="M156.72,108.86l2.8,30.27s-26.67,3.12-43.83-12.64l14.71-22.72Z"/><path class="cls-17" d="M104.92,143.62l5,14.36s-15.6,21.81-15.6,22.13l-1.66-.94Z"/><path class="cls-18" d="M104.57,145l2.62,7.53c-.09.25-.16.5-.25.76-3.22,9.32-9.46,19.69-12.26,20.35Z"/><polygon class="cls-17" points="153.72 158.94 155.16 153.97 162.75 155.74 174.19 179.07 172.07 180.03 153.72 158.94"/><path class="cls-18" d="M155.67,154.59l6.35,1.48c4.21,7.35,7.06,15,5.87,15.81s-7.91-6-13.37-13.34Z"/><path class="cls-18" d="M155.88,57.07c-7.38-2.65-23.77,2.41-25.27,5.09-2.5,4.48-3.66,17.68-3,21.53.16.94,2.5,1.41,2.5,1.41s3.85,8.36,1.35,16.27c0,0,5.62,3.54,25.07,5.52,0,0,1.57-15.17,3.43-23.3C162.23,73.6,163,59.61,155.88,57.07Z"/><path class="cls-19" d="M128.23,81.38c-.09-4.62.92-13.43,2.77-16.74.37-.67,1.81-1.51,3.81-2.31a35.24,35.24,0,0,1-.92,7.19C132.65,74.88,130.46,79.3,128.23,81.38Z"/><path class="cls-17" d="M129.13,84.1c12.76,2.58,18.14.34,19.16-4.7.72-3.55-2.7-21.43,7.59-22.33,7.5-.66,6.35,16.53,4.06,26.52-1.86,8.13-3.43,23.3-3.43,23.3-2.53-.26-4.82-.54-6.9-.84-.33-13.8-8.2-19.32-12.14-19-3.18.29-4.51,9.51-5,14.78a8,8,0,0,1-1-.51c2.5-7.91-1.35-16.27-1.35-16.27s-2.19-.45-2.46-1.33C128.13,83.88,128.62,84,129.13,84.1Z"/><path class="cls-2" d="M164.53,61.94c12.28,8.6,16.52,26.15,16.37,27.66S172,94,170.15,93.18s-14.65-9.81-17.21-20C151.75,68.43,154.15,54.67,164.53,61.94Z"/><path class="cls-9" d="M164.53,61.94c7.13,5,11.54,13,14,19.13h-.1c-5.14,0-9.38,4.8-10,11-4.11-2.81-13.29-10.43-15.42-18.92C151.75,68.43,154.15,54.67,164.53,61.94Z"/><path class="cls-2" d="M182.38,91.6c2.62,6.62-4.34,19.58-9.2,25.93l-5.29-2.75s.73-20.46,4-25.1C175.9,84.08,179.39,84.06,182.38,91.6Z"/><path class="cls-9" d="M181,89.48c-.23-.68-.47-1.29-.71-1.85a16.67,16.67,0,0,1,2.12,4c2.62,6.62-4.34,19.58-9.2,25.93l-1.46-.76C176.79,109.25,183.23,96.17,181,89.48Z"/><path class="cls-10" d="M175.28,71.26c-3.74,8.85-13.1,19.9-13.1,19.9s-21.43-24.61-9.31-33.68C159.68,52.39,175.28,71.26,175.28,71.26Z"/><path class="cls-11" d="M152.87,57.48c6.81-5.09,22.41,13.78,22.41,13.78a42.71,42.71,0,0,1-2,4A25.31,25.31,0,0,0,169,66.49c-5.29-7.16-12.8-10.58-16.77-7.64s-2.9,11.12,2.39,18.28c3.54,4.78,8.06,7.88,11.86,8.54-2.42,3.25-4.3,5.49-4.3,5.49S140.75,66.55,152.87,57.48Z"/><path class="cls-2" d="M148.4,56.65l-4.27-13.1L134,47.71l1.08,11.75S137,66.22,148.4,56.65Z"/><path class="cls-20" d="M127.18,66.42a3.72,3.72,0,0,1-.19-.34A18.9,18.9,0,0,1,130.07,63h0l.23-.17c.11-.22.2-.45.31-.64.44-.78,2.14-1.76,4.51-2.7h0l-.81-8.82a54.93,54.93,0,0,1,10-6.66l4,12.44a21.9,21.9,0,0,1,6.33.3c3-.59,7.07,1.76,10.76,4.74a61.31,61.31,0,0,1-5.7,3.16C145.51,71.57,130.94,72.38,127.18,66.42Z"/><path class="cls-13" d="M131.58,20.68c-5.76,2.77-5.94,16.79-5.92,19.6l.9.19c1.23-.68,6.42-3.36,8.81-2A2.6,2.6,0,0,1,136.58,41c0,2.77-5.93,3.67-8.11,3.91l-.68,16c1.53-.36,11.07-3.71,15.17-5.23-2.18,2.81-15.74,7-16.35,6.66l.66-18.54.54,0c3-.26,7.52-1.31,7.53-2.73,0-1-.45-1.31-.6-1.39-1.47-.87-5.55.82-7.77,2.08l-.21.11-2.32-.48,0-.49C124.23,34.73,125.79,21.66,131.58,20.68Z"/><path class="cls-18" d="M151.58,50.43c-7.88,7.83-24.45,11.23-24.45,11.23l.74-17.33S136,43.63,136,41c0-5.16-9.3.15-9.3.15l-1.61-.34s-.57-17.63,6.39-20.75,14.46-2.33,18.31,3S148.6,40,151.58,50.43Z"/><path class="cls-19" d="M134,58.36c-2.74.81-4.62,1.19-4.62,1.19L129.87,48A31.53,31.53,0,0,0,134,58.36Z"/><path class="cls-19" d="M131.68,21.54a37.36,37.36,0,0,0-4.19,14.55c-.07.77-.1,1.53-.13,2.28l-1.4-.28S126.54,25.63,131.68,21.54Z"/><path class="cls-17" d="M140.3,57.46a48.13,48.13,0,0,0,2.93-8.54c3.39-14,.23-26.83-7.06-28.59a9,9,0,0,0-7.06,1.57A6.56,6.56,0,0,1,131.44,20c7-3.11,14.46-2.33,18.31,3s-1.15,17,1.83,27.37C148.61,53.39,144.39,55.71,140.3,57.46Z"/><path class="cls-12" d="M178.46,183.12H171s.73-3.49,1.84-3.83S176.28,181.53,178.46,183.12Z"/><path class="cls-12" d="M83.89,183.12H94.62s.08-3.49-1.4-3.83S87.53,181.53,83.89,183.12Z"/><path class="cls-21" d="M156.06,142.17l-2.89-1.95.65-30.87c.77.07,1.53.12,2.28.17L158.37,140Z"/><path class="cls-21" d="M149,141.81l-2.76-2.17,3.4-30.78c.77.11,1.52.21,2.26.29l-.46,30.68Z"/><path class="cls-21" d="M141.57,141.47l-2.48-2.63,6.49-30.66,2.35.42-3.72,31.09Z"/><path class="cls-21" d="M134.36,140.19l-1.73-2.8,8.9-30.09,1.35.32.6.13L137.55,139Z"/><path class="cls-21" d="M127.44,137.76,126,134.87l11.44-28.65c.64.18,1.28.36,1.94.53l-8.61,30.12Z"/><path class="cls-21" d="M121.19,134.55l-1.22-3L133.55,105c.64.21,1.29.43,1.95.63l-11,28.38Z"/><path class="cls-21" d="M115,130.15l-1-2.93,15.62-23.68c.59.24,1.19.47,1.81.7L118.29,130.1Z"/><path class="cls-17" d="M139.32,89.33c.57,4.7-.39,12.33-.39,12.33S137.14,94.17,139.32,89.33Z"/><path class="cls-17" d="M134.92,85.74A16.43,16.43,0,0,1,136,78.41a43.6,43.6,0,0,1,.05,7.33Z"/><path class="cls-11" d="M138.59,0l1.55,16.31a28.2,28.2,0,0,0-3.68.25L133.08.48A41.39,41.39,0,0,1,138.59,0Z"/><path class="cls-11" d="M150.45,2.17,146.86,17.3a17.28,17.28,0,0,0-3.58-.81L145.21.55A23.84,23.84,0,0,1,150.45,2.17Z"/><path class="cls-11" d="M159.77,10.84l-8.3,9.44a9.85,9.85,0,0,0-3-2.3L156.54,6.4A20.23,20.23,0,0,1,159.77,10.84Z"/><path class="cls-11" d="M163,24.82l-9.12,1.84A11.91,11.91,0,0,0,153,22.8l9.68-3.12A29.87,29.87,0,0,1,163,24.82Z"/><path class="cls-11" d="M161.6,35.68l-8.35.09c0-1.25.13-2.58.3-4l8.93-1.11C162.23,32.39,161.92,34.05,161.6,35.68Z"/><path class="cls-11" d="M160.19,45.05l-5.83.06a25.8,25.8,0,0,1-.84-4l7.23-.9A41.46,41.46,0,0,0,160.19,45.05Z"/><path class="cls-11" d="M161.67,53.45l-2.18.6a20,20,0,0,1-2.67-3.4l3.55-1.43A14.78,14.78,0,0,0,161.67,53.45Z"/><path class="cls-12" d="M156.06,142.17l-2.89-1.95.26-12.32a46.57,46.57,0,0,1,4.45,5.49l.49,6.61Z"/><path class="cls-12" d="M149,141.81l-2.76-2.17,1.85-16.71c1.26,1,2.44,2.1,3.56,3.19l-.21,13.71Z"/><path class="cls-12" d="M141.57,141.47l-2.48-2.63,4.14-19.57q1.64,1.11,3.15,2.28l-2.17,18.14Z"/><path class="cls-12" d="M134.36,140.19l-1.73-2.8,6.18-20.9c.92.54,1.82,1.08,2.7,1.65l-4,20.86Z"/><path class="cls-12" d="M127.44,137.76,126,134.87l8.3-20.79.43.2c.73.36,1.46.74,2.17,1.13l-6.13,21.46Z"/><path class="cls-12" d="M121.19,134.55l-1.22-3,9.94-19.44q1.32.54,2.64,1.14l-8,20.76Z"/><path class="cls-12" d="M115,130.15l-1-2.93,11.12-16.87c.91.29,1.81.62,2.72,1l-9.55,18.79Z"/><path class="cls-22" d="M120,106.83c3.28-1.25,5-5,4.28-9.21a8.63,8.63,0,0,0-8.68-7.39v1.24c4.63,0,6.88,3.3,7.45,6.38.53,2.92-.33,6.61-3.5,7.81Z"/><path class="cls-22" d="M112.63,106.4c3-1.34,3.87-5.4,3.16-8.7-.62-2.91-2.66-6-6.53-6v1.24c3.94,0,5.06,3.85,5.31,5,.59,2.75-.07,6.24-2.45,7.3Z"/><polygon class="cls-23" points="217.93 161.58 219.62 159.06 14.19 20.09 13.43 21.21 217.93 161.58"/><polygon class="cls-24" points="24.34 28.07 22.2 21.2 0 11.77 17.51 29.32 24.34 28.07"/><polygon class="cls-25" points="24.34 28.07 22.2 21.2 0 11.77 24.34 28.07"/><path class="cls-12" d="M172.88,68.16c1.59,1.72,2.58,2.91,2.58,2.91-3.83,9-13.4,20.34-13.4,20.34s-1.05-1.2-2.55-3.17C162.15,85,169.1,76.08,172.88,68.16Z"/><path class="cls-2" d="M169.06,112.16s-4.31,4.22-5.43,4.63c-1.72.63-3.65,5.73-3.63,7.32.94-.3,7.44,4.18,7.44,4.18a22.61,22.61,0,0,0,4-5c.36-.73,1.28-5.1,3.11-7.33C176.11,114,169.06,112.16,169.06,112.16Z"/><path class="cls-2" d="M164,121.41c-.21-1.08-2.16-1.32-2.44-.78s-2.43,3.51-1.93,4.18,2.05,1.28,2.45.9S164.15,122.29,164,121.41Z"/><path class="cls-2" d="M166.61,122.85c-.21-1.09-2.16-1.33-2.44-.79s-2.43,3.51-1.93,4.18,2,1.28,2.45.9S166.79,123.72,166.61,122.85Z"/><path class="cls-2" d="M168.79,124.85c-.28-1-2.06-1.39-2.27-.89s-1.91,3.19-1.41,3.85,2,1.34,2.29,1S169,125.69,168.79,124.85Z"/></g></g></g></svg>