<svg xmlns="http://www.w3.org/2000/svg" viewBox="0 0 155.61 178.86"><defs><style>.cls-1{fill:#dd5f33;}.cls-2{fill:#cc4e2b;}.cls-3{fill:#ef8354;}.cls-4{fill:#594138;}.cls-5{fill:#7f363f;}.cls-6{fill:#632731;}.cls-7{fill:#56212c;}.cls-8{fill:#f4e0b8;}.cls-9{fill:#e2c798;}.cls-10{fill:#47312b;}.cls-11{fill:#e5c68f;}.cls-12{fill:#9bb2af;}.cls-13{fill:#b8ccc9;}.cls-14{fill:#ed4c4c;}.cls-15{fill:#ce2e2e;}.cls-16{fill:#662933;}.cls-17{fill:#ef9b3f;}.cls-18{fill:#351f1a;}.cls-19{fill:#fffae6;}</style></defs><g id="Warstwa_2" data-name="Warstwa 2"><g id="_11" data-name="11"><path class="cls-1" d="M29,94.42c-2.78-2.12-4.18-3.18-5.59-3.06s-4.35,2.57-4.62,3.51,3.16,2.28,3.76,2.57,1.89-.74,1.69-1.32-1.59-1.9-1.37-2.14a1.93,1.93,0,0,1,.69-.41S27.57,96.24,29,94.42Z"/><path class="cls-2" d="M49.11,45.7a49.77,49.77,0,0,0-.85,10.68c.1.33,3.91-.61,3.91-.61Z"/><path class="cls-3" d="M49.68,44.94a48.54,48.54,0,0,0-.85,10.69c.09.33,3.91-.61,3.91-.61Z"/><path class="cls-4" d="M49.1,37c.11,2.32-.28,3.71-2,4.51a3.16,3.16,0,0,1-4.19-3.91s1,2.93,2.45,1C46.5,37,49.1,37,49.1,37Z"/><circle class="cls-5" cx="128.26" cy="68.01" r="23.42" transform="translate(-16.91 67.48) rotate(-27.73)"/><circle class="cls-6" cx="128.26" cy="68.01" r="21.79" transform="translate(5.63 145.71) rotate(-60.3)"/><path class="cls-7" d="M128.26,46.21a21.78,21.78,0,0,1,21,15.93,21.52,21.52,0,0,0-6-.86,21.74,21.74,0,0,0-21,27.66,21.78,21.78,0,0,1,6-42.73Z"/><path class="cls-1" d="M78.15,57.91c12.75-4.25,31.74-3.91,33-3.44s2.88,7.19,1.74,8.63S89.06,77.7,84.71,77.3,70.77,60.37,78.15,57.91Z"/><path class="cls-3" d="M97.69,56.54c-9.35,2.12-17.33,5.61-21.08,10.85-1.65-4.18-1.88-8.34,1.54-9.48,12.75-4.25,31.74-3.91,33-3.44C111.66,54.65,104,55.11,97.69,56.54Z"/><path class="cls-1" d="M109.66,54.29c6.77-1.89,13.93,2.76,28.12,14.86l-5.27,6.12s-18.13-8.47-23.14-12S109.66,54.29,109.66,54.29Z"/><path class="cls-1" d="M67.51,45.63c0,4.26,2.79,13.59,9.5,15.06l-9.66,9c-5.57-4.75-11-23.91-11-23.91Z"/><path class="cls-3" d="M66.2,67.73c3-5.89,10.32-9.82,14.09-9.66,19.47.85,37.33,23.09,39,34.39L98.63,97.7s2.62-5.89.65-6.06-3.11-3.76-3.11-3.76c-2.62-.17-9.66-2.3-9.66-2.3a67.61,67.61,0,0,1-13.76.66C64.24,85.91,63.26,73.63,66.2,67.73Z"/><path class="cls-1" d="M74.05,70.31c1.19-3.62.72-8.56-5-6.86,2.55-4,9.65-5.73,11.38-5.65,19.47.84,37.19,23.36,38.83,34.66l-18.44,4.68c3.36-1.38,5.45-3.31,5.45-5.46,0-4.2-7.78-10.1-17.65-10.1-4.94,0-9.62,3.35-12.86,4.72-1,0-2,0-3-.06C64.24,85.91,71.1,76.2,74.05,70.31Z"/><path class="cls-3" d="M76.52,131.76l6.22,4.58C77.16,144,61.13,173,61.13,173H60S70.89,141.79,76.52,131.76Z"/><path class="cls-1" d="M70.87,144.09a124.66,124.66,0,0,1,5.65-12.33l6.22,4.58c-2.28,3.14-6.29,9.83-10.25,16.64A37.17,37.17,0,0,0,70.87,144.09Z"/><path class="cls-8" d="M110.09,123.9c-9.5,9-15.07,9-15.07,9A16.25,16.25,0,0,1,81.4,140c-6.09,0-10-2-7.34-8.86s9-13.91,9-13.91,11.3-18.86,16.86-20.65S110.09,123.9,110.09,123.9Z"/><path class="cls-9" d="M78.31,137.89c5,0,9.29-5.31,8.85-12.07,3.44-1.22,5.32-7.37,8.52-12.32,4.93-7.61,8.15-13.07,4.51-15.43a4.15,4.15,0,0,0-2-.61,6.82,6.82,0,0,1,1.69-.92c5.57-1.79,10.16,27.36,10.16,27.36-9.5,9-15.07,9-15.07,9A16.25,16.25,0,0,1,81.4,140c-4.28,0-7.45-1-8.05-4A7.61,7.61,0,0,0,78.31,137.89Z"/><path class="cls-4" d="M67.51,54.63c7-8.18,7.54-12.28,5.24-13.91,0,0,3.28-8.35-3.43-9.17,0,0,.81-5.57-2.62-5.57a16.27,16.27,0,0,0-6.23,1.31s.17-5.9-4.58-5.24-4.42,4.42-4.42,4.42-1.73-3.63-4.42,0a4.92,4.92,0,0,0-.49,4s-2.73-.05-3.06,2.07,2.07,2.24,2.07,2.24Z"/><path class="cls-10" d="M57.88,32.15a16,16,0,0,0,.53-9.67c2.15,1.3,2.06,4.81,2.06,4.81A16.27,16.27,0,0,1,66.7,26c3.43,0,2.62,5.57,2.62,5.57,6.71.82,3.43,9.17,3.43,9.17,2.3,1.63,1.81,5.73-5.24,13.91L51.67,40.33A15.69,15.69,0,0,0,57.88,32.15Z"/><path class="cls-3" d="M64.08,46.78l-1.15-6.72L46.56,36s1.8,14.41,7.36,23.25,9.66-2.13,9.66-2.13Z"/><path class="cls-4" d="M69.48,40.72c-.66,9-.11,16.74-1.39,20.14-1.36,3.6-6.5,8.66-16.29,11.39,3.67-3.76-1.7-10.73.31-16.35,0,0,10.33-5.69,8.69-17.8Z"/><path class="cls-10" d="M58.81,38.73c0-.12,10.67,2,10.67,2-.66,9,.5,16.59-.78,20-1.35,3.6-7.11,8.8-16.9,11.53h0C58.78,70.08,65.64,48.71,58.81,38.73Z"/><path class="cls-10" d="M56.16,38c2.28-.41,3.71-.2,4.72,1.39A3.16,3.16,0,0,1,57.53,44s2.78-1.39.64-2.55C56.48,40.54,56.16,38,56.16,38Z"/><path class="cls-4" d="M50.45,35.85c.45,2.27.27,3.71-1.31,4.75a3.17,3.17,0,0,1-4.71-3.27s1.44,2.75,2.56.6C47.88,36.22,50.45,35.85,50.45,35.85Z"/><polygon class="cls-8" points="45.32 38.41 45.57 34.82 73.61 37.14 73.49 41.48 45.32 38.41"/><path class="cls-11" d="M58.25,37.31a2.15,2.15,0,0,0-.72-1.5l16.08,1.33-.12,4.33-17-1.85C57.57,39,58.25,38.17,58.25,37.31Z"/><path class="cls-3" d="M81.92,81.65c-9,9.62-25.54,18-26.85,18.18s-3.7-6.8-3.37-8.6S63.58,69,67.51,67.41,87.16,76.09,81.92,81.65Z"/><path class="cls-1" d="M73,63.29c1.29-5.48,15,13.1,9.79,18.66-9,9.62-26.4,17.71-27.71,17.88-.61.07-1.89-1-3-2.39C66,89.39,79,68.2,73,63.29Z"/><path class="cls-3" d="M55.63,98.27c-4.32,5-13,4.25-28.37.61L26.12,94.5s22.91-4.68,28-4.07S55.63,98.27,55.63,98.27Z"/><path class="cls-1" d="M59,92.05c.51,2.23-2.47,7.26-2.47,7.26-4.32,5-13.74,3.61-29.11,0C27.37,99.28,54.43,97.14,59,92.05Z"/><path class="cls-3" d="M60.31,178.75H44.15s8-1.85,10.81-2.62,5.36-4.07,5.36-4.07l1.08.47S61.73,176.79,60.31,178.75Z"/><path class="cls-12" d="M4.12,0l7.66,24.32s-8,33,7.26,66.82l-1,.75C-11.48,49.37,4.12,0,4.12,0Z"/><path class="cls-13" d="M2.16,54.06A120.27,120.27,0,0,1,4.12,0l7.47,23.74C6,25.43,2.35,37.76,2.16,54.06Z"/><path class="cls-5" d="M18.5,89.17c2.77,5,14.09,16.4,11.53,18.87s-4.15,0-4.15,0L16.73,89.5Z"/><path class="cls-3" d="M122.45,146.5s15.3,14.4,29.05,21l-.26.88c-19.76-5-35.86-18-35.86-18Z"/><path class="cls-1" d="M129,159.29a105.36,105.36,0,0,1-13.63-8.88l7.07-3.91a174.78,174.78,0,0,0,14.53,12A69.8,69.8,0,0,0,129,159.29Z"/><path class="cls-8" d="M128.21,149.71c-10.81,7.37-16.32,3.66-19.76-2.89s-3.27-11.3-3.27-11.3-5.41-6.38-6.72-10.47l-3.6-3.44s-1.15-16.21,3.27-24.89c0,0,13.76-1,21.13-5.73,0,0,2.95,2.12.82,4.42,0,0,6.87,6.38,3.76,11.46,0,0,2.79,15.23.49,22.27C128.69,135.74,128,142.29,128.21,149.71Z"/><path class="cls-9" d="M102.94,99.74c-1.76,13.33,2.82,35.58,5.59,47.23l-.08-.15c-3.44-6.55-3.27-11.3-3.27-11.3s-8.19-7-10.24-10.31c-.86-9.9,3.73-21.88,6.9-25.15Z"/><path class="cls-9" d="M118.36,150.11c4-1.83,5.4-7.67,3.09-13.05a12.68,12.68,0,0,0-3.91-5.14,2,2,0,0,0,.19-.45c.41-1.45-1-3.25-3.55-4.92a2.14,2.14,0,0,0,.27-.09c5-2,6.36-13.64,2-22.19a17.16,17.16,0,0,0-9.8-8.78c4.21-.85,9.12-2.26,12.61-4.5,0,0,2.95,2.12.82,4.42,0,0,6.87,6.38,3.76,11.46,0,0,2.79,15.23.49,22.27,4.36,6.6,3.71,13.15,3.88,20.57-10.81,7.37-16.32,3.66-19.76-2.89-.36-.68-.67-1.33-1-2C110,149.47,114.65,151.8,118.36,150.11Z"/><path class="cls-9" d="M104.49,123.36a42.61,42.61,0,0,0-8.38.42l-6.19-5.22S98.32,121.19,104.49,123.36Z"/><path class="cls-9" d="M111.45,129.88a18.87,18.87,0,0,1,8.83,4.87l2.16-.86S117.05,129.61,111.45,129.88Z"/><path class="cls-9" d="M118.19,96.36l-1.6,2.26a29.1,29.1,0,0,1-15.35.94S111.13,99.66,118.19,96.36Z"/><path class="cls-14" d="M101.57,99.83l1.15-.33c-4.75,18.83.82,55.35.82,55.35l-5.9,1.63S93.39,120.46,101.57,99.83Z"/><path class="cls-14" d="M101.57,99l.66.16c-7.21,12.61-8.84,40.45-8.84,40.45l-5.57-.17S90.77,112.93,101.57,99Z"/><path class="cls-15" d="M100.43,99.14a2,2,0,1,1,1.95,1.94A1.94,1.94,0,0,1,100.43,99.14Z"/><path class="cls-3" d="M145,178.86h5.68l4.91-9.39s-3.69-3.81-5.44-2.72,2.15,7.47-.5,9.72C148.25,177.68,146.44,177.44,145,178.86Z"/><path class="cls-1" d="M92.86,78.75a92,92,0,0,1-10.45,7.32,20.07,20.07,0,0,0,4.1-.49C87.87,85.16,92.86,78.75,92.86,78.75Z"/><path class="cls-1" d="M126.31,72.48s3,.28,3.76,1.46a39.2,39.2,0,0,0,5.1,6.39c.7.69,5.71.2,7.43-.2-.61-1-.22-9.8-.22-9.8A27.56,27.56,0,0,0,135.67,67c-.91-.24-2.75-1.94-4.67-2.91C128.36,62.75,126.31,72.48,126.31,72.48Z"/><path class="cls-3" d="M130.07,73.94c1,4,2.31,7.81,3.69,8.74s3.66-.28,4.61-.94.17-5.09-.17-5.8-2.28-.72-2.51,0,0,2.91-.34,3a2.31,2.31,0,0,1-.93-.14S132.72,73.33,130.07,73.94Z"/><path class="cls-3" d="M138.21,76.46c-1.11.51-.8,2.79-.12,3s4.57,1.94,5.15,1.22.78-2.66.25-3S139.11,76.05,138.21,76.46Z"/><path class="cls-3" d="M138,73c-1.12.5-.8,2.79-.12,3s4.57,1.94,5.15,1.22.78-2.66.24-3S138.91,72.58,138,73Z"/><path class="cls-3" d="M138.21,69.62c-1.06.53-.88,2.77-.25,2.93s4.15,1.79,4.72,1.06.85-2.62.38-3S139.07,69.2,138.21,69.62Z"/><polygon class="cls-7" points="133.56 62.97 135.38 64.65 128.35 75.56 125.38 73.93 133.56 62.97"/><polygon class="cls-7" points="125.95 56.26 128.14 57.85 119.95 71.34 116.39 70.01 125.95 56.26"/><path class="cls-1" d="M54.66,100.84c2.53,0,6-1.23,6.27-4,.17-1.63-4.59,1.06-4.59,1.06Z"/><path class="cls-3" d="M63.76,42.4c1.32-2.38,3.81.71,3.74,2.33s-2.33,5.09-3.39,4.52S63.05,43.67,63.76,42.4Z"/><path class="cls-2" d="M64.33,43.27c.79-1.49,2.28.45,2.24,1.46s-1.39,3.19-2,2.83S63.91,44.07,64.33,43.27Z"/><path class="cls-3" d="M64.26,45.23c.54-1,1.57.3,1.54,1s-1,2.2-1.4,2S64,45.77,64.26,45.23Z"/><path class="cls-4" d="M48.71,47.31c1.7-.25,3.82-2.23,4.34-3s-1-2.55-1.58-2.55-2.83,3-3.22,3.57S48.33,47.36,48.71,47.31Z"/><path class="cls-4" d="M52.31,47.17l-1.87,1.16s1.38,2.62,2.19,2.05S52.31,47.17,52.31,47.17Z"/><path class="cls-11" d="M72,37.6l0-.19c3.56.26,9.35,4.88,11,8.82l-2.71,3.36S77.09,39.46,72,37.6Z"/><path class="cls-11" d="M72.54,38l.11-.46c3.35,2.39,6.77,10.89,6.49,16.18l-4.28,2.06S76.66,43.07,72.54,38Z"/><path class="cls-9" d="M110.59,114.09a34.5,34.5,0,0,0-6.5,16l-.85-7.92C105.36,117.2,110.59,114.09,110.59,114.09Z"/><path class="cls-16" d="M27.79,108.13c2.29-2.48-7.1-13.41-10-18.82l.76-.14c2.77,5,14.09,16.4,11.53,18.87-1.33,1.28-2.4,1.22-3.12.86A4.52,4.52,0,0,0,27.79,108.13Z"/><path class="cls-17" d="M26.2,90.31c-9.29.88-13.66,11-13.66,11S11.12,90.07,18.65,88C25.17,86.21,26.2,90.31,26.2,90.31Z"/><path class="cls-3" d="M96,87.18c3.95-1.41,7.2-5.51,7.2-5.51s-6.85,1.7-7.2,1.84S96,87.18,96,87.18Z"/><path class="cls-18" d="M53,58.22l4.66-4.71s1.84,1.7,1.41,3.11-5.18,2.68-5.18,2.68Z"/><path class="cls-19" d="M53.43,58l4-4s1.58,1.45,1.22,2.67-4.45,2.3-4.45,2.3Z"/><path class="cls-18" d="M56.62,56.55,58,55.18,57.43,54s1,.34,1.12.88.33,1.6.33,1.6l-.63-1Z"/><path class="cls-15" d="M97.78,115.32a68.08,68.08,0,0,1,3.79-15.49l1.15-.33c-1.4,5.56-1.9,12.66-1.91,19.91A28,28,0,0,0,97.78,115.32Z"/><path class="cls-15" d="M95.18,110.45A50.73,50.73,0,0,1,101.57,99l.66.16c-2.47,4.32-4.28,10.43-5.6,16.59A34.46,34.46,0,0,0,95.18,110.45Z"/><path class="cls-15" d="M120.06,91.74l.59.81c-3.18,4.34-17.06,6.89-17.06,6.89l-.74-1.83S116.63,94.8,120.06,91.74Z"/><path class="cls-15" d="M98.05,96.89a8,8,0,0,0,3.6.78l-.21,1.69a9.59,9.59,0,0,1-4.06-1.2Z"/><path class="cls-3" d="M34,93s-4.16,1-5.31.6a34.22,34.22,0,0,0-6.51-1c-.83-.08-3.88,2.91-4.8,4.1.94.34,5.37,6.36,5.37,6.36a23.34,23.34,0,0,0,6.22-1.37c.73-.33,3.87-3.11,6-3.13C37.46,98.43,34,93,34,93Z"/><path class="cls-3" d="M22.21,96.69c.46-.93-1-2.27-1.51-2s-4.06,1.15-4.06,1.94.9,2.17,1.45,2.13S21.83,97.44,22.21,96.69Z"/><path class="cls-3" d="M24.19,98.88c.47-.93-1-2.27-1.51-2s-4.06,1.16-4.05,2,.9,2.17,1.45,2.13S23.81,99.63,24.19,98.88Z"/><path class="cls-3" d="M25.85,101.21c.43-.91-.89-2.29-1.39-2.07s-3.7,1-3.69,1.82.84,2.19,1.34,2.17S25.51,102,25.85,101.21Z"/></g></g></svg>