<svg xmlns="http://www.w3.org/2000/svg" viewBox="0 0 183.25 176.64"><defs><style>.cls-1{isolation:isolate;}.cls-2{fill:#756c5d;}.cls-3{fill:#9b917c;}.cls-4{fill:#7c705c;}.cls-5{fill:#edc783;}.cls-6{fill:#d6ab67;}.cls-7{fill:#ffe6b3;}.cls-8{fill:#edca8c;}.cls-9{fill:#dd3e3e;}.cls-10{fill:#af2323;}.cls-11{fill:#563d3d;}.cls-12{fill:#3f2a2a;}.cls-13{fill:#ffb882;}.cls-14{fill:#4f241a;}.cls-15{opacity:0.6;mix-blend-mode:multiply;}.cls-16{fill:#843131;}.cls-17{fill:#93472a;}.cls-18{fill:#77321d;}.cls-19{fill:#ea7b59;}.cls-20{fill:#847863;}.cls-21{fill:#9eafac;}.cls-22{fill:#7b8e8a;}.cls-23{fill:#beccca;}.cls-24{fill:#7c382a;}.cls-25{fill:#682b21;}.cls-26,.cls-28{fill:#ce773c;}.cls-27{fill:#aec4c0;}.cls-28{mix-blend-mode:overlay;}.cls-29{fill:#fff0dc;}.cls-30{fill:#84736b;}.cls-31{fill:#c7ddd9;}.cls-32{fill:#ff9566;}.cls-33{fill:#bcddd8;}.cls-34{fill:#9bb2af;}</style></defs><g class="cls-1"><g id="Warstwa_2" data-name="Warstwa 2"><g id="_11" data-name="11"><path class="cls-2" d="M95.65,54.08c-2.33-10.67-4.54-21.87-4-29.89l11.83,1.19-.34,23.87Z"/><path class="cls-3" d="M90.14,68.66C89,73.53,87.5,79.45,87,80.19s-16.6,13.75-16.6,13.75l3.7,4.12S94,88.86,95.22,86.75s4.23-7.51,4.23-7.51Z"/><path class="cls-4" d="M91.13,85.48,86,81.07a11.13,11.13,0,0,0,1-.88c.53-.74,2-6.66,3.17-11.53l9.31,10.58s-3,5.39-4.23,7.51S74.07,98.06,74.07,98.06l-1.5-1.67Z"/><path class="cls-4" d="M80.71,88.42a1.75,1.75,0,0,0,.45,2.15,1.22,1.22,0,0,0,1.62-.16s0,0,0,0a1.26,1.26,0,0,1-1.89.5,1.74,1.74,0,0,1-.42-2.19A1.52,1.52,0,0,1,80.71,88.42Z"/><path class="cls-4" d="M80.56,88.59s0,0,0,0a1.27,1.27,0,0,1-1.89.51,1.59,1.59,0,0,1-.6-1.12l.29-.24a1.57,1.57,0,0,0,.59,1A1.22,1.22,0,0,0,80.56,88.59Z"/><path class="cls-4" d="M78.84,92.83a1.8,1.8,0,0,1,.26-.34,1.59,1.59,0,0,0,.5,2l-.47.22A1.61,1.61,0,0,1,78.84,92.83Z"/><path class="cls-4" d="M76.7,90.93s0,0,0,0h0s0,0,.05,0a1.57,1.57,0,0,0,.51,2A1.33,1.33,0,0,0,79,92.65l0,0a1.37,1.37,0,0,1-1.94.58,1.58,1.58,0,0,1-.52-2A1.44,1.44,0,0,0,76.7,90.93Z"/><path class="cls-4" d="M76.71,90.89h0s0,0,0,0a1.44,1.44,0,0,1-.23.32,1.35,1.35,0,0,1-1.71.26,1.29,1.29,0,0,1-.43-.44l.36-.29a1.41,1.41,0,0,0,.35.34A1.34,1.34,0,0,0,76.71,90.89Z"/><path class="cls-4" d="M87.39,82.64a1.33,1.33,0,0,1,.24-.36,1.73,1.73,0,0,0,.56,2.11,1.22,1.22,0,0,0,1.62-.24s0,0,0,0a1.26,1.26,0,0,1-1.86.61A1.74,1.74,0,0,1,87.39,82.64Z"/><path class="cls-4" d="M85.87,82.7a1.23,1.23,0,0,0,1.62-.25s0,0,0,0a1.27,1.27,0,0,1-1.86.61,1.6,1.6,0,0,1-.61-.87c.11-.09.21-.19.32-.27A1.49,1.49,0,0,0,85.87,82.7Z"/><path class="cls-4" d="M86.26,86.8a1.58,1.58,0,0,0,.51,2,1.35,1.35,0,0,0,1.68-.23s0,0,0,0a1.37,1.37,0,0,1-1.94.58,1.59,1.59,0,0,1-.5-2.09A1.62,1.62,0,0,1,86.26,86.8Z"/><path class="cls-4" d="M83.86,85.24l0,0h0s0,0,0,0a1.58,1.58,0,0,0,.51,2A1.34,1.34,0,0,0,86.1,87s0,0,0,.05a1.37,1.37,0,0,1-1.94.58,1.58,1.58,0,0,1-.51-2A2.62,2.62,0,0,0,83.86,85.24Z"/><path class="cls-4" d="M82.2,85.43a1.34,1.34,0,0,0,1.67-.23h0l0,0a2.62,2.62,0,0,1-.23.32,1.36,1.36,0,0,1-1.72.26,1.38,1.38,0,0,1-.49-.58l.33-.28A1.55,1.55,0,0,0,82.2,85.43Z"/><path class="cls-4" d="M94.27,76.66a1.33,1.33,0,0,1,.26-.35A1.76,1.76,0,0,0,95,78.46a1.22,1.22,0,0,0,1.62-.16s0,0,0,0a1.26,1.26,0,0,1-1.88.5A1.73,1.73,0,0,1,94.27,76.66Z"/><path class="cls-4" d="M92.47,77A1.72,1.72,0,0,1,92,74.9a1.44,1.44,0,0,0,.23-.32s0,0,0,0h0l0-.06a1.73,1.73,0,0,0,.44,2.15,1.21,1.21,0,0,0,1.62-.16.08.08,0,0,1,0,0A1.25,1.25,0,0,1,92.47,77Z"/><path class="cls-4" d="M92.25,74.58a1.44,1.44,0,0,1-.23.32,1.23,1.23,0,0,1-1.66.19,1.77,1.77,0,0,1-.42-2.2,1.84,1.84,0,0,1,.27-.34,1.72,1.72,0,0,0,.44,2.14,1.2,1.2,0,0,0,1.61-.15h0S92.26,74.57,92.25,74.58Z"/><path class="cls-4" d="M92.92,80.38a1.57,1.57,0,0,0,.51,2,1.33,1.33,0,0,0,1.68-.23l0,0a1.37,1.37,0,0,1-1.94.58,1.6,1.6,0,0,1-.49-2.1A1.46,1.46,0,0,1,92.92,80.38Z"/><path class="cls-4" d="M90.52,78.82s0,0,0,0h0l0-.06a1.59,1.59,0,0,0,.51,2,1.34,1.34,0,0,0,1.68-.23s0,0,0,0a1.39,1.39,0,0,1-1.94.58,1.59,1.59,0,0,1-.51-2A1.92,1.92,0,0,0,90.52,78.82Z"/><path class="cls-4" d="M90.52,78.82a1.92,1.92,0,0,1-.23.31,1.34,1.34,0,0,1-1.71.27,1.59,1.59,0,0,1-.5-2.1,1.5,1.5,0,0,1,.27-.34A1.58,1.58,0,0,0,88.86,79a1.34,1.34,0,0,0,1.67-.23h0S90.53,78.81,90.52,78.82Z"/><path class="cls-5" d="M95.94,51.24C91.17,55.52,86.7,77.1,86.7,77.1L100.12,86s1.59-9.85,1.29-14.42S95.94,51.24,95.94,51.24Z"/><path class="cls-6" d="M94.7,82.38c3-10.11,2.75-22.67,5-24.39,1.36,4.59,1.58,11.19,1.73,13.54.3,4.57-1.29,14.42-1.29,14.42Z"/><polygon class="cls-7" points="85.77 78.63 103.23 87.78 103.24 83.86 86.84 75.53 85.77 78.63"/><path class="cls-8" d="M95.11,79.73l8.13,4.12v3.93L94.13,83A14.16,14.16,0,0,0,95.11,79.73Z"/><path class="cls-9" d="M126.28,101s3.58,32.62,4.77,40,10.34,29,10.34,31.23H140.2c-3.38-9.75-25.06-28.24-27.65-34.61s-4.37-33.41-4.37-33.41Z"/><path class="cls-10" d="M126.28,101s3.58,32.62,4.77,40,10.1,28.46,10.33,31.12l-14.61-27.73-9.39-.17c-2.4-2.73-4.19-5-4.83-6.6-2.58-6.36-4.37-33.41-4.37-33.41Z"/><path class="cls-9" d="M109.77,111.11c-17.31,15.91-22.32,21-27.25,27.64C76.45,147,69,172.17,69,172.17H67.8s4.57-38,7.56-45.35S96.24,98,96.24,98Z"/><path class="cls-10" d="M79.18,134.23l-4.73-4.47a25.5,25.5,0,0,1,.91-2.94C78.34,119.46,96.24,98,96.24,98l13.53,13.13c-17.31,15.91-22.32,21-27.25,27.64C76.45,147,69,172.17,69,172.17h-.57Z"/><path class="cls-3" d="M119.44,122.67c-14.43.23-32-7.39-32-7.39l13.53-18.49,15.52,2.46Z"/><path class="cls-4" d="M103.37,107.84,96,118.43a87,87,0,0,1-8.61-3.15l13.53-18.49,15.52,2.46,3,23.42c-6,.1-12.84-1.29-18.48-2.81Z"/><path class="cls-5" d="M135.38,136.81c-8.77,5.29-35.06,4.33-35.06,4.33s.89-26.7,5.67-40c0,0-19.24,22.53-24.47,30.43L74.07,125l22.67-32,2.63-1.92.5-3,29.84,2.76-.45,3.73S132.87,115.93,135.38,136.81Z"/><path class="cls-6" d="M113.13,114.47c-1.61,8-2.33,26.51-2.33,26.51l-7.29-.15Z"/><path class="cls-6" d="M120.79,140.47c3.85-30.23,1.27-45.36-13.05-47.13-3.38-.41-12.53,2.53-20.16,12.63l9.16-12.92,2.63-1.92.5-3,29.84,2.76-.45,3.73s3.61,21.33,6.12,42.21C132.15,138.76,126.57,139.85,120.79,140.47Z"/><polygon class="cls-7" points="99.62 89.62 99.87 88.11 101.49 88.26 99.62 89.62"/><polygon class="cls-7" points="95.4 94.95 96.74 93.05 97.07 92.81 95.4 94.95"/><path class="cls-7" d="M74.07,125,76.23,122,82,127.43c5.22-7.9,26.81-31.76,26.81-31.76C104,109,102.2,138.36,102.2,138.36s22.32.21,32.93-3.53c.09.66.17,1.32.25,2-8.77,5.29-36.09,4.61-36.09,4.61s1.92-27,6.7-40.26c0,0-19,23.32-24.18,31.23Z"/><polygon class="cls-11" points="99.62 86.15 99.37 91.14 129.76 93.7 130.65 89.43 99.62 86.15"/><path class="cls-12" d="M117.93,92.66c0-2.3-4.15-4.17-9.27-4.17-4,0-7.34,1.12-8.67,2.7l-.62-.06.25-5,31,3.28-.89,4.27-11.83-1Z"/><path class="cls-5" d="M99.82,87.14c4.68,0,25.61,1,29.09,2.61s.1-4.66.1-4.66,2.58-4.25-1.75-8.16c-2.19-10.94.21-29.07-8.84-32.25-5.15-1.81-12.81.21-18.68,3C91.68,51.56,97,59.24,98.53,67.55,100.33,77.11,99.18,87.14,99.82,87.14Z"/><path class="cls-6" d="M120.75,81.49c1.65-3.63-12.43-27.28-1.46-35,9,3.18,7,19.23,9.22,30.17a8,8,0,0,1,2.09,9s3.33,7.06-.15,5.47-26.22-3.61-30.89-3.65c-1.27,0-1.15-1.75,0-2.48C110.1,87.42,119.12,85.11,120.75,81.49Z"/><path class="cls-7" d="M102.59,46.43l2.13.06c-2.36,5.42,1.69,30.09,1.69,30.09l-3.33.72S100.67,52.58,102.59,46.43Z"/><path class="cls-3" d="M131.52,58.11s10.64,12.36,11.55,14.37,2.83,12.78,3.85,21.11l-6.57,1.28s-5.57-14.76-6.27-15.31-9.7-10-9.7-10Z"/><path class="cls-4" d="M131.52,58.11s10.64,12.36,11.55,14.37,2.83,12.78,3.85,21.11l-2.95.58-3.8-17.92-4.71,6.18a15.12,15.12,0,0,0-1.38-2.87c-.7-.55-9.7-10-9.7-10Z"/><path class="cls-4" d="M143,88.25a1.8,1.8,0,0,1-.16-.38,1.62,1.62,0,0,0,2,.62,1.11,1.11,0,0,0,.42-.35c0,.19.05.37.08.55a1.16,1.16,0,0,1-.31.22A1.64,1.64,0,0,1,143,88.25Z"/><path class="cls-4" d="M140.33,88.61l0,0a1.2,1.2,0,0,1-.46,1.79,1.42,1.42,0,0,1-.46.12l-.16-.43a1.36,1.36,0,0,0,.43-.11A1.15,1.15,0,0,0,140.33,88.61Z"/><path class="cls-4" d="M141.77,78.89a2.05,2.05,0,0,1-.16-.38,1.64,1.64,0,0,0,2,.62,1.7,1.7,0,0,0,.14-.1c0,.16.07.32.1.48l0,0A1.64,1.64,0,0,1,141.77,78.89Z"/><path class="cls-4" d="M139.29,81.33a1.15,1.15,0,0,0,.62-1.42l0,0a1.19,1.19,0,0,1-.46,1.79,1.62,1.62,0,0,1-2-.65,1.59,1.59,0,0,1-.17-.38A1.63,1.63,0,0,0,139.29,81.33Z"/><path class="cls-4" d="M137.39,80.91s0,0,0,0a1.21,1.21,0,0,1-.45,1.8,1.3,1.3,0,0,1-.55.12c0-.14-.11-.28-.17-.42a1.2,1.2,0,0,0,1.15-1.54Z"/><path class="cls-4" d="M144.15,83.17a1.42,1.42,0,0,1-.12-.4,1.48,1.48,0,0,0,.46.53l.06.37A1.41,1.41,0,0,1,144.15,83.17Z"/><path class="cls-4" d="M142.33,84a.05.05,0,0,0,0,0,1.32,1.32,0,0,1-.63,1.82,1.49,1.49,0,0,1-1.87-.77,1.17,1.17,0,0,1-.12-.39,1.47,1.47,0,0,0,1.85.72A1.28,1.28,0,0,0,142.33,84Z"/><path class="cls-4" d="M139,86.32a1.27,1.27,0,0,0,.74-1.42l0,0a1.31,1.31,0,0,1-.63,1.81,1.4,1.4,0,0,1-1.23-.09c-.06-.15-.12-.3-.17-.45A1.4,1.4,0,0,0,139,86.32Z"/><path class="cls-4" d="M138.27,73.15a1.64,1.64,0,0,1-2-.65,1.24,1.24,0,0,1-.16-.38,1.64,1.64,0,0,0,2,.62,1.18,1.18,0,0,0,.62-1.42l0,0A1.2,1.2,0,0,1,138.27,73.15Z"/><path class="cls-4" d="M136.17,72.32l0,0a1.2,1.2,0,0,1-.46,1.79,1.62,1.62,0,0,1-2-.59,1.36,1.36,0,0,0-.16-.35s0,0,0,0h0l0-.06a1.62,1.62,0,0,0,2,.62A1.17,1.17,0,0,0,136.17,72.32Z"/><path class="cls-4" d="M133.63,73.21a1.36,1.36,0,0,1,.16.35,1.17,1.17,0,0,1-.61,1.45,1.64,1.64,0,0,1-2-.66A1.14,1.14,0,0,1,131,74a1.61,1.61,0,0,0,2,.62,1.15,1.15,0,0,0,.63-1.41h0S133.63,73.2,133.63,73.21Z"/><path class="cls-4" d="M139.9,77.54a1.5,1.5,0,0,1-1.88-.77,1.94,1.94,0,0,1-.12-.39,1.48,1.48,0,0,0,1.85.72,1.26,1.26,0,0,0,.75-1.42l0,0A1.32,1.32,0,0,1,139.9,77.54Z"/><path class="cls-4" d="M135.36,77.34h0a.25.25,0,0,0,0-.07,1.49,1.49,0,0,0,1.85.73,1.26,1.26,0,0,0,.75-1.42l0,0a1.31,1.31,0,0,1-.63,1.81,1.48,1.48,0,0,1-1.84-.7,1.24,1.24,0,0,0-.11-.36Z"/><path class="cls-4" d="M135.36,77.35h0l0,0a1.24,1.24,0,0,1,.11.36,1.28,1.28,0,0,1-.74,1.45l-.23.07-.41-.4a1.58,1.58,0,0,0,.49-.1A1.27,1.27,0,0,0,135.36,77.35Z"/><path class="cls-5" d="M139.49,66.54l-9.78,16s-8.41-13.08-12.09-18.65-2.49-19.74,1.75-18.8C128.07,47,139.49,66.54,139.49,66.54Z"/><path class="cls-6" d="M129.59,75.52c3.61-1.82,3.08-10.14-1.18-18.58-2.94-5.81-6.87-10.16-10.22-11.72a1.76,1.76,0,0,1,1.18-.15c8.7,1.94,20.78,21.19,20.78,21.19L129.71,82.52s-2.27-3.53-5-7.69C126.58,75.89,128.27,76.19,129.59,75.52Z"/><path class="cls-13" d="M93.61,24.39c.1,6.86-.7,20.58,0,21.38s12.43-.8,13-4.28.3-14.91-.69-16.31S93.61,24.39,93.61,24.39Z"/><path class="cls-14" d="M95.94,30.08c-.09-1.09.31-2,.9-2.07s1.15.8,1.24,1.89-.31,2-.9,2.07S96,31.17,95.94,30.08Z"/><g class="cls-15"><path class="cls-16" d="M93.57,54.7a12.22,12.22,0,0,1,2.37-3.46,7.33,7.33,0,0,1,3.8-3.54c.91-.44,1.86-.85,2.84-1.24v0h.06c5.33-2.09,11.44-3.29,15.77-1.76a6.73,6.73,0,0,1,.91.39l1.61.52c-11.62,2.92-9.85,15.56-19.71,17.65C96.52,64.23,94.17,56.91,93.57,54.7Z"/></g><path class="cls-17" d="M93.3,38.63c-.5,3.66.56,12-1.78,16.06,0,0,16.51-2.23,17.28-12.43.43-5.55-.47-15.68-.47-15.68l-4-2.09s1,7.25-2.19,10.94C99.29,38.79,93.3,38.63,93.3,38.63Z"/><path class="cls-18" d="M103.32,44.49c1.54-4.08,1.35-11.27.85-13.8a22.54,22.54,0,0,0,.18-6.2l4,2.09s1.14,11.1.72,16.65c-.78,10.2-17.53,11.46-17.53,11.46l0-.08C95.35,53.54,100.73,51.37,103.32,44.49Z"/><path class="cls-19" d="M94.37,27.5c-2.18,4.73-4,10.23-4,11s4,.07,4,.07Z"/><path class="cls-13" d="M95.2,27c-2.19,4.74-4,10.24-4,11s4,.07,4,.07Z"/><path class="cls-17" d="M100.34,29.43l-6.52.7-.69-2.23s4.08-1.79,6.38-1.68S100.34,29.43,100.34,29.43Z"/><g class="cls-15"><path class="cls-16" d="M101.23,32.84l-8.51-1.48c.27-.67.55-1.36.85-2.06l-.44-1.4.47-.2c0-1.2,0-2.33,0-3.31,0,0,7.38-.39,10.75.19v0l.17,0,.1.05a3.48,3.48,0,0,1,1.07.36l-.28,22.22Z"/></g><path class="cls-3" d="M101.76,24.29s2.92,26.72,4.81,34.38c0,0,8.24-14.05,12.89-13.42,1.29.17.7-1.57-1-1.57,0,0,.4-1.59-.7-1.79s.2-14.52.2-14.52S107.63,22.9,101.76,24.29Z"/><path class="cls-20" d="M111.91,38.86c0-8.47-6.11-10.42-9.71-10.66l-.44-3.91C107.63,22.9,118,27.37,118,27.37s-1.29,14.32-.2,14.52.7,1.79.7,1.79c1.69,0,2.28,1.74,1,1.57-4.65-.63-12.6,10.65-12.6,10.65S111.91,47,111.91,38.86Z"/><path class="cls-21" d="M90.62,24.69l27.45,4.37S122,16.83,109.52,8C109.52,8,95.2,7.18,90.62,24.69Z"/><path class="cls-22" d="M106,17.75A28.51,28.51,0,0,0,109.54,8c12.4,8.85,8.53,21.06,8.53,21.06L99.13,26A28.23,28.23,0,0,0,106,17.75Z"/><path class="cls-23" d="M98.2,18.17H94.52c4.92-9.38,13.92-8.89,13.92-8.89l.38.29c-.23,0-.46,0-.7,0C103.73,9.53,100,13.07,98.2,18.17Z"/><path class="cls-21" d="M111.05,10.77c9,6.79,6.17,15.92,6.17,15.92l-2.07-.33A17.5,17.5,0,0,0,111.05,10.77Z"/><path class="cls-24" d="M182.58,116.24l-2.76-11.91c2.7-4.8-.38-12.92-5.31-14.5l-5.27-11.68-52.88,28.61,8,10.87c5.34,1.48,9.89,7.53,8.53,13.86L138.13,143Z"/><polygon class="cls-25" points="124.34 117.63 174.34 90.38 172.51 85.28 123.85 117.06 124.34 117.63"/><path class="cls-25" d="M132.18,124.72a110.69,110.69,0,0,0,24.76-12.35,109.79,109.79,0,0,0,22-18.73c2,3.21,2.6,7.62.88,10.69l2.76,11.91L138.13,143l-5.26-11.46A11.18,11.18,0,0,0,132.18,124.72Z"/><path class="cls-26" d="M132.26,131.56l0-.19c1.31-6.08-3.23-11.82-8.12-13.18l-.19,0-8.49-11.57,54-29.23,5.43,12a10.23,10.23,0,0,1,5.54,6.07,11,11,0,0,1,0,9l2.82,12.12-45.38,27.25Zm46.94-27.32.11-.2a9.74,9.74,0,0,0,.09-8.18c-1.08-2.76-3-4.81-5.06-5.48l-.25-.08L169,79l-51.73,28,7.46,10.17c5.37,1.6,10.11,7.64,8.79,14.29l4.91,10.7L181.92,116Z"/><polygon class="cls-7" points="140.73 66.69 130.04 83.3 128.05 79.82 138.89 63.61 140.73 66.69"/><path class="cls-8" d="M137.33,65.94l1.56-2.33,1.84,3.08-2.52,3.92A15.39,15.39,0,0,0,137.33,65.94Z"/><path class="cls-8" d="M131.68,80.76,130,83.3l-2-3.48,1.2-1.79A5.94,5.94,0,0,0,131.68,80.76Z"/><path class="cls-5" d="M69.47,176.64H55.05c0-2.66,12-2.74,13.14-7.65l1.36.28C68.76,173.37,70.38,174,69.47,176.64Z"/><path class="cls-5" d="M139,176.64h8.53c1.05-2.71-5.59-2.79-7.81-7.8l-1,.29C140.5,173.3,139.37,173.93,139,176.64Z"/><path class="cls-27" d="M119.53,27.37a14.23,14.23,0,0,1-.48,2.46L89.34,25.1c.22-.85.47-1.65.74-2.43Z"/><path class="cls-28" d="M136.57,105.4l3.22,4.16c11.3,8.13,7.86,16.12,7.86,16.12l1,2.14L169.5,115.2l-.58-2.34-18.65,10.78a19.59,19.59,0,0,0,0-3.44l7.22-3.84a8.31,8.31,0,0,0-.69-5.74L170,103.54l-1.94-2.23-12.68,7.08a15.47,15.47,0,0,0-2.86-2.81l-8,3.8a12.46,12.46,0,0,0-2.35-1.47L141,106.07l17.39-9.91-1.56-2.43Zm9.47,5.4,5.4-2.69a10.49,10.49,0,0,1,4.18,6.89l-5.73,3A14.88,14.88,0,0,0,146,110.8Z"/><path class="cls-14" d="M94.48,40.28c1.67-1.06,6.15-3,6.59-2.55s1.57,4.52.37,5.39-6,.26-6,.26Z"/><path class="cls-29" d="M94.89,40.35c1.45-.92,5.34-2.56,5.72-2.21s1.36,3.92.32,4.68-5.19.22-5.19.22Z"/><path class="cls-14" d="M98.36,40.78l2.87-1-.36-1.77a5.52,5.52,0,0,1,.68,4.22l-.2-2Z"/><path class="cls-11" d="M110.1,110.43l1.1-.37c-1.41-4.21-1-8.3-.61-11.59.38-3.51.68-6.28-1.46-7.59a2.21,2.21,0,0,0-2.07-.18c-3.1,1.26-5.26,9.44-5.5,10.37l1.13.28c.6-2.36,2.64-8.69,4.81-9.57a1.06,1.06,0,0,1,1,.09c1.5.92,1.25,3.25.9,6.48C109.06,101.75,108.6,106,110.1,110.43Z"/><path class="cls-30" d="M107.69,52.72a.85.85,0,0,0,.78-.94l0,0a.88.88,0,0,1-.71,1.27,1.54,1.54,0,0,1-1.41-.78c0-.1,0-.22-.06-.33A1.53,1.53,0,0,0,107.69,52.72Z"/><path class="cls-30" d="M113.56,45.75l0,0h0s0,0,0-.06a1.58,1.58,0,0,0,.43.62l-.15.16a1.22,1.22,0,0,1-.22-.44A1.13,1.13,0,0,0,113.56,45.75Z"/><path class="cls-30" d="M113.56,45.75a1.13,1.13,0,0,1,0,.25.85.85,0,0,1-.82,1,1.57,1.57,0,0,1-1.5-1.1,1,1,0,0,1,0-.33,1.6,1.6,0,0,0,1.49,1.06.84.84,0,0,0,.83-.88h0Z"/><path class="cls-30" d="M109.57,45.51l0,0a.89.89,0,0,1-.71,1.28,1.59,1.59,0,0,1-1.56-1,1,1,0,0,1-.06-.33,1.57,1.57,0,0,0,1.53,1A.84.84,0,0,0,109.57,45.51Z"/><path class="cls-30" d="M107.27,45.64l0,0a.88.88,0,0,1-.71,1.27,1.47,1.47,0,0,1-1.13-.43c0-.11,0-.23,0-.34a1.48,1.48,0,0,0,1.09.4A.84.84,0,0,0,107.27,45.64Z"/><path class="cls-30" d="M109.53,50.15a.92.92,0,0,0,.88-.91s0,0,0,0a1,1,0,0,1-.86,1.25,1.45,1.45,0,0,1-1.43-1.09,1.23,1.23,0,0,1,0-.33A1.44,1.44,0,0,0,109.53,50.15Z"/><path class="cls-30" d="M107.22,50.19a.93.93,0,0,0,.89-.91s0,0,0,0a1,1,0,0,1-.86,1.25,1.43,1.43,0,0,1-1.33-.86c0-.14,0-.28-.07-.43A1.44,1.44,0,0,0,107.22,50.19Z"/><path class="cls-30" d="M114.49,39a1.14,1.14,0,0,0,0-.26s0,0,0,0h0a.43.43,0,0,0,0,0,1.59,1.59,0,0,0,1.43,1.13.88.88,0,0,0,.61-.22l0,.36a.86.86,0,0,1-.6.24A1.58,1.58,0,0,1,114.49,39Z"/><path class="cls-30" d="M114.47,38.75a1.14,1.14,0,0,1,0,.26.85.85,0,0,1-.88.92,1.58,1.58,0,0,1-1.44-1.18,1,1,0,0,1,0-.33,1.57,1.57,0,0,0,1.43,1.13.85.85,0,0,0,.89-.83h0S114.47,38.74,114.47,38.75Z"/><path class="cls-30" d="M109.47,38.86a.86.86,0,0,0,.78-1s0,0,0,0a.88.88,0,0,1-.71,1.28,1.58,1.58,0,0,1-1.55-1,1.3,1.3,0,0,1-.07-.33A1.61,1.61,0,0,0,109.47,38.86Z"/><path class="cls-30" d="M105.65,38h0s0,0,0-.06a1.59,1.59,0,0,0,1.54,1A.84.84,0,0,0,108,38v0a.87.87,0,0,1-.71,1.27,1.56,1.56,0,0,1-1.54-1,1.19,1.19,0,0,0,0-.26Z"/><path class="cls-30" d="M105.64,38.05h0v0a1.19,1.19,0,0,1,0,.26.84.84,0,0,1-.76,1,1.3,1.3,0,0,1-.48,0c0-.12,0-.24,0-.37a1.08,1.08,0,0,0,.44,0A.83.83,0,0,0,105.64,38.05Z"/><path class="cls-30" d="M118.15,42.64a1.22,1.22,0,0,1,.74.72A1.44,1.44,0,0,1,118.15,42.64Z"/><path class="cls-30" d="M117.16,43.52a1.44,1.44,0,0,1-1.43-1.07,1.13,1.13,0,0,0,0-.26s0,0,0,0h0s0,0,0-.06a1.43,1.43,0,0,0,1.42,1,.9.9,0,0,0,.81-.58l.1,0A.92.92,0,0,1,117.16,43.52Z"/><path class="cls-30" d="M115.72,42.19a1.13,1.13,0,0,1,0,.26.91.91,0,0,1-.87,1,1.43,1.43,0,0,1-1.43-1.08,1.23,1.23,0,0,1,0-.33,1.45,1.45,0,0,0,1.42,1,.93.93,0,0,0,.89-.9h0S115.72,42.17,115.72,42.19Z"/><path class="cls-30" d="M110.6,43a.93.93,0,0,0,.89-.91s0,0,0,0a1,1,0,0,1-.86,1.24,1.43,1.43,0,0,1-1.43-1.08,1.25,1.25,0,0,1,0-.33A1.43,1.43,0,0,0,110.6,43Z"/><path class="cls-30" d="M106.88,42.07h0v0a1.42,1.42,0,0,0,1.41,1,.93.93,0,0,0,.89-.91v0a1,1,0,0,1-.85,1.25,1.45,1.45,0,0,1-1.43-1.08,1.15,1.15,0,0,0,0-.26Z"/><path class="cls-30" d="M106,43a.94.94,0,0,0,.88-.91h0l0,0a1.15,1.15,0,0,1,0,.26.92.92,0,0,1-.87,1,1.38,1.38,0,0,1-1.1-.5c0-.13,0-.25,0-.38A1.39,1.39,0,0,0,106,43Z"/><path class="cls-30" d="M115.36,32.14a1.18,1.18,0,0,0,0-.26l0,0h0a.43.43,0,0,1,0-.05,1.59,1.59,0,0,0,1.35,1c0,.12,0,.24,0,.37A1.61,1.61,0,0,1,115.36,32.14Z"/><path class="cls-30" d="M115.34,31.88a1.18,1.18,0,0,1,0,.26.84.84,0,0,1-.81,1,1.57,1.57,0,0,1-1.5-1.1,1,1,0,0,1,0-.34,1.58,1.58,0,0,0,1.48,1.07.85.85,0,0,0,.84-.89h0Z"/><path class="cls-30" d="M110.66,33a1.59,1.59,0,0,1-1.56-1,1.47,1.47,0,0,1-.07-.34,1.59,1.59,0,0,0,1.54,1,.85.85,0,0,0,.78-.94s0,0,0,0A.88.88,0,0,1,110.66,33Z"/><path class="cls-30" d="M109.07,31.81a.89.89,0,0,1-.71,1.28,1.58,1.58,0,0,1-1.55-1,.85.85,0,0,0,0-.26v0h0s0,0,0-.05a1.61,1.61,0,0,0,1.54,1,.85.85,0,0,0,.78-.94Z"/><path class="cls-30" d="M106.76,31.81a1,1,0,0,1-.71,1.28,1.58,1.58,0,0,1-1.55-1,1.3,1.3,0,0,1-.07-.33,1.61,1.61,0,0,0,1.54,1,.85.85,0,0,0,.78-.94h0Z"/><path class="cls-30" d="M114.67,35.54a1,1,0,0,1,0-.34,1.42,1.42,0,0,0,1.42,1,.92.92,0,0,0,.44-.15c0,.14,0,.28,0,.42a.94.94,0,0,1-.38.11A1.44,1.44,0,0,1,114.67,35.54Z"/><path class="cls-30" d="M111.35,36.66a1.42,1.42,0,0,1-1.43-1.08,1,1,0,0,1,0-.34,1.44,1.44,0,0,0,1.41,1,.93.93,0,0,0,.89-.91s0,0,0,0A1,1,0,0,1,111.35,36.66Z"/><path class="cls-30" d="M107.59,35.33h0v-.05a1.44,1.44,0,0,0,1.42,1,.93.93,0,0,0,.88-.91l0,0A1,1,0,0,1,109,36.7a1.43,1.43,0,0,1-1.43-1.07,1.15,1.15,0,0,0,0-.26S107.59,35.35,107.59,35.33Z"/><path class="cls-30" d="M106.7,36.24a.91.91,0,0,0,.88-.9h0s0,0,0,0a1.15,1.15,0,0,1,0,.26.92.92,0,0,1-.87,1,1.44,1.44,0,0,1-1.43-1.08,1.34,1.34,0,0,1,0-.34A1.43,1.43,0,0,0,106.7,36.24Z"/><path class="cls-31" d="M90.08,22.67l13.13,2.1q-.19.35-.42.69a19.27,19.27,0,0,1-1.16,1.6l-12.29-2C89.56,24.24,89.81,23.45,90.08,22.67Z"/><polygon class="cls-11" points="141.4 171.2 139.57 172.59 135.42 166.04 140 165.38 141.4 171.2"/><polygon class="cls-11" points="67.35 170.47 69.47 171.48 72.42 164.23 67.66 164.49 67.35 170.47"/><path class="cls-32" d="M71.9,93.15A7.61,7.61,0,0,1,69,94.4,29.4,29.4,0,0,0,63,95c-.71.15-2.43,3.44-2.88,4.67.87,0,6.14,3.83,6.14,3.83a20.26,20.26,0,0,0,4.78-2.8,25.11,25.11,0,0,1,3.41-2.35C76.34,97.23,71.9,93.15,71.9,93.15Z"/><polygon class="cls-26" points="13.4 17.32 115.14 169.18 112.16 170.67 11.91 17.92 13.4 17.32"/><polygon class="cls-33" points="15.7 22.4 16.14 15.7 0 0 9.32 21.19 15.7 22.4"/><polygon class="cls-34" points="15.7 22.4 16.14 15.7 0 0 15.7 22.4"/><path class="cls-13" d="M69,94.4c-2.86-1-5.75-1.73-6.89-1.25s-1.31,2.37-1.28,3.22,3.07,2.17,3.65,2.24,1.37-1.11,1-1.53-1.81-1.15-1.7-1.41a1.77,1.77,0,0,1,.47-.52S68.33,96.29,69,94.4Z"/><path class="cls-13" d="M64.17,98.41c.14-.89-1.4-1.62-1.79-1.28s-3.05,2-2.83,2.69,1.32,1.55,1.76,1.37S64.06,99.13,64.17,98.41Z"/><path class="cls-13" d="M66.4,99.69c.14-.89-1.4-1.62-1.79-1.28s-3,2-2.84,2.69,1.32,1.55,1.77,1.37S66.29,100.41,66.4,99.69Z"/><path class="cls-13" d="M68.39,101.18c.11-.87-1.35-1.66-1.7-1.34s-2.79,1.84-2.57,2.48,1.28,1.59,1.69,1.44S68.31,101.88,68.39,101.18Z"/><polygon class="cls-7" points="73.85 99.4 69.32 93.91 72.95 91.25 77.05 97.59 73.85 99.4"/></g></g></g></svg>