<svg xmlns="http://www.w3.org/2000/svg" viewBox="0 0 107.05 173.72"><defs><style>.cls-1{isolation:isolate;}.cls-2{fill:#ff9566;}.cls-3{fill:#ffb94a;}.cls-4{fill:#f2992f;}.cls-5{fill:#7b8d8e;}.cls-6{fill:#677575;}.cls-7{fill:#ffb882;}.cls-8{fill:#a5533d;}.cls-9{fill:#893b2c;}.cls-10{fill:#c4a9a5;}.cls-11{fill:#a88983;}.cls-12{fill:#7c382a;}.cls-13{fill:#6b2e24;}.cls-14{fill:#593d36;}.cls-15{fill:#49302b;}.cls-16{fill:#35211e;}.cls-17{fill:#b2a690;}.cls-18{fill:#9b917c;}.cls-19{fill:#ea7b59;}.cls-20{fill:#512c26;}.cls-21{fill:#843131;opacity:0.6;mix-blend-mode:multiply;}.cls-22{fill:#847761;}.cls-23{fill:#9eafac;}.cls-24{fill:#879995;}.cls-25{fill:#b3c6c2;}.cls-26{fill:#aec4c0;}.cls-27{fill:#e8d0a6;}.cls-28{fill:#702a21;}.cls-29{fill:#c1d3d0;}.cls-30{fill:#d63440;}.cls-31{fill:#9bb2af;}.cls-32{fill:#bcddd8;}</style></defs><g class="cls-1"><g id="Warstwa_2" data-name="Warstwa 2"><g id="_11" data-name="11"><path class="cls-2" d="M9.85,80.34c-1.43,2.3-1,4.34-1,5.75s3.57,1.74,3.9,2.54A1.94,1.94,0,0,1,11.59,91c-.82.1-5.16-2.48-5.67-3.08s-1.07-6.11-.17-8.35C7.26,75.73,11.73,77.35,9.85,80.34Z"/><path class="cls-2" d="M12.74,77c-.92,1.66-1.62,2.78-1.3,3.82s3.74,1,4.22,1.59A1.29,1.29,0,0,1,15,84.28c-.77.18-5.63-1.44-6.26-1.87s-1.47-2.87-.9-4.56C8.78,75.18,13.85,74.93,12.74,77Z"/><path class="cls-2" d="M11.3,77.58c-1,2.68-1.79,4.42-1.32,5.75s4.61.48,5.22,1.14a1.9,1.9,0,0,1-.73,2.62c-.92.36-6.66-.65-7.42-1.06s-2-3.36-1.63-5.8C6.13,76.08,12.65,74.08,11.3,77.58Z"/><path class="cls-3" d="M43.48,58.88s-3.22,7.06-4.6,8-21.35,4.3-23.34,5.22l1.84,7.37S38.11,81.6,43,78.84s8.91-10.9,8.91-10.9Z"/><path class="cls-4" d="M40,75.51c.85-.85.06-5.15-.84-8.87,1.49-1.49,4.35-7.76,4.35-7.76l8.45,9.06s-4,8.13-8.91,10.9-25.64.61-25.64.61l-.45-1.78C22.63,77.36,39.08,76.4,40,75.51Z"/><path class="cls-5" d="M55,39.91C45,46.74,39.09,62.78,39.09,62.78l9.13,15.8S70.12,29.5,55,39.91Z"/><path class="cls-6" d="M50.65,71.72a1.84,1.84,0,0,1,.24-.39,2.17,2.17,0,0,0-.09,1.21l-.24.56A2.25,2.25,0,0,1,50.65,71.72Z"/><path class="cls-6" d="M48.59,69.47h0a.25.25,0,0,0,0-.07,2.08,2.08,0,0,0,.55,2.34,1.09,1.09,0,0,0,1.58-.24s0,0,0,0a1.17,1.17,0,0,1-1.82.64,2.07,2.07,0,0,1-.54-2.32,1.77,1.77,0,0,0,.2-.36A.08.08,0,0,0,48.59,69.47Z"/><path class="cls-6" d="M46.46,67.37A2.1,2.1,0,0,0,47,69.71a1.09,1.09,0,0,0,1.57-.23h0a.08.08,0,0,1,0,0,1.77,1.77,0,0,1-.2.36,1.13,1.13,0,0,1-1.62.28,2.13,2.13,0,0,1-.53-2.4A1.84,1.84,0,0,1,46.46,67.37Z"/><path class="cls-6" d="M43.17,62.94a2,2,0,0,0,.77,2.26,1.11,1.11,0,0,0,1.55-.44s0,0,0,.06a1.19,1.19,0,0,1-1.74.86A2.07,2.07,0,0,1,43,63.36,2,2,0,0,1,43.17,62.94Z"/><path class="cls-6" d="M40.7,61.39h0l0-.07a2,2,0,0,0,.78,2.26A1.1,1.1,0,0,0,43,63.15a.09.09,0,0,1,0,.05,1.19,1.19,0,0,1-1.74.87,2,2,0,0,1-.77-2.25,2.56,2.56,0,0,0,.17-.37A.13.13,0,0,1,40.7,61.39Z"/><path class="cls-6" d="M40.69,61.4h0a.13.13,0,0,0,0,.06,2.56,2.56,0,0,1-.17.37,1.14,1.14,0,0,1-1.3.6l.2-.49A1.13,1.13,0,0,0,40.69,61.4Z"/><path class="cls-6" d="M49.85,59.62a2.05,2.05,0,0,1-.76-2.31,1.63,1.63,0,0,1,.2-.42,2.06,2.06,0,0,0,.77,2.26,1.12,1.12,0,0,0,1.55-.44.07.07,0,0,0,0,0A1.2,1.2,0,0,1,49.85,59.62Z"/><path class="cls-6" d="M49.15,57.15a1.19,1.19,0,0,1-1.74.86,2,2,0,0,1-.77-2.24,3.34,3.34,0,0,0,.17-.38s0,0,0-.06h0s0-.05,0-.07a2,2,0,0,0,.77,2.26,1.11,1.11,0,0,0,1.55-.44S49.16,57.13,49.15,57.15Z"/><path class="cls-6" d="M46.81,55.39a3.34,3.34,0,0,1-.17.38,1.12,1.12,0,0,1-1.57.48,2,2,0,0,1-.77-2.31,1.63,1.63,0,0,1,.2-.42,2.06,2.06,0,0,0,.78,2.26,1.1,1.1,0,0,0,1.53-.44h0S46.81,55.37,46.81,55.39Z"/><path class="cls-6" d="M51.89,65.52a1.28,1.28,0,0,1,.24-.39,1.88,1.88,0,0,0,.61,2.23.69.69,0,0,0,.13,0c-.06.17-.13.33-.19.49l-.2-.1A1.89,1.89,0,0,1,51.89,65.52Z"/><path class="cls-6" d="M47.86,63.78a1.21,1.21,0,0,0,1.63-.33.43.43,0,0,1,0,0,1.27,1.27,0,0,1-1.87.72,1.89,1.89,0,0,1-.6-2.28,2.14,2.14,0,0,1,.24-.39A1.89,1.89,0,0,0,47.86,63.78Z"/><path class="cls-6" d="M44.61,60.3a1.79,1.79,0,0,0,.21-.36s0,0,0,0h0a.25.25,0,0,1,0-.07,1.88,1.88,0,0,0,.61,2.23,1.2,1.2,0,0,0,1.63-.32s0,0,0,0a1.27,1.27,0,0,1-1.87.72A1.88,1.88,0,0,1,44.61,60.3Z"/><path class="cls-6" d="M44.82,59.94a1.79,1.79,0,0,1-.21.36,1.21,1.21,0,0,1-1.66.36,1.89,1.89,0,0,1-.6-2.28,1.84,1.84,0,0,1,.24-.39,1.88,1.88,0,0,0,.62,2.23,1.21,1.21,0,0,0,1.62-.32h0S44.83,59.93,44.82,59.94Z"/><path class="cls-6" d="M55.84,49.46A1.63,1.63,0,0,1,56,49a2.06,2.06,0,0,0,.77,2.26,1.12,1.12,0,0,0,1.55-.44.07.07,0,0,0,0,0,1.2,1.2,0,0,1-1.75.86A2.05,2.05,0,0,1,55.84,49.46Z"/><path class="cls-6" d="M54.16,50.16a2,2,0,0,1-.77-2.24,1.63,1.63,0,0,0,.17-.38s0,0,0-.06h0s0-.05,0-.07a2,2,0,0,0,.77,2.26,1.11,1.11,0,0,0,1.55-.44s0,0,0,.06A1.19,1.19,0,0,1,54.16,50.16Z"/><path class="cls-6" d="M53.56,47.54a1.63,1.63,0,0,1-.17.38,1.12,1.12,0,0,1-1.57.48,2.06,2.06,0,0,1-.77-2.31,1.63,1.63,0,0,1,.2-.42A2.06,2.06,0,0,0,52,47.93a1.1,1.1,0,0,0,1.53-.44h0S53.56,47.52,53.56,47.54Z"/><path class="cls-6" d="M54,54.52a1.88,1.88,0,0,0,.61,2.23,1.21,1.21,0,0,0,1.63-.33s0,0,0,0a1.27,1.27,0,0,1-1.87.72,1.88,1.88,0,0,1-.59-2.28A1.28,1.28,0,0,1,54,54.52Z"/><path class="cls-6" d="M51.4,53.27a2.08,2.08,0,0,0,.2-.36l0,0h0a.25.25,0,0,0,0-.07A1.89,1.89,0,0,0,52.26,55a1.2,1.2,0,0,0,1.63-.32.43.43,0,0,0,0,0,1.28,1.28,0,0,1-1.87.72A1.87,1.87,0,0,1,51.4,53.27Z"/><path class="cls-6" d="M51.6,52.91a2.08,2.08,0,0,1-.2.36,1.23,1.23,0,0,1-1.67.36,1.89,1.89,0,0,1-.59-2.28,1.51,1.51,0,0,1,.24-.39A1.88,1.88,0,0,0,50,53.19a1.21,1.21,0,0,0,1.62-.32h0Z"/><path class="cls-6" d="M47.29,50.26s0,0,0,.05a1.27,1.27,0,0,1-1.87.72,1.54,1.54,0,0,1-.26-.25l.27-.43a1.73,1.73,0,0,0,.24.23A1.2,1.2,0,0,0,47.29,50.26Z"/><path class="cls-6" d="M59.51,41.86a1.46,1.46,0,0,0,.17-.38.11.11,0,0,0,0,0h0s0,0,0-.07a2.12,2.12,0,0,0,.49,2c0,.2,0,.4-.07.61A2.09,2.09,0,0,1,59.51,41.86Z"/><path class="cls-6" d="M59.68,41.48a1.46,1.46,0,0,1-.17.38,1.11,1.11,0,0,1-1.57.48A2,2,0,0,1,57.18,40a1.35,1.35,0,0,1,.19-.42,2.05,2.05,0,0,0,.78,2.26,1.11,1.11,0,0,0,1.54-.43h0A.11.11,0,0,1,59.68,41.48Z"/><path class="cls-6" d="M58.09,48.6a1.88,1.88,0,0,1-.61-2.21,2,2,0,0,0,.21-.35s0,0,0-.06h0a.21.21,0,0,1,0-.06,1.88,1.88,0,0,0,.61,2.23,1.16,1.16,0,0,0,1,.12c0,.13-.07.27-.1.4A1.17,1.17,0,0,1,58.09,48.6Z"/><path class="cls-6" d="M57.69,46a2,2,0,0,1-.21.35,1.22,1.22,0,0,1-1.66.37,1.91,1.91,0,0,1-.59-2.29,1.7,1.7,0,0,1,.24-.39,1.88,1.88,0,0,0,.61,2.23A1.2,1.2,0,0,0,57.7,46h0S57.7,46,57.69,46Z"/><path class="cls-6" d="M52.81,42.62a.43.43,0,0,0,0,.05,1.28,1.28,0,0,1-1.87.72l0,0,.38-.39A1.2,1.2,0,0,0,52.81,42.62Z"/><path class="cls-6" d="M55.33,44.74c-2.69,11.83-7.11,33.84-7.11,33.84l-4.31-7.46c.26-1.65.61-3.35,1.06-5.08C48.11,54.07,51.57,45.23,55.33,44.74Z"/><path class="cls-7" d="M61.84,8.34c-.85,1.22-.86,4-1.71,5.17A49.72,49.72,0,0,1,53.51,21l3.48.75-.92,2.56s12.08.82,14.54-6.24-.92-7.37-.92-7.37Z"/><path class="cls-8" d="M69.38,12.56c-4.71,10.24-5.7,10.89-12.66,9.15,0,0-3,9.58-6.79,11.32a10.94,10.94,0,0,0,4.4.62,3.17,3.17,0,0,1-1.94,2.76,16.41,16.41,0,0,0,7.47-1.74s.93,1.28-1,2.79c0,0,6.51-.33,11.73-6.78a23,23,0,0,0,4.91-14Z"/><path class="cls-9" d="M67.85,15.78c.47-.95,1-2,1.53-3.22l6.14,4.09a23,23,0,0,1-4.91,14c-5.22,6.45-11.73,6.78-11.73,6.78,1.91-1.51,1-2.79,1-2.79a16.41,16.41,0,0,1-7.47,1.74c.06,0,.11-.06.18-.09C60,34.59,63.39,24.34,67.85,15.78Z"/><ellipse class="cls-10" cx="20.04" cy="128.76" rx="19.64" ry="45.13" transform="translate(-12.46 2.57) rotate(-5.6)"/><path class="cls-11" d="M11.94,85.06a8.89,8.89,0,0,1,5.11-1.24c2.91.19,5.75,1.8,8.41,4.51A40.59,40.59,0,0,0,11.94,85.06Z"/><path class="cls-11" d="M8.9,138c13.25,0,24.71-5.95,30.3-14.61.28,2.17.51,4.39.66,6.64C41.51,154.89,34,174.42,23,173.7c-9.45-.63-18.34-16.14-21.66-36.33A43.13,43.13,0,0,0,8.9,138Z"/><path class="cls-8" d="M3.31,127.65C1.88,103.27,8.92,84,19,84.71s19.46,21,20.89,45.37S34.31,173.68,24.2,173,4.74,152,3.31,127.65Z"/><ellipse class="cls-12" cx="21.18" cy="129.01" rx="16.53" ry="40.28" transform="translate(-10.74 2.23) rotate(-4.81)"/><path class="cls-13" d="M18.83,88.87c4.29.28,8.44,4.47,11.77,11.11-2.31-2.62-4.8-4.16-7.35-4.33C14.06,95,7.66,112.52,9,134.69c.69,11.81,3.42,22.57,7.22,30.14-6-6.81-10.71-20.9-11.65-36.92C3.23,105.74,9.63,88.26,18.83,88.87Z"/><path class="cls-13" d="M20.1,115.78c5.23,2.66,8.27,5.55,10.32,15.06l-3,2.83c-1.68-8.18-4.17-12.17-9.19-15.13Z"/><path class="cls-13" d="M14.38,121.42c5.24,2.66,8.28,5.54,10.32,15l-3,2.83c-1.68-8.17-4.17-12.17-9.19-15.12Z"/><polygon class="cls-14" points="45.48 76.69 77.57 84.36 77.57 90.66 43.48 82.98 45.48 76.69"/><path class="cls-15" d="M78.59,103.45s4.3,26.41,3.69,32.14,1.22,36.65,1.22,36.65H82.28c-3.08-13.51-11.88-34.6-12.9-38.08s-4.71-27.64-4.71-27.64Z"/><path class="cls-16" d="M83,172.24l-4.69-29.48-7.15-3.71c-.9-2.35-1.55-4.09-1.78-4.89-1-3.48-4.71-27.64-4.71-27.64l13.92-3.07s4.3,26.41,3.69,32.14,1.22,36.65,1.22,36.65Z"/><path class="cls-15" d="M55.82,101.71S46.29,129.58,44.25,135s-8.07,35.77-8.07,35.77L35,170.43c.44-13.85-4-39.3-4.15-42.92S40.67,96.8,40.67,96.8Z"/><path class="cls-16" d="M39.77,129.19l-8.33-4.88c2.13-8.18,9.23-27.51,9.23-27.51l15.15,4.91S46.29,129.58,44.25,135s-8.07,35.77-8.07,35.77l-.67-.17Z"/><polygon class="cls-3" points="83.56 139.64 82.17 120.91 35.65 105.86 31.2 119.52 83.56 139.64"/><polygon class="cls-4" points="79.84 134.35 31.97 117.16 35.65 105.86 82.17 120.91 83.56 139.64 80.7 138.54 79.84 134.35"/><path class="cls-5" d="M83.71,132.73c-8-3.28-52.82-18.43-52.82-18.43s11.26-30.7,12.69-33,32.55,5.33,34.6,8.19S83.71,132.73,83.71,132.73Z"/><path class="cls-6" d="M75.71,127.79c0-18.77-3-40.85-18.29-43.43C47.3,82.65,35.73,98.51,32.58,114.88l-1.69-.58s11.26-30.7,12.69-33,32.55,5.33,34.6,8.19,5.53,43.2,5.53,43.2c-1.52-.63-4.4-1.69-8-3C75.7,129.1,75.71,128.44,75.71,127.79Z"/><path class="cls-6" d="M64.4,121.51a1.19,1.19,0,0,0,1.49-.88v.06c0,1-.72,1.6-1.56,1.37a2.25,2.25,0,0,1-1.5-2.18,2.41,2.41,0,0,1,.08-.48A2.23,2.23,0,0,0,64.4,121.51Z"/><path class="cls-6" d="M61.36,120.52a1.19,1.19,0,0,0,1.49-.88v.06c0,1-.72,1.59-1.56,1.37a2.26,2.26,0,0,1-1.5-2.18,2.39,2.39,0,0,1,.08-.49A2.26,2.26,0,0,0,61.36,120.52Z"/><path class="cls-6" d="M58.38,119.35a1.2,1.2,0,0,0,1.49-.88v.06c0,1-.72,1.59-1.56,1.37a2.25,2.25,0,0,1-1.5-2.18,2.39,2.39,0,0,1,.08-.49A2.26,2.26,0,0,0,58.38,119.35Z"/><path class="cls-6" d="M53.5,116.09A1.19,1.19,0,0,0,54.86,115a.13.13,0,0,1,0,.06c.09,1-.53,1.69-1.39,1.57a2.21,2.21,0,0,1-1.69-2,2.05,2.05,0,0,1,0-.5A2.23,2.23,0,0,0,53.5,116.09Z"/><path class="cls-6" d="M50.41,115.46a1.19,1.19,0,0,0,1.36-1.06.13.13,0,0,1,0,.06c.09,1-.54,1.68-1.39,1.56a2.23,2.23,0,0,1-1.7-2,2,2,0,0,1,0-.5A2.21,2.21,0,0,0,50.41,115.46Z"/><path class="cls-6" d="M47.36,114.65a1.19,1.19,0,0,0,1.36-1.06s0,0,0,.06c.09,1-.54,1.68-1.39,1.56a2.23,2.23,0,0,1-1.7-2,2,2,0,0,1,0-.5A2.21,2.21,0,0,0,47.36,114.65Z"/><path class="cls-6" d="M41.86,114.11A1.2,1.2,0,0,0,43.22,113s0,0,0,.06c.08,1-.54,1.69-1.39,1.57a2.21,2.21,0,0,1-1.7-2,2,2,0,0,1,0-.5A2.22,2.22,0,0,0,41.86,114.11Z"/><path class="cls-6" d="M38.76,113.48a1.2,1.2,0,0,0,1.37-1.06s0,0,0,0c.08,1-.54,1.69-1.39,1.57a2.21,2.21,0,0,1-1.7-2,1.62,1.62,0,0,1,0-.5A2.21,2.21,0,0,0,38.76,113.48Z"/><path class="cls-6" d="M35.71,112.67a1.2,1.2,0,0,0,1.37-1.06s0,0,0,.06c.08,1-.54,1.68-1.4,1.56a2.21,2.21,0,0,1-1.69-2,1.62,1.62,0,0,1,0-.5A2.21,2.21,0,0,0,35.71,112.67Z"/><path class="cls-6" d="M75.53,127.08a1.32,1.32,0,0,0,1.5-1v.06a1.36,1.36,0,0,1-1.57,1.47,2,2,0,0,1-1.52-2,1.85,1.85,0,0,1,.08-.48A2,2,0,0,0,75.53,127.08Z"/><path class="cls-6" d="M72.46,126.32a1.28,1.28,0,0,0,1.49-1s0,0,0,.06a1.37,1.37,0,0,1-1.58,1.47,2,2,0,0,1-1.51-2,1.62,1.62,0,0,1,.08-.49A2,2,0,0,0,72.46,126.32Z"/><path class="cls-6" d="M69.44,125.4a1.3,1.3,0,0,0,1.5-1v.06A1.37,1.37,0,0,1,69.37,126a2,2,0,0,1-1.52-2,2.39,2.39,0,0,1,.08-.49A2,2,0,0,0,69.44,125.4Z"/><path class="cls-6" d="M78.7,122.61a1.31,1.31,0,0,0,1.5-1v.05a1.38,1.38,0,0,1-1.58,1.48,2,2,0,0,1-1.51-2,1.53,1.53,0,0,1,.08-.49A2,2,0,0,0,78.7,122.61Z"/><path class="cls-6" d="M75.63,121.86a1.3,1.3,0,0,0,1.49-1s0,0,0,.06a1.39,1.39,0,0,1-1.58,1.48,2.06,2.06,0,0,1-1.52-2,1.85,1.85,0,0,1,.09-.49A2,2,0,0,0,75.63,121.86Z"/><path class="cls-6" d="M72.61,120.93a1.3,1.3,0,0,0,1.5-1V120a1.37,1.37,0,0,1-1.58,1.47,2,2,0,0,1-1.51-2,1.86,1.86,0,0,1,.08-.49A2,2,0,0,0,72.61,120.93Z"/><path class="cls-6" d="M72.51,112.26a1.18,1.18,0,0,0,1.42-1,.13.13,0,0,1,0,.06c0,1-.63,1.64-1.48,1.47a2.26,2.26,0,0,1-1.6-2.1,1.88,1.88,0,0,1,.06-.49A2.23,2.23,0,0,0,72.51,112.26Z"/><path class="cls-6" d="M69.44,111.45a1.19,1.19,0,0,0,1.42-1s0,0,0,.06c0,1-.63,1.64-1.48,1.46a2.24,2.24,0,0,1-1.6-2.09,1.88,1.88,0,0,1,.06-.49A2.23,2.23,0,0,0,69.44,111.45Z"/><path class="cls-6" d="M66.42,110.46a1.19,1.19,0,0,0,1.42-1s0,0,0,.06c0,1-.63,1.64-1.48,1.47a2.24,2.24,0,0,1-1.6-2.1,1.88,1.88,0,0,1,.06-.49A2.23,2.23,0,0,0,66.42,110.46Z"/><path class="cls-6" d="M57.17,107.57a1.2,1.2,0,0,0,1.37-1.07v.06c.09,1-.53,1.69-1.39,1.57a2.21,2.21,0,0,1-1.69-2,2.07,2.07,0,0,1,0-.5A2.22,2.22,0,0,0,57.17,107.57Z"/><path class="cls-6" d="M54.08,106.94a1.19,1.19,0,0,0,1.36-1.06.13.13,0,0,1,0,.06c.09,1-.54,1.68-1.39,1.56a2.23,2.23,0,0,1-1.7-2,2,2,0,0,1,0-.5A2.21,2.21,0,0,0,54.08,106.94Z"/><path class="cls-6" d="M51,106.13a1.19,1.19,0,0,0,1.36-1.06s0,0,0,.06c.09,1-.54,1.68-1.39,1.56a2.23,2.23,0,0,1-1.7-2,2,2,0,0,1,0-.5A2.21,2.21,0,0,0,51,106.13Z"/><path class="cls-6" d="M45.05,104.36a1.2,1.2,0,0,0,1.36-1.07s0,0,0,.06c.08,1-.54,1.69-1.39,1.57a2.22,2.22,0,0,1-1.7-2,2,2,0,0,1,0-.5A2.22,2.22,0,0,0,45.05,104.36Z"/><path class="cls-6" d="M42,103.73a1.2,1.2,0,0,0,1.37-1.07s0,0,0,.06c.08,1-.54,1.69-1.39,1.57a2.21,2.21,0,0,1-1.7-2,1.67,1.67,0,0,1,0-.5A2.21,2.21,0,0,0,42,103.73Z"/><path class="cls-6" d="M38.9,102.92a1.2,1.2,0,0,0,1.37-1.06.15.15,0,0,0,0,.06c.08,1-.54,1.68-1.4,1.56a2.21,2.21,0,0,1-1.69-2,1.62,1.62,0,0,1,0-.5A2.21,2.21,0,0,0,38.9,102.92Z"/><path class="cls-6" d="M69.24,116.37a1.3,1.3,0,0,0,1.5-1v.06a1.36,1.36,0,0,1-1.57,1.47,2,2,0,0,1-1.52-2,2.39,2.39,0,0,1,.08-.49A2,2,0,0,0,69.24,116.37Z"/><path class="cls-6" d="M66.17,115.62a1.3,1.3,0,0,0,1.49-1s0,0,0,.06a1.37,1.37,0,0,1-1.58,1.47,2,2,0,0,1-1.51-2,1.51,1.51,0,0,1,.08-.48A2,2,0,0,0,66.17,115.62Z"/><path class="cls-6" d="M63.15,114.69a1.3,1.3,0,0,0,1.5-1v.05a1.37,1.37,0,0,1-1.57,1.48,2,2,0,0,1-1.52-2,2.39,2.39,0,0,1,.08-.49A2,2,0,0,0,63.15,114.69Z"/><path class="cls-6" d="M56.84,113.08a1.3,1.3,0,0,0,1.5-1v.06a1.37,1.37,0,0,1-1.58,1.47,2,2,0,0,1-1.51-2,1.93,1.93,0,0,1,.08-.49A2,2,0,0,0,56.84,113.08Z"/><path class="cls-6" d="M53.77,112.33a1.28,1.28,0,0,0,1.49-1s0,0,0,.06a1.37,1.37,0,0,1-1.58,1.47,2,2,0,0,1-1.51-2,1.53,1.53,0,0,1,.08-.49A2,2,0,0,0,53.77,112.33Z"/><path class="cls-6" d="M50.75,111.4a1.29,1.29,0,0,0,1.5-1v.06A1.36,1.36,0,0,1,50.68,112a2,2,0,0,1-1.52-2,2.64,2.64,0,0,1,.08-.49A2,2,0,0,0,50.75,111.4Z"/><path class="cls-6" d="M44.5,110a1.31,1.31,0,0,0,1.5-1s0,0,0,.06a1.36,1.36,0,0,1-1.57,1.47,2,2,0,0,1-1.52-2A2.41,2.41,0,0,1,43,108,2.06,2.06,0,0,0,44.5,110Z"/><path class="cls-6" d="M41.43,109.27a1.32,1.32,0,0,0,1.5-1v.06a1.37,1.37,0,0,1-1.58,1.47,2,2,0,0,1-1.51-2,1.51,1.51,0,0,1,.08-.48A2,2,0,0,0,41.43,109.27Z"/><path class="cls-6" d="M38.42,108.34a1.3,1.3,0,0,0,1.49-1s0,0,0,.06a1.39,1.39,0,0,1-1.58,1.48,2,2,0,0,1-1.51-2,1.53,1.53,0,0,1,.08-.49A2,2,0,0,0,38.42,108.34Z"/><path class="cls-6" d="M72,101.6a1.2,1.2,0,0,0,1.49-.88v.06c0,1-.72,1.59-1.56,1.36a2.23,2.23,0,0,1-1.5-2.17,2.39,2.39,0,0,1,.08-.49A2.26,2.26,0,0,0,72,101.6Z"/><path class="cls-6" d="M68.91,100.6a1.18,1.18,0,0,0,1.48-.88.13.13,0,0,1,0,.06c0,1-.72,1.59-1.56,1.37A2.25,2.25,0,0,1,67.34,99a2.39,2.39,0,0,1,.08-.49A2.26,2.26,0,0,0,68.91,100.6Z"/><path class="cls-6" d="M65.93,99.43a1.18,1.18,0,0,0,1.48-.88s0,0,0,.06c0,1-.72,1.59-1.56,1.37a2.25,2.25,0,0,1-1.5-2.18,1.85,1.85,0,0,1,.08-.48A2.25,2.25,0,0,0,65.93,99.43Z"/><path class="cls-6" d="M60.75,97a1.19,1.19,0,0,0,1.36-1.06s0,0,0,.06c.09,1-.54,1.69-1.39,1.56a2.22,2.22,0,0,1-1.7-2,2,2,0,0,1,0-.5A2.19,2.19,0,0,0,60.75,97Z"/><path class="cls-6" d="M57.66,96.38A1.2,1.2,0,0,0,59,95.31s0,0,0,.06c.08,1-.54,1.69-1.39,1.57a2.21,2.21,0,0,1-1.7-2,2,2,0,0,1,0-.5A2.22,2.22,0,0,0,57.66,96.38Z"/><path class="cls-6" d="M54.6,95.57A1.2,1.2,0,0,0,56,94.5s0,0,0,.06c.08,1-.54,1.69-1.39,1.57a2.21,2.21,0,0,1-1.7-2,1.64,1.64,0,0,1,0-.5A2.21,2.21,0,0,0,54.6,95.57Z"/><path class="cls-6" d="M49.1,95A1.2,1.2,0,0,0,50.47,94a.13.13,0,0,0,0,.06c.08,1-.54,1.69-1.4,1.56a2.2,2.2,0,0,1-1.69-2,1.64,1.64,0,0,1,0-.5A2.18,2.18,0,0,0,49.1,95Z"/><path class="cls-6" d="M46,94.4a1.19,1.19,0,0,0,1.36-1.07.13.13,0,0,1,0,.06c.09,1-.53,1.69-1.39,1.57a2.22,2.22,0,0,1-1.69-2,2.05,2.05,0,0,1,0-.5A2.22,2.22,0,0,0,46,94.4Z"/><path class="cls-6" d="M43,93.59a1.19,1.19,0,0,0,1.36-1.07.13.13,0,0,1,0,.06c.09,1-.54,1.69-1.39,1.57a2.23,2.23,0,0,1-1.7-2,2,2,0,0,1,0-.5A2.22,2.22,0,0,0,43,93.59Z"/><path class="cls-6" d="M72.45,106.54a1.29,1.29,0,0,0,1.49-1s0,0,0,.06a1.37,1.37,0,0,1-1.58,1.47,2,2,0,0,1-1.51-2,1.53,1.53,0,0,1,.08-.49A2,2,0,0,0,72.45,106.54Z"/><path class="cls-6" d="M69.37,105.79a1.32,1.32,0,0,0,1.5-1v.06a1.36,1.36,0,0,1-1.57,1.47,2,2,0,0,1-1.52-2,1.85,1.85,0,0,1,.08-.48A2,2,0,0,0,69.37,105.79Z"/><path class="cls-6" d="M66.36,104.86a1.29,1.29,0,0,0,1.49-1s0,0,0,.05a1.38,1.38,0,0,1-1.58,1.48,2,2,0,0,1-1.51-2,1.53,1.53,0,0,1,.08-.49A2,2,0,0,0,66.36,104.86Z"/><path class="cls-6" d="M60.78,103.32a1.3,1.3,0,0,0,1.5-1v.06a1.37,1.37,0,0,1-1.58,1.47,2,2,0,0,1-1.51-2,1.86,1.86,0,0,1,.08-.49A2,2,0,0,0,60.78,103.32Z"/><path class="cls-6" d="M57.71,102.57a1.28,1.28,0,0,0,1.49-1s0,0,0,.06a1.38,1.38,0,0,1-1.58,1.47,2,2,0,0,1-1.51-2,1.53,1.53,0,0,1,.08-.49A2,2,0,0,0,57.71,102.57Z"/><path class="cls-6" d="M54.69,101.64a1.3,1.3,0,0,0,1.5-1v.06a1.36,1.36,0,0,1-1.57,1.47,2,2,0,0,1-1.52-2,2,2,0,0,1,.08-.49A2,2,0,0,0,54.69,101.64Z"/><path class="cls-6" d="M49.32,100.79a1.3,1.3,0,0,0,1.5-1v.06a1.37,1.37,0,0,1-1.57,1.47,2,2,0,0,1-1.52-2,1.86,1.86,0,0,1,.08-.49A2,2,0,0,0,49.32,100.79Z"/><path class="cls-6" d="M46.25,100a1.29,1.29,0,0,0,1.49-1s0,0,0,.06a1.38,1.38,0,0,1-1.58,1.47,2,2,0,0,1-1.51-2,1.53,1.53,0,0,1,.08-.49A2,2,0,0,0,46.25,100Z"/><path class="cls-6" d="M43.23,99.11a1.29,1.29,0,0,0,1.5-1v.06a1.36,1.36,0,0,1-1.57,1.47,2,2,0,0,1-1.52-2,2.64,2.64,0,0,1,.08-.49A2,2,0,0,0,43.23,99.11Z"/><path class="cls-6" d="M75.64,91.87a1.2,1.2,0,0,0,1.43-1,.13.13,0,0,0,0,.06c0,1-.63,1.65-1.48,1.47A2.23,2.23,0,0,1,74,90.33a2,2,0,0,1,0-.5A2.23,2.23,0,0,0,75.64,91.87Z"/><path class="cls-6" d="M72.57,91.06a1.2,1.2,0,0,0,1.43-1v.06c0,1-.62,1.64-1.47,1.47a2.23,2.23,0,0,1-1.6-2.09,1.64,1.64,0,0,1,0-.5A2.24,2.24,0,0,0,72.57,91.06Z"/><path class="cls-6" d="M69.55,90.07a1.2,1.2,0,0,0,1.43-1v.06c0,1-.63,1.64-1.48,1.47a2.22,2.22,0,0,1-1.59-2.09,1.64,1.64,0,0,1,0-.5A2.24,2.24,0,0,0,69.55,90.07Z"/><path class="cls-6" d="M64.42,88.49a1.2,1.2,0,0,0,1.36-1.07s0,0,0,.06c.09,1-.54,1.69-1.39,1.56a2.22,2.22,0,0,1-1.7-2,2,2,0,0,1,0-.5A2.22,2.22,0,0,0,64.42,88.49Z"/><path class="cls-6" d="M61.33,87.86a1.2,1.2,0,0,0,1.36-1.07s0,0,0,.06c.08,1-.54,1.69-1.39,1.57a2.21,2.21,0,0,1-1.7-2,2,2,0,0,1,0-.5A2.22,2.22,0,0,0,61.33,87.86Z"/><path class="cls-6" d="M58.27,87.05A1.2,1.2,0,0,0,59.64,86s0,0,0,.06c.08,1-.54,1.69-1.39,1.57a2.21,2.21,0,0,1-1.7-2,1.67,1.67,0,0,1,0-.5A2.21,2.21,0,0,0,58.27,87.05Z"/><path class="cls-6" d="M52.29,85.27a1.2,1.2,0,0,0,1.37-1.06.13.13,0,0,0,0,.06c.08,1-.54,1.68-1.4,1.56a2.21,2.21,0,0,1-1.69-2,2.05,2.05,0,0,1,0-.5A2.22,2.22,0,0,0,52.29,85.27Z"/><path class="cls-6" d="M49.2,84.65a1.19,1.19,0,0,0,1.36-1.07.13.13,0,0,1,0,.06c.09,1-.54,1.69-1.39,1.57a2.22,2.22,0,0,1-1.69-2,1.65,1.65,0,0,1,0-.5A2.22,2.22,0,0,0,49.2,84.65Z"/><path class="cls-6" d="M46.15,83.84a1.19,1.19,0,0,0,1.36-1.07.13.13,0,0,1,0,.06c.09,1-.54,1.69-1.39,1.57a2.23,2.23,0,0,1-1.7-2,2,2,0,0,1,0-.5A2.22,2.22,0,0,0,46.15,83.84Z"/><path class="cls-6" d="M76.49,97.28a1.3,1.3,0,0,0,1.5-1v.06a1.37,1.37,0,0,1-1.58,1.47,2,2,0,0,1-1.51-2A1.62,1.62,0,0,1,75,95.3,2,2,0,0,0,76.49,97.28Z"/><path class="cls-6" d="M73.41,96.53a1.29,1.29,0,0,0,1.5-1s0,0,0,.06a1.37,1.37,0,0,1-1.58,1.47,2,2,0,0,1-1.52-2,2.64,2.64,0,0,1,.08-.49A2,2,0,0,0,73.41,96.53Z"/><path class="cls-6" d="M70.4,95.61a1.32,1.32,0,0,0,1.5-1v.06a1.37,1.37,0,0,1-1.58,1.47,2,2,0,0,1-1.51-2,1.85,1.85,0,0,1,.08-.48A2,2,0,0,0,70.4,95.61Z"/><path class="cls-6" d="M64.09,94a1.29,1.29,0,0,0,1.49-1s0,0,0,.06A1.39,1.39,0,0,1,64,94.55a2,2,0,0,1-1.51-2,1.53,1.53,0,0,1,.08-.49A2,2,0,0,0,64.09,94Z"/><path class="cls-6" d="M61,93.25a1.3,1.3,0,0,0,1.5-1v.06a1.37,1.37,0,0,1-1.57,1.48,2,2,0,0,1-1.52-2,2.39,2.39,0,0,1,.08-.49A2,2,0,0,0,61,93.25Z"/><path class="cls-6" d="M58,92.32a1.3,1.3,0,0,0,1.5-1v.06a1.37,1.37,0,0,1-1.58,1.47,2,2,0,0,1-1.51-2,1.53,1.53,0,0,1,.08-.49A2,2,0,0,0,58,92.32Z"/><path class="cls-6" d="M51.75,90.93a1.3,1.3,0,0,0,1.5-1V90a1.37,1.37,0,0,1-1.58,1.47,2,2,0,0,1-1.51-2,2,2,0,0,1,.08-.49A2,2,0,0,0,51.75,90.93Z"/><path class="cls-6" d="M48.68,90.18a1.28,1.28,0,0,0,1.49-1s0,0,0,.06a1.37,1.37,0,0,1-1.58,1.47,2,2,0,0,1-1.51-2,1.53,1.53,0,0,1,.08-.49A2,2,0,0,0,48.68,90.18Z"/><path class="cls-6" d="M45.66,89.26a1.32,1.32,0,0,0,1.5-1v.06a1.36,1.36,0,0,1-1.57,1.47,2,2,0,0,1-1.52-2,1.85,1.85,0,0,1,.08-.48A2,2,0,0,0,45.66,89.26Z"/><path class="cls-5" d="M87.85,46.13c1.85,8.75-8,36.85-10.28,38.23s-22.57-6.14-32.71-6c-1.79,0,5.38-34.86,9.22-36.55S84.63,30.8,87.85,46.13Z"/><path class="cls-6" d="M72.21,80.46a2.14,2.14,0,0,0,1.68,1.81,1.12,1.12,0,0,0,1.29-1s0,0,0,.06c.11.93-.47,1.59-1.3,1.49a2.14,2.14,0,0,1-1.69-1.87A1.83,1.83,0,0,1,72.21,80.46Z"/><path class="cls-6" d="M69.23,80s0,0,0-.06v0s0-.06,0-.08a2.13,2.13,0,0,0,1.67,1.81,1.13,1.13,0,0,0,1.29-1s0,0,0,.06a1.2,1.2,0,0,1-1.3,1.49,2.13,2.13,0,0,1-1.67-1.78A1.6,1.6,0,0,0,69.23,80Z"/><path class="cls-6" d="M67.93,81a1.12,1.12,0,0,0,1.28-1v0s0,0,0,.06a1.6,1.6,0,0,1,0,.44,1.13,1.13,0,0,1-1.29,1,2.13,2.13,0,0,1-1.69-1.87,1.84,1.84,0,0,1,0-.47A2.13,2.13,0,0,0,67.93,81Z"/><path class="cls-6" d="M61.06,76.91a2.11,2.11,0,0,0,1.84,1.62,1.13,1.13,0,0,0,1.15-1.18.14.14,0,0,1,0,.06c.21.92-.29,1.66-1.12,1.65a2.1,2.1,0,0,1-1.85-1.68A1.52,1.52,0,0,1,61.06,76.91Z"/><path class="cls-6" d="M58.08,76.83s0,0,0-.06v-.06a2.1,2.1,0,0,0,1.84,1.62,1.13,1.13,0,0,0,1.15-1.18.14.14,0,0,1,0,.06c.2.92-.3,1.66-1.12,1.65a2.1,2.1,0,0,1-1.83-1.59A1.34,1.34,0,0,0,58.08,76.83Z"/><path class="cls-6" d="M56.91,78a1.12,1.12,0,0,0,1.15-1.16v0s0,0,0,.06a1.34,1.34,0,0,1,0,.44A1.15,1.15,0,0,1,57,78.49a2.12,2.12,0,0,1-1.86-1.68,2,2,0,0,1,0-.48A2.1,2.1,0,0,0,56.91,78Z"/><path class="cls-6" d="M49.8,76.52a2.12,2.12,0,0,0,1.84,1.62A1.15,1.15,0,0,0,52.8,77a.08.08,0,0,0,0,.05c.2.93-.3,1.67-1.12,1.66A2.13,2.13,0,0,1,49.84,77,1.91,1.91,0,0,1,49.8,76.52Z"/><path class="cls-6" d="M46.83,76.44s0,0,0-.06h0s0,0,0-.07a2.12,2.12,0,0,0,1.84,1.62,1.14,1.14,0,0,0,1.16-1.18.43.43,0,0,0,0,0c.21.93-.29,1.67-1.11,1.66a2.09,2.09,0,0,1-1.83-1.59A2.25,2.25,0,0,0,46.83,76.44Z"/><path class="cls-6" d="M46.81,76.39h0s0,0,0,.06a2.25,2.25,0,0,1,0,.44,1.14,1.14,0,0,1-1.16,1.21,1.79,1.79,0,0,1-1.12-.46c0-.14,0-.31,0-.5a1.65,1.65,0,0,0,1.07.43A1.14,1.14,0,0,0,46.81,76.39Z"/><path class="cls-6" d="M77.47,83.62a2.07,2.07,0,0,0,.21.65l-.11.09,0,0a1.36,1.36,0,0,1-.06-.29A1.84,1.84,0,0,1,77.47,83.62Z"/><path class="cls-6" d="M79.89,79a2.3,2.3,0,0,0,.24.68L80,80a2,2,0,0,1-.13-.5A1.83,1.83,0,0,1,79.89,79Z"/><path class="cls-6" d="M78.61,70.78a2.13,2.13,0,0,0,1.76,1.72,1.14,1.14,0,0,0,1.23-1.1s0,0,0,0c.16.93-.38,1.63-1.21,1.58a2.15,2.15,0,0,1-1.78-1.78A2.48,2.48,0,0,1,78.61,70.78Z"/><path class="cls-6" d="M77.4,72.65A2.12,2.12,0,0,1,75.64,71a2.17,2.17,0,0,0,0-.44s0,0,0-.06h0V70.4a2.12,2.12,0,0,0,1.76,1.72A1.12,1.12,0,0,0,78.59,71s0,0,0,.06C78.76,72,78.22,72.71,77.4,72.65Z"/><path class="cls-6" d="M75.63,70.53a2.17,2.17,0,0,1,0,.44,1.13,1.13,0,0,1-1.22,1.13,2.13,2.13,0,0,1-1.78-1.77,1.56,1.56,0,0,1,0-.48,2.12,2.12,0,0,0,1.76,1.72,1.13,1.13,0,0,0,1.22-1.09h0S75.62,70.51,75.63,70.53Z"/><path class="cls-6" d="M65.34,70.55a2.13,2.13,0,0,1-1.86-1.68,2,2,0,0,1,0-.48A2.1,2.1,0,0,0,65.29,70a1.13,1.13,0,0,0,1.15-1.18.14.14,0,0,0,0,.06A1.23,1.23,0,0,1,65.34,70.55Z"/><path class="cls-6" d="M60.47,68.31s0,0,0,0h0s0,0,0-.08a2.1,2.1,0,0,0,1.84,1.62,1.14,1.14,0,0,0,1.16-1.18s0,0,0,.06a1.23,1.23,0,0,1-1.11,1.66,2.11,2.11,0,0,1-1.83-1.59A2.35,2.35,0,0,0,60.47,68.31Z"/><path class="cls-6" d="M57.46,67.81a2.1,2.1,0,0,0,1.84,1.63,1.14,1.14,0,0,0,1.15-1.17h0s0,0,0,0a2.35,2.35,0,0,1,0,.45A1.15,1.15,0,0,1,59.35,70a2.11,2.11,0,0,1-1.85-1.68A1.59,1.59,0,0,1,57.46,67.81Z"/><path class="cls-6" d="M53.42,68.52a1.13,1.13,0,0,0,1.15-1.18.14.14,0,0,1,0,.06c.2.92-.3,1.66-1.12,1.65a2.11,2.11,0,0,1-1.85-1.68,1.52,1.52,0,0,1,0-.47A2.1,2.1,0,0,0,53.42,68.52Z"/><path class="cls-6" d="M48.6,66.82s0,0,0-.06V66.7a2.1,2.1,0,0,0,1.84,1.62,1.13,1.13,0,0,0,1.15-1.18s0,0,0,.06c.2.92-.3,1.66-1.12,1.65a2.1,2.1,0,0,1-1.83-1.59A1.34,1.34,0,0,0,48.6,66.82Z"/><path class="cls-6" d="M47.43,67.94a1.13,1.13,0,0,0,1.15-1.16v0s0,0,0,.06a1.34,1.34,0,0,1,0,.44,1.14,1.14,0,0,1-1.15,1.21,2,2,0,0,1-1.56-1c0-.13,0-.24.07-.37A1.89,1.89,0,0,0,47.43,67.94Z"/><path class="cls-6" d="M76.13,75.11a1.93,1.93,0,0,0,1.68,1.68,1.23,1.23,0,0,0,1.29-1.12s0,0,0,.06a1.31,1.31,0,0,1-1.3,1.59,1.94,1.94,0,0,1-1.69-1.73A1.91,1.91,0,0,1,76.13,75.11Z"/><path class="cls-6" d="M73.14,75.36a2.16,2.16,0,0,0,0-.44.13.13,0,0,0,0-.06h0V74.8a1.92,1.92,0,0,0,1.68,1.67,1.23,1.23,0,0,0,1.29-1.12s0,0,0,.06A1.31,1.31,0,0,1,74.81,77,1.92,1.92,0,0,1,73.14,75.36Z"/><path class="cls-6" d="M73.14,74.92a2.16,2.16,0,0,1,0,.44,1.25,1.25,0,0,1-1.3,1.15,2,2,0,0,1-1.69-1.74,1.47,1.47,0,0,1,0-.47A1.92,1.92,0,0,0,71.84,76a1.24,1.24,0,0,0,1.29-1.11h0A.13.13,0,0,1,73.14,74.92Z"/><path class="cls-6" d="M64,73.59a1.94,1.94,0,0,0,1.67,1.68A1.24,1.24,0,0,0,67,74.15a.07.07,0,0,1,0,0,1.3,1.3,0,0,1-1.3,1.59A1.94,1.94,0,0,1,64,74.06,1.46,1.46,0,0,1,64,73.59Z"/><path class="cls-6" d="M62.67,75.47A1.91,1.91,0,0,1,61,73.83a1.61,1.61,0,0,0,0-.44s0,0,0-.06v0s0-.06,0-.08A1.93,1.93,0,0,0,62.67,75,1.24,1.24,0,0,0,64,73.83a.09.09,0,0,1,0,0A1.3,1.3,0,0,1,62.67,75.47Z"/><path class="cls-6" d="M61,73.39a1.61,1.61,0,0,1,0,.44A1.24,1.24,0,0,1,59.71,75,1.93,1.93,0,0,1,58,73.25a1.82,1.82,0,0,1,0-.47,1.92,1.92,0,0,0,1.68,1.67A1.22,1.22,0,0,0,61,73.35v0S61,73.37,61,73.39Z"/><path class="cls-6" d="M51.94,72.73a1.83,1.83,0,0,1,0-.47,1.94,1.94,0,0,0,1.68,1.68,1.25,1.25,0,0,0,1.29-1.12s0,0,0,.05a1.31,1.31,0,0,1-1.31,1.59A1.93,1.93,0,0,1,51.94,72.73Z"/><path class="cls-6" d="M51.93,72.55a1.32,1.32,0,0,1-1.31,1.6A2,2,0,0,1,49,72.5a1.61,1.61,0,0,0,0-.44.43.43,0,0,0,0,0h0v-.08a1.94,1.94,0,0,0,1.68,1.68,1.25,1.25,0,0,0,1.29-1.12S51.93,72.53,51.93,72.55Z"/><path class="cls-6" d="M49,72.06a1.61,1.61,0,0,1,0,.44,1.23,1.23,0,0,1-1.29,1.15A1.94,1.94,0,0,1,46,71.92a1.83,1.83,0,0,1,0-.47,1.94,1.94,0,0,0,1.68,1.68A1.25,1.25,0,0,0,49,72h0A.43.43,0,0,1,49,72.06Z"/><path class="cls-6" d="M78.49,62.49a1.12,1.12,0,0,0,1.29-1,.13.13,0,0,1,0,.06c.11.93-.47,1.59-1.3,1.49a2.17,2.17,0,0,1-1.69-1.87,1.46,1.46,0,0,1,0-.47A2.13,2.13,0,0,0,78.49,62.49Z"/><path class="cls-6" d="M73.83,60.25s0,0,0-.06v0s0-.06,0-.08a2.14,2.14,0,0,0,1.68,1.81,1.12,1.12,0,0,0,1.28-1,.13.13,0,0,1,0,.06,1.2,1.2,0,0,1-1.3,1.49,2.16,2.16,0,0,1-1.67-1.78A1.6,1.6,0,0,0,73.83,60.25Z"/><path class="cls-6" d="M73.82,60.21v0s0,0,0,.06a1.6,1.6,0,0,1,0,.44,1.12,1.12,0,0,1-1.29,1.05,2.14,2.14,0,0,1-1.69-1.87,1.84,1.84,0,0,1,0-.47,2.13,2.13,0,0,0,1.68,1.81A1.12,1.12,0,0,0,73.82,60.21Z"/><path class="cls-6" d="M68.49,58.45a1.23,1.23,0,0,1-1.11,1.66,2.11,2.11,0,0,1-1.86-1.68,1.59,1.59,0,0,1,0-.48,2.12,2.12,0,0,0,1.84,1.63,1.14,1.14,0,0,0,1.15-1.18S68.49,58.43,68.49,58.45Z"/><path class="cls-6" d="M62.51,57.88a.14.14,0,0,1,0-.06h0s0,0,0-.08a2.12,2.12,0,0,0,1.84,1.63,1.14,1.14,0,0,0,1.15-1.18s0,0,0,0c.21.92-.29,1.67-1.12,1.66a2.11,2.11,0,0,1-1.83-1.59A1.66,1.66,0,0,0,62.51,57.88Z"/><path class="cls-6" d="M62.49,57.83h0a.14.14,0,0,0,0,.06,1.66,1.66,0,0,1,0,.44,1.14,1.14,0,0,1-1.15,1.21,2.12,2.12,0,0,1-1.86-1.68,1.91,1.91,0,0,1,0-.47A2.11,2.11,0,0,0,61.33,59,1.14,1.14,0,0,0,62.49,57.83Z"/><path class="cls-6" d="M56.07,59.19A1.14,1.14,0,0,0,57.22,58s0,0,0,.05a1.23,1.23,0,0,1-1.12,1.66A2.13,2.13,0,0,1,54.26,58a2,2,0,0,1,0-.48A2.1,2.1,0,0,0,56.07,59.19Z"/><path class="cls-6" d="M51.25,57.49a.14.14,0,0,0,0-.06h0s0,0,0-.08A2.12,2.12,0,0,0,53.07,59a1.14,1.14,0,0,0,1.15-1.18s0,0,0,0a1.23,1.23,0,0,1-1.12,1.66,2.1,2.1,0,0,1-1.83-1.59A2.25,2.25,0,0,0,51.25,57.49Z"/><path class="cls-6" d="M50.08,58.61a1.14,1.14,0,0,0,1.15-1.17h0a.14.14,0,0,1,0,.06,2.25,2.25,0,0,1,0,.44,1.14,1.14,0,0,1-1.16,1.21,2.11,2.11,0,0,1-1.85-1.68,1.46,1.46,0,0,1,0-.41v0A2.11,2.11,0,0,0,50.08,58.61Z"/><path class="cls-6" d="M80.89,66a1.32,1.32,0,0,1-1.3,1.6,1.94,1.94,0,0,1-1.69-1.74,1.83,1.83,0,0,1,0-.47,1.94,1.94,0,0,0,1.68,1.68A1.25,1.25,0,0,0,80.88,66S80.89,66,80.89,66Z"/><path class="cls-6" d="M74.92,65.22s0,0,0,0h0V65.1a1.94,1.94,0,0,0,1.68,1.68,1.25,1.25,0,0,0,1.29-1.12.43.43,0,0,0,0,0,1.31,1.31,0,0,1-1.3,1.6,2,2,0,0,1-1.68-1.65A1.6,1.6,0,0,0,74.92,65.22Z"/><path class="cls-6" d="M71.93,65.08a1.83,1.83,0,0,1,0-.47,1.94,1.94,0,0,0,1.68,1.68,1.25,1.25,0,0,0,1.29-1.11h0s0,0,0,0a1.6,1.6,0,0,1,0,.44,1.23,1.23,0,0,1-1.29,1.15A1.94,1.94,0,0,1,71.93,65.08Z"/><path class="cls-6" d="M69.45,64.42a.13.13,0,0,0,0,.06,1.31,1.31,0,0,1-1.31,1.59,2,2,0,0,1-1.69-1.74,1.83,1.83,0,0,1,0-.47,1.93,1.93,0,0,0,1.68,1.68A1.25,1.25,0,0,0,69.45,64.42Z"/><path class="cls-6" d="M66.46,64.16a1.31,1.31,0,0,1-1.31,1.59,1.94,1.94,0,0,1-1.67-1.65,1.54,1.54,0,0,0,0-.43s0,0,0-.06h0a.21.21,0,0,1,0-.08,1.93,1.93,0,0,0,1.68,1.68,1.22,1.22,0,0,0,1.28-1.12S66.45,64.14,66.46,64.16Z"/><path class="cls-6" d="M63.49,63.67a1.54,1.54,0,0,1,0,.43,1.24,1.24,0,0,1-1.29,1.16,1.94,1.94,0,0,1-1.69-1.74,1.84,1.84,0,0,1,0-.47,1.93,1.93,0,0,0,1.68,1.68,1.25,1.25,0,0,0,1.29-1.11h0S63.49,63.65,63.49,63.67Z"/><path class="cls-6" d="M55.31,63.4a2.4,2.4,0,0,1,0-.47A1.94,1.94,0,0,0,57,64.61a1.25,1.25,0,0,0,1.29-1.12s0,0,0,0A1.31,1.31,0,0,1,57,65.13,1.93,1.93,0,0,1,55.31,63.4Z"/><path class="cls-6" d="M52.33,63.17a1.6,1.6,0,0,0,0-.44.43.43,0,0,0,0,0h0s0-.06,0-.08A1.94,1.94,0,0,0,54,64.29a1.25,1.25,0,0,0,1.29-1.12.07.07,0,0,0,0,0A1.32,1.32,0,0,1,54,64.82,1.94,1.94,0,0,1,52.33,63.17Z"/><path class="cls-6" d="M52.34,62.73a1.6,1.6,0,0,1,0,.44A1.23,1.23,0,0,1,51,64.32a1.93,1.93,0,0,1-1.69-1.73,1.83,1.83,0,0,1,0-.47A1.94,1.94,0,0,0,51,63.8a1.25,1.25,0,0,0,1.29-1.11h0A.43.43,0,0,1,52.34,62.73Z"/><path class="cls-6" d="M80.77,53.36A2.14,2.14,0,0,1,79,51.59a2.6,2.6,0,0,1,0-.48,2.13,2.13,0,0,0,1.76,1.72A1.13,1.13,0,0,0,82,51.73s0,0,0,.06C82.14,52.71,81.6,53.42,80.77,53.36Z"/><path class="cls-6" d="M77.77,53A2.12,2.12,0,0,1,76,51.3a2.17,2.17,0,0,0,0-.44s0,0,0-.06h0a.21.21,0,0,1,0-.08,2.11,2.11,0,0,0,1.76,1.72A1.12,1.12,0,0,0,79,51.35s0,0,0,.06C79.13,52.33,78.59,53,77.77,53Z"/><path class="cls-6" d="M76,50.86a2.17,2.17,0,0,1,0,.44,1.13,1.13,0,0,1-1.22,1.13A2.12,2.12,0,0,1,73,50.66a1.56,1.56,0,0,1,0-.48,2.12,2.12,0,0,0,1.76,1.72A1.13,1.13,0,0,0,76,50.81h0S76,50.84,76,50.86Z"/><path class="cls-6" d="M69.76,51.59a2.12,2.12,0,0,1-1.86-1.68,1.89,1.89,0,0,1,0-.47,2.1,2.1,0,0,0,1.84,1.62,1.13,1.13,0,0,0,1.15-1.18s0,0,0,.06C71.08,50.86,70.58,51.6,69.76,51.59Z"/><path class="cls-6" d="M66.76,51.39a2.1,2.1,0,0,1-1.83-1.59,1.68,1.68,0,0,0,0-.44.08.08,0,0,0,0,0h0s0-.06,0-.08a2.09,2.09,0,0,0,1.84,1.62,1.13,1.13,0,0,0,1.15-1.18.14.14,0,0,0,0,.06C68.08,50.66,67.58,51.4,66.76,51.39Z"/><path class="cls-6" d="M64.89,49.36a1.68,1.68,0,0,1,0,.44A1.15,1.15,0,0,1,63.77,51a2.11,2.11,0,0,1-1.85-1.68,1.61,1.61,0,0,1,0-.48,2.1,2.1,0,0,0,1.84,1.62,1.12,1.12,0,0,0,1.15-1.16h0A.08.08,0,0,1,64.89,49.36Z"/><path class="cls-6" d="M57.9,50.1A2.11,2.11,0,0,1,56,48.42a1.59,1.59,0,0,1,0-.48,2.12,2.12,0,0,0,1.84,1.63A1.14,1.14,0,0,0,59,48.39s0,0,0,0A1.23,1.23,0,0,1,57.9,50.1Z"/><path class="cls-6" d="M53,47.87s0,0,0-.06h0s0,0,0-.08a2.11,2.11,0,0,0,1.84,1.63A1.14,1.14,0,0,0,56,48.19s0,0,0,.05a1.23,1.23,0,0,1-1.12,1.66,2.11,2.11,0,0,1-1.83-1.59A1.34,1.34,0,0,0,53,47.87Z"/><path class="cls-6" d="M51.85,49A1.14,1.14,0,0,0,53,47.82h0s0,0,0,.06a1.34,1.34,0,0,1,0,.44,1.14,1.14,0,0,1-1.15,1.21,1.87,1.87,0,0,1-1.34-.68l.12-.35A1.81,1.81,0,0,0,51.85,49Z"/><path class="cls-6" d="M80.54,56.63a1.84,1.84,0,0,1,0-.47,1.93,1.93,0,0,0,1.68,1.68,1.23,1.23,0,0,0,1.29-1.12s0,0,0,.06a1.31,1.31,0,0,1-1.3,1.59A2,2,0,0,1,80.54,56.63Z"/><path class="cls-6" d="M77.57,56s0,0,0-.05h0v-.08a1.93,1.93,0,0,0,1.68,1.68,1.23,1.23,0,0,0,1.29-1.12s0,0,0,.06a1.31,1.31,0,0,1-1.3,1.59,1.93,1.93,0,0,1-1.67-1.65A2.12,2.12,0,0,0,77.57,56Z"/><path class="cls-6" d="M74.57,55.82a1.47,1.47,0,0,1,0-.47A1.94,1.94,0,0,0,76.27,57a1.24,1.24,0,0,0,1.28-1.11h0s0,0,0,.05a2.12,2.12,0,0,1,0,.44,1.25,1.25,0,0,1-1.3,1.16A2,2,0,0,1,74.57,55.82Z"/><path class="cls-6" d="M70.09,56.84a2,2,0,0,1-1.69-1.73,1.52,1.52,0,0,1,0-.48,1.93,1.93,0,0,0,1.68,1.68,1.25,1.25,0,0,0,1.29-1.12.13.13,0,0,0,0,.06A1.31,1.31,0,0,1,70.09,56.84Z"/><path class="cls-6" d="M67.09,56.52a1.94,1.94,0,0,1-1.67-1.64,1.61,1.61,0,0,0,0-.44s0,0,0-.06h0s0,0,0-.08A1.92,1.92,0,0,0,67.1,56a1.22,1.22,0,0,0,1.28-1.12l0,.06A1.31,1.31,0,0,1,67.09,56.52Z"/><path class="cls-6" d="M65.43,54.44a1.61,1.61,0,0,1,0,.44A1.24,1.24,0,0,1,64.13,56a1.94,1.94,0,0,1-1.69-1.74,1.84,1.84,0,0,1,0-.47,1.93,1.93,0,0,0,1.68,1.68,1.23,1.23,0,0,0,1.28-1.11h0S65.43,54.42,65.43,54.44Z"/><path class="cls-6" d="M58.05,55.51a1.95,1.95,0,0,1-1.68-2.21A1.92,1.92,0,0,0,58.05,55a1.23,1.23,0,0,0,1.29-1.12s0,0,0,.06A1.31,1.31,0,0,1,58.05,55.51Z"/><path class="cls-6" d="M56.35,53.6a1.31,1.31,0,0,1-1.3,1.59,1.94,1.94,0,0,1-1.68-1.64,1.61,1.61,0,0,0,0-.44s0,0,0-.06h0V53a1.92,1.92,0,0,0,1.68,1.67,1.23,1.23,0,0,0,1.29-1.11A.43.43,0,0,1,56.35,53.6Z"/><path class="cls-6" d="M53.38,53.11a1.61,1.61,0,0,1,0,.44,1.24,1.24,0,0,1-1.29,1.15A1.94,1.94,0,0,1,50.39,53a1.91,1.91,0,0,1,0-.48,1.94,1.94,0,0,0,1.68,1.68,1.24,1.24,0,0,0,1.29-1.11h0S53.38,53.09,53.38,53.11Z"/><path class="cls-6" d="M50.79,48.2c-3,10.95-5.28,28.65-4,28.63,9.39-.14,27,6.87,31.45,6.71a2.84,2.84,0,0,1-.68.82c-2.31,1.39-22.57-6.14-32.71-6C43.51,78.4,47.23,58.7,50.79,48.2Z"/><path class="cls-6" d="M44.6,76.63c10.61.82,26.48,4.19,28.6,2.91,2.3-1.38-2.26-27.33,4.62-35.29.19-.22,9-2.92,10,1.88,1.85,8.75-7.57,38-9.88,39.42s-23-7.33-33.11-7.17C44.62,78.38,44.55,77.73,44.6,76.63Z"/><path class="cls-3" d="M87.78,65.28s2.58,7.33,2.22,9S81,88,77.74,91.52l5.51,6.69S102.41,84.2,104,78.8s-3.25-17-3.25-17Z"/><path class="cls-4" d="M83.23,95.68C89.82,88.85,92.86,81.1,90,78.35a3.45,3.45,0,0,0-1.86-.88A16.41,16.41,0,0,0,90,74.23c.36-1.62-2.22-9-2.22-9l13-3.48s4.88,11.6,3.25,17S83.25,98.21,83.25,98.21L82.09,96.8C82.48,96.44,82.85,96.06,83.23,95.68Z"/><path class="cls-5" d="M76,48.28l9.21-7.47c17.05,8.39,21.81,27.74,21.81,27.74s-16.89,9.52-27.49,7.37C75.93,66.26,75,53.5,76,48.28Z"/><path class="cls-6" d="M104.14,68.77a1.78,1.78,0,0,0-.19-.36l0,0h0s0,0,0-.06a2.2,2.2,0,0,0,1.26.81l-.38.2A2.38,2.38,0,0,1,104.14,68.77Z"/><path class="cls-6" d="M101.21,69.42A1.93,1.93,0,0,1,101,69a2.11,2.11,0,0,0,2.26.8,1.09,1.09,0,0,0,.65-1.44h0l0,0a1.78,1.78,0,0,1,.19.36,1.27,1.27,0,0,1,0,.86l-1.41.69A2.21,2.21,0,0,1,101.21,69.42Z"/><path class="cls-6" d="M95.53,69.39a2.06,2.06,0,0,0,2.31.56,1.09,1.09,0,0,0,.46-1.52l0,0a1.18,1.18,0,0,1-.21,1.91,2.08,2.08,0,0,1-2.36-.6A2.06,2.06,0,0,1,95.53,69.39Z"/><path class="cls-6" d="M92.9,70.61h0a.43.43,0,0,1,0-.07,2.05,2.05,0,0,0,2.31.57,1.1,1.1,0,0,0,.46-1.52l0,0a1.17,1.17,0,0,1-.21,1.9A2.06,2.06,0,0,1,93.11,71a1.28,1.28,0,0,0-.17-.3Z"/><path class="cls-6" d="M92.44,72.13a1.1,1.1,0,0,0,.46-1.51h0l0,0a1.28,1.28,0,0,1,.17.3,1.1,1.1,0,0,1-.39,1.61A2.06,2.06,0,0,1,90.37,72a1.62,1.62,0,0,1-.25-.39A2.06,2.06,0,0,0,92.44,72.13Z"/><path class="cls-6" d="M88,74.63a1.09,1.09,0,0,0,.46-1.52s0,0,0,0a1.17,1.17,0,0,1-.21,1.91,2.07,2.07,0,0,1-2.35-.6,1.7,1.7,0,0,1-.25-.39A2,2,0,0,0,88,74.63Z"/><path class="cls-6" d="M83.09,75.33l0,0h0l0-.06a2.24,2.24,0,0,0,1.65.71l-1,.06a2.69,2.69,0,0,1-.45-.37A1.34,1.34,0,0,0,83.09,75.33Z"/><path class="cls-6" d="M85.78,74.28l0,0a1.27,1.27,0,0,1,.24,1.47c-.41.06-.81.1-1.21.14a1.42,1.42,0,0,0,.47-.13A1.09,1.09,0,0,0,85.78,74.28Z"/><path class="cls-6" d="M83.05,75.3h0l0,0a1.34,1.34,0,0,1,.17.31,1.24,1.24,0,0,1,.16.38h-.27A1.19,1.19,0,0,0,83.05,75.3Z"/><path class="cls-6" d="M96.56,60.15a1.18,1.18,0,0,1-.21,1.91A2.07,2.07,0,0,1,94,61.45a1.73,1.73,0,0,1-.24-.38,2.06,2.06,0,0,0,2.31.56,1.09,1.09,0,0,0,.46-1.52Z"/><path class="cls-6" d="M91.12,62.29h0l0-.07a2.07,2.07,0,0,0,2.31.57,1.1,1.1,0,0,0,.46-1.52l0,0a1.16,1.16,0,0,1-.21,1.9,2.07,2.07,0,0,1-2.35-.59,1.28,1.28,0,0,0-.17-.3Z"/><path class="cls-6" d="M88.59,63.63a1.62,1.62,0,0,1-.25-.39,2.06,2.06,0,0,0,2.32.57,1.1,1.1,0,0,0,.46-1.51h0l0,0a1.28,1.28,0,0,1,.17.3,1.09,1.09,0,0,1-.39,1.6A2.05,2.05,0,0,1,88.59,63.63Z"/><path class="cls-6" d="M83.13,65.47a1.36,1.36,0,0,1-.25-.39,2.07,2.07,0,0,0,2.31.57,1.1,1.1,0,0,0,.46-1.52s0,0,0,0a1.16,1.16,0,0,1-.21,1.9A2.05,2.05,0,0,1,83.13,65.47Z"/><path class="cls-6" d="M80.25,66.3h0l0-.06a2,2,0,0,0,2.31.56A1.09,1.09,0,0,0,83,65.29l0,0a1.17,1.17,0,0,1-.21,1.91,2.08,2.08,0,0,1-2.35-.59,1.34,1.34,0,0,0-.17-.31Z"/><path class="cls-6" d="M79.79,67.82a1.09,1.09,0,0,0,.46-1.51h0l0,0a1.34,1.34,0,0,1,.17.31,1.09,1.09,0,0,1-.39,1.6,2.07,2.07,0,0,1-2.35-.6,1.65,1.65,0,0,1-.24-.39A2,2,0,0,0,79.79,67.82Z"/><path class="cls-6" d="M102.38,63.52a2.2,2.2,0,0,1-.2-.41,1.89,1.89,0,0,0,2.16.69l.19.46A1.91,1.91,0,0,1,102.38,63.52Z"/><path class="cls-6" d="M96.76,65.66a2.2,2.2,0,0,1-.2-.41,1.88,1.88,0,0,0,2.2.68,1.2,1.2,0,0,0,.6-1.53l0,0a1.25,1.25,0,0,1-.4,1.94A1.9,1.9,0,0,1,96.76,65.66Z"/><path class="cls-6" d="M93.87,66.37h0a.15.15,0,0,1,0-.07A1.88,1.88,0,0,0,96,67a1.19,1.19,0,0,0,.61-1.53l0,0a1.25,1.25,0,0,1-.4,1.94A1.9,1.9,0,0,1,94,66.73a1.3,1.3,0,0,0-.14-.32Z"/><path class="cls-6" d="M93.5,68.35a1.89,1.89,0,0,1-2.23-.73,1.5,1.5,0,0,1-.2-.4,1.87,1.87,0,0,0,2.19.68,1.18,1.18,0,0,0,.61-1.52h0l0,0a1.3,1.3,0,0,1,.14.32A1.19,1.19,0,0,1,93.5,68.35Z"/><path class="cls-6" d="M88,70.62a1.89,1.89,0,0,1-2.23-.73,1.87,1.87,0,0,1-.2-.4,1.88,1.88,0,0,0,2.2.68,1.2,1.2,0,0,0,.6-1.53l0,0A1.25,1.25,0,0,1,88,70.62Z"/><path class="cls-6" d="M82.92,70.61h0a.21.21,0,0,1,0-.07,1.86,1.86,0,0,0,2.19.68,1.18,1.18,0,0,0,.61-1.52l0,0a1.25,1.25,0,0,1-.4,1.94A1.9,1.9,0,0,1,83.09,71a1.3,1.3,0,0,0-.14-.32Z"/><path class="cls-6" d="M82.31,72.14a1.18,1.18,0,0,0,.61-1.52h0l0,0a1.3,1.3,0,0,1,.14.32,1.19,1.19,0,0,1-.54,1.62,1.89,1.89,0,0,1-2.23-.73,1.42,1.42,0,0,1-.2-.41A1.88,1.88,0,0,0,82.31,72.14Z"/><path class="cls-6" d="M93.4,52.25a2,2,0,0,1-2.35-.6,1.33,1.33,0,0,1-.24-.39,2,2,0,0,0,2.31.57,1.1,1.1,0,0,0,.46-1.52l0,0A1.16,1.16,0,0,1,93.4,52.25Z"/><path class="cls-6" d="M88.17,52.48v0a.43.43,0,0,0,0-.07,2,2,0,0,0,2.31.56,1.09,1.09,0,0,0,.46-1.52l0,0a1.17,1.17,0,0,1-.22,1.91,2.07,2.07,0,0,1-2.34-.59,1.24,1.24,0,0,0-.18-.31Z"/><path class="cls-6" d="M87.71,54a1.08,1.08,0,0,0,.47-1.5v0l0,0a1.24,1.24,0,0,1,.18.31,1.09,1.09,0,0,1-.39,1.6,2.07,2.07,0,0,1-2.35-.6,1.7,1.7,0,0,1-.25-.39A2,2,0,0,0,87.71,54Z"/><path class="cls-6" d="M83.27,56.51A1.09,1.09,0,0,0,83.73,55s0,0,0,0a1.17,1.17,0,0,1-.22,1.91A2,2,0,0,1,81,56,2.06,2.06,0,0,0,83.27,56.51Z"/><path class="cls-6" d="M78.33,57.17h0l0-.06a2.06,2.06,0,0,0,2.31.56,1.09,1.09,0,0,0,.46-1.52s0,0,0,0a1.18,1.18,0,0,1-.21,1.91,2.07,2.07,0,0,1-2.35-.6,1.52,1.52,0,0,0-.17-.3Z"/><path class="cls-6" d="M77.87,58.69a1.1,1.1,0,0,0,.46-1.51h0l0,0a1.52,1.52,0,0,1,.17.3,1.1,1.1,0,0,1-.39,1.61,2.07,2.07,0,0,1-2.35-.6.75.75,0,0,1-.07-.12.66.66,0,0,1,0-.14A2,2,0,0,0,77.87,58.69Z"/><path class="cls-6" d="M96.75,57a1.89,1.89,0,0,1-2.23-.73,1.73,1.73,0,0,1-.2-.41,1.89,1.89,0,0,0,2.2.69,1.2,1.2,0,0,0,.6-1.53s0,0,0,0A1.26,1.26,0,0,1,96.75,57Z"/><path class="cls-6" d="M94.4,56.07l0,0a1.24,1.24,0,0,1-.4,1.93,1.87,1.87,0,0,1-2.22-.71,1.87,1.87,0,0,0-.15-.32l0,0h0l0-.07a1.88,1.88,0,0,0,2.2.68A1.19,1.19,0,0,0,94.4,56.07Z"/><path class="cls-6" d="M91.66,57a1.87,1.87,0,0,1,.15.32A1.2,1.2,0,0,1,91.26,59,1.89,1.89,0,0,1,89,58.23a1.42,1.42,0,0,1-.2-.41A1.86,1.86,0,0,0,91,58.5,1.17,1.17,0,0,0,91.63,57h0Z"/><path class="cls-6" d="M84.32,60a1.88,1.88,0,0,0,2.2.68,1.19,1.19,0,0,0,.6-1.53l0,0a1.25,1.25,0,0,1-.4,1.94,1.88,1.88,0,0,1-2.23-.72A1.93,1.93,0,0,1,84.32,60Z"/><path class="cls-6" d="M81.63,61.15h0a.15.15,0,0,1,0-.07,1.87,1.87,0,0,0,2.19.69,1.19,1.19,0,0,0,.61-1.53l0,0a1.25,1.25,0,0,1-.4,1.94,1.9,1.9,0,0,1-2.23-.72,1.48,1.48,0,0,0-.14-.32Z"/><path class="cls-6" d="M81.63,61.16h0l0,0a1.48,1.48,0,0,1,.14.32,1.19,1.19,0,0,1-.54,1.62A1.88,1.88,0,0,1,79,62.41a1.29,1.29,0,0,1-.2-.41,1.87,1.87,0,0,0,2.19.68A1.18,1.18,0,0,0,81.63,61.16Z"/><path class="cls-6" d="M89,45.1a2.07,2.07,0,0,1-2.34-.59,1.09,1.09,0,0,0-.18-.31l0,0h0l0-.06a2,2,0,0,0,2.31.56,1.22,1.22,0,0,0,.37-.3l.38.25A1,1,0,0,1,89,45.1Z"/><path class="cls-6" d="M86.43,44.2a1.39,1.39,0,0,1-.21,1.91,2.07,2.07,0,0,1-2.35-.6,1.7,1.7,0,0,1-.25-.39,2,2,0,0,0,2.31.56,1.09,1.09,0,0,0,.47-1.51h0Z"/><path class="cls-6" d="M80.47,47.52A1.09,1.09,0,0,0,80.93,46s0,0,0,0A1.17,1.17,0,0,1,80.75,48a2.07,2.07,0,0,1-2.35-.6l-.07-.11.09-.07A2,2,0,0,0,80.47,47.52Z"/><path class="cls-6" d="M78.09,49.12a2,2,0,0,1-1.86-.19l.24-.19a1.79,1.79,0,0,0,1.33-.05,1.07,1.07,0,0,0,.49-1.42l0,0A1.16,1.16,0,0,1,78.09,49.12Z"/><path class="cls-6" d="M75.92,49.38a.59.59,0,0,1,0-.14S75.92,49.33,75.92,49.38Z"/><path class="cls-6" d="M92,47.53a1.42,1.42,0,0,1-.2-.41,2,2,0,0,0,1.67.81c.15.13.3.26.44.4A1.9,1.9,0,0,1,92,47.53Z"/><path class="cls-6" d="M91.55,49.32a1.88,1.88,0,0,1-2.23-.71,1.3,1.3,0,0,0-.14-.32l0,0h0a.43.43,0,0,0,0-.07,1.89,1.89,0,0,0,2.2.68,1.19,1.19,0,0,0,.61-1.53l0,0A1.25,1.25,0,0,1,91.55,49.32Z"/><path class="cls-6" d="M89.18,48.29a1.3,1.3,0,0,1,.14.32,1.19,1.19,0,0,1-.54,1.62,1.91,1.91,0,0,1-2.24-.73,1.73,1.73,0,0,1-.2-.41,1.9,1.9,0,0,0,2.2.69,1.2,1.2,0,0,0,.61-1.52h0Z"/><path class="cls-6" d="M83.32,52.5a1.89,1.89,0,0,1-2.23-.73,1.2,1.2,0,0,1-.2-.41,1.88,1.88,0,0,0,2.19.69,1.19,1.19,0,0,0,.61-1.53l0,0A1.25,1.25,0,0,1,83.32,52.5Z"/><path class="cls-6" d="M78.2,52.49h0a.43.43,0,0,0,0-.07,1.89,1.89,0,0,0,2.2.68A1.19,1.19,0,0,0,81,51.58l0,0a1.26,1.26,0,0,1-.4,1.94,1.9,1.9,0,0,1-2.23-.71,1.3,1.3,0,0,0-.14-.32Z"/><path class="cls-6" d="M77.59,54a1.19,1.19,0,0,0,.61-1.51h0l0,0a1.3,1.3,0,0,1,.14.32,1.18,1.18,0,0,1-.54,1.61,1.89,1.89,0,0,1-2.24-.72l0-.07V53.5A1.84,1.84,0,0,0,77.59,54Z"/><path class="cls-6" d="M76,48.28l9.21-7.47c17.05,8.39,21.81,27.74,21.81,27.74s-1.9,1.07-4.82,2.41A42.49,42.49,0,0,0,99.36,59.9c-4.1-10.29-10.9-17.45-15-15.6-9.08,4.08-7.88,19.94-3.78,30.23a16.4,16.4,0,0,0,.77,1.63c-.61,0-2-.14-2.53-.26C75.17,66.24,75,53.5,76,48.28Z"/><path class="cls-6" d="M69.56,55c-11.2,3.35-21-.59-18.59-10.52A5.45,5.45,0,0,1,52.38,42a22.28,22.28,0,0,1,2-1.64A21.29,21.29,0,0,1,58,38.5a1.72,1.72,0,0,1,2,1.28c7.46-2.16,19.46-4.32,25.07,1.15l.15-.12c.68.33,1.33.69,2,1.06C85,48.7,78.06,52.43,69.56,55Z"/><path class="cls-17" d="M85.24,40.81c0,5.7-17.91,14.23-26.81,13.51s-9.11-11.26-5.12-14,12.9-5,15.76-9.11,5.12-15.87,5.12-15.87l10.75,8.19S83,31,78.69,33.24c0,0,2,.1,1.13,1.22C79.82,34.46,85.24,37.94,85.24,40.81Z"/><path class="cls-18" d="M76.64,43.76c0-4.13-10.8-5.31-17.2-5.31a17.21,17.21,0,0,0-3.43.33c-.11-.19-2-1,2.4-1.91,4-.8,8.92-3.2,10.66-5.68,2.87-4.1,5.12-15.87,5.12-15.87l10.75,8.19S83,31,78.69,33.24c0,0,2,.1,1.13,1.22,0,0,5.42,3.48,5.42,6.35,0,5.7-17.91,14.23-26.81,13.51a8.22,8.22,0,0,1-5-2C61.94,56.73,76.64,47.57,76.64,43.76Z"/><polygon class="cls-19" points="60.19 13.9 54.33 20.69 56.94 21.39 56.72 21.71 53 21.09 60.28 13.38 60.19 13.9"/><path class="cls-20" d="M61.56,13.61l2.09.42c-.11,1.39-.56,3.54-2,3.12S61.56,13.61,61.56,13.61Z"/><polygon class="cls-8" points="59.69 14.63 66.25 15.74 66.78 13.41 60.51 12.51 59.69 14.63"/><path class="cls-21" d="M60,13.64l.09-.13h0l.38-1h.07c.36-1.11.54-2.57,1-3.59l9.92,5.61a15.7,15.7,0,0,1-.84,3.55,6.86,6.86,0,0,1-1.42,2.38l-9.84-6.11Z"/><path class="cls-22" d="M71.21,31.42l-2.54.27a4.61,4.61,0,0,0,.4-.5c1.44-2.05,2.72-6,3.64-9.48l2.19-4.82,9.93,7a26.2,26.2,0,0,1-1.12,3l-7-5.09Z"/><path class="cls-23" d="M84.72,25.18S70.93,13.33,58.55,8.83c0,0,8.2-14.81,22.48-6.07C92.9,10,84.72,25.18,84.72,25.18Z"/><path class="cls-24" d="M67.56,10.7c7.88,0,14.27-3.34,14.27-7.45v0c11,7.4,3.11,22,3.11,22S73,15,61.39,10A25.45,25.45,0,0,0,67.56,10.7Z"/><path class="cls-25" d="M62.34,5C65.26,2,70.63-1.53,78,2.16,71.37-.11,67.61,3.09,64.7,6Z"/><path class="cls-23" d="M85.51,21.32C87.3,16.87,88.57,9.83,82,4.92c4.9,5,3.29,10.34,1.63,14.72Z"/><path class="cls-26" d="M59.56,8.52c-.12.3-7.08,10.25-7.08,10.25l-1.93-.32L58.81,7.81Z"/><polygon class="cls-23" points="62.19 7.33 53.41 18.95 51.79 18.64 60.83 6.37 62.19 7.33"/><polygon class="cls-26" points="68.06 12.76 64.46 27.91 65.11 28.7 69.22 29.07 73.71 16.74 68.06 12.76"/><polygon class="cls-24" points="69.91 13.57 65.83 28.32 70.23 29.86 76.06 17.53 69.91 13.57"/><path class="cls-27" d="M93.3,173.72H81.16s-.47-4.58,1.17-4.91S91.31,171.73,93.3,173.72Z"/><path class="cls-27" d="M24,173.72H37.42s.53-4.58-1.3-4.91S26.17,171.73,24,173.72Z"/><path class="cls-22" d="M61.85,37.61C70,37.55,78.46,34,76.76,33.68,75.42,33.47,67.79,36.87,61.85,37.61Z"/><path class="cls-22" d="M64,36.85C71.85,34.5,79,28.69,77.25,28.91,75.9,29.08,69.52,34.47,64,36.85Z"/><path class="cls-18" d="M71.38,45c-.34,6-9.85,8-15.14,6.79A5.08,5.08,0,0,1,52.16,47a6.67,6.67,0,0,0,7.62,4.38C69.56,49.9,71.38,45,71.38,45Z"/><polygon class="cls-4" points="21.19 79.3 19.77 71.09 28.62 69.24 28.06 79.5 21.19 79.3"/><polygon class="cls-4" points="84.09 97.01 77.66 91.71 83.17 84.55 89.43 92.69 84.09 97.01"/><path class="cls-23" d="M65.11,28.69l4.44-16,7.26,4.68L70.54,30.59ZM70.26,14.5,66.54,28l3.39,1.18L75.3,17.75Z"/><path class="cls-26" d="M86.7,23.9a17.66,17.66,0,0,1-1.26,2.4S70.93,13.33,57.7,8.63a17.58,17.58,0,0,1,1.24-1.89C70.76,11.31,83.41,21.23,86.7,23.9Z"/><path class="cls-18" d="M58.45,38c16.83,1,15.41,6,15.41,6-.54-2.49-5-3.86-17.85-5.27Z"/><path class="cls-26" d="M69.86,26.45a.89.89,0,1,1-1.77,0,.89.89,0,0,1,1.77,0Z"/><path class="cls-26" d="M71.19,22.72a.89.89,0,1,1-.89-.89A.88.88,0,0,1,71.19,22.72Z"/><circle class="cls-26" cx="71.68" cy="18.93" r="0.88"/><path class="cls-4" d="M22.77,77.42a.74.74,0,1,1-.15-1A.74.74,0,0,1,22.77,77.42Z"/><path class="cls-4" d="M19.85,77.63a.74.74,0,1,1-1.18-.88.73.73,0,0,1,1-.15A.73.73,0,0,1,19.85,77.63Z"/><path class="cls-28" d="M62.37,26.36c-.63-2.49-3.11-3.09-5.59-2.48l.11.38c1.11-.41,4.06.2,4.58,2.26Z"/><path class="cls-28" d="M57.65,25.44A1,1,0,0,1,58.72,25c.58.08,1,.58,1,.76s-.5-.16-1.07-.25S57.63,25.63,57.65,25.44Z"/><path class="cls-29" d="M67.7,13.42a60,60,0,0,0-10-4.79,17.58,17.58,0,0,1,1.24-1.89,76.81,76.81,0,0,1,11,5.47A10.61,10.61,0,0,1,67.7,13.42Z"/><path class="cls-7" d="M19.11,79.23c-4.1,0-9.57,4.57-9.82,5.11C5,93.62,4.06,83.12,5.37,79.06c.57-1.78,3.53-6.3,6.94-6.62,1.75-.17,7.19-.2,10.7-.64C23,71.8,20,79.24,19.11,79.23Z"/><path class="cls-7" d="M13.53,75.84c1.26.59-.21,7.86-.17,8.41.07,1.07,1.21,2.82,1.43,3.84S12.7,90,12.15,89.82C11.4,89.61,10.41,87,10.24,86s-.5-2.85-1.93-3.6C6,81.15,10.22,74.28,13.53,75.84Z"/><polygon class="cls-30" points="17.31 80.16 15.1 71.75 24.44 69.22 24.17 80.6 17.31 80.16"/><path class="cls-31" d="M50.42,103l4.42-.08c1.64,6.86,13,13,13,13L54.61,119S51.58,113.51,50.42,103Z"/><path class="cls-32" d="M58.16,112.69a26,26,0,0,0,9.24,3.36l-12.79,3s-2.34-4.26-3.69-12.41A26.16,26.16,0,0,0,58.16,112.69Z"/><path class="cls-7" d="M75.24,95.4c-3.75.08-5.65.12-6.75,1.16s-1.94,5.08-1.54,6.06,4.18-.2,4.89-.36,1.09-1.89.54-2.24-2.61-.54-2.59-.89a2.1,2.1,0,0,1,.31-.81S75.26,97.89,75.24,95.4Z"/><polygon class="cls-14" points="49.99 101.94 104.63 99.49 105.68 103.29 49.99 103.36 49.99 101.94"/><path class="cls-7" d="M78.78,91.14s-2.86,3.6-4.07,4.06a36.71,36.71,0,0,0-6.19,3.48c-.76.48-1.32,5-1.3,6.67,1-.34,8.79,1.76,8.79,1.76a25.23,25.23,0,0,0,4.32-5.32,25.81,25.81,0,0,1,4.44-4.45C86.86,95.63,78.78,91.14,78.78,91.14Z"/><path class="cls-7" d="M71.37,102.16c-.23-1.09-2.34-1.26-2.64-.7s-2.65,3.7-2.11,4.36,2.21,1.22,2.65.82S71.55,103.05,71.37,102.16Z"/><path class="cls-7" d="M74.51,102.68c-.23-1.1-2.34-1.27-2.64-.71s-2.65,3.7-2.11,4.36,2.21,1.22,2.65.82S74.69,103.56,74.51,102.68Z"/><path class="cls-7" d="M77.47,103.53c-.26-1-2.29-1.33-2.56-.81s-2.43,3.35-1.89,4,2.17,1.29,2.58.93S77.68,104.38,77.47,103.53Z"/><polygon class="cls-30" points="81.7 100.19 74.55 95.26 79.99 87.25 87.19 96.06 81.7 100.19"/><path class="cls-4" d="M84.61,95.27a.74.74,0,1,1-.74-.74A.74.74,0,0,1,84.61,95.27Z"/><circle class="cls-4" cx="81.66" cy="97.19" r="0.74"/></g></g></g></svg>