<?xml version="1.0" encoding="utf-8"?>
<!-- Generator: Adobe Illustrator 24.2.1, SVG Export Plug-In . SVG Version: 6.00 Build 0)  -->
<svg version="1.1" id="Warstwa_1" xmlns="http://www.w3.org/2000/svg" xmlns:xlink="http://www.w3.org/1999/xlink" x="0px" y="0px"
	 viewBox="0 0 125.7 150" style="enable-background:new 0 0 125.7 150;" xml:space="preserve">
<style type="text/css">
	.st0{fill:#D8482B;}
	.st1{fill:#F26949;}
	.st2{fill:#FCA22B;}
	.st3{fill:#FFC033;}
	.st4{opacity:0.72;}
	.st5{fill:#84324C;}
	.st6{fill:#EDCCA6;}
	.st7{fill:#FFE9CA;}
	.st8{opacity:0.56;}
	.st9{fill:#492A26;}
	.st10{fill:#633D36;}
	.st11{fill:#EFC797;}
	.st12{fill:#7C4437;}
	.st13{fill:#6D4135;}
	.st14{fill:#D63440;}
	.st15{fill:#C6361E;}
	.st16{fill:#542521;}
	.st17{fill:#FFF4DE;}
	.st18{fill:#BCDDD8;}
	.st19{fill:#5B2F27;}
	.st20{fill:#EF8F41;}
	.st21{fill:#EDAE5A;}
</style>
<g>
	<g id="Warstwa_2_1_">
		<g id="_11">
			<path class="st0" d="M77.3,69.5c0,0,3.1,2.3,4.3,2.1c1.8-0.3,8.4,1.9,9.1,3.2c-1,0.2-5,5.2-5,5.2c-2-0.5-4-1.3-5.8-2.3
				c-0.7-0.4-2.8-0.6-4.4-1.3C73,75.5,77.3,69.5,77.3,69.5z"/>
			<path class="st1" d="M66.1,62.9l-6,8.5c4.9,5.4,17,3.8,20.5,4.7l3.3-2.7C84,73.4,72.6,64.3,66.1,62.9z"/>
			<path class="st0" d="M61.4,67.4l-1.3,4c4.9,5.4,18.4,5.5,21.9,6.4l1.4-5C78.5,72.1,66.5,71.8,61.4,67.4z"/>
			<path class="st1" d="M52.7,51.1c0,7.8,3.9,17,7.3,19.5c3.5,2.4,11.5-4.1,8.9-6.1c-6-4.6-1.6-22.7-7.3-24.8
				C57.5,38.2,52.7,45.4,52.7,51.1z"/>
			<path class="st0" d="M60.3,60.5c0-4.9,2.1-9,4.8-10c-0.4-5.1-0.8-9.8-3.5-10.8c-4.1-1.5-8.9,5.6-8.9,11.4
				c0,7.8,3.9,17.8,7.4,20.3c1.4,1,5.3,0.2,7.1-0.9C64.3,69.7,60.3,65.6,60.3,60.5z"/>
			<path class="st1" d="M57.3,51l-22-11.2c0,0-6.6,22.2-3.1,37.5l24.2-2.5C53.2,66.6,54.5,57.4,57.3,51z"/>
			<path class="st0" d="M57.3,51l-22-11.2c0,0-6.6,22.2-3.1,37.5l9.1-0.9c1-6.2,5.4-16.7,7.8-16.7c2.1,0,5.1,9.5,5.9,15.3l1.5-0.1
				C53.2,66.6,54.5,57.4,57.3,51z"/>
			<path class="st2" d="M31.1,77.9c-1.6,13-0.6,35.7-0.6,35.7l2.1-1l2.8,2.2l3.5-5.5C38.9,109.3,31.9,71.7,31.1,77.9z"/>
			<path class="st1" d="M14.2,150h10.7c0,0,0.4-4.1-1-4.4S15.9,148.2,14.2,150z"/>
			<path class="st1" d="M93.6,150H82.3c0,0-0.4-4.1,1.1-4.4C85,145.3,91.7,148.2,93.6,150z"/>
			<path class="st1" d="M42.8,79l-9.9,2.1c0,0,2.3,29.4,1.8,32.1c-0.7,3.7-12.2,34.5-12.2,34.5h0.8c5.7-10.4,18.2-29.5,19.3-34.7
				C43.1,110.3,42.8,79,42.8,79z"/>
			<path class="st0" d="M42.8,79l-9.9,2.1c0,0,1.6,20.9,1.8,29.1c1.4,4.4,2.3,8.9,2.6,13.5c2.7-4.8,4.8-8.8,5.2-10.8
				C43.1,110.3,42.8,79,42.8,79z"/>
			<path class="st1" d="M59.2,79l-6.6,7.9c0,0,18.8,22.7,20,25.2c1.6,3.5,10.3,35.7,10.3,35.7l0.6-0.5c-1.5-12-2.7-35.3-4.8-40.3
				C77.5,104.4,59.2,79,59.2,79z"/>
			<path class="st0" d="M64.6,86.6c-3.1-4.3-5.4-7.6-5.4-7.6l-6.6,7.9c0,0,8.7,10.4,14.6,17.9C64.8,98.4,64,90.7,64.6,86.6z"/>
			<path class="st3" d="M32.8,81.1C44,82.6,42.3,121,42.3,121l1.4-1.2l0.1,3.6l2.5-3.8l-0.9,6.9l2-4.5l1.2,2.5l1.7-2.9l2.3,2.9
				l1.2-2.9l1.6,2.5l1-3.6l1.2,1.1c0,0,6.6-15.2,2.8-41.2c-0.3-2.8-1.7-5.4-3.8-7.3c-2-1.5-25.2,3.7-25.2,3.7S30,80.8,32.8,81.1z"/>
			<path class="st2" d="M43.5,107.9c0-17.6,5.2-31.8,11.6-31.8c1.8,0,3.6,1.2,5.1,3.3c-0.5-2.4-1.7-4.5-3.5-6.2
				c-2-1.5-25.2,3.7-25.2,3.7s-1.5,3.9,1.3,4.3c11.2,1.5,9.5,39.9,9.5,39.9l1.4-1.2l0.1,3.6l0.9-1.3
				C43.9,117.5,43.5,112.7,43.5,107.9z"/>
			<path class="st2" d="M45.6,126l-0.1,0.7l0.2-0.3L45.6,126z"/>
			<g class="st4">
				<path class="st5" d="M43.2,119.1c2.1,0.1,4.8-5.8,5.1-7.6c0.4-2.7-1.8-7-5-5.8c-0.4,0.2-0.8,0.4-1.1,0.7
					c0.3,5.1,0.3,9.7,0.3,12.3C42.6,118.9,42.9,119,43.2,119.1z"/>
				<path class="st5" d="M52.1,110.1c-0.4-0.1-0.9,0-1.3,0.2c-0.2,0.1-0.3,0.3-0.3,0.5c-0.2,0.5-0.4,1-0.5,1.5
					c-0.1,0.7-0.2,1.4-0.1,2.1c0.1,0.5,0.3,1.1,0.7,1.3C53.5,116.8,55.8,110.4,52.1,110.1z"/>
				<path class="st5" d="M50.2,117.5c-0.1-0.2-0.3-0.3-0.6-0.2c-0.6,0.1-0.9,0.6-1.1,1.1l-2.6,4.9l-0.4,3.4l2-4.5l1.2,2.5l1.3-2.1
					c0.1-0.3,0.2-0.7,0.2-1C50.3,120.7,50.5,118.2,50.2,117.5z"/>
				<path class="st5" d="M50.4,107.5c0.2-0.3,0.3-0.7,0.3-1.1c0-0.7,0-1.4,0-2.1l-0.1-0.7c0-0.4-0.1-0.8-0.3-1.2
					c-0.2-0.4-0.6-0.6-1-0.6c-1.3,0-2.1,2-2,3.1c0.1,0.9,1.5,3.2,2.7,2.9C50.2,107.7,50.3,107.6,50.4,107.5z"/>
				<path class="st5" d="M43.4,102.7c1.5-1.3,3-2.6,3.6-4.5c0.6-1,0.2-2.3-0.8-2.8c-0.4-0.2-0.8-0.3-1.2-0.3c-1.4,0-2.9,0.5-3.9,1.5
					c0.4,2.3,0.6,4.6,0.9,6.9c0.1,0,0.3,0,0.4-0.1C42.8,103.3,43.1,103,43.4,102.7z"/>
				<path class="st5" d="M41.9,92.6c0.4-0.7,0.7-1.4,0.9-2.1c0.1-0.2,0.1-0.5,0-0.7c-0.1-0.1-0.2-0.2-0.4-0.3
					c-0.8-0.4-1.8-0.3-2.6,0.1l-0.1,0.1c0.4,1.3,0.8,2.8,1.1,4.3C41.2,93.6,41.6,93.1,41.9,92.6z"/>
				<path class="st5" d="M48.8,92.5c0.5-0.2,0.9-0.5,1.1-0.9c1.7-2,2.9-4.3,3.5-6.9c0.4-1.1,0.3-2.4-0.2-3.4
					c-0.9-1.2-2.6-1.5-3.9-0.7c-1.3,0.8-2.2,2-2.6,3.4c0,0.1,0,0.2-0.1,0.2c-0.8,1.3-1.4,2.8-1.7,4.3c-0.1,0.4-0.1,0.8-0.1,1.3
					c0.1,0.4,0.4,0.8,0.7,1.1c0.4,0.5,0.8,0.9,1.4,1.3C47.5,92.6,48.2,92.7,48.8,92.5z"/>
				<path class="st5" d="M53.1,91.2C52.6,92,52.4,93,52.7,94c0.1,0.7,0.7,1.2,1.4,1.1c0.1,0,0.2,0,0.3-0.1c1-0.2,2.2-3.6,2.1-4.5
					c0-0.2,0-0.5-0.2-0.7c-0.3-0.2-0.6-0.3-1-0.2C54.4,89.8,53.6,90.4,53.1,91.2z"/>
				<path class="st5" d="M59.5,94.5c-1.1,2.7-1.7,5.6-1.7,8.5c0,0.8,0.1,1.6,0.5,2.3c0.4,0.7,1.1,1.2,1.9,1.1c0.4-0.1,0.7-0.3,1-0.5
					c0.5-4.5,0.6-9,0.4-13.5c-0.2,0-0.5,0-0.7,0.2C60.3,93,59.8,93.7,59.5,94.5z"/>
				<path class="st5" d="M55.2,102.7c-0.4,0.1-0.5,0.5-0.6,0.9c-0.1,0.9,0.1,1.8,0.5,2.6c0,0.5,0,1,0,1.5c0,0.1,0,0.2,0.1,0.3
					c0.1,0.1,0.4,0,0.5-0.1c0.2-0.4,0.4-0.8,0.4-1.2c0.1-0.8,0.2-1.7,0.2-2.6c0-0.3,0-0.7-0.2-1C55.9,102.8,55.5,102.6,55.2,102.7z"
					/>
				<path class="st5" d="M59.9,108.4c-0.3,0.1-0.5,0.3-0.7,0.6c-0.8,0.7-1.4,1.5-1.9,2.4s-0.6,2-0.4,3c0.1,0.5,0.4,0.9,0.9,1.3
					c0.4,0.3,1.7-0.4,1.9-0.5c0.4-1.9,0.9-4.1,1.2-6.7l0,0C60.6,108.3,60.2,108.3,59.9,108.4z"/>
				<path class="st5" d="M58.2,117.2c-0.8,0.3-1.5,0.8-2.1,1.5c-0.9,1-1.6,2.1-2.1,3.3l1.4,2.2l1-3.6l1.2,1.1
					c0.6-1.5,1.1-3.1,1.5-4.6l0,0C58.8,117.1,58.5,117.1,58.2,117.2z"/>
				<path class="st5" d="M57.6,79.6c-0.6,0.7-0.9,1.6-0.8,2.6c0,1.5,0.3,3,0.9,4.4c0.6,1.3,3.4,3.6,3.8,3.5c-0.2-3-0.5-6.1-1-9.5
					c-0.1-0.4-0.1-0.8-0.2-1.1C59.4,78.9,58.3,79,57.6,79.6z"/>
				<path class="st5" d="M54.1,97.8c-0.6-0.2-1.3-0.1-1.9,0.3c-0.6,0.4-0.9,1-0.9,1.7c0,0.3,0.1,0.6,0.3,0.9
					c0.6,0.5,1.4,0.5,1.9-0.1l0,0c0.3-0.4,0.5-0.8,0.4-1.3c0.2-0.3,0.3-0.5,0.3-0.9c0-0.1,0-0.3-0.1-0.4
					C54.2,97.9,54.2,97.9,54.1,97.8z"/>
				<path class="st5" d="M56.5,77.1c1-0.3,1.7-1.1,1.9-2.1c-0.4-0.5-0.8-1.1-1.3-1.5c-0.5-0.2-1.3-0.4-2.2-0.6
					c-1.8,0.1-3.6,0.2-5.4,0.5c-0.1,0.1-0.1,0.3-0.1,0.5C49.2,76.7,54.7,77.7,56.5,77.1z"/>
				<path class="st5" d="M42.1,81.4c1.9-1.6,1.7-3.7,1.4-6c0-0.3-0.1-0.6-0.2-0.9c-2.4,0.4-4.7,0.9-6.7,1.3c-1.5,0.9-2.8,2-3.9,3.4
					c-0.4,0.5-0.7,1-1,1.5c0.3,0.3,0.7,0.4,1.1,0.4c2.3,0.3,4,2.2,5.4,4.9C39.5,84.6,40.5,82.7,42.1,81.4z"/>
			</g>
			<path class="st3" d="M69.6,14.3c-0.6,7.6-2.5,21.2-4.9,21.5c-0.2,0.7-0.3,0.9-0.3,0.9s2.3,3.8,1.2,7.9
				c-1.4,5.3-5.6,9.1-13.8,12.2c-14.5,5.5-15.3-18.3-21.2-21.6c-5.9-3.3,4.3-4.2,4.3-4.2s-1-1.9,0.9-2.2c0.9-0.2,1.7-0.2,2.6,0
				c0,0-1.1-2,0.1-2.5c0.5-0.3,1-0.4,1.5-0.4c0,0,2.9-13.1,3.7-14.1s1.1-5.8,2.9-7.4c1.6-1.5,3.7-2.3,5.9-2.4
				c2.6,0.3,5.1,0.7,7.6,1.3L69.6,14.3z"/>
			<path class="st2" d="M48.8,47.8c0-6,5.8-10.9,12.9-10.9c1,0,2,0.1,3,0.3c-0.1-0.3-0.3-0.5-0.3-0.5s0.1-0.3,0.3-0.9
				c-1.9,0.1-3.7-0.1-5.5-0.5c-5.3-1.1-8.4-1.3-9.3-8.1c-1.2-10.3-1-15.3,4.5-15.3c1.9,0,14.5,3,15.1,4.3c0.1-0.6,0.1-1.2,0.2-1.8
				L60.1,3.3c-2.5-0.6-5.1-1-7.6-1.3c-2.2,0.1-4.3,0.9-5.9,2.4c-1.8,1.6-2.1,6.5-2.9,7.4c-0.8,1-3.7,14.1-3.7,14.1
				c-0.5,0-1.1,0.1-1.5,0.4c-1.2,0.6-0.1,2.6-0.1,2.6c-0.9-0.2-1.7-0.2-2.6,0c-1.8,0.3-0.9,2.2-0.9,2.2s-10.1,0.9-4.3,4.2
				c5.9,3.3,6.8,27.1,21.2,21.6c0.5-0.2,1-0.4,1.5-0.6C50.6,54.4,48.9,51.2,48.8,47.8z"/>
			<path class="st6" d="M62.5,3.1c6.1-1,11.7,6.3,11.2,11c-0.2,1.6-2.7,3.1-4.8,3.3s-9.5-9.6-9.5-9.6S58.5,3.7,62.5,3.1z"/>
			<path class="st7" d="M63.8,3.4c4.6-0.8,8.7,4.7,8.4,8.2c-0.1,1.2-3.3,4-3.6,2.4c-1.2-6-4.9-8.1-4.9-8.1S60.9,3.9,63.8,3.4z"/>
			<path class="st3" d="M56.7,36.3c-13.2-1.9-15.1-2.3-14.4-4C43,30.5,56.7,36.3,56.7,36.3z"/>
			<g class="st8">
				<path class="st5" d="M57.4,49.1c-1.6-0.9-3.7-0.6-4.9,0.9c-1.1,1.5-1.4,3.4-0.7,5.1c0.2,0.5,0.4,1,0.9,1.4
					c2.1-0.8,4.2-1.8,6.1-3C59,51.8,58.4,49.8,57.4,49.1z"/>
				<path class="st5" d="M60.8,45.8c-0.3,1.3-0.3,2.7,0.2,4c0.1,0.4,0.3,0.8,0.7,1.1c0.1,0,0.2,0.1,0.2,0.1c0.8-0.7,1.4-1.5,2-2.4
					c0-1.2-0.5-3.2-1.1-3.7C62.1,44.1,61.1,44.6,60.8,45.8z"/>
				<path class="st5" d="M56.7,43.2c-0.9,0-1.8,0.5-2.4,1.2c-0.3,0.7-0.2,1.5,0.3,2C57.7,50.1,61.7,42.7,56.7,43.2z"/>
				<path class="st5" d="M59.4,39c-0.5,0.2-0.8,0.8-0.7,1.3c0.1,0.2,0.3,0.4,0.5,0.6c0.9,0.4,1.8,0.6,2.7,0.5c0.4-0.2,0.7-0.5,0.7-1
					c0-0.4-0.2-0.7-0.4-1C61.5,38.7,60.4,38.5,59.4,39z"/>
				<path class="st5" d="M63.6,40.6c0,1.2,1.1,2.4,2.2,3.2c0.3-2.3-0.1-4.6-1.2-6.7c-0.1,0.1-0.1,0.2-0.2,0.2
					C63.8,38.3,63.5,39.4,63.6,40.6z"/>
				<path class="st5" d="M58.4,36.9c0.9,0.1,1.8-0.4,2.2-1.2c0.2-0.4,0.2-0.9,0.2-1.3c0.1-0.5,0-1.1-0.3-1.6
					c-0.2-0.2-0.5-0.4-0.8-0.5c-0.5-0.2-1-0.3-1.5-0.4c-0.4,0-2.2,0.9-2.4,1.6c-0.1,0.7,0,1.3,0.3,1.9
					C56.7,36.3,57.5,36.8,58.4,36.9z"/>
				<path class="st5" d="M55.5,41c0.1-0.6-3-2-3.7-1.8c-0.3,0-0.6,0.2-0.9,0.4c-0.4,0.6-0.4,1.4,0.1,1.9c0.6,0.8,1.6,1.2,2.6,1.2
					c0.6,0,1.2-0.2,1.5-0.7C55.4,41.7,55.5,41.3,55.5,41z"/>
				<path class="st5" d="M48.5,55.2c1-1.9,1.4-4,1.4-6.1c0.1-0.5,0-1.1-0.3-1.5s-0.8-0.7-1.4-0.7c-1.3-0.1-2.5,0.9-3.4,1.8
					c-1,1.1-1.9,2.3-2.5,3.7c-0.3,0.8-0.5,1.7-0.4,2.6c1.2,1.3,2.8,2.1,4.6,2.5C47.3,56.9,47.9,56.1,48.5,55.2z"/>
				<path class="st5" d="M44.9,41.6c-0.6,0.4-1,1.2-0.9,2c0.4,2,4.1,2.5,5,0.7C50.3,41.8,46.7,40.3,44.9,41.6z"/>
				<path class="st5" d="M49.8,32.3c-0.4-0.2-0.9-0.4-1.4-0.4c-1-0.2-1.9-0.2-2.9-0.3c-1.2-0.1-2.5,0-3.6,0.4
					c-0.6,0.2-1.1,0.6-1.3,1.2c-0.1,0.3-0.1,0.6-0.1,1c0,0.9,2.6,3.9,3.6,3.9c0.8,0.1,1.6,0.1,2.4-0.1c2.2-0.5,3.9-2.4,4-4.7
					c0-0.2,0-0.4-0.1-0.6C50.2,32.5,50,32.4,49.8,32.3z"/>
				<path class="st5" d="M33.9,32.3c0.7,0.7,1.7,1.1,2.7,1.1c0.1,0,0.2,0,0.3-0.1s0.1-0.2,0.2-0.4c0.3-1,0.3-2.1-0.1-3.1
					c-0.2-0.5-0.6-0.8-1-1.1h-0.3c-1.8,0.3-0.9,2.2-0.9,2.2s-0.7,0.2-1.7,0.3C33.3,31.6,33.6,32,33.9,32.3z"/>
				<path class="st5" d="M41.6,28.5c0.3,0.1,0.6,0,0.9-0.2c0.1-0.1,0.2-0.3,0.2-0.5c0.3-0.9,0.2-2-0.2-2.9c-0.3-0.5-0.8-1-1.3-1.3
					c-0.2-0.1-0.4-0.2-0.6-0.3c-0.4,1.6-0.6,2.6-0.6,2.6c-0.4,0-0.9,0.1-1.3,0.3C39.2,27.4,40.3,28.3,41.6,28.5z"/>
				<path class="st5" d="M47,26.6c0.6,0.4,1.4,0.6,2.1,0.6c1.7,0.1,3.4-0.4,4.8-1.4c0.3-0.1,0.6-0.3,0.7-0.6c0-0.1,0-0.1,0-0.2
					l0.1-0.1l0,0c0.1-0.3,0.1-0.6,0.1-0.9c0-0.7-0.2-1.4-0.6-2c-0.5-0.7-1.3-1.1-2.1-1.1s-1.7,0-2.5,0.2c-1.2,0.2-2.6,0.6-3.3,1.5
					C45.5,24,45.8,25.7,47,26.6L47,26.6z"/>
				<path class="st5" d="M45,17.1c0.3,0.3,0.7,0.4,1.1,0.3c0.3-0.2,0.4-0.4,0.5-0.7c0.9-2.4-0.1-5.1-2.4-6.3c-0.1,0.5-0.3,1-0.6,1.5
					c-0.4,0.8-0.7,1.6-0.9,2.4c0.2,0.4,0.4,0.9,0.7,1.3C43.9,16.1,44.4,16.6,45,17.1z"/>
				<path class="st5" d="M49.8,4.8c0.5,0.3,1,0.4,1.6,0.4c1.3,0.2,2.6,0,3.8-0.4c0.9-0.4,1.7-1.2,2-2.1c-1.6-0.3-3.1-0.6-4.7-0.7
					c-1.3,0-2.5,0.3-3.7,0.9V3C48.8,3.7,49.2,4.4,49.8,4.8z"/>
				<path class="st5" d="M66.1,20.1c-0.3,0-0.6,0.1-0.9,0.3c-0.6,0.6-0.7,1.5-0.4,2.2c0.3,1,1.8,2,3.4,2.8c0.3-1.5,0.5-3.2,0.7-4.7
					C68.1,20.2,67.1,20,66.1,20.1z"/>
				<path class="st5" d="M63.6,29.5c-0.2,0-0.3,0.1-0.4,0.2c-1,0.9,1.4,3.5,3.3,3.5c0.3-0.9,0.6-1.9,0.9-3
					C66.2,29.4,64.9,29.2,63.6,29.5z"/>
			</g>
			<path class="st0" d="M53.5,13.9c-2.5,7-1,15.5,1.2,17.5s8,2.6,9.6,1.8c0,0,5.4-15.5,2.1-22.4C63.1,3.9,54.4,11.5,53.5,13.9z"/>
			<path class="st1" d="M55.5,32c2.6,1.5,7.3,1.9,8.7,1.2c0,0,3.8-11.1,3.1-18.6c-3.8-3.2-10.9,2.2-11.7,4.1
				C53.6,23.5,54.1,29,55.5,32z"/>
			<path class="st9" d="M60,19.7c0.1-1.1-0.1-2-0.5-2s-0.9,0.8-1,1.9L60,19.7z"/>
			<path class="st9" d="M65.4,20.5c0.1-1.1-0.1-2-0.5-2s-0.9,0.8-1,1.9L65.4,20.5z"/>
			<path class="st7" d="M61.6,3.1c-6.7-1-14.1,6.3-13.5,11c0.2,1.6,3,3.1,5.3,3.3s10.4-9.6,10.4-9.6S66,3.7,61.6,3.1z"/>
			<path class="st6" d="M61.6,3.1c-6.7-1-14.1,6.3-13.5,11c0.2,1.6,3,3.1,5.3,3.3s10.4-9.6,10.4-9.6S66,3.7,61.6,3.1z"/>
			<path class="st7" d="M61.5,3.4C56.8,3.7,51.4,6.7,51.4,10c0,1.1,1.8,2.4,3.4,2.6s9.8-7,9.8-7S66,3.1,61.5,3.4z"/>
			<path class="st10" d="M57.6,2.7c3.2-1.6,4.7-2.3,5.8-1.9c1.1,0.4,2,2.3,2,2.3l-2.6,1.6L57.6,2.7z"/>
			<path class="st2" d="M36.3,5.6c0,0,6.1-0.5,8.6,4.3l3-6.4C48,3.4,40.7,0.5,36.3,5.6z"/>
			<path class="st0" d="M38.9,5c0,0,4.5,0,5.8,2.6l2.2-3.4C46.9,4.2,42.4,1.9,38.9,5z"/>
			<path class="st11" d="M36.4,80.8L4.5,66.6c-5.3,15.8-6.2,25.2-1,33.9v-3.3l2.6,4.2l0.6-3.5c1.7,2.6,2.5,5.7,2.3,8.8
				c0.8-1.5,1.2-3.2,1.4-4.9c3.6,3.2,5.9,7.6,6.5,12.4c0,0,1.7-6.4,1.6-9.3c0,0,3.2,2.5,3.3,6c0,0,1.2-4.3,0.9-7.2s2.6-4.1,3-0.3
				c0.5,2.8,1.3,5.6,2.5,8.2c0,0-0.6-7.5,1.2-10.7s3.3-0.1,2,3.5C31.5,104.4,37.5,96.2,36.4,80.8z"/>
			<path class="st12" d="M47.7,41.4c0.3-1.7-0.6-3.3-2.2-4c-7.4-3.5-15.2-5.9-23.2-7.2c-2-0.4-4,0.6-5,2.5
				C7.4,52.1,3.4,65.1,0.6,86.9c-0.3,2.2,0.9,4.2,2.8,5.2c8.3,4,14.3,6.3,23.2,7.2c1.6,0.1,3.2-0.7,3.8-2.2
				C40.1,75.9,44.6,61.5,47.7,41.4z"/>
			<path class="st13" d="M9.9,56.7c0-3.3,0.2-6.6,0.7-9.8c-5.3,12.6-8,24-10,40c-0.3,2.2,0.9,4.2,2.8,5.2c8.3,4,14.3,6.3,23.2,7.2
				c1.6,0.1,3.2-0.7,3.8-2.2l0.3-0.6C19,94,9.9,77.2,9.9,56.7z"/>
			<path class="st11" d="M27.2,66.2c1.6-5.1,0.9-9.8-1.4-10.5s-5.6,2.8-7.1,7.9c-1.6,5.1-0.9,9.8,1.4,10.5S25.6,71.2,27.2,66.2z"/>
			<path class="st11" d="M6.8,84.4c0.3-1.1,0.2-2.1-0.3-2.2C6,82,5.3,82.8,5,83.9C4.7,85,4.8,86,5.3,86.1
				C5.8,86.2,6.4,85.5,6.8,84.4z"/>
			<path class="st11" d="M21.5,37.9c0.3-1.1,0.2-2.1-0.3-2.2c-0.5-0.2-1.2,0.6-1.5,1.7c-0.3,1.1-0.2,2.1,0.3,2.2
				C20.5,39.7,21.2,38.9,21.5,37.9z"/>
			<path class="st11" d="M11.9,60c0.3-1.1,0.2-2.1-0.3-2.2c-0.5-0.2-1.2,0.6-1.5,1.7s-0.2,2.1,0.3,2.2C10.9,61.8,11.6,61.1,11.9,60z
				"/>
			<path class="st11" d="M28.2,91.2c0.3-1.1,0.2-2.1-0.3-2.2c-0.5-0.2-1.2,0.6-1.5,1.7s-0.2,2.1,0.3,2.2
				C27.1,93,27.8,92.2,28.2,91.2z"/>
			<path class="st11" d="M37,70.6c0.3-1.1,0.2-2.1-0.3-2.2c-0.5-0.2-1.2,0.6-1.5,1.7s-0.2,2.1,0.3,2.2C36,72.4,36.7,71.7,37,70.6z"
				/>
			<path class="st11" d="M42.7,45.5c0.3-1.1,0.2-2.1-0.3-2.2c-0.5-0.2-1.2,0.6-1.5,1.7c-0.3,1.1-0.2,2.1,0.3,2.2
				C41.7,47.3,42.4,46.5,42.7,45.5z"/>
			<path class="st11" d="M32.1,40.9c0.3-1.1,0.2-2.1-0.3-2.2c-0.5-0.1-1.2,0.6-1.5,1.7c-0.3,1.1-0.2,2.1,0.3,2.2
				S31.8,41.9,32.1,40.9z"/>
			<path class="st11" d="M17,89.7c0.3-1.1,0.2-2.1-0.3-2.2c-0.5-0.2-1.2,0.6-1.5,1.7s-0.2,2.1,0.3,2.2S16.7,90.7,17,89.7z"/>
			<path class="st3" d="M26.6,96h-0.4c-8-0.7-13.3-2.8-20.8-6.4c-2-1-3.1-3.1-2.8-5.2C5.1,65,8.7,53.2,17.5,36c0.9-1.9,3-2.9,5-2.5
				c7.2,1.2,14.2,3.3,20.8,6.4c1.6,0.7,2.5,2.4,2.3,4.2C43,61.7,39,74.7,30.3,93.7C29.6,95.1,28.2,96,26.6,96z M21.7,34.5
				c-1.3,0-2.5,0.8-3.2,1.9C9.7,53.6,6.1,65.2,3.7,84.4c-0.2,1.7,0.7,3.3,2.2,4c7.5,3.6,12.7,5.6,20.4,6.3c1.2,0.1,2.3-0.5,2.8-1.6
				c8.6-19,12.6-31.9,15.2-49.3l0,0c0.2-1.2-0.5-2.5-1.6-3c-6.5-3-13.4-5.2-20.5-6.3C22.1,34.5,21.9,34.5,21.7,34.5z"/>
			<path class="st0" d="M51.9,71.9c0-0.2-1.6-0.3-3.6-0.1c-2,0.2-3.6,0.5-3.5,0.7c0,0.2,1.6,0.3,3.6,0.1
				C50.4,72.4,51.9,72.1,51.9,71.9z"/>
			<path class="st14" d="M25.3,65.5c0.9-2.9,0.5-5.5-0.8-6s-3.1,1.6-4,4.5c-0.9,2.9-0.5,5.5,0.8,6S24.5,68.4,25.3,65.5z"/>
			<path class="st15" d="M62.3,17.7c0.2,2.1,2.1,8.3,2,9s-3.8-1.1-3.8-1.1L62.3,17.7z"/>
			<path class="st1" d="M62,17.3c0.2,2.1,1.8,8.2,1.7,8.9c-0.1,0.7-3.9-1.1-3.9-1.1L62,17.3z"/>
			<path class="st10" d="M56.4,17.7c2,0.5,4.1,0.8,6.1,0.9l0.3-1.3l-5.3-2.1L56.4,17.7z"/>
			<path class="st10" d="M67.5,19c-1.7,0.1-3.3-0.1-5-0.3l0.1-1.3l5.2-0.6L67.5,19z"/>
			<path class="st16" d="M58.1,25.2c2,0,4.7,1.9,5.7,2.6l-0.7,1.5c0,0-6.1-0.1-6.9-1C55.7,27.8,56.1,25.2,58.1,25.2z"/>
			<path class="st17" d="M58.7,25.6c1.7,0,4,1.6,4.8,2.2l-0.6,1.3c0,0-5.2-0.1-5.9-0.9C56.7,27.8,57,25.6,58.7,25.6z"/>
			<path class="st16" d="M59.8,27.2l-2.4-1l0.4-0.7c0,0-1.3,0.2-1.4,2.2l0.5-0.9L59.8,27.2z"/>
			<path class="st15" d="M61.5,30.1c0-0.1-0.6-0.3-1.3-0.3c-0.7-0.1-1.3-0.1-1.3,0.1c0,0.1,0.6,0.3,1.3,0.3
				C60.9,30.3,61.5,30.2,61.5,30.1z"/>
			<path class="st18" d="M117.8,2.8c0.1-1.1-0.6-2.1-1.7-2.3c-1.1-0.1-2.1,0.6-2.2,1.7c0,0,0,0,0,0.1c-0.1,1.1,0.6,2.1,1.7,2.3
				C116.6,4.7,117.6,3.9,117.8,2.8L117.8,2.8z"/>
			<path class="st18" d="M122.1,4.5c0.1-1.1-0.6-2.1-1.7-2.3c-1.1-0.1-2.1,0.6-2.2,1.7l0,0c-0.1,1.1,0.6,2.1,1.7,2.3
				C121,6.4,122,5.6,122.1,4.5L122.1,4.5z"/>
			<path class="st18" d="M125.7,6.9c0.1-1.1-0.6-2.1-1.7-2.3c-1.1-0.1-2,0.6-2.2,1.7c0,0,0,0,0,0.1c-0.1,1.1,0.6,2.1,1.7,2.3
				C124.6,8.7,125.6,8,125.7,6.9L125.7,6.9z"/>
			<path class="st18" d="M123.7,10.6c0.1-1.1-0.6-2.1-1.7-2.3c-1.1-0.1-2.1,0.6-2.2,1.7l0,0c-0.1,1.1,0.6,2.1,1.7,2.3
				S123.6,11.8,123.7,10.6C123.7,10.7,123.7,10.7,123.7,10.6z"/>
			<path class="st18" d="M121.7,14.5c0.1-1.1-0.6-2.1-1.7-2.3c-1.1-0.1-2.1,0.6-2.2,1.7l0,0c-0.1,1.1,0.6,2.1,1.7,2.3
				S121.6,15.6,121.7,14.5L121.7,14.5z"/>
			<path class="st18" d="M119.8,18.2c0.1-1.1-0.6-2.1-1.7-2.3c-1.1-0.1-2.1,0.6-2.2,1.7c0,0,0,0,0,0.1c-0.1,1.1,0.6,2.1,1.7,2.3
				C118.6,20.1,119.6,19.4,119.8,18.2C119.8,18.3,119.8,18.3,119.8,18.2z"/>
			<path class="st18" d="M117.8,22c0.1-1.1-0.6-2.1-1.7-2.3c-1.1-0.1-2.1,0.6-2.2,1.7l0,0c-0.1,1.1,0.6,2.1,1.7,2.3
				S117.7,23.1,117.8,22L117.8,22z"/>
			<path class="st18" d="M115.9,25.8c0.1-1.1-0.6-2.1-1.7-2.3c-1.1-0.1-2.1,0.6-2.2,1.7l0,0c-0.1,1.1,0.6,2.1,1.7,2.3
				C114.7,27.7,115.7,27,115.9,25.8C115.8,25.9,115.8,25.8,115.9,25.8z"/>
			<path class="st18" d="M113.8,29.6c0.1-1.1-0.6-2.1-1.7-2.3s-2.1,0.6-2.2,1.7v0.1c-0.1,1.1,0.6,2.1,1.7,2.3
				C112.7,31.5,113.7,30.8,113.8,29.6C113.8,29.7,113.8,29.6,113.8,29.6z"/>
			<path class="st18" d="M111.9,33.4c0.1-1.1-0.6-2.1-1.7-2.3c-1.1-0.1-2.1,0.6-2.2,1.7c0,0,0,0,0,0.1c-0.1,1.1,0.6,2.1,1.7,2.3
				C110.8,35.3,111.7,34.5,111.9,33.4z"/>
			<path class="st18" d="M109.9,37.2c0.2-1.1-0.6-2.1-1.7-2.3c-1.1-0.1-2.1,0.6-2.2,1.7l0,0c-0.1,1.1,0.6,2.1,1.7,2.3
				C108.8,39,109.8,38.3,109.9,37.2L109.9,37.2z"/>
			<path class="st18" d="M107.9,41c0.1-1.1-0.6-2.1-1.7-2.3c-1.1-0.1-2.1,0.6-2.2,1.7l0,0c-0.1,1.1,0.6,2.1,1.7,2.3
				C106.8,42.9,107.8,42.1,107.9,41L107.9,41z"/>
			<path class="st18" d="M105.9,44.8c0.1-1.1-0.6-2.1-1.7-2.3c-1.1-0.1-2.1,0.6-2.2,1.7l0,0c-0.1,1.1,0.6,2.1,1.7,2.3
				C104.8,46.6,105.8,45.8,105.9,44.8z"/>
			<path class="st18" d="M103.9,48.6c0.1-1.1-0.6-2.1-1.7-2.3c-1.1-0.1-2.1,0.6-2.2,1.7l0,0c-0.1,1.1,0.6,2.1,1.7,2.3
				C102.8,50.4,103.8,49.7,103.9,48.6L103.9,48.6z"/>
			<path class="st18" d="M102,52.3c0.1-1.1-0.6-2.1-1.7-2.3c-1.1-0.1-2.1,0.6-2.2,1.7l0,0c-0.1,1.1,0.6,2.1,1.7,2.3
				C100.8,54.2,101.8,53.5,102,52.3C102,52.4,102,52.4,102,52.3z"/>
			<path class="st18" d="M100,56.2c0.1-1.1-0.6-2.1-1.7-2.3c-1.1-0.1-2.1,0.6-2.2,1.7l0,0c-0.1,1.1,0.6,2.1,1.7,2.3
				C98.9,58.1,99.9,57.3,100,56.2L100,56.2z"/>
			<path class="st18" d="M98,59.9c0.1-1.1-0.6-2.1-1.7-2.3c-1.1-0.1-2.1,0.6-2.2,1.7l0,0c-0.1,1.1,0.6,2.1,1.7,2.3
				S97.9,61.1,98,59.9C98,60,98,59.9,98,59.9z"/>
			<path class="st18" d="M96,63.7c0.1-1.1-0.6-2.1-1.7-2.3c-1.1-0.1-2.1,0.6-2.2,1.7l0,0c-0.1,1.1,0.6,2.1,1.7,2.3
				C94.9,65.6,95.9,64.8,96,63.7C96,63.8,96,63.7,96,63.7z"/>
			<path class="st18" d="M94.1,67.5c0.1-1.1-0.6-2.1-1.7-2.3c-1.1-0.1-2.1,0.6-2.2,1.7l0,0c-0.1,1.1,0.6,2.1,1.7,2.3
				S93.9,68.6,94.1,67.5L94.1,67.5z"/>
			<path class="st18" d="M113.5,1.9c0-1.1-0.9-1.9-1.9-1.9c-1.1,0-1.9,0.9-1.9,1.9s0.9,1.9,1.9,1.9l0,0C112.7,3.9,113.5,3,113.5,1.9
				z"/>
			<path class="st18" d="M112,5.8c0-1.1-0.9-2-1.9-2s-2,0.9-2,1.9s0.9,2,1.9,2l0,0C111.1,7.8,112,6.9,112,5.8z"/>
			<path class="st18" d="M110.5,9.7c0-1.1-0.9-1.9-1.9-1.9s-1.9,0.9-1.9,1.9c0,1.1,0.9,1.9,1.9,1.9C109.6,11.6,110.5,10.8,110.5,9.7
				L110.5,9.7z"/>
			<path class="st18" d="M109,13.5c0-1.1-0.9-1.9-1.9-1.9c-1.1,0-1.9,0.9-1.9,1.9c0,1.1,0.9,1.9,1.9,1.9l0,0
				C108.1,15.5,109,14.6,109,13.5z"/>
			<path class="st18" d="M107.5,17.4c0-1.1-0.9-1.9-1.9-1.9s-1.9,0.9-1.9,1.9c0,1.1,0.9,1.9,1.9,1.9S107.5,18.5,107.5,17.4
				L107.5,17.4z"/>
			<path class="st18" d="M106,21.3c0-1.1-0.9-2-1.9-2c-1.1,0-2,0.9-2,1.9c0,1.1,0.9,2,1.9,2l0,0C105.1,23.2,106,22.3,106,21.3z"/>
			<path class="st18" d="M104.5,25.2c0-1.1-0.9-1.9-1.9-1.9s-1.9,0.9-1.9,1.9s0.9,1.9,1.9,1.9S104.4,26.3,104.5,25.2L104.5,25.2z"/>
			<path class="st18" d="M102.9,29c0-1.1-0.9-1.9-1.9-1.9S99.1,28,99.1,29c0,1.1,0.9,1.9,1.9,1.9C102.1,31,102.9,30.1,102.9,29z"/>
			<path class="st18" d="M101.4,32.9c0-1.1-0.9-1.9-2-1.9s-1.9,0.9-1.9,2c0,1.1,0.9,1.9,1.9,1.9C100.6,34.9,101.4,34,101.4,32.9
				L101.4,32.9z"/>
			<circle class="st18" cx="98" cy="36.8" r="1.9"/>
			<path class="st18" d="M98.4,40.7c0-1.1-0.9-2-1.9-2c-1.1,0-2,0.9-2,1.9c0,1.1,0.9,2,1.9,2l0,0C97.5,42.6,98.4,41.7,98.4,40.7
				L98.4,40.7z"/>
			<path class="st18" d="M96.9,44.5c0-1.1-0.9-1.9-1.9-1.9c-1.1,0-1.9,0.9-1.9,1.9c0,1.1,0.9,1.9,1.9,1.9S96.9,45.6,96.9,44.5
				L96.9,44.5z"/>
			<path class="st18" d="M95.4,48.4c0-1.1-0.9-1.9-1.9-1.9c-1.1,0-1.9,0.9-1.9,1.9c0,1.1,0.9,1.9,1.9,1.9S95.4,49.5,95.4,48.4
				L95.4,48.4z"/>
			<path class="st18" d="M93.9,52.3c0-1.1-0.9-1.9-1.9-1.9c-1.1,0-1.9,0.9-1.9,1.9c0,1.1,0.9,1.9,1.9,1.9S93.9,53.3,93.9,52.3z"/>
			<path class="st18" d="M92.4,56.2c0-1.1-0.9-1.9-1.9-1.9c-1.1,0-1.9,0.9-1.9,1.9s0.9,1.9,1.9,1.9C91.5,58.1,92.4,57.3,92.4,56.2
				L92.4,56.2z"/>
			<path class="st18" d="M90.9,60c0-1.1-0.9-2-1.9-2c-1.1,0-2,0.9-2,1.9c0,1.1,0.9,2,1.9,2l0,0C90,62,90.8,61.1,90.9,60z"/>
			<circle class="st18" cx="87.4" cy="63.9" r="1.9"/>
			<polygon class="st19" points="85.3,70.4 80.2,81.7 81.9,82.8 88.2,72.4 			"/>
			<polygon class="st20" points="84.7,70 112.1,1.3 124.3,6 89,72.9 			"/>
			<path class="st21" d="M117.8,5c-4.9,4.3-10.9,13.9-15.6,25.8c-4.3,10.6-6.4,20.6-6.4,27.2l27-51.1L117.8,5z"/>
			<polygon class="st12" points="83.6,70.1 89.3,74.2 91.8,69.5 85.3,66.2 			"/>
			<path class="st12" d="M79.2,80.9c0,1.4,1.1,2.5,2.5,2.5s2.5-1.1,2.5-2.5s-1.1-2.5-2.5-2.5l0,0C80.3,78.4,79.2,79.5,79.2,80.9
				L79.2,80.9z"/>
			<path class="st3" d="M80.5,80.9c0,0.7,0.5,1.2,1.2,1.2s1.2-0.5,1.2-1.2s-0.5-1.2-1.2-1.2l0,0C81,79.7,80.5,80.2,80.5,80.9
				L80.5,80.9z"/>
			<path class="st10" d="M52.4,3c-2.7,0.9-4.8,3-3.4,3C50.4,6.1,52.4,3,52.4,3z"/>
			<path class="st1" d="M76.6,71.6c3-1.6,5.7-1.7,7-1.4c1.4,0.3,3.2,2.1,3.3,3c0.1,1-3.1,3-3.7,3.2s-1.7-1-1.5-1.5
				c0.3-0.5,1.5-1.1,1.3-1.4c-0.2-0.2-0.4-0.4-0.6-0.5C82.5,73,77.7,73.6,76.6,71.6z"/>
			<path class="st1" d="M85.7,74.7c-0.3-1,1.3-2.1,1.8-1.7s3.8,1.8,3.7,2.6c-0.1,0.8-1.2,2-1.8,1.8C88.9,77.3,85.9,75.5,85.7,74.7z"
				/>
			<path class="st1" d="M83.4,76.6c-0.3-1,1.3-2.1,1.8-1.7s3.8,1.8,3.7,2.6c-0.1,0.8-1.2,2-1.8,1.9C86.6,79.2,83.7,77.4,83.4,76.6z"
				/>
			<path class="st1" d="M81.4,78.6c-0.3-1,1.2-2.1,1.7-1.8c0.5,0.3,3.4,1.6,3.3,2.4s-1.2,2-1.6,1.9C84.3,80.9,81.6,79.4,81.4,78.6z"
				/>
		</g>
	</g>
</g>
</svg>
