<?xml version="1.0" encoding="utf-8"?>
<!-- Generator: Adobe Illustrator 24.2.1, SVG Export Plug-In . SVG Version: 6.00 Build 0)  -->
<svg version="1.1" id="Warstwa_1" xmlns="http://www.w3.org/2000/svg" xmlns:xlink="http://www.w3.org/1999/xlink" x="0px" y="0px"
	 viewBox="0 0 121.4 150" style="enable-background:new 0 0 121.4 150;" xml:space="preserve">
<style type="text/css">
	.st0{fill:#D87A35;}
	.st1{fill:#D13D6B;}
	.st2{fill:#A58C7E;}
	.st3{fill:#59473D;}
	.st4{fill:#6B323D;}
	.st5{fill:#EF9B3F;}
	.st6{fill:#5E3F42;}
	.st7{fill:#4C3034;}
	.st8{fill:#CE6225;}
	.st9{fill:#382427;}
	.st10{fill:#894C55;}
	.st11{fill:#44272D;}
	.st12{fill:#9E8E85;}
	.st13{fill:#512F35;}
	.st14{fill:#C1B4A0;}
	.st15{opacity:0.6;fill:#843131;enable-background:new    ;}
	.st16{fill:#E5B751;}
	.st17{fill:#FFC7A1;}
	.st18{fill:#7A5841;}
	.st19{fill:#EAA373;}
	.st20{fill:#84736B;}
	.st21{fill:#7F6D62;}
	.st22{fill:#66564E;}
	.st23{fill:#EDDFCC;}
	.st24{fill:#9BB2AF;}
</style>
<g>
	<g id="Warstwa_2_1_">
		<g id="_11">
			<path class="st0" d="M65.6,79.5c0.8,0,1.6-0.2,2.4-0.4c1.4-0.7,2.9-1.3,4.4-1.7c0.5-0.1,2.3,1.6,2.8,2.3
				c-0.6,0.3-3.8,4.9-3.8,4.9c-1.3,0.1-2.6,0-3.8-0.3c-0.4-0.2-1.8,0.2-2.9,0.1C63.1,84.2,65.6,79.5,65.6,79.5z"/>
			<path class="st1" d="M23.4,26.2C14.9,14.9,7.9,0,7.9,0s16.3,22.2,17.6,24.5s0.6,4.3,0.3,4.3S23.9,26.9,23.4,26.2z"/>
			<polygon class="st2" points="24.7,33.7 25.7,28.8 31,29.8 			"/>
			<path class="st3" d="M43.3,38.2l3.2,18.1c0,0-8.6,1.7-12.6,0.8l-1.6-14.7L43.3,38.2z"/>
			<path class="st4" d="M44.3,61.3c4.8,5.7,6.3,19.1,11.5,20.6c2,0.6-4.9,7.2-6.4,6.5c-1.5-0.6-7.2-3.6-8.7-6.7
				C39.2,78.6,42.1,58.8,44.3,61.3z"/>
			<polygon class="st0" points="41.8,84.7 41.2,76.4 51.3,72.1 53.9,79 			"/>
			<path class="st5" d="M53.4,77.7c-1,0.1-2,0.5-2.9,0.9c-2,1-3.4,2.5-3.2,3.5l6.6-3.1L53.4,77.7z"/>
			<path class="st6" d="M40.4,82.2l13.4-7c0,0-4.8-14.4-12.3-16.6C41.5,58.6,36.8,68.2,40.4,82.2z"/>
			<path class="st7" d="M49.6,77.5c-1.4-7.3-4.4-12.9-7.7-12.9c-1,0.1-1.9,0.6-2.5,1.4c-0.8,5.4-0.4,10.9,0.9,16.2L49.6,77.5z"/>
			<polygon class="st0" points="44.8,87 23.1,92.2 22.8,96.3 45.8,91.2 			"/>
			<path class="st8" d="M35.7,91.4c3.4-0.8,6.5-0.7,7.9,0.3l2.2-0.5l-1-4.1l-21.7,5.2l-0.3,4.1L29,95C30.1,93.5,32.6,92.1,35.7,91.4
				z"/>
			<rect x="23.5" y="99.3" transform="matrix(0.98 -0.1992 0.1992 0.98 -21.0461 9.4265)" class="st9" width="25.6" height="20"/>
			<path class="st10" d="M0.1,150h5.2c0,0,0.4-2.7-0.3-2.9C4.4,146.8,2.1,148.8,0.1,150z"/>
			<path class="st10" d="M74.9,150h-9.3c0,0-0.8-2.7,0.5-2.9C67.3,146.8,71.4,148.8,74.9,150z"/>
			<path class="st10" d="M16.3,116.3c0,0-9.6,25.4-12.5,31.9h0.5l22.4-28.8L16.3,116.3z"/>
			<path class="st4" d="M13.7,136.1l13-16.7l-10.4-3.1c0,0-2.6,6.9-5.5,14.4C12.1,132.3,13.1,134.1,13.7,136.1z"/>
			<path class="st10" d="M46.7,116.4c0,0,16.1,25.4,19.4,31.7l0.6-0.3l-11-36.4L46.7,116.4z"/>
			<path class="st4" d="M58.9,121.9l-3.2-10.4l-9,5c0,0,5.3,8.4,10.4,16.7C57.4,129.3,58,125.5,58.9,121.9z"/>
			<path class="st6" d="M12.1,123.1c10.7,4.9,27,0.2,27,0.2l-0.8-20.7l0.9-0.5l5.9,19.8l13.7-6.2L46.6,89.5l-24.7,6.2L12.1,123.1z"
				/>
			<path class="st7" d="M25.8,94.8l-4,1l-9.7,27.3c1.5,0.6,3,1.1,4.5,1.5C16.6,114.9,20.7,102.7,25.8,94.8z"/>
			<path class="st7" d="M56.2,116.9l2.5-1.1L46.5,89.6l-3.7,0.9C48.5,96.1,54.1,106.9,56.2,116.9z"/>
			<path class="st5" d="M57.7,113.6l-11.3,5.2l-6-18.6l-3.5,0.7V122c0,0-13.4,3.1-24-1.1l-1.1,2.3c10.7,4.9,27.5,0.4,27.5,0.4
				l-0.8-20.7l0.6-0.2l5.8,19.7l14.3-6.2L57.7,113.6z"/>
			<path class="st6" d="M22,92.3c10.4-0.6,23.5-4,23.5-4s1.6-23.4-1.1-27.3c-2.8-4-11.8-4.8-13.6-4.4c-1.7,0.3-9.1,4.3-9.9,5.9
				C20.1,64.1,20.9,88.8,22,92.3z"/>
			<path class="st7" d="M26.6,89.6c-0.9-2.9-1.7-24.3-3.7-25.7c-1,0.7-2-0.3-2.2,0.1c-0.8,1.6,0,25,1.1,28.5
				c10.4-0.6,23.8-4.2,23.8-4.2s0-0.4,0.1-1.1C39.3,88.5,33,89.3,26.6,89.6z"/>
			<path class="st11" d="M43.4,63.1l-16.2,0.7l0.3,24.5l16.8-2.4C44.3,86,44.4,69.6,43.4,63.1z"/>
			<path class="st12" d="M38.1,77.8l-2.7,0.1c0,0.9,0,1.8,0,2.6l2.7-0.2C38.2,79.5,38.2,78.6,38.1,77.8z"/>
			<path class="st12" d="M35,80.5c0-0.8,0-1.7-0.1-2.6L31.6,78c0,0.9,0,1.8,0,2.7L35,80.5z"/>
			<path class="st12" d="M43.7,77.6l-2.2,0.1c0,0.8,0,1.6,0,2.4l2.2-0.2C43.8,79.1,43.7,78.4,43.7,77.6z"/>
			<path class="st12" d="M41.1,77.7l-2.4,0.1c0,0.9,0,1.7,0,2.5l2.4-0.2C41.1,79.3,41.1,78.5,41.1,77.7z"/>
			<path class="st12" d="M38.4,70.4l2.4-0.1c0-1-0.1-1.9-0.2-2.9l-2.4,0.1C38.3,68.5,38.3,69.4,38.4,70.4z"/>
			<path class="st12" d="M37.9,64.3c0.1,0.8,0.2,1.7,0.3,2.7l2.4-0.1c-0.1-1-0.2-1.9-0.3-2.7L37.9,64.3z"/>
			<path class="st12" d="M41.1,67.5c0.1,0.9,0.1,1.9,0.2,2.9l2.2-0.1c-0.1-1-0.1-2-0.2-2.8H41.1z"/>
			<path class="st12" d="M35,67.1l2.6-0.1c-0.1-1-0.2-1.9-0.3-2.7l-2.6,0.1C34.9,65.2,34.9,66.2,35,67.1z"/>
			<path class="st12" d="M41.5,73.8l2.2-0.1c0-1-0.1-2-0.1-2.9l-2.2,0.1C41.4,71.9,41.4,72.8,41.5,73.8z"/>
			<path class="st12" d="M35,77.3c0-0.9,0-1.8-0.1-2.6l-3.3,0.1c0,0.9,0,1.8,0,2.7L35,77.3z"/>
			<path class="st12" d="M43.6,74.3l-2.2,0.1c0,0.9,0.1,1.8,0.1,2.7l2.2-0.1C43.7,76.1,43.7,75.2,43.6,74.3z"/>
			<path class="st12" d="M38.6,77.2l2.4-0.1c0-0.9,0-1.8-0.1-2.7l-2.4,0.1C38.6,75.4,38.6,76.3,38.6,77.2z"/>
			<path class="st12" d="M38,74c0-1-0.1-2-0.1-2.9l-2.6,0.1c0,1,0.1,1.9,0.1,2.9L38,74z"/>
			<path class="st12" d="M35.1,67.7c0.1,0.9,0.1,1.9,0.2,2.9l2.6-0.1c0-1-0.1-1.9-0.2-2.9L35.1,67.7z"/>
			<path class="st12" d="M35.5,77.3l2.7-0.1c0-0.9,0-1.8-0.1-2.7l-2.7,0.1C35.4,75.5,35.4,76.4,35.5,77.3z"/>
			<path class="st12" d="M31.6,74.2l3.3-0.1c0-1-0.1-2-0.1-2.9l-3.3,0.1C31.6,72.3,31.6,73.2,31.6,74.2z"/>
			<path class="st12" d="M38.4,71c0,1,0.1,1.9,0.1,2.9l2.4-0.1c0-1-0.1-1.9-0.1-2.9L38.4,71z"/>
			<path class="st12" d="M35.1,86.4c0-0.6,0-1.3,0-2.1l-3.4,0.3c0,1.1,0,1.9,0,2.3L35.1,86.4z"/>
			<path class="st12" d="M31.4,67.3l3.2-0.1c-0.1-1-0.2-1.9-0.3-2.7l-3.1,0.1C31.2,65.3,31.3,66.3,31.4,67.3z"/>
			<path class="st12" d="M41.1,80.7l-2.5,0.2c0,0.9,0,1.7,0,2.4l2.5-0.2C41.2,82.3,41.1,81.5,41.1,80.7z"/>
			<path class="st12" d="M43.8,80.5l-2.2,0.2c0,0.9,0,1.7,0,2.3l2.2-0.2C43.8,82.1,43.8,81.3,43.8,80.5z"/>
			<path class="st12" d="M35.5,81c0,0.9,0,1.8,0,2.5l2.7-0.3c0-0.7,0-1.6,0-2.4L35.5,81z"/>
			<path class="st12" d="M31.2,84.6l-2.9,0.3v2.4l2.9-0.4C31.2,86.3,31.2,85.5,31.2,84.6z"/>
			<path class="st12" d="M41.7,83.6c0,1.1,0,1.8,0,1.8l-0.5,0.1c0-0.5,0-1.1,0-1.8l-2.5,0.2c0,0.9,0,1.6,0,2l5.1-0.7
				c0,0,0-0.7,0-1.8L41.7,83.6z"/>
			<path class="st12" d="M30.9,67.3c-0.1-1-0.1-1.9-0.2-2.7l-2.6,0.1v2.7L30.9,67.3z"/>
			<path class="st12" d="M38.3,83.9l-2.7,0.3c0,1,0,1.7,0,2.1l2.7-0.4C38.3,85.3,38.3,84.7,38.3,83.9z"/>
			<path class="st12" d="M41.1,66.9l2.1-0.1c-0.1-1-0.2-1.9-0.3-2.7l-2.1,0.1C40.9,64.9,41,65.9,41.1,66.9z"/>
			<path class="st12" d="M28.1,70.8l2.9-0.1c0-1-0.1-1.9-0.1-2.9l-2.8,0.1L28.1,70.8z"/>
			<path class="st12" d="M34.7,70.6c0-1-0.1-1.9-0.2-2.9l-3.2,0.1c0.1,0.9,0.1,1.9,0.1,2.9L34.7,70.6z"/>
			<path class="st12" d="M31,71.3l-2.9,0.1v2.9l3-0.1C31.1,73.3,31.1,72.3,31,71.3z"/>
			<path class="st12" d="M35.1,83.6c0-0.8,0-1.6,0-2.5l-3.3,0.2v2.6L35.1,83.6z"/>
			<path class="st12" d="M31.2,84c0-0.8,0-1.7,0-2.6l-3,0.2v2.7L31.2,84z"/>
			<path class="st12" d="M31.2,80.8c0-0.9,0-1.8,0-2.7l-3,0.1V81L31.2,80.8z"/>
			<path class="st12" d="M31.2,77.5c0-0.9,0-1.8,0-2.7l-3,0.1v2.7L31.2,77.5z"/>
			<path class="st10" d="M11.8,67.8c-5.3,5.5-10.7,17-11.4,18.8C-0.7,89.7,2.5,92.7,4,92s14.1-12.6,15.5-17.2
				C20.5,71.7,14.2,65.3,11.8,67.8z"/>
			<path class="st4" d="M12.6,67.3c2.7,1.1,5.7,5,5,7.2C16.2,78.9,4.9,90.4,2.5,92c0.5,0.4,1.1,0.6,1.7,0.4
				c1.5-0.7,13.9-13.1,15.4-17.7C20.5,71.9,15.3,66.5,12.6,67.3z"/>
			<path class="st4" d="M11.8,67.8c-3.5,3.7-7.1,10-9.3,14.4c1.9,0.6,3.6,1.8,4.9,3.3c0.7,0.8,1.2,1.7,1.6,2.6
				c4.2-4.2,9.6-10.4,10.6-13.4C20.5,71.7,14.2,65.3,11.8,67.8z"/>
			<path class="st0" d="M3.4,78c1.1-2.9,4.7-7.4,6.7-9.2l6,13.2L13,85.8L3.4,78z"/>
			<path class="st5" d="M13.3,85.4c-0.2-1.2-1.8-3.3-4.3-5.1c-1.6-1.3-3.5-2.2-5.5-2.8c-0.1,0.2-0.1,0.3-0.2,0.5l9.6,7.8L13.3,85.4z
				"/>
			<path class="st6" d="M16.7,84.4l-12.3-12c0,0,5-8.1,20.3-12.8C24.7,59.5,25.2,73.3,16.7,84.4z"/>
			<path class="st7" d="M24.5,63.7c-0.3,1.5-0.8,2.9-1.4,4.3c-2.4,5.8-6.5,10.4-10.5,12.3l4.3,4.5C22.4,77.6,23.9,68.7,24.5,63.7z"
				/>
			<path class="st10" d="M50.4,81.5c0.9-1.1,2.3-1.8,3.7-1.9c2.9-0.1,7,0,13.1,0.2l-0.3,3.8c-9.3,5.9-16.6,4.6-16.6,4.6
				C49.3,86.3,48.7,83.7,50.4,81.5z"/>
			<path class="st4" d="M50.7,86.5c-0.6-1.2-1.4-2.6-1.2-4.2c-1.3,2.1-0.5,4.5,0.4,6.2c0,0,7.6,0.9,16.9-5l0.2-1.6
				C58,87.3,50.7,86.5,50.7,86.5z"/>
			<path class="st13" d="M25.9,58.8l0.4-3.8h14.8l0.7,3.8C41.8,58.8,35.3,63,25.9,58.8z"/>
			<path class="st14" d="M38.1,77.8l-2.7,0.1c0,0.9,0,1.8,0,2.6l2.7-0.2C38.2,79.5,38.2,78.6,38.1,77.8z"/>
			<path class="st14" d="M35,80.5c0-0.8,0-1.7-0.1-2.6L31.6,78c0,0.9,0,1.8,0,2.7L35,80.5z"/>
			<path class="st14" d="M38.7,79.9l0.9-2.2h-0.9C38.6,78.5,38.7,79.2,38.7,79.9z"/>
			<path class="st14" d="M38.4,70.4l2.4-0.1c0-1-0.1-1.9-0.2-2.9l-2.4,0.1C38.3,68.5,38.3,69.4,38.4,70.4z"/>
			<path class="st14" d="M40.6,66.9c-0.1-1-0.2-1.9-0.3-2.7l-2.4,0.1c0.1,0.8,0.2,1.7,0.3,2.7L40.6,66.9z"/>
			<path class="st14" d="M41.1,67.5c0.1,0.9,0.1,1.9,0.2,2.9h1.2l0.8-2.1c0-0.3,0-0.6-0.1-0.8H41.1z"/>
			<path class="st14" d="M37.4,64.3h-0.3L36,67.1l1.7-0.1C37.6,66,37.5,65.1,37.4,64.3z"/>
			<path class="st14" d="M41.4,73l0.8-2.1h-0.9C41.4,71.6,41.4,72.3,41.4,73z"/>
			<path class="st14" d="M34.9,74.7l-2,0.1l-1.1,2.7l3.1-0.1C35,76.4,34.9,75.6,34.9,74.7z"/>
			<path class="st14" d="M38.6,77.2h1.2l1.1-2.7l-2.3,0.1C38.6,75.4,38.6,76.3,38.6,77.2z"/>
			<path class="st14" d="M37.9,71l-2.6,0.1c0,1,0.1,1.9,0.1,2.9l2.6-0.1C38,73,38,72,37.9,71z"/>
			<path class="st14" d="M37.9,70.5c0-1-0.1-1.9-0.2-2.9l-2,0.1l-0.6,1.5c0,0.5,0.1,0.9,0.1,1.4L37.9,70.5z"/>
			<path class="st14" d="M38,74.5l-2.7,0.1c0,0.9,0.1,1.8,0.1,2.6l2.7-0.1C38.1,76.3,38.1,75.4,38,74.5z"/>
			<path class="st14" d="M34.8,71.2h-0.4l-1.2,3l1.7-0.1C34.8,73.1,34.8,72.1,34.8,71.2z"/>
			<path class="st14" d="M38.4,71c0,1,0.1,1.9,0.1,2.9l2.4-0.1c0-1-0.1-1.9-0.1-2.9L38.4,71z"/>
			<path class="st14" d="M31.7,84.5c0,1.1,0,1.9,0,2.3l3.4-0.5c0-0.6,0-1.3,0-2.1L31.7,84.5z"/>
			<path class="st14" d="M35.5,81c0,0.9,0,1.8,0,2.5l1.7-0.2l0.9-2.3c0-0.1,0-0.1,0-0.2L35.5,81z"/>
			<path class="st14" d="M31.2,86.9c0-0.6,0-1.4,0-2.3l-2.3,0.2l-0.6,1.5v1L31.2,86.9z"/>
			<path class="st14" d="M35.6,86.2l0.6-0.1l0.9-2.2L35.7,84C35.6,85.1,35.6,85.9,35.6,86.2z"/>
			<path class="st14" d="M43.2,66.8c-0.1-1-0.2-1.9-0.3-2.7l-2.1,0.1c0.1,0.8,0.2,1.7,0.3,2.7L43.2,66.8z"/>
			<path class="st14" d="M34.7,70.3l-0.1,0.3h0.1C34.7,70.5,34.7,70.4,34.7,70.3z"/>
			<path class="st14" d="M31.7,83.9l3.4-0.3c0-0.8,0-1.6,0-2.5l-3.3,0.2v2.6H31.7z"/>
			<path class="st14" d="M31.2,81.4l-0.9,0.1l-1.1,2.8l2.1-0.2C31.2,83.2,31.2,82.3,31.2,81.4z"/>
			<path class="st14" d="M31.2,79.1l-0.7,1.7h0.7C31.2,80.2,31.2,79.6,31.2,79.1z"/>
			<path class="st15" d="M49.5,66.2c-2-3.2-4.6-6.4-7.7-7.5L41,55H26.3l-0.4,3.8l0,0c-0.4,0.2-0.8,0.5-1.2,0.7l0,0
				c-1.7,0.6-3.4,1.4-5.1,2.2c3.5,1.8,7.2,3.2,11,4.1C38.4,67.8,45.6,67.8,49.5,66.2z"/>
			<path class="st16" d="M24.8,28.4C17.5,24.6,12,16.9,12,16.9l-0.7-5.4c0,0,12.7,14.3,13.7,15.8C26,28.8,25.9,29,24.8,28.4z"/>
			<path class="st17" d="M31.2,44.4l1.3,9.1c0,0,6.2,3.6,10.7,0.7c0,0,0-14.3-1.6-16.3C40.1,36,31.1,39.1,31.2,44.4z"/>
			<path class="st18" d="M42.7,44.1c-0.7,0.2-1.5,0.4-2.1,0.8l2.4-0.3L42.7,44.1z"/>
			<polygon class="st2" points="25.4,30.2 24.2,28.2 26.1,27.2 27.3,29.1 			"/>
			<polygon class="st5" points="35.7,90.9 35.2,92.6 36.4,93.2 38.6,92.7 38.9,91.5 37.6,90.4 			"/>
			<path class="st5" d="M36.6,92.8l-1.4-0.2c-0.7,2.1-0.9,4.3-0.5,6.5l3.1-0.1C37.8,99,36,94.3,36.6,92.8z"/>
			<path class="st5" d="M37.5,92.4l1-1.1c1.9,1.2,3.4,2.8,4.5,4.7l-2.6,1.9C40.4,98,38.9,93.3,37.5,92.4z"/>
			<path class="st19" d="M40.6,42.3c0.5,1.5,3.4,5.9,3.4,5.9l-2.7,0.7L40.6,42.3z"/>
			<path class="st17" d="M40.1,42.3c0.5,1.4,3.3,5.6,3.3,5.6l-2.7,0.7L40.1,42.3z"/>
			<path class="st11" d="M41.6,48.8c-0.3,0-2.3,0.2-2.8,5c1.2-4.9,4.7-5.5,5-0.6C43.8,49.3,42.3,48.7,41.6,48.8z"/>
			<polygon class="st11" points="40.7,43.4 36.1,44.3 36.1,42.7 40.6,42.5 			"/>
			<polygon class="st11" points="43.5,41.9 40.7,42.6 41.1,43.4 43.6,43.2 			"/>
			<path class="st19" d="M40.2,51.3c0.4-0.7,1.3-1.1,2.1-1.1v0.6L40.2,51.3z"/>
			<path class="st18" d="M39.2,44.5c-1,0.2-1.9,0.4-2.8,0.8l3.2-0.3L39.2,44.5z"/>
			<path class="st15" d="M32.1,48.5L42.7,42c-0.1-1.2-0.4-2.4-0.8-3.6L32.4,43L32.1,48.5z"/>
			<path class="st12" d="M35,41.7l0.9,16.7c0,0-8,0.4-12.1-0.4l1-11.6L35,41.7z"/>
			<path class="st20" d="M27.4,52.9c1.8-4.4,4.9-7.5,7.8-8.5l-0.1-2.8l-10.2,4.7l-1,11.6c0.7,0.1,1.5,0.2,2.2,0.3
				C26.2,56.5,26.7,54.6,27.4,52.9z"/>
			<path class="st21" d="M24.6,47.4l19.9-10.2c0,0-7.1-11.9-16.9-6.4C17.5,36.5,24.6,47.4,24.6,47.4z"/>
			<path class="st22" d="M35.9,37.9c-5.1,0-9.2-2.5-9.2-5.7c0-0.3,0.1-0.6,0.1-1c-9,5.8-2.2,16-2.2,16l19.9-10
				c-0.4-0.6-0.7-1.1-1.2-1.7C41.7,37,39,37.9,35.9,37.9z"/>
			<polygon class="st14" points="44.5,36.1 45.4,37.8 24.6,47.9 24,46.9 			"/>
			<path class="st23" d="M35.3,42.7l10.1-4.9l-0.9-1.7l-9.5,5C35.1,41.6,35.2,42.2,35.3,42.7z"/>
			<path class="st4" d="M60.4,86c-0.6-2.1-0.4-4.4,0.6-6.4l6.8-0.1l-2.6,4.3L60.4,86z"/>
			<path class="st5" d="M62,86.6c0,0-1.3-3.9,0.7-7.3l7.9-0.1l-3,5L62,86.6z"/>
			<path class="st0" d="M63.5,82.1c-0.4-0.8-0.1-1.9,0.7-2.9h-1.6c-2,3.5-0.7,7.3-0.7,7.3l5.6-2.4l0.9-1.5
				C66.2,83.6,64.1,83.4,63.5,82.1z"/>
			<polygon class="st9" points="5.5,150 4.4,148.3 118,32.3 118.6,32.8 			"/>
			<path class="st20" d="M28.6,51.3c-0.5,0-0.9-0.4-1-0.9l0,0c-0.1,0.5,0.2,1.1,0.8,1.2c0.1,0,0.1,0,0.2,0c0.7,0,1.2-0.5,1.3-1.2
				c0-0.1,0-0.2,0-0.3C29.8,50.8,29.2,51.3,28.6,51.3z"/>
			<path class="st20" d="M30.9,51.1c-0.5,0-0.9-0.4-1-0.9l0,0c-0.1,0.5,0.2,1.1,0.8,1.2c0.1,0,0.1,0,0.2,0c0.7,0,1.2-0.5,1.3-1.2
				c0-0.1,0-0.2,0-0.3C32.1,50.6,31.5,51.1,30.9,51.1z"/>
			<path class="st20" d="M33.1,50.9c-0.5,0-0.9-0.4-1-0.9l0,0c-0.1,0.5,0.2,1.1,0.8,1.2c0.1,0,0.1,0,0.2,0c0.7,0,1.2-0.5,1.3-1.2
				c0-0.1,0-0.2,0-0.3C34.3,50.4,33.8,50.9,33.1,50.9z"/>
			<path class="st20" d="M27.6,54.4c-0.5,0-0.9-0.4-1-0.9l0,0c-0.1,0.6,0.3,1.1,0.8,1.2c0.1,0,0.1,0,0.2,0c0.7,0,1.2-0.5,1.3-1.2
				c0-0.1,0-0.2,0-0.3C28.8,53.9,28.3,54.4,27.6,54.4z"/>
			<path class="st20" d="M29.9,54.3c-0.5,0-0.9-0.4-1-0.9l0,0c-0.1,0.5,0.2,1.1,0.8,1.2c0.1,0,0.1,0,0.2,0c0.7,0,1.2-0.5,1.3-1.2
				c0-0.1,0-0.2,0-0.3C31.1,53.7,30.6,54.2,29.9,54.3z"/>
			<path class="st20" d="M32.2,54c-0.5,0-0.9-0.4-1-0.9l0,0c-0.1,0.6,0.3,1.1,0.8,1.2c0.1,0,0.1,0,0.2,0c0.7,0,1.2-0.5,1.3-1.2
				c0-0.1,0-0.2,0-0.3C33.4,53.5,32.8,54,32.2,54z"/>
			<path class="st20" d="M27,56.9c-0.5,0-0.9-0.4-1-0.9l0,0c-0.1,0.6,0.3,1.2,0.9,1.3H27c0.7,0,1.2-0.5,1.3-1.1c0-0.1,0-0.2,0-0.3
				C28.3,56.5,27.7,56.9,27,56.9z"/>
			<path class="st20" d="M29.3,56.9c-0.5,0-0.9-0.4-1-0.9l0,0c-0.1,0.6,0.3,1.2,0.9,1.3h0.1c0.6,0,1.2-0.4,1.3-1.1
				c0-0.1,0-0.2,0-0.3C30.5,56.5,30,57,29.3,56.9z"/>
			<path class="st20" d="M31.6,56.9c-0.5,0-0.9-0.4-1-0.9l0,0c-0.1,0.6,0.3,1.2,0.9,1.3h0.1c0.7,0,1.2-0.5,1.3-1.1
				c0-0.1,0-0.2,0-0.3C32.8,56.4,32.2,56.9,31.6,56.9z"/>
			<path class="st20" d="M28.8,48.8c-0.5,0-0.9-0.4-1-0.9l0,0c-0.1,0.5,0.2,1.1,0.8,1.2c0.1,0,0.1,0,0.2,0c0.7,0,1.2-0.5,1.3-1.2
				c0-0.1,0-0.2,0-0.3C30,48.3,29.5,48.8,28.8,48.8z"/>
			<path class="st20" d="M31.1,48.7c-0.5,0-0.9-0.4-1-0.9l0,0c-0.1,0.5,0.2,1.1,0.8,1.2c0.1,0,0.1,0,0.2,0c0.7,0,1.2-0.5,1.3-1.2
				c0-0.1,0-0.2,0-0.3C32.3,48.2,31.8,48.7,31.1,48.7z"/>
			<path class="st20" d="M33.4,48.4c-0.5,0-0.9-0.4-1-0.9l0,0c-0.1,0.6,0.3,1.1,0.8,1.2c0.1,0,0.1,0,0.2,0c0.7,0,1.3-0.7,1.3-1.4
				v-0.1C34.7,47.9,34.1,48.4,33.4,48.4z"/>
			<polygon class="st24" points="108.6,42.5 109.1,38.3 121.4,29.5 112.8,42.2 			"/>
			<path class="st2" d="M31.1,30.3c0.6,1.4,2.5,2.7,5.1,3.3c1.6,0.4,3.2,0.4,4.8-0.1C39,31.6,35.3,29,31.1,30.3z"/>
			<path class="st21" d="M23.3,37.3c0-0.5,0-0.9,0.1-1.4c-2.3,4.7,1.3,10.2,1.3,10.2l1.9-1C24.5,43.1,23.3,40.2,23.3,37.3z"/>
			<path class="st5" d="M66.3,80.5c1.9-1.7,5.1-3.9,6-3.9c0.9-0.1,1.3,1.2,1.4,1.9c0.1,0.6-1.9,2.6-2.3,2.9s-1.1-0.3-1-0.7
				c0.2-0.4,1.1-1.5,1-1.6c-0.1-0.1-0.3-0.2-0.4-0.2C71,78.7,67.1,81.6,66.3,80.5z"/>
			<path class="st5" d="M72.1,80.2c-0.2-0.6,0.8-1.7,1.1-1.5c0.3,0.1,2.5,0.4,2.5,0.9c-0.1,0.5-0.7,1.6-1.1,1.6S72.3,80.7,72.1,80.2
				z"/>
			<path class="st5" d="M70.7,81.9c-0.2-0.6,0.8-1.7,1.1-1.5c0.3,0.1,2.5,0.4,2.5,0.9s-0.7,1.6-1.1,1.6S70.9,82.4,70.7,81.9z"/>
			<path class="st5" d="M69.5,83.7c-0.2-0.6,0.7-1.7,1-1.6c0.3,0.1,2.3,0.3,2.2,0.9c-0.1,0.6-0.7,1.6-1,1.6
				C71.4,84.6,69.7,84.1,69.5,83.7z"/>
			<path class="st5" d="M19.4,101.9c-0.8-0.1-1.3,1.1-0.9,1.4c0.3,0.3,2.1,2.2,2.7,2c0.6-0.2,1.2-1,1-1.3
				C21.9,103.6,20,102,19.4,101.9z"/>
			<path class="st5" d="M20.2,100.3c-0.8-0.1-1.3,1.1-0.9,1.4c0.3,0.3,2.1,2.2,2.7,2c0.6-0.2,1.2-1,1-1.3S20.9,100.3,20.2,100.3z"/>
			<path class="st5" d="M21.3,98.8c-0.8-0.1-1.3,1-1,1.3s1.9,2,2.5,1.8s1.3-1,1.1-1.3S22,98.8,21.3,98.8z"/>
			<path class="st5" d="M16.2,97.9c2.4-1,3.6-1.6,4.8-1.2c1.2,0.3,2.8,1.8,3.1,2.5s-1.7,2-2.2,2.1s-1.7-0.9-1.5-1.3
				c0.2-0.4,1.1-0.6,0.9-0.9c-0.2-0.2-0.5-0.6-0.5-0.6S17.5,99.5,16.2,97.9z"/>
			<path class="st10" d="M0.6,90.3c1.4,2.2,4.9,3.9,14.1,8.8l2.3-3c-3.2-8.5-5.4-9.2-9.4-11.1C3.6,83.1-1.9,86.4,0.6,90.3z"/>
			<path class="st4" d="M5.1,83.6c4,1.9,7.8,5.5,10.9,13.7l0.9-1.2c-3.2-8.5-5.6-10.7-9.6-12.7C6.2,82.9,4.7,83.4,5.1,83.6z"/>
			<path class="st4" d="M12.9,89.1c0,0-3.6,3-3.9,6.8l5.6,3.6l1.3-5.1L12.9,89.1z"/>
			<path class="st5" d="M14.2,89.5c0,0-4.8,4.4-5.3,8.6l7.3,3.6l3-4.2L14.2,89.5z"/>
			<path class="st0" d="M10.7,97.2c-0.4-0.3-0.8-0.6-1.2-1C9.3,96.8,9.1,97.4,9,98l7.3,3.6C16.3,101.7,12.8,98.7,10.7,97.2z"/>
			<path class="st5" d="M17.6,95.6c0,0,1.6,1.9,2.3,2.1c1.1,0.3,3,0.7,2.9,1.7c-1.1,6.9-2.6,5.6-2.6,5.6c-1.4-0.9-2.7-1.9-3.8-3.1
				c-1.3-1.6-1.9-2.5-2.9-3.3C12.2,97.7,17.6,95.6,17.6,95.6z"/>
		</g>
	</g>
</g>
</svg>
