<?xml version="1.0" encoding="utf-8"?>
<!-- Generator: Adobe Illustrator 24.2.1, SVG Export Plug-In . SVG Version: 6.00 Build 0)  -->
<svg version="1.1" id="Warstwa_1" xmlns="http://www.w3.org/2000/svg" xmlns:xlink="http://www.w3.org/1999/xlink" x="0px" y="0px"
	 viewBox="0 0 186.6 150.1" style="enable-background:new 0 0 186.6 150.1;" xml:space="preserve">
<style type="text/css">
	.st0{fill:#DD5F33;}
	.st1{fill:#EF8354;}
	.st2{fill:#B71A2D;}
	.st3{fill:#FFCB57;}
	.st4{fill:#FFB345;}
	.st5{fill:#FCA43A;}
	.st6{fill:#EDD6AE;}
	.st7{fill:#E2C798;}
	.st8{fill:#F4E0B8;}
	.st9{fill:#E8D0A6;}
	.st10{fill:#7F363F;}
	.st11{fill:#662933;}
	.st12{fill:#9BB2AF;}
	.st13{opacity:0.6;fill:#843131;enable-background:new    ;}
	.st14{fill:#472421;}
	.st15{fill:#ED353E;}
	.st16{opacity:0.27;fill:#843131;enable-background:new    ;}
	.st17{fill:#843131;}
	.st18{fill:#D8502B;}
	.st19{fill:#633028;}
</style>
<g>
	<g id="Warstwa_2_1_">
		<g id="_11">
			<path class="st0" d="M34,76c0.9-0.4,1.7,0.5,1.5,0.9c-0.3,0.4-1.6,2.9-2.3,3s-1.7-0.5-1.5-0.9C31.8,78.6,33.4,76.3,34,76z"/>
			<path class="st0" d="M32.2,75.3c0.9-0.4,1.7,0.5,1.3,0.9c-0.3,0.4-2,2.9-2.6,3c-0.7,0-1.6-0.5-1.4-0.9
				C29.7,78,31.5,75.7,32.2,75.3z"/>
			<path class="st0" d="M30,75.1c0.9-0.3,1.7,0.5,1.4,0.9s-1.9,2.6-2.5,2.7c-0.7,0-1.6-0.5-1.4-0.8C27.6,77.6,29.3,75.4,30,75.1z"/>
			<path class="st1" d="M36.3,70c-0.2,1.5-0.2,3.1,0.1,4.6c0.1,0.9-0.2,3.1-1,3.5s-3-0.3-3.4-0.6c-0.4-0.3,0.3-1.7,0.9-1.7
				c0.6,0,1.1,0.3,1.2,0.1c0.1-0.2,0.2-0.3,0.2-0.5C34.4,75.3,34.9,71.4,36.3,70z"/>
			<path class="st2" d="M95.8,8.4C95.4,14.8,90.6,32,90.6,32s-9.9-2.1-11.2-3.6C81,23.5,89.2,8,89.2,8L95.8,8.4z"/>
			<path class="st1" d="M82,19.6c0,0-7,2.1-9.5,11.8l12.4,1.5c0.2-2.7,1.1-5.3,2.5-7.5L82,19.6z"/>
			<path class="st3" d="M85.5,112.6l35.1,5.1c0,0,15-61.5,8.2-87.5l-28.6-4.3C100.2,25.9,86,47.6,85.5,112.6z"/>
			<path class="st4" d="M87.4,111.2l31.9,4.9c0,0,13.6-59.1,7.4-84.2l-26-4.2C100.7,27.8,87.8,48.7,87.4,111.2z"/>
			<path class="st5" d="M126.8,31.9l-26-4.2c-0.8,1.5-1.5,3-2.1,4.6c0.5-0.1,1-0.1,1.4-0.1c12.9,0,23.4,23.4,23.4,52.2
				c0,11.9-1.8,22.8-4.8,31.6l0.6,0.1C119.3,116.1,132.9,57,126.8,31.9z"/>
			<path class="st0" d="M81.5,43.2C84.3,54.3,91.7,67,92.6,67.7s5.6-3.1,6.1-4.6c0.5-1.5,0.3-18.9-2-21.8
				C94.4,38.4,79.8,36.8,81.5,43.2z"/>
			<path class="st1" d="M95.2,50.1c0,6,2,11.5,3.5,12.8c0.4-2.4,0.2-17.3-1.7-21.1C96.4,44,95.2,46.7,95.2,50.1z"/>
			<path class="st1" d="M96.5,39.8c-2.6-3.7-11.7-7.7-15.4-9C77.3,29.6,69,32,65.4,31.9c-3.7-0.1-2.9,15.1-1.9,16.4
				c1,1.2,1.9,11,1.2,21.2L89,70.4c-0.7-5,4.8-17.5,4.8-17.5S99.1,43.5,96.5,39.8z"/>
			<path class="st0" d="M96.5,39.8c-1.8-2.6-6-5.6-10.2-6.8c-2.6,6.3-14,27.1-17.4,25.1c-1.8-1.1,0.6-16.7-6-22.5
				c-1.2,4.5-1.1,11.8-0.4,12.7c0.9,1.3,1.9,11,1.2,21.2l25.3,1c-0.7-5,4.8-17.5,4.8-17.5S99.1,43.5,96.5,39.8z"/>
			<path class="st0" d="M66.7,43.2c1.5,6.3,2.5,8.1,4.5,8.1s6.4-0.5,6.4-0.5s-6.4,2.9-10.1,1.1S66.7,43.2,66.7,43.2z"/>
			<path class="st0" d="M92.5,67.6c5.2,3.9,15.6,2.2,23.1-1.7l0.7-3.7c0,0-16.4-2.5-18.5-2C92.5,61.5,92.5,67.6,92.5,67.6z"/>
			<path class="st0" d="M110.4,61.3c0,0,1.9,0.8,2.8,0.3c1.7-0.9,3.4-1.7,5.3-2.3c0.7-0.2,3.6,1.8,4.6,2.6c-0.7,0.4-3.4,6-3.4,6
				c-1.8,0.2-3.5,0.1-5.3-0.1c-0.6-0.2-2.4,0.3-3.9,0.3C108.5,68,110.4,61.3,110.4,61.3z"/>
			<path class="st1" d="M113.2,61.9c1.9-2.2,4-4.1,5.2-4.2s2.2,1.4,2.6,2.1c0.4,0.7-1.6,3.2-2,3.6s-1.7-0.3-1.6-0.8
				c0-0.5,1-1.8,0.8-2c-0.2-0.1-0.4-0.2-0.6-0.2C117.5,60.4,114.7,63.2,113.2,61.9z"/>
			<path class="st1" d="M119.1,62.8c-0.5-0.7,0.4-2,0.9-1.9s3.5,0.3,3.6,0.9s-0.4,1.9-0.8,2C122.3,63.8,119.5,63.3,119.1,62.8z"/>
			<path class="st1" d="M117.8,64.9c-0.5-0.7,0.4-2,0.9-1.9s3.5,0.3,3.6,1c0.1,0.6-0.4,1.9-0.8,2C121.1,65.9,118.3,65.4,117.8,64.9z
				"/>
			<path class="st1" d="M116.8,67c-0.5-0.7,0.4-2,0.8-1.9s3.2,0.3,3.3,0.9s-0.3,1.9-0.7,2S117.3,67.6,116.8,67z"/>
			<path class="st1" d="M116.3,62.2c0,0-9.3-1.4-14.8-1.9c0,0.2,0,0.4,0,0.6c0.4,2.8,5.7,4.3,11.8,3.3c0.9-0.1,1.8-0.3,2.7-0.6
				L116.3,62.2z"/>
			<path class="st1" d="M63.3,32.2C52.6,36.3,42,45.4,41.4,46.4s1.2,8.3,2.7,8.6s18.4-3.3,21-5.9C67.7,46.4,69.5,29.8,63.3,32.2z"/>
			<path class="st0" d="M41.6,52.2L41.6,52.2c0.9,1.4,1.9,2.6,2.5,2.7c1.5,0.3,18.6-2.7,21.2-5.3c1-1,2.2-4.8,2.5-7.9
				C65.8,48.6,42.5,52.5,41.6,52.2z"/>
			<path class="st1" d="M42.3,45.4c-5.5,2.4-8.7,11.1-11.5,26.7l4.8,1.3c0,0,9.4-15.5,12.5-18.9C51.6,50.7,42.3,45.4,42.3,45.4z"/>
			<path class="st0" d="M49.7,50.9c-3.7,0.5-7.8,7-15.6,22.2l1.4,0.4c0,0,10.4-15.7,13.5-19C50.2,53.1,50.8,51.9,49.7,50.9z"/>
			<path class="st1" d="M115.5,150.1h11.6c0,0-1.2-1.6-7.1-2.2c-2.5-0.3-4.6-3.5-4.6-3.5l-0.9,0.4
				C114.5,144.8,114.2,148.4,115.5,150.1z"/>
			<path class="st1" d="M44.4,150.1H56c0,0-0.2-1.4-5.6-2c-2.3-0.3-2.4-3.2-2.4-3.2l-1.2,0.4C46.8,145.2,44.2,148.5,44.4,150.1z"/>
			<path class="st1" d="M59.2,106.1c-7.4,10.8-13,30.8-12.8,43.2h1.3c2.4-18.2,21.2-41.6,21.2-41.6L59.2,106.1z"/>
			<path class="st0" d="M61.2,118.5c4.2-6.4,7.7-10.8,7.7-10.8l-9.7-1.7c-3.5,5.1-6.6,12.4-8.9,19.9
				C53.5,122.8,57.2,120.3,61.2,118.5z"/>
			<path class="st1" d="M105.3,108.2l-8.9,1.6c1.5,10.1,12.1,29.6,20.4,39.5h0.9C110.6,135.2,105.3,108.2,105.3,108.2z"/>
			<path class="st0" d="M106.7,114.5c-0.5-2.3-1.4-6.3-1.4-6.3l-8.9,1.6c0.9,5.8,4.7,14.7,9.4,23.1
				C104.3,124.2,105.8,118.7,106.7,114.5z"/>
			<path class="st6" d="M62.7,74.6c-4.4,9.9-5.1,24-4.4,29.8c0,0-3.5,2.1-1.7,4.8c1.8,2.8,6.4,3.9,8,4.4s12.2-7.9,16.2-20.5
				C84.8,80.4,62.7,74.6,62.7,74.6z"/>
			<path class="st7" d="M62.7,74.6c-1,2.2-1.8,4.5-2.4,6.8c0.3-0.3,0.8-0.6,1.2-0.7c2.8-0.4,6.1,5.6,7.2,13.4s-0.2,14.5-3,14.9
				s-6.1-5.6-7.2-13.4c-0.1-0.7-0.2-1.5-0.2-2.2c-0.4,3.6-0.4,7.3,0,10.9c0,0-3.5,2.1-1.7,4.8s6.4,3.9,8,4.4s12.2-7.9,16.2-20.5
				C84.8,80.4,62.7,74.6,62.7,74.6z"/>
			<path class="st6" d="M65.6,111.7c0.4-0.8-0.6-2.1-2.4-3c-1.9-1-4.3-1.6-4.7-0.8c-0.4,0.8,0.8,2.9,2.6,3.8S65.2,112.5,65.6,111.7z
				"/>
			<path class="st6" d="M65.8,86.1c4.6,6.3,7.7,16.5,6.4,17.7c-1.2,1.2-2.9-8.2-4.4-11.5C67,90.4,66.3,88.3,65.8,86.1z"/>
			<path class="st6" d="M97.2,113c-2.5-0.3-3.2-4.4-3.2-4.4s-13.5-13.1-16.8-18s-14.5-16-14.5-16s26.2-2.5,29.8,0.4
				c3.7,2.9,7.8,15.6,7.8,15.6s3.6,9.9,3.5,13.4c0,0,3.3,4.2,1.9,5.7C104.3,111.2,97.2,113,97.2,113z"/>
			<path class="st7" d="M93.5,98.8c-1.9-9-1.3-17.2,1.3-21c-0.6-1.1-1.4-2-2.3-2.8c-3.6-2.9-29.8-0.4-29.8-0.4s11.1,11.1,14.5,16
				s16.8,18,16.8,18s0.7,4.2,3.2,4.4c0,0,0.6-0.2,1.6-0.4C96.3,108.3,94.4,103.7,93.5,98.8z"/>
			<path class="st6" d="M93.5,34.2c-2.4-3.2-6.4-0.7-6.4-0.7S74,63.3,60.8,69.1c0,0,21.5,7.8,27.4-1.1c2.8-4.3,9.2-23.7,9.9-26
				C98.7,39.7,96,34.1,93.5,34.2z"/>
			<path class="st7" d="M97.6,38.6c-0.5,3-1.4,6-2.6,8.9c-3.6,8.9-6,16.3-11.8,16.9c-15.3,1.4-0.3-17.6,3.2-27.8
				c0.4-1.2,0.9-2.3,1.4-3.4c-0.2,0.1-0.5,0.2-0.7,0.4c0,0-13.1,29.8-26.3,35.7c0,0,21.5,7.8,27.4-1.1c2.8-4.3,9.2-23.8,9.9-26
				C98.2,40.8,98.1,39.7,97.6,38.6z"/>
			<path class="st8" d="M61.7,75.5c7.3,3.6,12.3,29.3,14,33.9c1.4,2.7,12.5,1.9,13-0.3c0.6-2.2,2.1-32.4,4.6-34.1
				c0-1.9-2.2-7.7-3.3-8.9c-1.1-1.2-27.1,1.4-28.9,1.9C59.2,68.6,60,74.7,61.7,75.5z"/>
			<path class="st9" d="M87.5,107.9c-1.5,1-8.4,2.9-9.4,0.6c-8.9-19.8-1.2-28.4,6.5-32.1c-1.1,0.1-2.3,0.2-3.5,0.2
				c-9.2,0-16.6-3-16.6-6.8c0-0.9,0.4-1.7,1-2.3c-2.4,0.3-4.2,0.5-4.6,0.6c-1.8,0.6-1,6.7,0.7,7.5c7.3,3.6,12.3,29.3,14,33.9
				c1.4,2.7,12.5,1.9,13-0.3c0.2-0.8,0.5-5.2,1-10.5C88.7,103.8,88.1,107.4,87.5,107.9z"/>
			<path class="st9" d="M62.7,73.5c12-1.3,28.6-0.2,28.6-0.2L66.5,75L62.7,73.5z"/>
			<path class="st9" d="M90,81c-0.5,6.7-2.6,23.9-2.6,23.9s-0.2-9.4,0.7-14.9C88.6,86.9,89.2,83.9,90,81z"/>
			<path class="st9" d="M75.5,87.2c1.5,11.3,2,15,3,18.8c-1.3-2.6-2.2-5.4-2.7-8.3C75.4,94.2,75.3,90.7,75.5,87.2z"/>
			<polygon class="st10" points="172.4,92.5 0,74.7 0.1,72.6 172.5,91.4 			"/>
			<path class="st10" d="M103,58.2c-2.9,1.8-4,5.6-4.3,13.9l3.7,1.1c-0.7-9,0-12.4,2.4-14.9L103,58.2z"/>
			<path class="st11" d="M101.1,61.2c0.6,0,1.2,0.1,1.8,0.2c0.4-1.2,1-2.2,1.9-3.1h-1.7c-1.1,0.7-2,1.7-2.5,3
				C100.7,61.2,100.9,61.2,101.1,61.2z"/>
			<path class="st11" d="M102.1,66.7c-0.3,0-0.7,0.1-1,0.1c-0.7,0-1.3-0.1-2-0.3c-0.2,1.6-0.4,3.4-0.4,5.6l3.7,1.1
				C102.2,70.6,102.1,68.5,102.1,66.7z"/>
			<path class="st10" d="M113.2,58.2c-2.8,1.8-3.6,5.4-3.5,13.5l3.7,1.1c-1.2-8.8-0.7-12.1,1.5-14.6H113.2z"/>
			<path class="st11" d="M113,62.6c0.2-1.6,0.9-3.2,1.9-4.4h-1.7c-1.4,0.9-2.3,2.3-2.7,3.9C111.4,62.1,112.2,62.3,113,62.6z"/>
			<path class="st11" d="M110.3,66.9c-0.2,0-0.3,0-0.5,0c-0.1,1.4-0.1,3-0.1,4.9l3.7,1.1c-0.3-2.6-0.5-4.7-0.6-6.4
				C112,66.7,111.1,66.9,110.3,66.9z"/>
			<rect x="112.2" y="57.4" class="st5" width="3.6" height="1.2"/>
			<rect x="102" y="57.4" class="st5" width="3.6" height="1.2"/>
			<rect x="109" y="71.4" class="st5" width="5.2" height="2.3"/>
			<rect x="97.9" y="71.4" class="st5" width="5.2" height="2.3"/>
			<path class="st7" d="M94.1,34.3c-0.2-0.1-0.5-0.1-0.7-0.1c-0.3-0.4-0.6-0.7-1-1c-0.4,4.2-1.2,8.4-2.3,12.5
				C91.8,42.1,93.1,38.2,94.1,34.3z"/>
			<polygon class="st12" points="165.7,91.3 170,88.9 186.6,94.1 169,95 			"/>
			<path class="st7" d="M104.5,105.1c-0.4-0.7-0.8-1.1-0.8-1.1c0-1-0.1-2.1-0.4-3.1c-1.2,2.2-2.8,4.2-4.5,6L104.5,105.1z"/>
			<path class="st7" d="M75.5,65.5C81,60.3,86.6,52,86.6,52s-1.9,5.6-4.7,8.5C80,62.5,77.9,64.2,75.5,65.5z"/>
			<path class="st13" d="M94.5,34.5c-0.1-0.1-0.2-0.1-0.4-0.2c-0.1,0-0.2-0.1-0.3-0.1c-0.1,0-0.3,0-0.4,0c-0.1-0.2-0.3-0.4-0.5-0.6
				l0,0c-0.2-0.2-0.3-0.3-0.5-0.4l0,0c-1.6-1.1-3.6-0.6-4.6-0.1l0,0l-0.5,0.2c-0.3-0.1-0.7-0.3-1-0.4l0,0L85,32.3
				c0.3-2.5,1.1-4.9,2.5-7l-1.8-2c-2.8-0.5-5.6-0.8-8.4-0.8c-2.3,2.3-3.8,5.2-4.6,8.4c-2.9,0.4-5.6,1-7.3,0.9c-0.1,0-0.3,0-0.4,0
				c-0.5-0.1-1.1,0-1.6,0.2c-1.7,0.7-3.4,1.4-5,2.2c4.2,2.8,11.6,5.2,19.3,5.2S91.2,37.3,94.5,34.5z"/>
			<path class="st1" d="M81.1,27.4c2.1,3.6,12.4,2.4,12.4,2.4s2-17,1.5-22C94.5,2.2,73.9,10.4,81.1,27.4z"/>
			<path class="st14" d="M90,14.9c0,0.8,0,2.6,0.8,2.6s0.9-2.5,0.9-2.5L90,14.9z"/>
			<path class="st15" d="M78.2,33.5c3-11.8,6.8-22.1,6.8-22.1l10.8-2.9C95.2,1,82.9-2.1,76.3,2c-9.6,6-12.5,24-12.5,24L78.2,33.5z"
				/>
			<path class="st6" d="M85.5,10.9v0.2l0.1,0.1l10.2-2.8c-0.1-0.9-0.3-1.7-0.7-2.5l-8.5,3.7L85.5,10.9z"/>
			<path class="st6" d="M85.5,10.9l1.2-1.3L92.8,3c-0.8-0.6-1.7-1.2-2.6-1.6l-5,7.4L85.5,10.9z"/>
			<path class="st6" d="M85.5,11.1v-0.2l-0.3-2L84,0.1c-1.1,0-2.1,0-3.2,0.2L84,9.5L85.5,11.1z"/>
			<path class="st6" d="M85,11.4l0.6-0.2l-0.1-0.1L84,9.5l-7.1-8c-0.2,0.1-0.5,0.2-0.7,0.4c-0.9,0.6-1.7,1.2-2.4,1.9l10.8,8.6
				L85,11.4z"/>
			<path class="st6" d="M83.9,14.6L72.3,5.5c-0.8,1-1.6,2.1-2.3,3.2l13.3,7.5C83.5,15.6,83.7,15.1,83.9,14.6z"/>
			<path class="st6" d="M82.6,18.5l-14.1-7c-0.5,1-1,2-1.4,3L81.8,21C82,20.2,82.3,19.3,82.6,18.5z"/>
			<path class="st6" d="M80.7,24.3L66,17.1c-0.4,1.1-0.7,2.2-1,3.2l14.9,6.5C80.2,26,80.5,25.1,80.7,24.3z"/>
			<path class="st6" d="M64.4,22.9c-0.4,1.8-0.6,2.9-0.6,2.9l14.4,7.7c0.2-0.8,0.4-1.6,0.6-2.4L64.4,22.9z"/>
			<path class="st16" d="M73.7,19.2c0-9.9,5.2-18,11.8-19c-3.2-0.5-6.4,0.1-9.2,1.7c-9.6,6-12.5,24-12.5,24l14.4,7.6l0,0
				C75.4,30,73.7,24.9,73.7,19.2z"/>
			<polygon class="st17" points="78.2,33.5 84.9,9.4 85.6,11.2 			"/>
			<polygon class="st17" points="95.8,8.4 84.7,11.3 84.7,12.6 95.8,8.8 			"/>
			<polygon class="st17" points="80.9,6 85.5,11.1 84.9,9.4 			"/>
			<path class="st18" d="M93.3,13.4c2,5.5,3.4,8.6,3.4,9.2s-3.9,1.1-4.1,0.7C92.4,22.8,93.3,13.4,93.3,13.4z"/>
			<path class="st1" d="M92.7,13c2,5.5,3.4,8.6,3.4,9.2s-3.9,1.3-4.1,0.9S92.7,13,92.7,13z"/>
			<polygon class="st19" points="93.3,13.4 88.1,12.8 87.9,15.3 93.4,15 			"/>
			<polygon class="st19" points="93.7,13.7 96.4,13.4 95.9,15.3 93.9,15.1 			"/>
			<path class="st18" d="M87.5,25.5l-0.4-0.3c1-1.2,3.7-1.9,5.6-0.7l-0.2,0.3C90.9,23.8,88.1,24.7,87.5,25.5z"/>
			<path class="st18" d="M91.3,25.4c0-0.1-0.3-0.4-0.8-0.4s-1,0.3-1,0.4s0.5,0.1,1,0.1C91,25.4,91.3,25.5,91.3,25.4z"/>
			<path class="st18" d="M46.3,55.7c2.2-6.7,4.6-9.3,4.6-9.3l-1,5.4L46.3,55.7z"/>
			<path class="st18" d="M73.8,49.1c0-0.5-0.6-0.8-1.4-0.8S71,48.7,71,49.1s0.6,0.8,1.4,0.8C73.2,49.9,73.8,49.6,73.8,49.1z"/>
			
				<rect x="164.1" y="89.8" transform="matrix(0.1302 -0.9915 0.9915 0.1302 53.3262 243.1296)" class="st4" width="2.2" height="2.8"/>
			<path class="st1" d="M36.9,67.7c0,0-0.7,3.6-0.7,4.6c0,1.5-1.7,3.1-2.2,5.4c-0.2,0.7-6.9-2-6.9-2s1.5-4.1,3-5.7
				c0.9-1.3,1.5-2.8,2-4.3C32.8,63.7,36.9,67.7,36.9,67.7z"/>
			<path class="st1" d="M32.2,75.3c0.7-0.5,2,0.6,1.9,1.1s-0.3,3.4-0.9,3.5c-0.6,0.1-1.9-0.5-1.9-1S31.7,75.7,32.2,75.3z"/>
			<path class="st1" d="M30.1,74.6c0.7-0.5,1.9,0.6,1.8,1.1c-0.1,0.5-0.6,3.4-1.3,3.4c-0.6,0.1-1.8-0.6-1.8-1S29.6,75,30.1,74.6z"/>
			<path class="st1" d="M27.8,74.4c0.7-0.4,1.9,0.6,1.8,1c-0.2,0.4-0.6,3.1-1.3,3.1c-0.6,0-1.8-0.6-1.8-1S27.3,74.7,27.8,74.4z"/>
		</g>
	</g>
</g>
</svg>
