<?xml version="1.0" encoding="utf-8"?>
<!-- Generator: Adobe Illustrator 24.2.1, SVG Export Plug-In . SVG Version: 6.00 Build 0)  -->
<svg version="1.1" id="Warstwa_1" xmlns="http://www.w3.org/2000/svg" xmlns:xlink="http://www.w3.org/1999/xlink" x="0px" y="0px"
	 viewBox="0 0 179.9 150" style="enable-background:new 0 0 179.9 150;" xml:space="preserve">
<style type="text/css">
	.st0{fill:#FFB882;}
	.st1{fill:#B7183E;}
	.st2{fill:#471520;}
	.st3{fill:#601F2B;}
	.st4{fill:#E29437;}
	.st5{fill:#C15C23;}
	.st6{fill:#CC6A29;}
	.st7{fill:#FF9566;}
	.st8{fill:#DD2A4D;}
	.st9{fill:#B51A43;}
	.st10{fill:#EAD2B5;}
	.st11{fill:#E27023;}
	.st12{fill:#4F2517;}
	.st13{fill:#873B1D;}
	.st14{fill:#BC1938;}
	.st15{fill:#F4952F;}
	.st16{fill:#F9AC46;}
	.st17{fill:#FFCB64;}
	.st18{opacity:0.6;fill:#843131;enable-background:new    ;}
	.st19{fill:#D1B290;}
	.st20{fill:#89493A;}
	.st21{fill:#512F35;}
	.st22{fill:#BCDDD8;}
	.st23{fill:#9BB2AF;}
</style>
<g>
	<g id="Warstwa_2_1_">
		<g id="_11">
			<path class="st0" d="M43.3,95.6c2.8,0,4.3-0.1,5.1,0.7s1.4,4,1.1,4.8s-3.2,0-3.7-0.1s-0.8-1.5-0.4-1.8s2-0.5,2-0.8
				c0-0.2-0.1-0.4-0.2-0.6C47.2,97.8,43.3,97.6,43.3,95.6z"/>
			<path class="st1" d="M73.7,14.9l3.2-13.4c0,0-19.6-6.3-26.6,8.6c-7,14.8,5.1,27.1-4.7,36.9c0,0,12.9-3.8,10.2-21.7
				C53.9,12.6,66.2,12.9,73.7,14.9z"/>
			<path class="st2" d="M54.7,16.1c-2.3,6.8-0.4,17.8-0.4,17.8l5.5,2.3l10.9-19.1l0.3-5.2C71.1,11.9,57,9.2,54.7,16.1z"/>
			<path class="st3" d="M53.5,15.8c-2.3,6.9-0.4,17.9-0.4,17.9l5.5,2.3l10.9-19.1l0.3-5.2C69.9,11.7,55.8,9,53.5,15.8z"/>
			<ellipse class="st4" cx="88.8" cy="78.1" rx="23.2" ry="30.2"/>
			<path class="st5" d="M110.1,78.1c0-15.3-9.5-27.7-21.3-27.7S67.5,62.8,67.5,78.1s9.5,27.7,21.3,27.7S110.1,93.3,110.1,78.1z"/>
			<path class="st6" d="M105.5,95.3c3.1-5.2,4.7-11.2,4.6-17.2c0-15.3-9.5-27.7-21.3-27.7S67.6,62.7,67.5,77.9
				C71,69.7,103.6,78.9,105.5,95.3z"/>
			<path class="st7" d="M63,57.2c-0.6,12.3,8.7,23.8,9.8,24.4s7.3-3.6,7.7-5.2c0.4-1.6,1-14.4-4.4-21.2C73.6,52.2,63.4,46.8,63,57.2
				z"/>
			<path class="st7" d="M89.9,78.6c0.9,0.2,1.8,0.2,2.7,0c1.6-0.7,3.2-1.1,4.9-1.4c0.6-0.1,3,1.9,3.7,2.7c-0.7,0.3-3.6,4.9-3.6,4.9
				c-1.6,0-3.1-0.2-4.6-0.7c-0.5-0.2-2.1,0-3.4-0.2C87.7,83.8,89.9,78.6,89.9,78.6z"/>
			<path class="st0" d="M92.6,78.7c1.9-1.7,4-3.2,5-3.1c1,0,1.8,1.4,2,2.1s-1.7,2.7-2.2,2.9c-0.4,0.2-1.4-0.4-1.3-0.9
				c0.1-0.4,1.1-1.5,0.9-1.6s-0.3-0.2-0.5-0.3C96.5,77.8,93.7,79.9,92.6,78.7z"/>
			<path class="st0" d="M97.6,80.2c-0.4-0.7,0.6-1.7,1-1.6s3,0.6,3.1,1.2c0,0.6-0.5,1.6-1,1.6S98,80.8,97.6,80.2z"/>
			<path class="st0" d="M96.3,82c-0.4-0.7,0.6-1.7,1-1.6s3,0.6,3.1,1.2c0,0.6-0.5,1.6-1,1.6C99,83.3,96.6,82.5,96.3,82z"/>
			<path class="st0" d="M95.2,83.8c-0.4-0.6,0.5-1.7,0.9-1.6s2.8,0.6,2.8,1.1c0,0.6-0.5,1.6-0.9,1.6S95.5,84.3,95.2,83.8z"/>
			<path class="st0" d="M73.3,82.6c4,3.9,12.3,2.5,18.6,0.7l1.5-4.3c0,0-11-4.6-15.6-3.5C72.5,76.9,68.8,78.1,73.3,82.6z"/>
			<path class="st7" d="M75.5,75.3c-4.3,1.3-6.6,3.8-2.7,7.7c4,3.9,15.8,2.5,22.1,0.6l-0.1-1.4C79.1,85.2,73.5,78.3,75.5,75.3z"/>
			<path class="st8" d="M63.7,73.8c7.6,2.1,19.6-1.7,19.6-1.7s-5.1-25.2-17-22.2C59.6,51.6,63.7,73.8,63.7,73.8z"/>
			<path class="st9" d="M81.3,64.8c0.1,1.9-0.2,3.1-0.9,3.3c-1.4,0.4-3.9-3.6-5.6-8.9c-0.9-2.5-1.3-5.1-1.4-7.7
				c-1.9-1.6-4.5-2.2-7-1.6c-6.7,1.6-2.6,23.9-2.6,23.9c7.6,2.1,20.1-1.2,20.1-1.2S82.7,68.9,81.3,64.8z"/>
			<path class="st10" d="M62.6,71.5c0.3,1.9,0.5,3,0.5,3c8.2,2.2,21.1-1.8,21.1-1.8s-0.2-1.2-0.7-3C80.3,70.6,69.9,73.2,62.6,71.5z"
				/>
			<path class="st8" d="M72,14.3l3.1-13c0,0-19.6-6.2-26.6,8.6s6.3,27.6-3.6,37.4c0,0,11.7-4.3,9.1-22.2
				C52.1,12.4,64.6,12.2,72,14.3z"/>
			<path class="st11" d="M74.9,47.1l3.7,1.6l-1.1-12.6c0,0-3.9-0.4-3.5-2.3c0.5-1.9,3.3-0.6,3.3-0.6s-0.6-6.8-6.8-6
				C64.3,28,71.8,44.4,74.9,47.1z"/>
			<path class="st7" d="M73.7,25.4c-2.5-4.5-11.1,4.7-10.4,8.6c0.7,3.3,1.6,6.5,2.8,9.6l0.1,0.3c3.2,1.3,6.8,1.8,10.3,1.4
				C76.5,45.3,76.2,29.9,73.7,25.4z"/>
			<path class="st12" d="M72.8,33.3c0-0.9-0.3-1.7-0.7-1.8c-0.4,0-0.8,0.7-0.8,1.6c0,0.9,0.3,1.7,0.7,1.8
				C72.4,35,72.8,34.2,72.8,33.3z"/>
			<polygon class="st13" points="74.9,34.1 68.6,32.7 69,29.8 75.1,32.1 			"/>
			<path class="st0" d="M74.7,31.1c0,0,3.5,7.8,3.5,8.2s-2.9,1.2-2.9,1.2L74.7,31.1z"/>
			<path class="st7" d="M77,36c-1-2.3-2.2-4.9-2.2-4.9v7.7C75.1,37.6,75.9,36.6,77,36z"/>
			<polygon class="st3" points="71.7,83.1 52.1,87 52.2,90 72.7,86.2 			"/>
			<path class="st0" d="M53.9,88.6c-1,13.5-2.6,31.7-2.6,31.7l-14.7,27.8h1.2c0,0,20.8-24.5,21.3-25.3c0.5-0.9,5.6-31.2,5.6-31.2
				L53.9,88.6z"/>
			<path class="st7" d="M59.8,119.4c1.6-9,4.9-27.9,4.9-27.9L54,88.6c-0.8,10-2,24.1-2.5,30C53.8,116.9,58,117.5,59.8,119.4z"/>
			<path class="st0" d="M64.3,97l22.2,22.2l16.8,28.8h0.8c0,0-11.2-30.8-12.8-33.2S75.1,89,75.1,89L64.3,97z"/>
			<path class="st7" d="M85.2,114.9c0.4-2.3,1.1-4.5,2.1-6.6c-4.8-7.7-12.1-19.4-12.1-19.4L64.3,97c4.8,4.8,16.1,16.1,20.5,20.5
				C84.8,116.7,85,115.8,85.2,114.9z"/>
			<path class="st14" d="M51.5,89.1l-2.3,24.8c0,0,21.9,2.6,35.9-10.4L73,84.9L51.5,89.1z"/>
			<path class="st15" d="M93.9,117.6l-4.1,11.8c0,0,12.8,17.9,12.8,18.1l1.4-0.8L93.9,117.6z"/>
			<path class="st16" d="M94.2,118.7l-2.1,6.2c0.1,0.2,0.1,0.4,0.2,0.6c2.6,7.6,7.7,16.1,10,16.7L94.2,118.7z"/>
			<polygon class="st15" points="53.9,130.2 52.8,126.1 46.5,127.5 37.2,146.6 38.9,147.4 			"/>
			<path class="st16" d="M52.4,126.6l-5.2,1.2c-3.4,6-5.8,12.3-4.8,13s6.5-4.9,10.9-10.9L52.4,126.6z"/>
			<path class="st16" d="M52.2,46.7c6.1-2.2,19.5,2,20.7,4.2c2,3.7,3,14.5,2.5,17.6c-0.1,0.8-2,1.2-2,1.2s-3.2,6.8-1.1,13.3
				c0,0-4.6,2.9-20.5,4.5c0,0-1.3-12.4-2.8-19.1C47,60.2,46.4,48.8,52.2,46.7z"/>
			<path class="st17" d="M74.8,66.6c0.1-3.8-0.8-11-2.3-13.7c-0.3-0.5-1.5-1.2-3.1-1.9c0,2,0.3,4,0.8,5.9
				C71.2,61.3,73,64.9,74.8,66.6z"/>
			<path class="st15" d="M74.1,68.8c-10.4,2.1-14.9,0.3-15.7-3.8c-0.6-2.9,2.2-17.5-6.2-18.3c-6.1-0.5-5.2,13.5-3.3,21.7
				c1.5,6.7,2.8,19.1,2.8,19.1c2.1-0.2,3.9-0.4,5.6-0.7C57.6,75.5,64,71,67.2,71.2c2.6,0.2,3.7,7.8,4.1,12.1
				c0.3-0.1,0.6-0.3,0.8-0.4c-2-6.5,1.1-13.3,1.1-13.3s1.8-0.4,2-1.1C74.9,68.7,74.5,68.8,74.1,68.8z"/>
			<path class="st0" d="M45.1,50.7c-10.1,7-13.5,21.4-13.4,22.7c0.1,1.2,7.3,3.6,8.8,2.9s12-8,14.1-16.4
				C55.6,56,53.6,44.7,45.1,50.7z"/>
			<path class="st7" d="M45.1,50.7c-5.8,4.1-9.5,10.6-11.5,15.7h0.1c4.2,0,7.7,3.9,8.2,9c3.4-2.3,10.9-8.5,12.6-15.5
				C55.6,56,53.6,44.7,45.1,50.7z"/>
			<path class="st0" d="M30.5,75C28.3,80.4,34,91,38,96.2l4.3-2.3c0,0-0.6-16.8-3.3-20.6C35.8,68.8,32.9,68.8,30.5,75z"/>
			<path class="st7" d="M31.6,73.3c0.2-0.6,0.4-1.1,0.6-1.5c-0.7,1-1.3,2.1-1.7,3.3c-2.2,5.4,3.5,16,7.5,21.2l1.2-0.6
				C35,89.5,29.8,78.7,31.6,73.3z"/>
			<path class="st8" d="M36.3,58.3C39.4,65.5,47,74.6,47,74.6S64.6,54.4,54.6,47C49.1,42.9,36.3,58.3,36.3,58.3z"/>
			<path class="st9" d="M54.6,47c-5.5-4.1-18.3,11.3-18.3,11.3c0.5,1.1,1,2.2,1.6,3.3c0.7-2.6,1.9-5,3.5-7.2
				c4.3-5.9,10.5-8.7,13.7-6.3c3.3,2.4,2.4,9.1-2,15c-2.9,3.9-6.6,6.5-9.7,7c2,2.7,3.5,4.5,3.5,4.5S64.6,54.5,54.6,47z"/>
			<path class="st0" d="M58.3,46.4l3.5-10.7l8.3,3.4l-0.9,9.6C69.2,48.7,67.7,54.2,58.3,46.4z"/>
			<path class="st18" d="M75.7,54.4c0.1-0.1,0.1-0.2,0.2-0.3c-0.7-0.9-1.6-1.8-2.5-2.5l0,0l-0.3-0.2c-0.1-0.2-0.2-0.4-0.2-0.5
				c-0.4-0.6-1.8-1.4-3.7-2.2l0,0l0.7-7.2c-2.5-2.1-5.3-3.9-8.2-5.5l-3.3,10.2c-1.7-0.2-3.5-0.1-5.2,0.2c-2.5-0.5-5.8,1.4-8.8,3.9
				c1.5,0.9,3.1,1.8,4.7,2.6C60.7,58.6,72.6,59.2,75.7,54.4z"/>
			<path class="st11" d="M72,16.9c4.7,2.3,4.9,13.8,4.8,16.1l-0.7,0.2c-1-0.6-5.3-2.8-7.2-1.6c-0.7,0.4-1.1,1.2-1,2.1
				c0,2.3,4.9,3,6.7,3.2l0.5,13c-1.3-0.3-9.1-3-12.4-4.3c1.8,2.3,12.9,5.7,13.4,5.5l-0.5-15.2h-0.5c-2.5-0.2-6.2-1.1-6.2-2.2
				c0-0.8,0.4-1.1,0.5-1.1c1.2-0.7,4.5,0.7,6.4,1.7l0.2,0.1l1.9-0.4v-0.4C78.1,28.4,76.8,17.7,72,16.9z"/>
			<path class="st16" d="M55.7,41.3c6.5,6.4,20,9.2,20,9.2l-0.6-14.2c0,0-6.6-0.6-6.6-2.7c0-4.2,7.6,0.1,7.6,0.1l1.3-0.3
				c0,0,0.5-14.4-5.2-17s-11.8-1.9-15,2.5C54,23.2,58.1,32.7,55.7,41.3z"/>
			<path class="st17" d="M70.1,47.8c2.2,0.7,3.8,1,3.8,1l-0.4-9.5C72.9,42.3,71.7,45.2,70.1,47.8z"/>
			<path class="st17" d="M72,17.6c1.9,3.7,3.1,7.8,3.4,11.9c0,0.6,0.1,1.3,0.1,1.9l1.2-0.2C76.7,31.2,76.2,21,72,17.6z"/>
			<path class="st15" d="M64.9,47c-1-2.3-1.8-4.6-2.4-7c-2.8-11.5-0.2-22,5.8-23.4c2-0.4,4.1,0.1,5.8,1.3c-0.5-0.7-1.2-1.2-1.9-1.6
				c-5.7-2.5-11.8-1.9-15,2.5c-3.1,4.4,0.9,13.9-1.5,22.5C58.4,43.7,61.5,45.7,64.9,47z"/>
			<path class="st10" d="M33.7,150h6.1c0,0-0.6-2.9-1.5-3.1C37.4,146.5,35.5,148.7,33.7,150z"/>
			<path class="st10" d="M111.1,150h-8.8c0,0-0.1-2.9,1.1-3.1C104.7,146.5,108.2,148.7,111.1,150z"/>
			<path class="st19" d="M52,116.4l2.4-1.6l-0.5-25.3c-0.6,0.1-1.3,0.1-1.9,0.1l-1.9,25L52,116.4z"/>
			<path class="st19" d="M57.8,116.1l2.3-1.8l-2.8-25.2c-0.6,0.1-1.2,0.2-1.9,0.2l0.4,25.1L57.8,116.1z"/>
			<path class="st19" d="M63.9,115.8l2-2.2l-5.3-25.1l-1.9,0.3l3,25.5L63.9,115.8z"/>
			<path class="st19" d="M69.8,114.8l1.4-2.3l-7.3-24.6l-1.1,0.3l-0.5,0.1l4.8,25.6L69.8,114.8z"/>
			<path class="st19" d="M75.5,112.8l1.2-2.4l-9.4-23.5l-1.6,0.4l7,24.7L75.5,112.8z"/>
			<path class="st19" d="M80.6,110.2l1-2.5L70.5,86c-0.5,0.2-1.1,0.4-1.6,0.5l9,23.2L80.6,110.2z"/>
			<path class="st19" d="M85.7,106.6l0.8-2.4L73.7,84.8c-0.5,0.2-1,0.4-1.5,0.6L83,106.6H85.7z"/>
			<path class="st15" d="M65.7,73.1c-0.4,3.9,0.4,10.1,0.4,10.1S67.5,77.1,65.7,73.1z"/>
			<path class="st15" d="M69.3,70.2c0.2-2-0.1-4.1-0.8-6c-0.2,2-0.2,4,0,6H69.3z"/>
			<path class="st9" d="M66.3,0l-1.2,13.3c1,0,2,0.1,3,0.2l2.7-13.1C69.3,0.1,67.8,0,66.3,0z"/>
			<path class="st9" d="M56.6,1.7l2.9,12.4c1-0.3,1.9-0.5,2.9-0.7l-1.5-13C59.4,0.7,58,1.1,56.6,1.7z"/>
			<path class="st9" d="M49,8.8l6.8,7.7c0.7-0.8,1.5-1.4,2.5-1.9l-6.6-9.5C50.6,6.3,49.7,7.5,49,8.8z"/>
			<path class="st9" d="M46.3,20.3l7.5,1.5c0.1-1.1,0.3-2.2,0.7-3.2L46.6,16C46.4,17.5,46.3,18.9,46.3,20.3z"/>
			<path class="st9" d="M47.5,29.2l6.8,0.1c0-1-0.1-2.1-0.2-3.3l-7.3-0.9C47,26.5,47.2,27.9,47.5,29.2z"/>
			<path class="st9" d="M48.6,36.9h4.8c0.3-1.1,0.5-2.2,0.7-3.3l-5.9-0.7C48.4,34.2,48.6,35.5,48.6,36.9z"/>
			<path class="st9" d="M47.5,43.7l1.8,0.5c0.8-0.8,1.6-1.8,2.2-2.8l-2.9-1.2C48.4,41.5,48,42.6,47.5,43.7z"/>
			<path class="st10" d="M52,116.4l2.4-1.6l-0.2-10.1c-1.3,1.4-2.5,2.9-3.7,4.5l-0.4,5.4L52,116.4z"/>
			<path class="st10" d="M57.8,116.1l2.3-1.8l-1.5-13.7c-1,0.9-2,1.7-2.9,2.6l0.2,11.2L57.8,116.1z"/>
			<path class="st10" d="M63.9,115.8l2-2.2l-3.4-16c-0.9,0.6-1.7,1.2-2.6,1.9l1.8,14.9L63.9,115.8z"/>
			<path class="st10" d="M69.8,114.8l1.4-2.3l-5-17.1c-0.8,0.4-1.5,0.9-2.2,1.4l3.3,17.1L69.8,114.8z"/>
			<path class="st10" d="M75.5,112.8l1.2-2.4l-6.8-17l-0.3,0.2c-0.6,0.3-1.2,0.6-1.8,0.9l5,17.6L75.5,112.8z"/>
			<path class="st10" d="M80.6,110.2l1-2.5l-8.1-15.9c-0.7,0.3-1.4,0.6-2.2,0.9l6.6,17L80.6,110.2z"/>
			<path class="st10" d="M85.7,106.6l0.8-2.4l-9.1-13.8c-0.7,0.2-1.5,0.5-2.2,0.8l7.8,15.4L85.7,106.6z"/>
			<path class="st20" d="M81.6,87.5c-2.7-1-4.1-4.1-3.5-7.5c0.5-3.5,3.5-6.1,7.1-6.1v1c-3.1-0.1-5.7,2.2-6.1,5.2
				c-0.4,2.4,0.3,5.4,2.9,6.4L81.6,87.5z"/>
			<path class="st20" d="M87.6,87.1C85.1,86,84.4,82.7,85,80c0.5-2.4,2.2-4.9,5.4-4.9v1c-3.2,0-4.2,3.2-4.4,4.1
				c-0.5,2.3,0.1,5.1,2,6L87.6,87.1z"/>
			<polygon class="st21" points="1.3,132.3 0,130.3 168.2,16.4 168.9,17.3 			"/>
			<polygon class="st22" points="159.9,23 161.7,17.3 179.9,9.6 165.5,24 			"/>
			<polygon class="st23" points="159.9,23 161.7,17.3 179.9,9.6 			"/>
			<path class="st10" d="M38.2,55.8c-1.3,1.4-2.1,2.4-2.1,2.4c3.1,7.4,11,16.7,11,16.7s0.8-1,2.1-2.6C47,69.6,41.3,62.3,38.2,55.8z"
				/>
			<path class="st0" d="M41.4,91.8c0,0,3.5,3.5,4.4,3.8c1.4,0.5,3,4.7,3,6c-0.8-0.2-6.1,3.4-6.1,3.4c-1.3-1.2-2.4-2.6-3.3-4.1
				c-0.3-0.6-1-4.2-2.5-6C35.6,93.3,41.4,91.8,41.4,91.8z"/>
			<path class="st0" d="M45.5,99.4c0.2-0.9,1.8-1.1,2-0.6c0.2,0.4,2,2.9,1.6,3.4s-1.7,1-2,0.7S45.4,100.1,45.5,99.4z"/>
			<path class="st0" d="M43.4,100.6c0.2-0.9,1.8-1.1,2-0.6c0.2,0.4,2,2.9,1.6,3.4s-1.7,1-2,0.7C44.6,103.8,43.2,101.3,43.4,100.6z"
				/>
			<path class="st0" d="M41.6,102.2c0.2-0.8,1.7-1.1,1.9-0.7c0.2,0.4,1.6,2.6,1.1,3.2c-0.4,0.5-1.6,1.1-1.9,0.8
				C42.5,105.2,41.4,102.9,41.6,102.2z"/>
		</g>
	</g>
</g>
</svg>
