<?xml version="1.0" encoding="utf-8"?>
<!-- Generator: Adobe Illustrator 24.2.1, SVG Export Plug-In . SVG Version: 6.00 Build 0)  -->
<svg version="1.1" id="Warstwa_1" xmlns="http://www.w3.org/2000/svg" xmlns:xlink="http://www.w3.org/1999/xlink" x="0px" y="0px"
	 viewBox="0 0 130.6 150" style="enable-background:new 0 0 130.6 150;" xml:space="preserve">
<style type="text/css">
	.st0{fill:#DD5F33;}
	.st1{fill:#CC4E2B;}
	.st2{fill:#EF8354;}
	.st3{fill:#594138;}
	.st4{fill:#7F363F;}
	.st5{fill:#632731;}
	.st6{fill:#56212C;}
	.st7{fill:#F4E0B8;}
	.st8{fill:#E2C798;}
	.st9{fill:#47312B;}
	.st10{fill:#E5C68F;}
	.st11{fill:#9BB2AF;}
	.st12{fill:#B8CCC9;}
	.st13{fill:#ED4C4C;}
	.st14{fill:#CE2E2E;}
	.st15{fill:#662933;}
	.st16{fill:#EF9B3F;}
	.st17{fill:#351F1A;}
	.st18{fill:#FFFAE6;}
</style>
<g id="Warstwa_2_1_">
	<g id="_11">
		<path class="st0" d="M106.2,79.2c2.3-1.8,3.5-2.7,4.7-2.6s3.6,2.2,3.9,2.9c0.2,0.8-2.6,1.9-3.2,2.2s-1.6-0.6-1.4-1.1
			s1.3-1.6,1.1-1.8c-0.2-0.2-0.4-0.3-0.6-0.3C110.8,78.5,107.4,80.7,106.2,79.2z"/>
		<path class="st1" d="M89.4,38.3c0.6,3,0.8,6,0.7,9c-0.1,0.3-3.3-0.5-3.3-0.5L89.4,38.3z"/>
		<path class="st2" d="M88.9,37.7c0.6,3,0.8,6,0.7,9c-0.1,0.3-3.3-0.5-3.3-0.5L88.9,37.7z"/>
		<path class="st3" d="M89.4,31.1c-0.1,1.9,0.2,3.1,1.7,3.8c1.4,0.5,2.9-0.1,3.5-1.5c0.2-0.6,0.3-1.2,0.1-1.8c0,0-0.8,2.5-2.1,0.8
			C91.6,31.1,89.4,31.1,89.4,31.1z"/>
		<circle class="st4" cx="23" cy="57.1" r="19.6"/>
		<circle class="st5" cx="23" cy="57.1" r="18.3"/>
		<path class="st6" d="M23,38.8c-8.2,0-15.4,5.5-17.6,13.4c9.7-2.8,19.8,2.7,22.6,12.4c1,3.3,1,6.8,0,10.1
			c9.7-2.8,15.3-12.9,12.6-22.6C38.4,44.2,31.2,38.8,23,38.8z"/>
		<path class="st0" d="M65,48.6c-10.7-3.6-26.6-3.3-27.7-2.9c-1.1,0.4-2.4,6-1.5,7.2s20,12.2,23.6,11.9C63.2,64.5,71.2,50.7,65,48.6
			z"/>
		<path class="st2" d="M48.6,47.4c7.8,1.8,14.5,4.7,17.7,9.1c1.4-3.5,1.6-7-1.3-8c-10.7-3.6-26.6-3.3-27.7-2.9
			C37,45.9,43.4,46.2,48.6,47.4z"/>
		<path class="st0" d="M38.6,45.6C32.9,44,26.9,47.9,15,58.1l4.4,5.1c0,0,15.2-7.1,19.4-10.1C43,50.1,38.6,45.6,38.6,45.6z"/>
		<path class="st0" d="M73.9,38.3c0,3.6-2.3,11.4-8,12.6l8.1,7.5c4.7-4,9.2-20.1,9.2-20.1H73.9z"/>
		<path class="st2" d="M75,56.8c-2.5-4.9-8.6-8.2-11.8-8.1c-16.3,0.7-31.3,19.4-32.7,28.9L47.8,82c0,0-2.2-4.9-0.5-5.1
			c1.7-0.1,2.6-3.2,2.6-3.2c2.2-0.1,8.1-1.9,8.1-1.9c3.8,0.6,7.7,0.8,11.5,0.6C76.7,72.1,77.5,61.8,75,56.8z"/>
		<path class="st0" d="M68.5,59c-1-3-0.6-7.2,4.2-5.8c-2.1-3.4-8.1-4.8-9.5-4.7c-16.4,0.7-31.3,19.6-32.7,29.1L46,81.5
			c-2.8-1.2-4.6-2.8-4.6-4.6c0-3.5,6.5-8.5,14.8-8.5c4.1,0,8.1,2.8,10.8,4c0.8,0,1.6,0,2.5-0.1C76.7,72.1,70.9,63.9,68.5,59z"/>
		<path class="st2" d="M66.4,110.5l-5.2,3.8c4.7,6.4,18.1,30.7,18.1,30.7h1C80.2,145.1,71.1,118.9,66.4,110.5z"/>
		<path class="st0" d="M71.1,120.9c-1.4-3.5-3-7-4.7-10.3l-5.2,3.8c1.9,2.6,5.3,8.2,8.6,14C69.9,125.8,70.4,123.3,71.1,120.9z"/>
		<path class="st7" d="M38.2,103.9c8,7.5,12.6,7.5,12.6,7.5c2.6,3.8,6.9,6,11.4,6c5.1,0,8.4-1.7,6.2-7.4s-7.5-11.7-7.5-11.7
			s-9.5-15.9-14.1-17.4C42.1,79.5,38.2,103.9,38.2,103.9z"/>
		<path class="st8" d="M64.9,115.7c-4.2,0-7.8-4.5-7.4-10.1c-2.9-1-4.5-6.2-7.1-10.3c-4.1-6.4-6.8-11-3.8-12.9
			c0.5-0.3,1.1-0.5,1.6-0.5c-0.4-0.3-0.9-0.6-1.4-0.8c-4.7-1.5-8.5,22.9-8.5,22.9c8,7.5,12.6,7.5,12.6,7.5c2.6,3.8,6.9,6,11.4,6
			c3.6,0,6.3-0.8,6.8-3.4C67.9,115.1,66.4,115.7,64.9,115.7z"/>
		<path class="st3" d="M73.9,45.8c-5.9-6.9-6.3-10.3-4.4-11.7c0,0-2.7-7,2.9-7.7c0,0-0.7-4.7,2.2-4.7c1.8,0,3.6,0.4,5.2,1.1
			c0,0-0.1-4.9,3.8-4.4c4,0.6,3.7,3.7,3.7,3.7s1.5-3,3.7,0c0.6,1,0.8,2.2,0.4,3.4c0,0,2.3,0,2.6,1.7c0.3,1.8-1.8,1.9-1.8,1.9
			L73.9,45.8z"/>
		<path class="st9" d="M82,27c-1-2.6-1.1-5.4-0.4-8.1c-1.8,1.1-1.7,4-1.7,4c-1.7-0.7-3.4-1.1-5.2-1.1c-2.9,0-2.2,4.7-2.2,4.7
			c-5.6,0.7-2.9,7.7-2.9,7.7c-1.9,1.4-1.5,4.8,4.4,11.7l13.3-12C84.8,32.2,82.9,29.8,82,27z"/>
		<path class="st2" d="M76.8,39.3l1-5.6l13.7-3.4c0,0-1.5,12.1-6.2,19.5c-4.7,7.4-8.1-1.8-8.1-1.8L76.8,39.3z"/>
		<path class="st3" d="M72.3,34.2c0.5,7.5,0.1,14,1.2,16.9c1.1,3,5.5,7.3,13.7,9.6c-3.1-3.2,1.4-9-0.3-13.7c0,0-8.7-4.8-7.3-14.9
			L72.3,34.2z"/>
		<path class="st9" d="M81.2,32.5c0-0.1-8.9,1.7-8.9,1.7c0.5,7.5-0.4,13.9,0.7,16.8c1.1,3,6,7.4,14.2,9.7l0,0
			C81.3,58.8,75.5,40.9,81.2,32.5z"/>
		<path class="st9" d="M83.5,31.9c-1.9-0.3-3.1-0.2-4,1.2c-0.7,1.3-0.2,2.9,1.1,3.6c0.5,0.3,1.1,0.4,1.7,0.3c0,0-2.3-1.2-0.5-2.1
			C83.2,34,83.5,31.9,83.5,31.9z"/>
		<path class="st3" d="M88.2,30.1c-0.4,1.9-0.2,3.1,1.1,4c1.3,0.7,2.9,0.3,3.6-1c0.3-0.5,0.4-1.2,0.3-1.8c0,0-1.2,2.3-2.1,0.5
			C90.4,30.4,88.2,30.1,88.2,30.1z"/>
		<polygon class="st7" points="92.5,32.2 92.3,29.2 68.8,31.2 68.9,34.8 		"/>
		<path class="st10" d="M81.7,31.3c0-0.5,0.2-0.9,0.6-1.3l-13.5,1.1l0.1,3.6l14.3-1.6C82.2,32.7,81.7,32,81.7,31.3z"/>
		<path class="st2" d="M61.8,68.5c7.6,8.1,21.5,15.1,22.6,15.3s3.1-5.7,2.8-7.2c-0.3-1.5-10-18.6-13.3-20S57.5,63.8,61.8,68.5z"/>
		<path class="st0" d="M69.3,53.1c-1.1-4.6-12.6,11-8.2,15.6c7.5,8.1,22.1,14.9,23.2,15c0.5,0.1,1.6-0.8,2.5-2
			C75.2,75,64.3,57.2,69.3,53.1z"/>
		<path class="st2" d="M83.9,82.4c3.6,4.2,10.9,3.6,23.8,0.5l1-3.7c0,0-19.2-3.9-23.5-3.4C80.9,76.4,83.9,82.4,83.9,82.4z"/>
		<path class="st0" d="M81.1,77.2c-0.4,1.9,2.1,6.1,2.1,6.1c3.6,4.2,11.5,3,24.4,0C107.6,83.3,84.9,81.5,81.1,77.2z"/>
		<path class="st2" d="M80,149.9h13.5c0,0-6.7-1.6-9.1-2.2c-2.4-0.6-4.5-3.4-4.5-3.4l-0.9,0.4C79.1,144.7,78.8,148.3,80,149.9z"/>
		<path class="st11" d="M127.1,0l-6.4,20.4c0,0,6.7,27.7-6.1,56l0.8,0.6C140.2,41.4,127.1,0,127.1,0z"/>
		<path class="st12" d="M128.7,45.4c2.9-15,2.3-30.5-1.6-45.3L120.8,20C125.5,21.4,128.6,31.7,128.7,45.4z"/>
		<path class="st4" d="M115,74.8c-2.3,4.2-11.8,13.8-9.7,15.8c2.1,2.1,3.5,0,3.5,0l7.7-15.5L115,74.8z"/>
		<path class="st2" d="M27.9,122.9c0,0-12.8,12.1-24.3,17.6l0.2,0.7c16.6-4.2,30.1-15.1,30.1-15.1L27.9,122.9z"/>
		<path class="st0" d="M22.4,133.6c4-2.2,7.8-4.7,11.4-7.4l-5.9-3.3c-3.9,3.6-7.9,6.9-12.2,10.1C17.9,133,20.1,133.3,22.4,133.6z"/>
		<path class="st7" d="M23,125.6c9.1,6.2,13.7,3.1,16.6-2.4c2.9-5.5,2.7-9.5,2.7-9.5s4.5-5.4,5.6-8.8l3-2.9c0,0,1-13.6-2.8-20.9
			c0,0-11.5-0.8-17.7-4.8c0,0-2.5,1.8-0.7,3.7c0,0-5.8,5.4-3.2,9.6c0,0-2.3,12.8-0.4,18.7C22.6,113.9,23.2,119.4,23,125.6z"/>
		<path class="st8" d="M44.2,83.7c1.5,11.2-2.4,29.8-4.7,39.6c0,0,0-0.1,0.1-0.1c2.9-5.5,2.7-9.5,2.7-9.5s6.9-5.9,8.6-8.6
			c0.7-8.3-3.1-18.3-5.8-21.1L44.2,83.7z"/>
		<path class="st8" d="M31.3,125.9c-3.4-1.5-4.5-6.4-2.6-10.9c0.7-1.7,1.8-3.2,3.3-4.3c-0.1-0.1-0.1-0.2-0.2-0.4
			c-0.3-1.2,0.8-2.7,3-4.1c-0.1,0-0.2,0-0.2-0.1c-4.2-1.7-5.3-11.4-1.7-18.6c1.7-3.5,4.6-6.1,8.3-7.4c-3.5-0.7-7.6-1.9-10.6-3.8
			c0,0-2.5,1.8-0.7,3.7c0,0-5.8,5.4-3.2,9.6c0,0-2.3,12.8-0.4,18.7c-3.7,5.5-3.1,11-3.3,17.3c9.1,6.2,13.7,3.1,16.6-2.4
			c0.3-0.6,0.6-1.1,0.8-1.7C38.3,125.4,34.4,127.3,31.3,125.9z"/>
		<path class="st8" d="M42.9,103.5c2.3-0.1,4.7,0,7,0.4l5.2-4.4C55.1,99.5,48.1,101.7,42.9,103.5z"/>
		<path class="st8" d="M37.1,109c-2.8,0.7-5.4,2.1-7.4,4.1l-1.8-0.7C27.9,112.3,32.4,108.7,37.1,109z"/>
		<path class="st8" d="M31.4,80.8l1.3,1.9c4.1,1.4,8.6,1.7,12.9,0.8C45.6,83.5,37.4,83.6,31.4,80.8z"/>
		<path class="st13" d="M45.3,83.8l-1-0.3c4,15.8-0.7,46.4-0.7,46.4l4.9,1.4C48.6,131.3,52.2,101.1,45.3,83.8z"/>
		<path class="st13" d="M45.3,83.1l-0.6,0.1c6,10.6,7.4,33.9,7.4,33.9l4.7-0.1C56.9,117,54.4,94.7,45.3,83.1z"/>
		<path class="st14" d="M46.3,83.2c0-0.9-0.7-1.7-1.6-1.7c-0.9,0-1.7,0.7-1.7,1.6s0.7,1.7,1.6,1.7l0,0
			C45.5,84.8,46.3,84.1,46.3,83.2L46.3,83.2z"/>
		<path class="st2" d="M8.9,150H4.1L0,142.1c0,0,3.1-3.2,4.6-2.3S2.8,146.1,5,148C6.2,149,7.7,148.8,8.9,150z"/>
		<path class="st0" d="M52.7,66.1c2.8,2.2,5.7,4.3,8.8,6.1c-1.2,0-2.3-0.2-3.4-0.4C56.9,71.4,52.7,66.1,52.7,66.1z"/>
		<path class="st0" d="M24.6,60.8c0,0-2.5,0.2-3.1,1.2c-1.2,1.9-2.7,3.7-4.3,5.4c-0.6,0.6-4.8,0.2-6.2-0.2c0.5-0.8,0.2-8.2,0.2-8.2
			c1.7-1.2,3.6-2.1,5.6-2.8c0.8-0.2,2.3-1.6,3.9-2.4C22.9,52.7,24.6,60.8,24.6,60.8z"/>
		<path class="st2" d="M21.5,62c-0.8,3.4-1.9,6.5-3.1,7.3c-1.2,0.8-3.1-0.2-3.9-0.8c-0.8-0.6-0.1-4.3,0.1-4.9c0.3-0.6,1.9-0.6,2.1,0
			s0,2.4,0.3,2.5c0.3,0,0.5,0,0.8-0.1C17.8,66.1,19.2,61.5,21.5,62z"/>
		<path class="st2" d="M14.6,64.2c0.9,0.4,0.7,2.3,0.1,2.5s-3.8,1.6-4.3,1s-0.7-2.2-0.2-2.5C10.7,64.9,13.9,63.8,14.6,64.2z"/>
		<path class="st2" d="M14.8,61.3c0.9,0.4,0.7,2.3,0.1,2.5s-3.8,1.6-4.3,1c-0.5-0.6-0.7-2.2-0.2-2.5C10.8,62,14.1,60.9,14.8,61.3z"
			/>
		<path class="st2" d="M14.6,58.4c0.9,0.4,0.7,2.3,0.2,2.5s-3.5,1.5-4,0.9s-0.7-2.2-0.3-2.5C11,58.9,13.9,58.1,14.6,58.4z"/>
		<polygon class="st6" points="18.5,52.8 17,54.2 22.9,63.4 25.4,62 		"/>
		<polygon class="st6" points="24.9,47.2 23.1,48.5 30,59.9 32.9,58.7 		"/>
		<path class="st0" d="M84.8,84.6c-2.1,0-5-1-5.3-3.4c-0.1-1.4,3.8,0.9,3.8,0.9L84.8,84.6z"/>
		<path class="st2" d="M77.1,35.6c-1.1-2-3.2,0.6-3.1,2s2,4.3,2.8,3.8C77.7,40.9,77.7,36.7,77.1,35.6z"/>
		<path class="st1" d="M76.6,36.3c-0.7-1.2-1.9,0.4-1.9,1.2c0,0.8,1.2,2.7,1.7,2.4C76.9,39.6,77,37,76.6,36.3z"/>
		<path class="st2" d="M76.7,38c-0.5-0.8-1.3,0.3-1.3,0.8c0,0.6,0.8,1.8,1.2,1.7C76.9,40.3,76.9,38.4,76.7,38z"/>
		<path class="st3" d="M89.7,39.7c-1.4-0.2-3.2-1.9-3.6-2.5s0.8-2.1,1.3-2.1s2.4,2.5,2.7,3S90,39.7,89.7,39.7z"/>
		<path class="st3" d="M86.7,39.6l1.6,1c0,0-1.2,2.2-1.8,1.7S86.7,39.6,86.7,39.6z"/>
		<path class="st10" d="M70.2,31.6v-0.2c-3,0.2-7.8,4.1-9.2,7.4l2.3,2.8C63.3,41.6,65.9,33.1,70.2,31.6z"/>
		<path class="st10" d="M69.7,31.9l-0.1-0.4c-2.8,2-5.7,9.1-5.4,13.6l3.6,1.7C67.8,46.8,66.3,36.2,69.7,31.9z"/>
		<path class="st8" d="M37.8,95.7c2.9,3.9,4.8,8.6,5.5,13.4l0.7-6.6C42.2,98.3,37.8,95.7,37.8,95.7z"/>
		<path class="st15" d="M107.2,90.7c-1.9-2.1,6-11.2,8.4-15.8l-0.6-0.1c-2.3,4.2-11.8,13.8-9.7,15.8c1.1,1.1,2,1,2.6,0.7
			C107.7,91.2,107.5,91,107.2,90.7z"/>
		<path class="st16" d="M108.6,75.8c7.8,0.7,11.5,9.2,11.5,9.2s1.2-9.4-5.1-11.2C109.4,72.3,108.6,75.8,108.6,75.8z"/>
		<path class="st2" d="M50,73.1c-3.4-1.2-6-4.6-6-4.6s5.7,1.4,6,1.5C50.3,70.2,50,73.1,50,73.1z"/>
		<path class="st17" d="M86.1,48.9l-3.9-4c0,0-1.5,1.4-1.2,2.6c0.4,1.2,4.3,2.2,4.3,2.2L86.1,48.9z"/>
		<path class="st18" d="M85.7,48.7l-3.4-3.4c0,0-1.3,1.2-1,2.2s3.7,1.9,3.7,1.9L85.7,48.7z"/>
		<path class="st17" d="M83.1,47.5l-1.2-1.1l0.5-1c0,0-0.8,0.3-0.9,0.7c-0.1,0.5-0.3,1.3-0.3,1.3l0.5-0.8L83.1,47.5z"/>
		<path class="st14" d="M48.5,96.7c-0.6-4.4-1.6-8.8-3.2-13l-1-0.3c1.2,4.7,1.6,10.6,1.6,16.7C46.7,99,47.6,97.8,48.5,96.7z"/>
		<path class="st14" d="M50.7,92.7c-1.4-3.4-3.2-6.6-5.4-9.6l-0.6,0.1c2.1,3.6,3.6,8.7,4.7,13.9C49.8,95.6,50.2,94.1,50.7,92.7z"/>
		<path class="st14" d="M29.9,77l-0.5,0.6c2.7,3.6,14.3,5.8,14.3,5.8l0.6-1.5C44.3,81.9,32.8,79.5,29.9,77z"/>
		<path class="st14" d="M48.3,81.3c-0.9,0.4-2,0.7-3,0.7l0.2,1.4c1.2-0.1,2.4-0.4,3.4-1L48.3,81.3z"/>
		<path class="st2" d="M102.1,78c0,0,3.5,0.8,4.5,0.5c1.8-0.5,3.6-0.7,5.5-0.8c0.7-0.1,3.3,2.4,4,3.4c-0.8,0.3-4.5,5.3-4.5,5.3
			c-1.8-0.1-3.5-0.5-5.2-1.1c-0.6-0.3-3.2-2.6-5-2.6C99.1,82.6,102.1,78,102.1,78z"/>
		<path class="st2" d="M111.9,81.1c-0.4-0.8,0.8-1.9,1.3-1.7c0.4,0.2,3.4,0.9,3.4,1.6s-0.8,1.8-1.2,1.8
			C114.9,82.8,112.2,81.7,111.9,81.1z"/>
		<path class="st2" d="M110.3,83c-0.4-0.8,0.8-1.9,1.3-1.7s3.4,1,3.4,1.7c-0.1,0.7-0.8,1.8-1.2,1.8S110.6,83.6,110.3,83z"/>
		<path class="st2" d="M108.9,84.9c-0.4-0.8,0.7-1.9,1.2-1.7c0.4,0.2,3.1,0.8,3.1,1.5s-0.7,1.8-1.1,1.8S109.2,85.6,108.9,84.9z"/>
	</g>
</g>
</svg>
