<?xml version="1.0" encoding="utf-8"?>
<!-- Generator: Adobe Illustrator 24.2.1, SVG Export Plug-In . SVG Version: 6.00 Build 0)  -->
<svg version="1.1" id="Warstwa_1" xmlns="http://www.w3.org/2000/svg" xmlns:xlink="http://www.w3.org/1999/xlink" x="0px" y="0px"
	 viewBox="0 0 155.5 150" style="enable-background:new 0 0 155.5 150;" xml:space="preserve">
<style type="text/css">
	.st0{fill:#756C5D;}
	.st1{fill:#9B917C;}
	.st2{fill:#7C705C;}
	.st3{fill:#EDC783;}
	.st4{fill:#D6AB67;}
	.st5{fill:#FFE6B3;}
	.st6{fill:#EDCA8C;}
	.st7{fill:#DD3E3E;}
	.st8{fill:#AF2323;}
	.st9{fill:#563D3D;}
	.st10{fill:#3F2A2A;}
	.st11{fill:#FFB882;}
	.st12{fill:#4F241A;}
	.st13{opacity:0.6;}
	.st14{fill:#843131;}
	.st15{fill:#93472A;}
	.st16{fill:#77321D;}
	.st17{fill:#EA7B59;}
	.st18{fill:#847863;}
	.st19{fill:#9EAFAC;}
	.st20{fill:#7B8E8A;}
	.st21{fill:#BECCCA;}
	.st22{fill:#7C382A;}
	.st23{fill:#682B21;}
	.st24{fill:#CE773C;}
	.st25{fill:#AEC4C0;}
	.st26{fill:#FFF0DC;}
	.st27{fill:#84736B;}
	.st28{fill:#C7DDD9;}
	.st29{fill:#FF9566;}
	.st30{fill:#BCDDD8;}
	.st31{fill:#9BB2AF;}
</style>
<g>
	<g id="Warstwa_2_1_">
		<g id="_11">
			<path class="st0" d="M74.3,45.9c2-9.1,3.9-18.6,3.4-25.4l-10,1L68,41.8L74.3,45.9z"/>
			<path class="st1" d="M79,58.3c1,4.1,2.2,9.2,2.7,9.8c0.5,0.6,14.1,11.7,14.1,11.7l-3.1,3.5c0,0-16.9-7.8-18-9.6s-3.6-6.4-3.6-6.4
				L79,58.3z"/>
			<path class="st2" d="M78.1,72.6l4.3-3.7c-0.3-0.2-0.6-0.5-0.8-0.7c-0.5-0.6-1.7-5.7-2.7-9.8l-7.9,9c0,0,2.5,4.6,3.6,6.4
				c1,1.8,18,9.6,18,9.6l1.3-1.4L78.1,72.6z"/>
			<path class="st2" d="M87,75.1c0.3,0.6,0.2,1.4-0.4,1.8c-0.4,0.3-1,0.3-1.4-0.1l0,0c0.2,0.5,0.9,0.8,1.4,0.5
				c0.1,0,0.1-0.1,0.2-0.1c0.6-0.5,0.7-1.2,0.4-1.9C87.1,75.3,87.1,75.2,87,75.1z"/>
			<path class="st2" d="M87.1,75.2L87.1,75.2c0.2,0.5,0.9,0.8,1.4,0.5c0.1,0,0.1-0.1,0.2-0.1c0.3-0.2,0.5-0.6,0.5-1L89,74.4
				c-0.1,0.3-0.2,0.6-0.5,0.8C88.1,75.7,87.5,75.6,87.1,75.2z"/>
			<path class="st2" d="M88.6,78.8c-0.1-0.1-0.1-0.2-0.2-0.3c0.3,0.6,0.1,1.3-0.4,1.7l0.4,0.2C88.8,80,88.9,79.4,88.6,78.8z"/>
			<path class="st2" d="M90.4,77.2L90.4,77.2L90.4,77.2L90.4,77.2c0.3,0.6,0.1,1.3-0.4,1.7c-0.5,0.3-1.1,0.2-1.4-0.2l0,0
				c0.3,0.6,1,0.8,1.6,0.5c0,0,0.1,0,0.1-0.1c0.5-0.4,0.7-1.1,0.4-1.7C90.5,77.4,90.5,77.3,90.4,77.2z"/>
			<path class="st2" d="M90.4,77.2L90.4,77.2L90.4,77.2c0.1,0.1,0.1,0.2,0.2,0.3c0.4,0.4,1,0.5,1.5,0.2c0.2-0.1,0.3-0.2,0.4-0.4
				l-0.3-0.2c-0.1,0.1-0.2,0.2-0.3,0.3C91.3,77.6,90.8,77.6,90.4,77.2z"/>
			<path class="st2" d="M81.3,70.2c-0.1-0.1-0.1-0.2-0.2-0.3c0.3,0.6,0.1,1.4-0.5,1.8c-0.4,0.3-1,0.2-1.4-0.2l0,0
				c0.2,0.6,0.8,0.8,1.4,0.6c0.1,0,0.1-0.1,0.2-0.1C81.4,71.6,81.6,70.8,81.3,70.2z"/>
			<path class="st2" d="M82.6,70.2c-0.4,0.3-1,0.2-1.4-0.2l0,0c0.2,0.6,0.8,0.8,1.4,0.6c0.1,0,0.1-0.1,0.2-0.1
				c0.3-0.2,0.4-0.4,0.5-0.7l-0.2-0.1C83,69.9,82.8,70.1,82.6,70.2z"/>
			<path class="st2" d="M82.3,73.7c0.3,0.6,0.1,1.3-0.4,1.7c-0.5,0.3-1.1,0.2-1.4-0.2l0,0c0.3,0.6,1,0.8,1.6,0.5c0,0,0.1,0,0.1-0.1
				c0.6-0.4,0.8-1.2,0.4-1.8C82.4,73.9,82.4,73.8,82.3,73.7z"/>
			<path class="st2" d="M84.3,72.4L84.3,72.4L84.3,72.4L84.3,72.4c0.3,0.6,0.1,1.3-0.4,1.7c-0.5,0.3-1.1,0.2-1.5-0.2l0,0
				c0.3,0.6,1,0.8,1.6,0.6c0,0,0.1,0,0.1-0.1c0.5-0.4,0.7-1.1,0.4-1.7C84.4,72.6,84.4,72.5,84.3,72.4z"/>
			<path class="st2" d="M85.7,72.6c-0.5,0.3-1.1,0.2-1.4-0.2l0,0l0,0c0.1,0.1,0.1,0.2,0.2,0.3c0.4,0.4,1,0.5,1.5,0.2
				c0.2-0.1,0.3-0.3,0.4-0.5l-0.3-0.2C86,72.3,85.9,72.5,85.7,72.6z"/>
			<path class="st2" d="M75.5,65.1c-0.1-0.1-0.1-0.2-0.2-0.3c0.3,0.6,0.2,1.4-0.4,1.8c-0.4,0.3-1,0.3-1.4-0.1l0,0
				c0.3,0.5,0.9,0.8,1.4,0.5c0.1,0,0.1-0.1,0.2-0.1C75.7,66.5,75.8,65.7,75.5,65.1z"/>
			<path class="st2" d="M77,65.4c0.5-0.4,0.7-1.2,0.4-1.8c-0.1-0.1-0.1-0.2-0.2-0.3l0,0l0,0v-0.1c0.3,0.6,0.2,1.4-0.4,1.8
				c-0.4,0.3-1,0.3-1.4-0.1l0,0c0.2,0.5,0.9,0.8,1.4,0.5C76.9,65.5,77,65.4,77,65.4z"/>
			<path class="st2" d="M77.2,63.4c0.1,0.1,0.1,0.2,0.2,0.3c0.4,0.4,1,0.5,1.4,0.2c0.6-0.5,0.7-1.2,0.4-1.9
				c-0.1-0.1-0.1-0.2-0.2-0.3c0.3,0.6,0.2,1.4-0.4,1.8C78.1,63.8,77.6,63.7,77.2,63.4L77.2,63.4C77.2,63.3,77.2,63.3,77.2,63.4z"/>
			<path class="st2" d="M76.6,68.3c0.3,0.6,0.1,1.3-0.4,1.7c-0.5,0.3-1.1,0.2-1.4-0.2l0,0c0.3,0.6,1,0.8,1.6,0.5c0,0,0.1,0,0.1-0.1
				c0.6-0.4,0.8-1.2,0.4-1.8C76.8,68.4,76.7,68.3,76.6,68.3z"/>
			<path class="st2" d="M78.7,67L78.7,67L78.7,67L78.7,67c0.3,0.5,0.1,1.3-0.4,1.6c-0.5,0.3-1.1,0.2-1.4-0.2l0,0
				c0.3,0.6,1,0.8,1.6,0.6c0,0,0.1,0,0.1-0.1c0.5-0.4,0.7-1.1,0.4-1.7C78.8,67.1,78.7,67,78.7,67z"/>
			<path class="st2" d="M78.7,67c0.1,0.1,0.1,0.2,0.2,0.3c0.4,0.4,1,0.5,1.5,0.2c0.6-0.4,0.8-1.2,0.4-1.8c-0.1-0.1-0.1-0.2-0.2-0.3
				c0.3,0.6,0.1,1.3-0.4,1.7C79.6,67.4,79,67.3,78.7,67L78.7,67C78.7,66.9,78.7,66.9,78.7,67z"/>
			<path class="st3" d="M74.1,43.5c4.1,3.6,7.9,22,7.9,22l-11.4,7.6c0,0-1.4-8.4-1.1-12.2C69.7,56.9,74.1,43.5,74.1,43.5z"/>
			<path class="st4" d="M75.1,70c-2.5-8.6-2.3-19.3-4.2-20.7c-1.1,3.9-1.3,9.5-1.5,11.5c-0.3,3.9,1.1,12.3,1.1,12.3L75.1,70z"/>
			<polygon class="st5" points="82.7,66.8 67.9,74.6 67.9,71.2 81.8,64.2 			"/>
			<path class="st6" d="M74.8,67.7l-6.9,3.5v3.3l7.7-4.1C75.2,69.6,74.9,68.7,74.8,67.7z"/>
			<path class="st7" d="M48.3,85.8c0,0-3,27.7-4.1,34c-1,6.3-8.8,24.6-8.8,26.5h1c2.9-8.3,21.3-24,23.5-29.4
				c2.2-5.4,3.7-28.4,3.7-28.4L48.3,85.8z"/>
			<path class="st8" d="M48.3,85.8c0,0-3,27.7-4.1,34c-1,6.3-8.6,24.1-8.8,26.4l12.4-23.5l8-0.1c2-2.3,3.6-4.2,4.1-5.6
				c2.2-5.4,3.7-28.4,3.7-28.4L48.3,85.8z"/>
			<path class="st7" d="M62.3,94.4c14.7,13.5,19,17.8,23.1,23.5c5.1,7,11.5,28.4,11.5,28.4h1c0,0-3.9-32.3-6.4-38.5
				S73.8,83.3,73.8,83.3L62.3,94.4z"/>
			<path class="st8" d="M88.3,114l4-3.8c-0.2-0.8-0.5-1.7-0.8-2.5c-2.5-6.3-17.7-24.5-17.7-24.5L62.3,94.3
				c14.7,13.5,19,17.8,23.1,23.5c5.1,7,11.5,28.4,11.5,28.4h0.5L88.3,114z"/>
			<path class="st1" d="M54.1,104.2c12.3,0.2,27.2-6.3,27.2-6.3L69.8,82.2l-13.2,2.1L54.1,104.2z"/>
			<path class="st2" d="M67.8,91.6l6.3,9c2.5-0.8,4.9-1.7,7.3-2.7L69.8,82.2l-13.2,2.1l-2.5,19.9c5.1,0.1,10.9-1.1,15.7-2.4
				L67.8,91.6z"/>
			<path class="st3" d="M40.6,116.2c7.4,4.5,29.8,3.7,29.8,3.7s-0.8-22.7-4.8-34c0,0,16.3,19.1,20.8,25.8l6.3-5.6L73.4,79l-2.3-1.6
				l-0.4-2.5l-25.3,2.4l0.4,3.2C45.8,80.4,42.7,98.5,40.6,116.2z"/>
			<path class="st4" d="M59.5,97.2c1.4,6.8,2,22.5,2,22.5l6.2-0.1L59.5,97.2z"/>
			<path class="st4" d="M53,119.3c-3.3-25.7-1.1-38.5,11.1-40C67,79,74.7,81.4,81.2,90.1l-7.8-11l-2.3-1.7l-0.4-2.5l-25.3,2.3
				l0.4,3.2c0,0-3.1,18.1-5.2,35.8C43.3,117.9,48.1,118.8,53,119.3z"/>
			<polygon class="st5" points="70.9,76.1 70.7,74.8 69.3,75 			"/>
			<polygon class="st5" points="74.5,80.7 73.4,79 73.1,78.8 			"/>
			<path class="st5" d="M92.6,106.2l-1.9-2.5l-4.8,4.6c-4.4-6.7-22.8-27-22.8-27c4.1,11.3,5.6,36.3,5.6,36.3s-19,0.2-28-3l-0.2,1.7
				c7.5,4.4,30.7,3.9,30.7,3.9S69.6,97.3,65.5,86c0,0,16.1,19.8,20.5,26.5L92.6,106.2z"/>
			<polygon class="st9" points="70.9,73.2 71.1,77.4 45.3,79.6 44.6,76 			"/>
			<path class="st10" d="M55.4,78.7c0-2,3.5-3.5,7.9-3.5c3.4,0,6.2,1,7.4,2.3l0.5-0.1L71,73.2L44.7,76l0.8,3.6L55.4,78.7L55.4,78.7z
				"/>
			<path class="st3" d="M70.8,74c-4,0-21.7,0.8-24.7,2.2s-0.1-4-0.1-4s-2.2-3.6,1.5-6.9c1.9-9.3-0.2-24.7,7.5-27.4
				c4.4-1.5,10.9,0.2,15.9,2.5c6.9,3.3,2.4,9.8,1,16.9C70.3,65.5,71.3,74,70.8,74z"/>
			<path class="st4" d="M53,69.2c-1.4-3.1,10.6-23.2,1.2-29.7c-7.7,2.7-5.9,16.3-7.8,25.6c-2.2,1.9-2.9,5-1.8,7.6c0,0-2.8,6,0.1,4.6
				c3-1.4,22.3-3.1,26.2-3.1c1.1,0,1-1.5,0-2.1C62,74.3,54.4,72.3,53,69.2z"/>
			<path class="st5" d="M68.4,39.4l-1.8,0.1c2,4.6-1.4,25.6-1.4,25.6l2.8,0.6C68,65.7,70,44.7,68.4,39.4z"/>
			<path class="st1" d="M43.8,49.4c0,0-9,10.5-9.8,12.2s-2.4,10.9-3.3,17.9l5.6,1.1c0,0,4.7-12.5,5.3-13s8.2-8.5,8.2-8.5L43.8,49.4z
				"/>
			<path class="st2" d="M43.8,49.4c0,0-9,10.5-9.8,12.2s-2.4,10.9-3.3,17.9l2.5,0.5l3.2-15.2l4,5.2c0.3-0.8,0.7-1.7,1.2-2.4
				c0.6-0.5,8.2-8.5,8.2-8.5L43.8,49.4z"/>
			<path class="st2" d="M34.1,75c0.1-0.1,0.1-0.2,0.1-0.3c-0.4,0.6-1.1,0.8-1.7,0.5c-0.1-0.1-0.3-0.2-0.4-0.3c0,0.2-0.1,0.3-0.1,0.5
				c0.1,0.1,0.2,0.1,0.3,0.2C33,75.8,33.7,75.5,34.1,75z"/>
			<path class="st2" d="M36.4,75.3L36.4,75.3c-0.4,0.4-0.3,1.1,0.2,1.4c0.1,0,0.1,0.1,0.2,0.1c0.1,0.1,0.3,0.1,0.4,0.1l0.1-0.4
				c-0.1,0-0.3,0-0.4-0.1C36.5,76.2,36.2,75.7,36.4,75.3z"/>
			<path class="st2" d="M35.1,67c0.1-0.1,0.1-0.2,0.1-0.3c-0.4,0.6-1.1,0.8-1.7,0.5c-0.1,0-0.1-0.1-0.1-0.1l-0.1,0.4l0,0
				C34,67.8,34.8,67.6,35.1,67z"/>
			<path class="st2" d="M37.3,69.1c-0.5-0.2-0.7-0.7-0.5-1.2l0,0c-0.3,0.5-0.2,1.1,0.2,1.4c0.1,0,0.1,0.1,0.2,0.1
				c0.6,0.3,1.3,0,1.7-0.6c0.1-0.1,0.1-0.2,0.1-0.3C38.6,69.1,37.9,69.3,37.3,69.1z"/>
			<path class="st2" d="M38.9,68.7L38.9,68.7c-0.3,0.5-0.2,1.1,0.2,1.4c0,0,0.1,0.1,0.2,0.1c0.1,0.1,0.3,0.1,0.5,0.1
				c0.1-0.1,0.1-0.2,0.1-0.4c-0.2,0-0.3,0-0.4-0.1C39,69.7,38.7,69.2,38.9,68.7z"/>
			<path class="st2" d="M33.1,70.6c0.1-0.1,0.1-0.2,0.1-0.3c-0.1,0.2-0.2,0.3-0.4,0.5l-0.1,0.3C32.9,71,33,70.8,33.1,70.6z"/>
			<path class="st2" d="M34.7,71.4L34.7,71.4c-0.3,0.5-0.1,1.2,0.5,1.5h0.1c0.6,0.2,1.3-0.1,1.6-0.7c0-0.1,0.1-0.2,0.1-0.3
				c-0.3,0.6-1,0.8-1.6,0.6C34.9,72.3,34.6,71.8,34.7,71.4z"/>
			<path class="st2" d="M37.5,73.3c-0.5-0.2-0.7-0.7-0.6-1.2l0,0c-0.3,0.5-0.1,1.2,0.4,1.5h0.1c0.3,0.1,0.7,0.1,1-0.1l0.2-0.4
				C38.2,73.4,37.8,73.5,37.5,73.3z"/>
			<path class="st2" d="M38.1,62.1c0.6,0.3,1.3,0,1.7-0.6c0.1-0.1,0.1-0.2,0.1-0.3c-0.4,0.6-1.1,0.8-1.7,0.5
				c-0.5-0.2-0.7-0.7-0.5-1.2l0,0c-0.3,0.4-0.3,1.1,0.2,1.4C38,62.1,38.1,62.1,38.1,62.1z"/>
			<path class="st2" d="M39.9,61.4L39.9,61.4c-0.3,0.4-0.2,1.1,0.2,1.4c0.1,0,0.1,0.1,0.2,0.1c0.6,0.3,1.3,0.1,1.7-0.5
				c0-0.1,0.1-0.2,0.1-0.3l0,0l0,0V62c-0.4,0.6-1.1,0.8-1.7,0.5C40,62.4,39.7,61.9,39.9,61.4z"/>
			<path class="st2" d="M42,62.2c-0.1,0.1-0.1,0.2-0.1,0.3c-0.2,0.5,0.1,1,0.5,1.2c0.6,0.2,1.3,0,1.7-0.6c0.1-0.1,0.1-0.2,0.1-0.3
				c-0.4,0.6-1.1,0.8-1.7,0.5C42.1,63.1,41.9,62.6,42,62.2L42,62.2L42,62.2z"/>
			<path class="st2" d="M36.7,65.9c0.6,0.2,1.3-0.1,1.6-0.7c0-0.1,0.1-0.2,0.1-0.3c-0.3,0.6-1,0.8-1.6,0.6c-0.5-0.2-0.7-0.7-0.6-1.2
				l0,0C35.9,64.8,36.1,65.5,36.7,65.9C36.7,65.8,36.7,65.8,36.7,65.9z"/>
			<path class="st2" d="M40.6,65.7L40.6,65.7L40.6,65.7c-0.3,0.5-1,0.8-1.6,0.6c-0.5-0.2-0.7-0.7-0.6-1.2l0,0
				c-0.3,0.5-0.1,1.2,0.4,1.5h0.1c0.6,0.2,1.3,0,1.6-0.6C40.5,65.9,40.5,65.8,40.6,65.7L40.6,65.7z"/>
			<path class="st2" d="M40.6,65.7L40.6,65.7L40.6,65.7c0,0.1-0.1,0.2-0.1,0.3c-0.1,0.5,0.2,1,0.6,1.2l0.2,0.1l0.3-0.3
				c-0.1,0-0.3,0-0.4-0.1C40.8,66.7,40.5,66.2,40.6,65.7z"/>
			<path class="st3" d="M37.1,56.5l8.3,13.6c0,0,7.1-11.1,10.3-15.8s2.1-16.8-1.5-16C46.8,39.9,37.1,56.5,37.1,56.5z"/>
			<path class="st4" d="M45.5,64.2c-3.1-1.5-2.6-8.6,1-15.8c2.5-4.9,5.8-8.6,8.7-10c-0.3-0.2-0.7-0.2-1-0.1
				c-7.4,1.6-17.6,18-17.6,18l8.9,13.8c0,0,1.9-3,4.2-6.5C48,64.5,46.6,64.7,45.5,64.2z"/>
			<path class="st11" d="M76,20.7c-0.1,5.8,0.6,17.5,0,18.2s-10.6-0.7-11-3.6c-0.5-3-0.3-12.7,0.6-13.9S76,20.7,76,20.7z"/>
			<path class="st12" d="M74.1,25.6c0.1-0.9-0.3-1.7-0.8-1.8s-1,0.7-1.1,1.6s0.3,1.7,0.8,1.8S74,26.5,74.1,25.6z"/>
			<g class="st13">
				<path class="st14" d="M76.1,46.5c-0.5-1.1-1.2-2.1-2-2.9c-0.7-1.4-1.8-2.4-3.2-3c-0.8-0.4-1.6-0.7-2.4-1.1l0,0h-0.1
					c-4.5-1.8-9.7-2.8-13.4-1.5c-0.3,0.1-0.5,0.2-0.8,0.3l-1.4,0.4c9.9,2.5,8.4,13.2,16.7,15C73.6,54.6,75.6,48.3,76.1,46.5z"/>
			</g>
			<path class="st15" d="M76.3,32.8c0.4,3.1-0.5,10.2,1.5,13.6c0,0-14-1.9-14.7-10.6c-0.4-4.7,0.4-13.3,0.4-13.3l3.4-1.8
				c0,0-0.8,6.2,1.9,9.3C71.2,33,76.3,32.8,76.3,32.8z"/>
			<path class="st16" d="M67.8,37.8c-1.3-3.5-1.1-9.6-0.7-11.7c-0.3-1.7-0.3-3.5-0.2-5.3l-3.4,1.8c0,0-1,9.4-0.6,14.1
				c0.7,8.7,14.9,9.7,14.9,9.7v-0.1C74.6,45.5,70,43.6,67.8,37.8z"/>
			<path class="st17" d="M75.4,23.4c1.9,4,3.4,8.7,3.4,9.3s-3.4,0.1-3.4,0.1V23.4z"/>
			<path class="st11" d="M74.7,22.9c1.9,4,3.4,8.7,3.4,9.3s-3.4,0.1-3.4,0.1V22.9z"/>
			<path class="st15" d="M70.3,25l5.5,0.6l0.6-1.9c0,0-3.5-1.5-5.4-1.4S70.3,25,70.3,25z"/>
			<g class="st13">
				<path class="st14" d="M69.6,27.9l7.2-1.3c-0.2-0.6-0.5-1.2-0.7-1.7l0.4-1.2l-0.4-0.2c0-1,0-2,0-2.8c0,0-6.3-0.3-9.1,0.2l0,0
					h-0.1h-0.1c-0.3,0.1-0.6,0.2-0.9,0.3l0.2,18.9L69.6,27.9z"/>
			</g>
			<path class="st1" d="M69.1,20.6c0,0-2.5,22.7-4.1,29.2c0,0-7-11.9-10.9-11.4c-1.1,0.1-0.6-1.3,0.8-1.3c0,0-0.3-1.4,0.6-1.5
				s-0.2-12.3-0.2-12.3S64.1,19.5,69.1,20.6z"/>
			<path class="st18" d="M60.5,33c0-7.2,5.2-8.8,8.2-9.1c0.2-2,0.4-3.3,0.4-3.3c-5-1.2-13.8,2.6-13.8,2.6s1.1,12.2,0.2,12.3
				c-0.9,0.2-0.6,1.5-0.6,1.5c-1.4,0-1.9,1.5-0.8,1.3c3.9-0.5,10.7,9,10.7,9S60.5,39.9,60.5,33z"/>
			<path class="st19" d="M78.6,21l-23.3,3.7c0,0-3.3-10.4,7.3-17.9C62.5,6.8,74.7,6.1,78.6,21z"/>
			<path class="st20" d="M65.5,15.1c-1.5-2.6-2.5-5.4-3-8.3c-10.5,7.5-7.2,17.9-7.2,17.9l16.1-2.5C69,20.2,67,17.8,65.5,15.1z"/>
			<path class="st21" d="M72.1,15.4h3.1c-4.2-8-11.8-7.5-11.8-7.5l-0.3,0.2c0.2,0,0.4,0,0.6,0C67.4,8.1,70.7,11.1,72.1,15.4z"/>
			<path class="st19" d="M61.2,9.2C53.5,14.9,56,22.7,56,22.7l1.8-0.3C56.7,17.7,58,12.7,61.2,9.2z"/>
			<path class="st22" d="M0.5,98.7l2.4-10.1c-2.3-4.1,0.3-11,4.5-12.3l4.5-9.9l44.8,24.3l-6.8,9.2c-4.5,1.3-8.4,6.4-7.3,11.8
				l-4.4,9.8L0.5,98.7z"/>
			<polygon class="st23" points="49.9,99.9 7.5,76.8 9,72.4 50.4,99.4 			"/>
			<path class="st23" d="M43.3,105.9c-7.4-2.6-14.5-6.1-21-10.5c-6.9-4.5-13.2-9.8-18.7-15.9c-1.7,2.7-2.2,6.5-0.7,9.1L0.5,98.7
				l37.8,22.7l4.5-9.7C42.3,109.8,42.5,107.8,43.3,105.9z"/>
			<path class="st24" d="M38.5,122.1L0,99l2.4-10.3c-1.1-2.4-1.1-5.2,0-7.6c0.8-2.3,2.5-4.2,4.7-5.1l4.5-10.3l45.9,24.8l-7.2,9.8
				h-0.2c-4.2,1.2-8,6-6.9,11.2v0.2L38.5,122.1z M1,98.5l37,22.2l4.2-9.1c-1.1-5.6,2.9-10.8,7.5-12.1l6.3-8.6L12,67.1l-4.3,9.6
				l-0.2,0.1c-1.8,0.6-3.4,2.3-4.3,4.7c-1,2.2-1,4.7,0.1,6.9l0.1,0.2L1,98.5z"/>
			<polygon class="st5" points="36,56.7 45.1,70.8 46.8,67.8 37.6,54 			"/>
			<path class="st6" d="M38.9,56l-1.3-2L36,56.7l2.1,3.3C38.2,58.6,38.4,57.3,38.9,56z"/>
			<path class="st6" d="M43.7,68.6l1.4,2.2l1.7-3l-1-1.5C45.3,67.2,44.6,68.1,43.7,68.6z"/>
			<path class="st3" d="M96.5,150h12.2c0-2.3-10.2-2.3-11.2-6.5l-1.2,0.2C97.1,147.2,95.8,147.8,96.5,150z"/>
			<path class="st3" d="M37.5,150h-7.2c-0.8-2.3,4.7-2.4,6.6-6.6l0.8,0.2C36.2,147.2,37.2,147.7,37.5,150z"/>
			<path class="st25" d="M54,23.3c0.1,0.7,0.2,1.4,0.4,2.1l25.2-4c-0.2-0.7-0.4-1.4-0.6-2.1L54,23.3z"/>
			<path class="st24" d="M22.4,79.6l-1.3,2.1l14.8,8.4l-1,1.6c-0.7,0.3-1.4,0.8-2,1.2l-6.8-3.2c-0.9,0.7-1.7,1.5-2.4,2.4l-10.8-6
				L11.3,88l11.2,6c-0.8,1.5-1,3.2-0.6,4.9l6.1,3.3c-0.1,1-0.1,1.9,0,2.9l-15.9-9.2l-0.5,2l17.7,10.7l0.8-1.8c0,0-2.9-6.8,6.7-13.7
				l2.7-3.5L22.4,79.6z M28.2,100.2l-4.9-2.5c0.4-2.3,1.6-4.5,3.5-5.9l4.6,2.3C29.9,95.8,28.7,97.9,28.2,100.2z"/>
			<path class="st12" d="M75.3,34.2c-1.4-0.9-5.2-2.5-5.6-2.2s-1.3,3.8-0.3,4.6c1,0.7,5.1,0.2,5.1,0.2L75.3,34.2z"/>
			<path class="st26" d="M75,34.3c-1.2-0.8-4.5-2.2-4.9-1.9c-0.3,0.3-1.2,3.3-0.3,4s4.4,0.2,4.4,0.2L75,34.3z"/>
			<path class="st12" d="M72,34.6l-2.4-0.8l0.3-1.5c-0.7,1.1-0.9,2.4-0.6,3.6l0.2-1.7L72,34.6z"/>
			<path class="st9" d="M62,93.8l-1-0.3c1.2-3.6,0.8-7,0.5-9.8c-0.3-3-0.6-5.3,1.2-6.4c0.5-0.3,1.2-0.4,1.8-0.2
				c2.6,1.1,4.5,8,4.7,8.8l-1,0.2c-0.5-2-2.2-7.4-4.1-8.1c-0.3-0.1-0.6-0.1-0.8,0.1c-1.3,0.8-1.1,2.8-0.8,5.5
				C62.9,86.4,63.3,90,62,93.8z"/>
			<path class="st27" d="M64.1,44.8c-0.4,0-0.7-0.4-0.7-0.8l0,0l0,0c-0.2,0.4,0,0.8,0.3,1c0.1,0,0.2,0.1,0.3,0.1
				c0.5,0,1-0.2,1.2-0.7c0-0.1,0-0.2,0.1-0.3C65,44.6,64.6,44.8,64.1,44.8z"/>
			<path class="st27" d="M59.1,38.9L59.1,38.9L59.1,38.9C59.1,38.9,59.1,38.8,59.1,38.9c-0.1,0.2-0.2,0.3-0.4,0.5l0.1,0.1
				c0.1-0.1,0.1-0.2,0.2-0.4C59.1,39,59.1,38.9,59.1,38.9z"/>
			<path class="st27" d="M59.1,38.9c0,0.1,0,0.1,0,0.2c-0.1,0.4,0.2,0.8,0.6,0.8h0.1c0.6,0,1.1-0.4,1.3-0.9c0-0.1,0-0.2,0-0.3
				c-0.2,0.5-0.7,0.9-1.3,0.9C59.4,39.6,59.1,39.3,59.1,38.9L59.1,38.9L59.1,38.9L59.1,38.9z"/>
			<path class="st27" d="M62.5,38.7L62.5,38.7c-0.2,0.4,0,0.8,0.3,1c0.1,0,0.2,0.1,0.3,0.1c0.6,0,1.1-0.3,1.3-0.8
				c0-0.1,0.1-0.2,0.1-0.3c-0.2,0.5-0.7,0.9-1.3,0.8C62.8,39.5,62.5,39.1,62.5,38.7L62.5,38.7z"/>
			<path class="st27" d="M64.5,38.8L64.5,38.8c-0.2,0.3-0.1,0.8,0.2,1c0.1,0.1,0.2,0.1,0.4,0.1c0.4,0,0.7-0.1,1-0.4
				c0-0.1,0-0.2,0-0.3c-0.2,0.2-0.6,0.4-0.9,0.3C64.7,39.6,64.4,39.2,64.5,38.8L64.5,38.8z"/>
			<path class="st27" d="M62.5,42.6c-0.4,0-0.7-0.4-0.8-0.8l0,0c-0.1,0.5,0.2,0.9,0.6,1h0.1c0.6,0,1.1-0.4,1.2-0.9
				c0-0.1,0-0.2,0-0.3C63.6,42.2,63.1,42.6,62.5,42.6z"/>
			<path class="st27" d="M64.5,42.6c-0.4,0-0.8-0.4-0.8-0.8l0,0c-0.1,0.4,0.1,0.9,0.6,1.1c0.1,0,0.1,0,0.2,0c0.5,0,0.9-0.3,1.1-0.7
				c0-0.1,0-0.2,0.1-0.4C65.5,42.4,65,42.7,64.5,42.6z"/>
			<path class="st27" d="M58.3,33.1c0-0.1,0-0.1,0-0.2l0,0l0,0l0,0c-0.2,0.5-0.6,0.9-1.2,1c-0.2,0-0.4-0.1-0.5-0.2
				c0,0.1,0,0.2,0,0.3c0.1,0.1,0.3,0.2,0.5,0.2C57.7,34.2,58.2,33.7,58.3,33.1z"/>
			<path class="st27" d="M58.3,32.9c0,0.1,0,0.1,0,0.2c0,0.4,0.3,0.7,0.7,0.8h0.1c0.6,0,1.1-0.4,1.2-1c0-0.1,0-0.2,0-0.3
				c-0.2,0.5-0.6,0.9-1.2,1C58.7,33.6,58.3,33.3,58.3,32.9L58.3,32.9L58.3,32.9L58.3,32.9z"/>
			<path class="st27" d="M62.6,33c-0.4,0-0.7-0.4-0.7-0.8c0,0,0,0,0-0.1l0,0c-0.2,0.4,0,0.8,0.3,1c0.1,0,0.2,0.1,0.3,0.1
				c0.6,0,1.1-0.3,1.3-0.8c0-0.1,0-0.2,0.1-0.3C63.7,32.7,63.2,33,62.6,33z"/>
			<path class="st27" d="M65.8,32.3L65.8,32.3L65.8,32.3c-0.2,0.5-0.7,0.8-1.3,0.8c-0.4,0-0.7-0.4-0.7-0.8l0,0l0,0
				c-0.2,0.3-0.1,0.8,0.2,1c0.1,0.1,0.2,0.1,0.4,0.1c0.6,0,1.1-0.3,1.3-0.8C65.8,32.5,65.8,32.4,65.8,32.3
				C65.8,32.4,65.8,32.3,65.8,32.3z"/>
			<path class="st27" d="M65.8,32.3L65.8,32.3L65.8,32.3c0,0.1,0,0.1,0,0.2c-0.1,0.4,0.2,0.8,0.6,0.8h0.1c0.1,0,0.3,0,0.4,0
				c0-0.1,0-0.2,0-0.3c-0.1,0-0.3,0-0.4,0C66.1,33.1,65.8,32.7,65.8,32.3L65.8,32.3z"/>
			<path class="st27" d="M55.2,36.2c-0.3,0.1-0.5,0.3-0.6,0.6C54.8,36.7,55.1,36.5,55.2,36.2z"/>
			<path class="st27" d="M56,37c0.6,0,1.1-0.4,1.2-0.9c0-0.1,0-0.1,0-0.2l0,0l0,0c0,0,0,0,0-0.1c-0.2,0.5-0.7,0.9-1.2,0.8
				c-0.3,0-0.6-0.2-0.7-0.5h-0.1C55.2,36.6,55.6,37,56,37L56,37z"/>
			<path class="st27" d="M57.3,35.8c0,0.1,0,0.1,0,0.2c0,0.4,0.3,0.8,0.7,0.8l0,0c0.6,0,1.1-0.4,1.2-0.9c0-0.1,0-0.2,0-0.3
				c-0.2,0.5-0.7,0.9-1.2,0.8C57.6,36.6,57.3,36.2,57.3,35.8L57.3,35.8L57.3,35.8z"/>
			<path class="st27" d="M61.6,36.5c-0.4,0-0.7-0.4-0.7-0.8l0,0c-0.1,0.5,0.2,0.9,0.6,1h0.1c0.5,0,1-0.3,1.2-0.9c0-0.1,0-0.2,0-0.3
				C62.6,36.2,62.1,36.5,61.6,36.5z"/>
			<path class="st27" d="M64.8,35.7L64.8,35.7L64.8,35.7c-0.2,0.5-0.7,0.9-1.2,0.8c-0.4,0-0.7-0.4-0.7-0.8l0,0
				c-0.1,0.5,0.2,0.9,0.6,1h0.1C64.2,36.7,64.7,36.3,64.8,35.7C64.7,35.9,64.7,35.8,64.8,35.7L64.8,35.7z"/>
			<path class="st27" d="M65.5,36.5c-0.4,0-0.7-0.4-0.7-0.8l0,0l0,0c0,0.1,0,0.1,0,0.2c0,0.4,0.3,0.8,0.7,0.8l0,0
				c0.4,0,0.7-0.1,0.9-0.4c0-0.1,0-0.2,0-0.3C66.2,36.4,65.9,36.5,65.5,36.5z"/>
			<path class="st27" d="M57.6,27.3c0-0.1,0-0.1,0-0.2l0,0l0,0l0,0c-0.2,0.5-0.6,0.8-1.2,0.8v0.3C56.9,28.2,57.4,27.8,57.6,27.3z"/>
			<path class="st27" d="M57.6,27.1c0,0.1,0,0.1,0,0.2c-0.1,0.4,0.2,0.8,0.6,0.8h0.1c0.6,0,1.1-0.4,1.2-1c0-0.1,0-0.2,0-0.3
				c-0.2,0.5-0.7,0.9-1.3,0.9C57.9,27.8,57.6,27.5,57.6,27.1L57.6,27.1L57.6,27.1L57.6,27.1z"/>
			<path class="st27" d="M61.6,28c0.6,0,1.1-0.3,1.3-0.8c0-0.1,0.1-0.2,0.1-0.3c-0.2,0.5-0.7,0.9-1.3,0.8c-0.4,0-0.7-0.4-0.7-0.8
				l0,0l0,0c-0.2,0.4,0,0.8,0.3,1C61.4,28,61.5,28,61.6,28z"/>
			<path class="st27" d="M62.9,27c-0.2,0.4,0,0.8,0.3,1c0.1,0,0.2,0.1,0.3,0.1c0.6,0,1.1-0.3,1.3-0.8c0-0.1,0-0.1,0-0.2l0,0l0,0l0,0
				c-0.2,0.5-0.7,0.9-1.3,0.8C63.1,27.8,62.8,27.5,62.9,27C62.9,27.1,62.9,27.1,62.9,27L62.9,27z"/>
			<path class="st27" d="M64.9,27c0,0.1,0,0.1,0,0.2c-0.1,0.4,0.2,0.8,0.6,0.8c0,0,0,0,0.1,0c0.6,0,1.1-0.3,1.3-0.8
				c0-0.1,0-0.2,0.1-0.3c-0.2,0.5-0.7,0.9-1.3,0.8C65.2,27.8,64.9,27.4,64.9,27L64.9,27L64.9,27L64.9,27z"/>
			<path class="st27" d="M58.2,30.2c0-0.1,0-0.2,0-0.3c-0.2,0.5-0.7,0.9-1.2,0.8c-0.1,0-0.3-0.1-0.4-0.1c0,0.1,0,0.2,0,0.4
				c0.1,0.1,0.2,0.1,0.3,0.1C57.5,31.1,58,30.8,58.2,30.2z"/>
			<path class="st27" d="M61,31.2c0.6,0,1.1-0.4,1.2-0.9c0-0.1,0-0.2,0-0.3c-0.2,0.5-0.7,0.9-1.2,0.8c-0.4,0-0.7-0.4-0.8-0.8l0,0
				c-0.2,0.4,0.1,0.9,0.5,1.1C60.8,31.1,60.9,31.1,61,31.2z"/>
			<path class="st27" d="M64.2,30L64.2,30L64.2,30c-0.2,0.5-0.7,0.8-1.2,0.8c-0.4,0-0.7-0.4-0.8-0.8l0,0c-0.1,0.5,0.2,0.9,0.6,1h0.1
				c0.6,0,1.1-0.4,1.2-0.9C64.1,30.1,64.1,30.1,64.2,30C64.1,30,64.2,30,64.2,30z"/>
			<path class="st27" d="M64.9,30.8c-0.4,0-0.7-0.3-0.8-0.8l0,0l0,0c0,0.1,0,0.1,0,0.2c0,0.4,0.3,0.8,0.7,0.8l0,0
				c0.6,0,1.1-0.4,1.2-0.9c0-0.1,0-0.2,0-0.3C66,30.4,65.5,30.8,64.9,30.8z"/>
			<path class="st28" d="M79,19.3l-11.2,1.8c0.1,0.2,0.2,0.4,0.4,0.6c0.3,0.5,0.6,0.9,1,1.4l10.4-1.7C79.5,20.6,79.3,19.9,79,19.3z"
				/>
			<polygon class="st9" points="35.5,145.4 37,146.6 40.5,141 36.6,140.5 			"/>
			<polygon class="st9" points="98.3,144.8 96.5,145.6 94,139.5 98.1,139.7 			"/>
			<path class="st29" d="M94.5,79.1c0.7,0.5,1.6,0.9,2.4,1.1c1.7,0,3.4,0.1,5.1,0.5c0.6,0.1,2.1,2.9,2.5,4c-0.7,0-5.2,3.3-5.2,3.3
				c-1.5-0.6-2.8-1.4-4.1-2.4c-0.9-0.7-1.9-1.4-2.9-2C90.7,82.6,94.5,79.1,94.5,79.1z"/>
			<polygon class="st24" points="144.1,14.7 57.8,143.7 60.3,145 145.4,15.2 			"/>
			<polygon class="st30" points="142.2,19 141.8,13.4 155.5,0 147.6,18 			"/>
			<polygon class="st31" points="142.2,19 141.8,13.4 155.5,0 			"/>
			<path class="st11" d="M96.9,80.2c2.4-0.8,4.9-1.5,5.9-1.1s1.1,2,1.1,2.7s-2.6,1.8-3.1,1.9s-1.2-0.9-0.8-1.3
				c0.3-0.4,1.5-1,1.4-1.2s-0.2-0.3-0.4-0.4C101,80.8,97.5,81.8,96.9,80.2z"/>
			<path class="st11" d="M101,83.6c-0.1-0.8,1.2-1.4,1.5-1.1s2.5,1.7,2.4,2.3c-0.1,0.6-1.1,1.3-1.5,1.2
				C103.1,85.8,101.1,84.2,101,83.6z"/>
			<path class="st11" d="M99.1,84.7c-0.1-0.8,1.2-1.4,1.5-1.1s2.5,1.7,2.4,2.3c-0.1,0.6-1.1,1.3-1.5,1.2
				C101.2,86.9,99.3,85.3,99.1,84.7z"/>
			<path class="st11" d="M97.4,85.9c-0.1-0.7,1.1-1.4,1.5-1.1c0.3,0.3,2.4,1.6,2.2,2.1c-0.2,0.5-1.1,1.4-1.4,1.2
				S97.5,86.5,97.4,85.9z"/>
			<polygon class="st5" points="92.8,84.4 96.7,79.8 93.6,77.5 90.1,82.9 			"/>
		</g>
	</g>
</g>
</svg>
