<?xml version="1.0" encoding="utf-8"?>
<!-- Generator: Adobe Illustrator 24.2.1, SVG Export Plug-In . SVG Version: 6.00 Build 0)  -->
<svg version="1.1" id="Warstwa_1" xmlns="http://www.w3.org/2000/svg" xmlns:xlink="http://www.w3.org/1999/xlink" x="0px" y="0px"
	 viewBox="0 0 92.3 150" style="enable-background:new 0 0 92.3 150;" xml:space="preserve">
<style type="text/css">
	.st0{fill:#FF9566;}
	.st1{fill:#FFB94A;}
	.st2{fill:#F2992F;}
	.st3{fill:#7B8D8E;}
	.st4{fill:#677575;}
	.st5{fill:#FFB882;}
	.st6{fill:#A5533D;}
	.st7{fill:#893B2C;}
	.st8{fill:#C4A9A5;}
	.st9{fill:#A88983;}
	.st10{fill:#7C382A;}
	.st11{fill:#6B2E24;}
	.st12{fill:#593D36;}
	.st13{fill:#49302B;}
	.st14{fill:#35211E;}
	.st15{fill:#B2A690;}
	.st16{fill:#9B917C;}
	.st17{fill:#EA7B59;}
	.st18{fill:#512C26;}
	.st19{opacity:0.6;fill:#843131;enable-background:new    ;}
	.st20{fill:#847761;}
	.st21{fill:#9EAFAC;}
	.st22{fill:#879995;}
	.st23{fill:#B3C6C2;}
	.st24{fill:#AEC4C0;}
	.st25{fill:#E8D0A6;}
	.st26{fill:#702A21;}
	.st27{fill:#C1D3D0;}
	.st28{fill:#D63440;}
	.st29{fill:#9BB2AF;}
	.st30{fill:#BCDDD8;}
</style>
<g>
	<g id="Warstwa_2_1_">
		<g id="_11">
			<path class="st0" d="M83.8,69.3c1.2,2,0.9,3.7,0.9,5c-0.1,1.2-3.1,1.5-3.4,2.2c-0.3,0.8,0.2,1.7,1,2c0.7,0.1,4.5-2.1,4.9-2.7
				c0.4-0.5,0.9-5.3,0.1-7.2C86.1,65.4,82.2,66.8,83.8,69.3z"/>
			<path class="st0" d="M81.3,66.5c0.8,1.4,1.4,2.4,1.1,3.3s-3.2,0.9-3.6,1.4c-0.3,0.5-0.2,1.2,0.3,1.5c0.1,0,0.1,0.1,0.2,0.1
				c0.7,0.2,4.9-1.2,5.4-1.6s1.3-2.5,0.8-3.9C84.7,64.9,80.4,64.7,81.3,66.5z"/>
			<path class="st0" d="M82.6,67c0.9,2.3,1.6,3.8,1.1,5s-4,0.4-4.5,1c-0.5,0.8-0.2,1.8,0.6,2.2c0,0,0,0,0.1,0
				c0.8,0.3,5.8-0.6,6.4-0.9c0.7-0.4,1.7-2.9,1.4-5C87,65.7,81.4,63.9,82.6,67z"/>
			<path class="st1" d="M54.8,50.8c0,0,2.8,6.1,4,6.9s18.4,3.7,20.2,4.5l-1.6,6.4c0,0-17.9,1.8-22.2-0.5c-4.3-2.3-7.7-9.4-7.7-9.4
				L54.8,50.8z"/>
			<path class="st2" d="M57.8,65.2c-0.7-0.7-0.1-4.4,0.7-7.7c-1.3-1.3-3.8-6.7-3.8-6.7l-7.3,7.8c0,0,3.5,7,7.7,9.4
				c4.2,2.4,22.1,0.5,22.1,0.5l0.4-1.5C72.8,66.8,58.6,65.9,57.8,65.2z"/>
			<path class="st3" d="M44.9,34.4c8.6,5.9,13.7,19.8,13.7,19.8l-7.9,13.6C50.7,67.8,31.8,25.4,44.9,34.4z"/>
			<path class="st4" d="M48.6,61.9c-0.1-0.1-0.1-0.2-0.2-0.3c0.1,0.3,0.2,0.7,0.1,1c0.1,0.2,0.1,0.3,0.2,0.5
				C48.8,62.7,48.8,62.3,48.6,61.9z"/>
			<path class="st4" d="M50.4,59.9L50.4,59.9L50.4,59.9c0.3,0.6,0.1,1.5-0.5,2c-0.4,0.3-1,0.3-1.3-0.2c0,0,0,0,0-0.1l0,0
				c0.1,0.5,0.7,0.9,1.2,0.7c0.1,0,0.2-0.1,0.3-0.2c0.6-0.5,0.8-1.3,0.5-2C50.5,60.2,50.5,60.1,50.4,59.9
				C50.4,59.9,50.4,60,50.4,59.9z"/>
			<path class="st4" d="M52.2,58.1c0.3,0.7,0.1,1.5-0.5,2c-0.4,0.3-1,0.2-1.3-0.2l0,0l0,0l0,0c0,0.1,0.1,0.2,0.2,0.3
				c0.3,0.4,0.9,0.6,1.3,0.3c0,0,0,0,0.1,0c0.6-0.5,0.8-1.4,0.5-2.1C52.3,58.3,52.3,58.2,52.2,58.1z"/>
			<path class="st4" d="M55.1,54.3c0.2,0.7,0,1.5-0.7,2c-0.5,0.3-1,0.1-1.3-0.3l0,0c0,0,0,0,0,0.1c0.1,0.6,0.6,0.9,1.2,0.9
				c0.1,0,0.2-0.1,0.3-0.1c0.6-0.4,0.9-1.3,0.7-2C55.2,54.5,55.1,54.4,55.1,54.3z"/>
			<path class="st4" d="M57.2,53L57.2,53L57.2,53c0.2,0.7,0,1.5-0.7,1.9c-0.5,0.3-1.1,0.1-1.3-0.3c0,0,0,0,0-0.1l0,0
				c0.1,0.6,0.6,0.9,1.2,0.9c0.1,0,0.2-0.1,0.3-0.1c0.6-0.4,0.9-1.2,0.7-1.9C57.3,53.2,57.2,53.1,57.2,53L57.2,53z"/>
			<path class="st4" d="M57.2,53L57.2,53L57.2,53c0,0.2,0.1,0.3,0.1,0.4c0.2,0.4,0.7,0.6,1.1,0.5c0-0.1-0.1-0.3-0.2-0.4
				C57.9,53.6,57.4,53.4,57.2,53z"/>
			<path class="st4" d="M49.3,51.4c0.6-0.4,0.9-1.2,0.7-2c0-0.1-0.1-0.3-0.2-0.4c0.2,0.7-0.1,1.5-0.7,2c-0.5,0.3-1,0.1-1.3-0.3l0,0
				l0,0c0.1,0.6,0.6,1,1.1,0.9C49.1,51.5,49.2,51.5,49.3,51.4z"/>
			<path class="st4" d="M49.9,49.3c0.1,0.6,0.6,0.9,1.2,0.9c0.1,0,0.2-0.1,0.3-0.1c0.6-0.4,0.9-1.2,0.7-1.9C52,48.1,52,48,52,47.9
				c0,0,0,0,0-0.1l0,0v-0.1c0.2,0.7-0.1,1.5-0.7,2C50.8,49.9,50.2,49.8,49.9,49.3L49.9,49.3L49.9,49.3z"/>
			<path class="st4" d="M51.9,47.8c0,0.1,0.1,0.2,0.1,0.3c0.2,0.5,0.8,0.7,1.3,0.4c0,0,0,0,0.1,0c0.8-0.5,1-1.6,0.5-2.4
				c0.2,0.7-0.1,1.5-0.7,2C52.8,48.4,52.2,48.2,51.9,47.8L51.9,47.8L51.9,47.8L51.9,47.8z"/>
			<path class="st4" d="M47.5,56.5c-0.1-0.1-0.1-0.2-0.2-0.3c0.3,0.7,0.1,1.5-0.5,1.9h-0.1c0.1,0.1,0.1,0.3,0.2,0.4l0.2-0.1
				C47.6,58,47.8,57.2,47.5,56.5z"/>
			<path class="st4" d="M51,55c-0.5,0.3-1.1,0.2-1.4-0.3l0,0c0.2,0.6,0.8,0.9,1.4,0.7c0.1,0,0.2-0.1,0.2-0.1
				c0.6-0.5,0.8-1.2,0.5-1.9c-0.1-0.1-0.1-0.2-0.2-0.3C51.8,53.8,51.6,54.6,51,55z"/>
			<path class="st4" d="M53.8,52c-0.1-0.1-0.1-0.2-0.2-0.3l0,0l0,0c0,0,0,0,0-0.1c0.3,0.7,0.1,1.5-0.5,1.9c-0.5,0.3-1.1,0.2-1.4-0.3
				l0,0c0.2,0.6,0.8,0.9,1.4,0.7c0.1,0,0.2-0.1,0.2-0.1C53.9,53.5,54.1,52.7,53.8,52z"/>
			<path class="st4" d="M53.6,51.7c0,0.1,0.1,0.2,0.2,0.3c0.3,0.5,1,0.6,1.4,0.3c0.6-0.5,0.8-1.3,0.5-2c0,0-0.1-0.2-0.1-0.3
				c0.3,0.7,0.1,1.5-0.5,1.9C54.6,52.3,54,52.1,53.6,51.7L53.6,51.7L53.6,51.7z"/>
			<path class="st4" d="M44.1,42.7c0-0.1-0.1-0.3-0.2-0.4c0.2,0.7-0.1,1.5-0.7,2c-0.5,0.3-1,0.1-1.3-0.3l0,0l0,0
				c0.1,0.6,0.6,0.9,1.2,0.9c0.1,0,0.2-0.1,0.3-0.1C44,44.2,44.3,43.4,44.1,42.7z"/>
			<path class="st4" d="M45.6,43.3c0.6-0.4,0.9-1.2,0.7-1.9c-0.1-0.1-0.1-0.2-0.1-0.3c0,0,0,0,0-0.1l0,0v-0.1c0.2,0.7,0,1.5-0.7,2
				c-0.5,0.3-1,0.1-1.3-0.3l0,0c0,0,0,0,0,0.1c0.1,0.6,0.6,0.9,1.2,0.8C45.4,43.4,45.5,43.3,45.6,43.3z"/>
			<path class="st4" d="M46.1,41c0,0.1,0.1,0.2,0.1,0.3c0.2,0.5,0.8,0.7,1.3,0.4c0,0,0,0,0.1,0c0.6-0.4,0.9-1.3,0.7-2
				c0-0.1-0.1-0.3-0.2-0.4c0.2,0.7-0.1,1.5-0.7,2C46.9,41.6,46.3,41.5,46.1,41L46.1,41L46.1,41L46.1,41z"/>
			<path class="st4" d="M45.7,47c0.3,0.7,0.1,1.5-0.5,1.9c-0.5,0.3-1.1,0.2-1.4-0.3l0,0c0.2,0.6,0.8,0.9,1.4,0.7
				c0.1,0,0.2-0.1,0.2-0.1c0.6-0.5,0.8-1.3,0.5-2C45.8,47.2,45.7,47.1,45.7,47z"/>
			<path class="st4" d="M48,46c-0.1-0.1-0.1-0.2-0.2-0.3l0,0l0,0c0,0,0,0,0-0.1c0.3,0.7,0,1.4-0.6,1.9c-0.5,0.3-1.1,0.2-1.4-0.3l0,0
				c0.2,0.6,0.8,0.9,1.4,0.7c0.1,0,0.2-0.1,0.2-0.1C48,47.4,48.2,46.6,48,46z"/>
			<path class="st4" d="M47.8,45.7c0.1,0.1,0.1,0.2,0.2,0.3c0.3,0.5,1,0.6,1.4,0.3c0.6-0.5,0.8-1.3,0.5-2c-0.1-0.1-0.1-0.2-0.2-0.3
				c0.3,0.7,0.1,1.5-0.5,1.9C48.7,46.2,48.1,46.1,47.8,45.7L47.8,45.7C47.8,45.6,47.8,45.6,47.8,45.7z"/>
			<path class="st4" d="M51.5,43.4L51.5,43.4c0.2,0.6,0.8,1,1.4,0.8c0.1,0,0.2-0.1,0.2-0.1c0.1-0.1,0.2-0.1,0.2-0.2
				c-0.1-0.1-0.2-0.3-0.2-0.4c-0.1,0.1-0.1,0.1-0.2,0.2C52.4,43.9,51.8,43.8,51.5,43.4z"/>
			<path class="st4" d="M41,36.1c-0.1-0.1-0.1-0.2-0.1-0.3l0,0l0,0v-0.1c0.2,0.6,0,1.3-0.4,1.7c0,0.2,0,0.3,0.1,0.5
				C41,37.5,41.2,36.8,41,36.1z"/>
			<path class="st4" d="M40.8,35.8c0,0.1,0.1,0.2,0.1,0.3c0.2,0.5,0.8,0.7,1.3,0.5h0.1c0.6-0.5,0.9-1.3,0.7-2c0-0.1-0.1-0.3-0.2-0.4
				c0.2,0.7,0,1.5-0.7,2C41.7,36.4,41.1,36.2,40.8,35.8C40.8,35.7,40.8,35.7,40.8,35.8L40.8,35.8C40.8,35.7,40.8,35.8,40.8,35.8z"/>
			<path class="st4" d="M42.2,41.9c0.6-0.4,0.8-1.2,0.5-1.9c-0.1-0.1-0.1-0.2-0.2-0.3c0,0,0,0,0-0.1l0,0c0,0,0,0,0-0.1
				c0.3,0.7,0.1,1.5-0.5,1.9c-0.3,0.2-0.6,0.2-0.9,0.1l0.1,0.3C41.6,42.1,41.9,42.1,42.2,41.9z"/>
			<path class="st4" d="M42.5,39.7c0,0.1,0.1,0.2,0.2,0.3c0.3,0.5,0.9,0.6,1.4,0.3c0.6-0.5,0.8-1.3,0.5-2c-0.1-0.1-0.1-0.2-0.2-0.3
				c0.3,0.7,0.1,1.5-0.5,2C43.5,40.3,42.8,40.1,42.5,39.7L42.5,39.7L42.5,39.7z"/>
			<path class="st4" d="M46.7,36.8L46.7,36.8c0.2,0.6,0.8,1,1.4,0.8c0.1,0,0.2-0.1,0.2-0.1l0,0l-0.2-0.4
				C47.6,37.3,47,37.2,46.7,36.8z"/>
			<path class="st4" d="M44.6,38.6c2.3,10.2,6.1,29.2,6.1,29.2l3.7-6.4c-0.2-1.4-0.5-2.9-0.9-4.4C50.8,46.7,47.8,39,44.6,38.6z"/>
			<path class="st5" d="M38.9,7.2c0.7,1.1,0.7,3.5,1.5,4.5c1.7,2.3,3.6,4.5,5.7,6.5l-3,0.6l0.8,2.2c0,0-10.4,0.7-12.5-5.4
				s0.8-6.4,0.8-6.4L38.9,7.2z"/>
			<path class="st6" d="M32.4,10.8c4.1,8.8,4.9,9.4,10.9,7.9c0,0,2.6,8.3,5.9,9.8c-1.2,0.4-2.5,0.6-3.8,0.5c0.1,1.1,0.7,2,1.7,2.4
				c-2.2,0-4.4-0.5-6.4-1.5c0,0-0.8,1.1,0.9,2.4c0,0-5.6-0.3-10.1-5.9c-2.7-3.5-4.2-7.7-4.2-12.1L32.4,10.8z"/>
			<path class="st7" d="M33.7,13.6c-0.4-0.8-0.9-1.7-1.3-2.8l-5.3,3.5c0,4.4,1.5,8.6,4.2,12.1c4.5,5.6,10.1,5.9,10.1,5.9
				c-1.6-1.3-0.9-2.4-0.9-2.4c2,1,4.2,1.5,6.4,1.5c-0.1,0-0.1,0-0.2-0.1C40.5,29.8,37.6,21,33.7,13.6z"/>
			
				<ellipse transform="matrix(9.758553e-02 -0.9952 0.9952 9.758553e-02 -42.9846 174.9712)" class="st8" cx="75" cy="111.2" rx="39" ry="17"/>
			<path class="st9" d="M82,73.4c-1.3-0.8-2.9-1.2-4.4-1.1c-2.5,0.2-5,1.6-7.3,3.9C74.1,74.6,78,73.7,82,73.4z"/>
			<path class="st9" d="M84.6,119.1c-11.4,0-21.3-5.1-26.2-12.6c-0.3,1.9-0.4,3.8-0.6,5.7c-1.4,21.5,5.1,38.3,14.5,37.7
				c8.2-0.5,15.8-13.9,18.7-31.4C89,118.9,86.8,119.1,84.6,119.1z"/>
			<path class="st6" d="M89.5,110.2c1.2-21.1-4.9-37.7-13.6-37.1s-16.8,18.1-18,39.2s4.8,37.6,13.6,37.1S88.2,131.2,89.5,110.2z"/>
			
				<ellipse transform="matrix(8.384988e-02 -0.9965 0.9965 8.384988e-02 -43.1469 175.8997)" class="st10" cx="74.1" cy="111.4" rx="34.8" ry="14.3"/>
			<path class="st11" d="M76.1,76.7c-3.7,0.2-7.3,3.9-10.2,9.6c2-2.3,4.1-3.6,6.3-3.7c7.9-0.5,13.5,14.6,12.3,33.7
				c-0.6,10.2-3,19.5-6.2,26c5.2-5.9,9.2-18,10.1-31.9C89.5,91.3,84,76.2,76.1,76.7z"/>
			<path class="st11" d="M75,99.9c-4.5,2.3-7.1,4.8-8.9,13l2.6,2.4c1.5-7.1,3.6-10.5,7.9-13.1L75,99.9z"/>
			<path class="st11" d="M79.9,104.8c-4.5,2.3-7.1,4.8-8.9,13l2.6,2.4c1.5-7.1,3.6-10.5,7.9-13.1L79.9,104.8z"/>
			<polygon class="st12" points="53.1,66.2 25.4,72.8 25.4,78.2 54.8,71.6 			"/>
			<path class="st13" d="M24.5,89.3c0,0-3.7,22.8-3.2,27.8s-1.1,31.6-1.1,31.6h1.1c2.7-11.7,10.2-29.9,11.1-32.9
				c0.9-3,4.1-23.9,4.1-23.9L24.5,89.3z"/>
			<path class="st14" d="M20.6,148.7l4-25.5l6.2-3.2c0.8-2,1.3-3.5,1.5-4.2c0.9-3,4.1-23.9,4.1-23.9l-12-2.7c0,0-3.7,22.8-3.2,27.8
				c0.5,4.9-1.1,31.6-1.1,31.6L20.6,148.7z"/>
			<path class="st13" d="M44.1,87.8c0,0,8.2,24.1,10,28.7c1.8,4.7,7,30.9,7,30.9l1-0.3c-0.4-12,3.5-33.9,3.6-37.1
				c0.1-3.1-8.5-26.5-8.5-26.5L44.1,87.8z"/>
			<path class="st14" d="M58,111.5l7.2-4.2c-1.8-7.1-8-23.8-8-23.8l-13.1,4.2c0,0,8.2,24.1,10,28.7c1.8,4.7,7,30.9,7,30.9l0.6-0.1
				L58,111.5z"/>
			<polygon class="st1" points="20.2,120.5 21.4,104.4 61.6,91.4 65.4,103.2 			"/>
			<polygon class="st2" points="23.4,116 64.7,101.1 61.6,91.4 21.4,104.4 20.2,120.5 22.7,119.6 			"/>
			<path class="st3" d="M20.1,114.6c6.9-2.8,45.6-15.9,45.6-15.9s-9.7-26.5-11-28.5c-1.3-2-28.1,4.6-29.9,7S20.1,114.6,20.1,114.6z"
				/>
			<path class="st4" d="M27,110.3c0-16.2,2.6-35.3,15.8-37.5c8.7-1.5,18.7,12.2,21.4,26.4l1.5-0.5c0,0-9.7-26.5-11-28.5
				c-1.3-2-28.1,4.6-29.9,7S20,114.5,20,114.5c1.3-0.5,3.8-1.5,6.9-2.6C27,111.4,27,110.9,27,110.3z"/>
			<path class="st4" d="M36.7,104.9c-0.5,0.2-1.1-0.2-1.3-0.7c0,0,0,0,0-0.1v0.1c0,0.9,0.6,1.4,1.3,1.2c0.8-0.3,1.3-1,1.3-1.9
				c0-0.1,0-0.3-0.1-0.4C38,103.9,37.5,104.6,36.7,104.9z"/>
			<path class="st4" d="M39.3,104c-0.5,0.2-1.1-0.2-1.3-0.7c0,0,0,0,0-0.1v0.1c0,0.9,0.6,1.4,1.3,1.2c0.8-0.3,1.3-1,1.3-1.9
				c0-0.1,0-0.3-0.1-0.4C40.6,103,40.1,103.8,39.3,104z"/>
			<path class="st4" d="M41.9,103c-0.5,0.2-1.1-0.2-1.3-0.7c0,0,0,0,0-0.1v0.1c0,0.9,0.6,1.4,1.3,1.2c0.8-0.3,1.3-1,1.3-1.9
				c0-0.1,0-0.3-0.1-0.4C43.2,102,42.7,102.7,41.9,103z"/>
			<path class="st4" d="M46.1,100.2c-0.6,0.1-1.1-0.3-1.2-0.9c0,0,0,0,0-0.1c0,0,0,0,0,0.1c-0.1,0.9,0.5,1.5,1.2,1.4
				c0.8-0.2,1.4-0.9,1.5-1.7c0-0.1,0-0.3,0-0.4C47.6,99.3,47,100,46.1,100.2z"/>
			<path class="st4" d="M48.8,99.7c-0.6,0.1-1.1-0.3-1.2-0.9l0,0c0,0,0,0,0,0.1c-0.1,0.9,0.5,1.5,1.2,1.3c0.8-0.2,1.4-0.9,1.5-1.7
				c0-0.1,0-0.3,0-0.4C50.2,98.8,49.6,99.5,48.8,99.7z"/>
			<path class="st4" d="M51.4,99c-0.6,0.1-1.1-0.3-1.2-0.9l0,0c0,0,0,0,0,0.1c-0.1,0.9,0.5,1.5,1.2,1.3c0.8-0.2,1.4-0.9,1.5-1.7
				c0-0.1,0-0.3,0-0.4C52.9,98.1,52.3,98.8,51.4,99z"/>
			<path class="st4" d="M56.2,98.5c-0.6,0.1-1.1-0.3-1.2-0.9v-0.1c0,0,0,0,0,0.1c-0.1,0.9,0.5,1.5,1.2,1.4c0.8-0.2,1.4-0.9,1.5-1.7
				c0-0.1,0-0.3,0-0.4C57.6,97.6,57,98.3,56.2,98.5z"/>
			<path class="st4" d="M58.9,97.9c-0.6,0.1-1.1-0.3-1.2-0.9c0,0,0,0,0-0.1l0,0c-0.1,0.9,0.5,1.5,1.2,1.4c0.8-0.2,1.4-0.9,1.5-1.7
				c0-0.1,0-0.3,0-0.4C60.3,97.1,59.7,97.8,58.9,97.9z"/>
			<path class="st4" d="M61.5,97.2c-0.6,0.1-1.1-0.3-1.1-0.9l0,0c0,0,0,0,0,0.1c-0.1,0.9,0.5,1.5,1.2,1.3c0.8-0.2,1.4-0.9,1.5-1.7
				c0-0.1,0-0.3,0-0.4C62.9,96.4,62.3,97.1,61.5,97.2z"/>
			<path class="st4" d="M27.1,109.7c-0.6,0.1-1.2-0.3-1.3-0.9c0,0,0,0,0,0.1c-0.1,0.7,0.4,1.2,1.1,1.3c0.1,0,0.2,0,0.3,0
				c0.8-0.2,1.3-0.9,1.3-1.7c0-0.1,0-0.3-0.1-0.4C28.4,108.8,27.9,109.5,27.1,109.7z"/>
			<path class="st4" d="M29.8,109c-0.6,0.1-1.2-0.3-1.3-0.9v0.1c-0.1,0.7,0.4,1.2,1.1,1.3c0.1,0,0.2,0,0.3,0
				c0.8-0.2,1.3-0.9,1.3-1.7c0-0.1,0-0.3-0.1-0.4C31.1,108.1,30.5,108.8,29.8,109z"/>
			<path class="st4" d="M32.4,108.2c-0.6,0.1-1.2-0.3-1.3-0.9c0,0,0,0,0,0.1c-0.1,0.7,0.4,1.3,1.1,1.3c0.1,0,0.2,0,0.3,0
				c0.8-0.2,1.3-0.9,1.3-1.7c0-0.1,0-0.3-0.1-0.4C33.7,107.4,33.1,108.1,32.4,108.2z"/>
			<path class="st4" d="M24.4,105.8c-0.6,0.1-1.2-0.3-1.3-0.9l0,0c-0.1,0.7,0.4,1.2,1.1,1.3c0.1,0,0.2,0,0.3,0
				c0.8-0.2,1.3-0.9,1.3-1.7c0-0.1,0-0.3-0.1-0.4C25.7,104.9,25.2,105.6,24.4,105.8z"/>
			<path class="st4" d="M27,105.2c-0.6,0.1-1.2-0.3-1.3-0.9v0.1c-0.1,0.7,0.4,1.2,1.1,1.3c0.1,0,0.2,0,0.3,0
				c0.8-0.2,1.3-0.9,1.3-1.7c0-0.1,0-0.3-0.1-0.4C28.3,104.3,27.8,105,27,105.2z"/>
			<path class="st4" d="M29.6,104.4c-0.6,0.1-1.2-0.3-1.3-0.9c0,0,0,0,0,0.1c-0.1,0.7,0.4,1.2,1.1,1.3c0.1,0,0.2,0,0.3,0
				c0.8-0.2,1.3-0.9,1.3-1.7c0-0.1,0-0.3-0.1-0.4C31,103.5,30.4,104.2,29.6,104.4z"/>
			<path class="st4" d="M29.7,96.9c-0.6,0.1-1.1-0.2-1.2-0.8c0,0,0,0,0-0.1v0.1c0,0.9,0.5,1.4,1.3,1.3c0.8-0.2,1.4-1,1.4-1.8
				c0-0.1,0-0.3,0-0.4C31.1,96,30.5,96.7,29.7,96.9z"/>
			<path class="st4" d="M32.4,96.2c-0.6,0.1-1.1-0.2-1.2-0.8c0,0,0,0,0-0.1v0.1c0,0.9,0.5,1.4,1.3,1.3c0.8-0.2,1.4-1,1.4-1.8
				c0-0.1,0-0.3,0-0.4C33.8,95.3,33.2,96,32.4,96.2z"/>
			<path class="st4" d="M35,95.3c-0.6,0.1-1.1-0.2-1.2-0.8c0,0,0,0,0-0.1v0.1c0,0.9,0.5,1.4,1.3,1.3c0.8-0.2,1.4-1,1.4-1.8
				c0-0.1,0-0.3,0-0.4C36.3,94.4,35.8,95.1,35,95.3z"/>
			<path class="st4" d="M43,92.8c-0.6,0.1-1.1-0.3-1.2-0.9c0,0,0,0,0-0.1c0,0,0,0,0,0.1c-0.1,0.9,0.5,1.5,1.2,1.4
				c0.8-0.2,1.4-0.9,1.5-1.7c0-0.1,0-0.3,0-0.4C44.4,92,43.8,92.7,43,92.8z"/>
			<path class="st4" d="M45.7,92.3c-0.6,0.1-1.1-0.3-1.2-0.9l0,0c0,0,0,0,0,0.1c-0.1,0.9,0.5,1.5,1.2,1.3c0.8-0.2,1.4-0.9,1.5-1.7
				c0-0.1,0-0.3,0-0.4C47.1,91.4,46.5,92.1,45.7,92.3z"/>
			<path class="st4" d="M48.3,91.6c-0.6,0.1-1.1-0.3-1.2-0.9l0,0c0,0,0,0,0,0.1c-0.1,0.9,0.5,1.5,1.2,1.3c0.8-0.2,1.4-0.9,1.5-1.7
				c0-0.1,0-0.3,0-0.4C49.7,90.7,49.1,91.4,48.3,91.6z"/>
			<path class="st4" d="M53.4,90.1c-0.6,0.1-1.1-0.3-1.2-0.9c0,0,0,0,0-0.1c0,0,0,0,0,0.1c-0.1,0.9,0.5,1.5,1.2,1.4
				c0.8-0.2,1.4-0.9,1.5-1.7c0-0.1,0-0.3,0-0.4C54.8,89.2,54.2,89.9,53.4,90.1z"/>
			<path class="st4" d="M56.1,89.5c-0.6,0.1-1.1-0.3-1.2-0.9c0,0,0,0,0-0.1c0,0,0,0,0,0.1c-0.1,0.9,0.5,1.5,1.2,1.4
				c0.8-0.2,1.4-0.9,1.5-1.7c0-0.1,0-0.3,0-0.4C57.5,88.7,56.9,89.4,56.1,89.5z"/>
			<path class="st4" d="M58.7,88.8c-0.6,0.1-1.1-0.3-1.2-0.9l0,0c0,0,0,0,0,0.1c-0.1,0.9,0.5,1.5,1.2,1.3c0.8-0.2,1.4-0.9,1.5-1.7
				c0-0.1,0-0.3,0-0.4C60.2,88,59.5,88.7,58.7,88.8z"/>
			<path class="st4" d="M32.5,100.4c-0.6,0.1-1.2-0.3-1.3-0.9c0,0,0,0,0,0.1c-0.1,0.7,0.4,1.2,1.1,1.3c0.1,0,0.2,0,0.3,0
				c0.8-0.2,1.3-0.9,1.3-1.7c0-0.1,0-0.3-0.1-0.4C33.9,99.6,33.3,100.3,32.5,100.4z"/>
			<path class="st4" d="M35.2,99.8c-0.6,0.1-1.2-0.3-1.3-0.9V99c-0.1,0.7,0.4,1.2,1.1,1.3c0.1,0,0.2,0,0.3,0
				c0.8-0.2,1.3-0.9,1.3-1.7c0-0.1,0-0.3-0.1-0.4C36.5,98.9,36,99.6,35.2,99.8z"/>
			<path class="st4" d="M37.8,99c-0.6,0.1-1.2-0.3-1.3-0.9l0,0c-0.1,0.7,0.4,1.2,1.1,1.3c0.1,0,0.2,0,0.3,0c0.8-0.2,1.3-0.9,1.3-1.7
				c0-0.1,0-0.3-0.1-0.4C39.1,98.1,38.6,98.8,37.8,99z"/>
			<path class="st4" d="M43.3,97.6c-0.6,0.1-1.2-0.3-1.3-0.9c0,0,0,0,0,0.1c-0.1,0.7,0.4,1.2,1.1,1.3c0.1,0,0.2,0,0.3,0
				c0.8-0.2,1.3-0.9,1.3-1.7c0-0.1,0-0.3-0.1-0.4C44.6,96.7,44,97.4,43.3,97.6z"/>
			<path class="st4" d="M45.9,97c-0.6,0.1-1.2-0.3-1.3-0.9v0.1c-0.1,0.7,0.4,1.2,1.1,1.3c0.1,0,0.2,0,0.3,0c0.8-0.2,1.3-0.9,1.3-1.7
				c0-0.1,0-0.3-0.1-0.4C47.2,96.1,46.7,96.8,45.9,97z"/>
			<path class="st4" d="M48.5,96.2c-0.6,0.1-1.2-0.3-1.3-0.9c0,0,0,0,0,0.1c-0.1,0.6,0.4,1.2,1,1.3c0.1,0,0.2,0,0.3,0
				c0.8-0.2,1.3-0.9,1.3-1.7c0-0.1,0-0.3-0.1-0.4C49.8,95.3,49.3,96,48.5,96.2z"/>
			<path class="st4" d="M53.9,94.9c-0.6,0.1-1.2-0.3-1.3-0.9c0,0,0,0,0,0.1c-0.1,0.7,0.4,1.2,1.1,1.3c0.1,0,0.2,0,0.3,0
				c0.8-0.2,1.3-0.9,1.3-1.7c0-0.1,0-0.3-0.1-0.4C55.2,94.1,54.7,94.8,53.9,94.9z"/>
			<path class="st4" d="M56.6,94.3c-0.6,0.1-1.2-0.3-1.3-0.9v0.1c-0.1,0.6,0.4,1.2,1.1,1.3c0.1,0,0.2,0,0.3,0
				c0.8-0.2,1.3-0.9,1.3-1.7c0-0.1,0-0.3-0.1-0.4C57.9,93.4,57.3,94.1,56.6,94.3z"/>
			<path class="st4" d="M59.2,93.5c-0.6,0.1-1.2-0.3-1.3-0.9v0.1c-0.1,0.7,0.4,1.2,1.1,1.3c0.1,0,0.2,0,0.3,0
				c0.8-0.2,1.3-0.9,1.3-1.7c0-0.1,0-0.3-0.1-0.4C60.5,92.6,59.9,93.3,59.2,93.5z"/>
			<path class="st4" d="M30.2,87.7c-0.5,0.2-1.1-0.2-1.3-0.7c0,0,0,0,0-0.1V87c0,0.9,0.6,1.4,1.3,1.2c0.8-0.3,1.3-1,1.3-1.8
				c0-0.1,0-0.3-0.1-0.4C31.5,86.7,31,87.4,30.2,87.7z"/>
			<path class="st4" d="M32.8,86.8c-0.5,0.2-1.1-0.2-1.3-0.7c0,0,0,0,0-0.1v0.1c0,0.9,0.6,1.4,1.3,1.2c0.8-0.3,1.3-1,1.3-1.9
				c0-0.1,0-0.3-0.1-0.4C34.1,85.8,33.6,86.6,32.8,86.8z"/>
			<path class="st4" d="M35.4,85.8c-0.5,0.2-1.1-0.2-1.3-0.7c0,0,0,0,0-0.1v0.1c0,0.9,0.6,1.4,1.3,1.2c0.8-0.3,1.3-1,1.3-1.9
				c0-0.1,0-0.3-0.1-0.4C36.7,84.8,36.2,85.5,35.4,85.8z"/>
			<path class="st4" d="M39.9,83.7c-0.6,0.1-1.1-0.3-1.2-0.8c0,0,0,0,0-0.1c0,0,0,0,0,0.1c-0.1,0.9,0.5,1.5,1.2,1.3
				c0.8-0.2,1.4-0.9,1.5-1.7c0-0.1,0-0.3,0-0.4C41.3,82.9,40.7,83.5,39.9,83.7z"/>
			<path class="st4" d="M42.6,83.2c-0.6,0.1-1.1-0.3-1.2-0.8v-0.1c0,0,0,0,0,0.1c-0.1,0.9,0.5,1.5,1.2,1.4c0.8-0.2,1.4-0.9,1.5-1.7
				c0-0.1,0-0.3,0-0.4C43.9,82.3,43.3,83,42.6,83.2z"/>
			<path class="st4" d="M45.2,82.5c-0.6,0.1-1.1-0.3-1.2-0.9c0,0,0,0,0-0.1c0,0,0,0,0,0.1c-0.1,0.9,0.5,1.5,1.2,1.4
				c0.8-0.2,1.4-0.9,1.5-1.7c0-0.1,0-0.3,0-0.4C46.6,81.6,46,82.3,45.2,82.5z"/>
			<path class="st4" d="M49.9,82c-0.6,0.1-1.1-0.3-1.2-0.9l0,0c0,0,0,0,0,0.1c-0.1,0.9,0.5,1.5,1.2,1.3c0.8-0.2,1.4-0.9,1.5-1.7
				c0-0.1,0-0.3,0-0.4C51.3,81.2,50.7,81.8,49.9,82z"/>
			<path class="st4" d="M52.6,81.5c-0.6,0.1-1.1-0.3-1.2-0.9c0,0,0,0,0-0.1c0,0,0,0,0,0.1c-0.1,0.9,0.5,1.5,1.2,1.4
				c0.8-0.2,1.4-0.9,1.5-1.7c0-0.1,0-0.3,0-0.4C54,80.6,53.4,81.3,52.6,81.5z"/>
			<path class="st4" d="M55.2,80.8c-0.6,0.1-1.1-0.3-1.2-0.9c0,0,0,0,0-0.1c0,0,0,0,0,0.1c-0.1,0.9,0.5,1.5,1.2,1.4
				c0.8-0.2,1.4-0.9,1.5-1.7c0-0.1,0-0.3,0-0.4C56.6,79.9,56,80.6,55.2,80.8z"/>
			<path class="st4" d="M29.8,92c-0.6,0.1-1.2-0.3-1.3-0.9v0.1c-0.1,0.7,0.4,1.2,1.1,1.3c0.1,0,0.2,0,0.3,0c0.8-0.2,1.3-0.9,1.3-1.7
				c0-0.1,0-0.3-0.1-0.4C31.1,91.1,30.6,91.8,29.8,92z"/>
			<path class="st4" d="M32.4,91.3c-0.6,0.1-1.2-0.3-1.3-0.9c0,0,0,0,0,0.1c-0.1,0.7,0.4,1.2,1.1,1.3c0.1,0,0.2,0,0.3,0
				c0.8-0.2,1.3-0.9,1.3-1.7c0-0.1,0-0.3-0.1-0.4C33.7,90.4,33.2,91.1,32.4,91.3z"/>
			<path class="st4" d="M35,90.5c-0.6,0.1-1.2-0.3-1.3-0.9l0,0c-0.1,0.7,0.4,1.2,1.1,1.3c0.1,0,0.2,0,0.3,0c0.8-0.2,1.3-0.9,1.3-1.7
				c0-0.1,0-0.3-0.1-0.4C36.4,89.6,35.8,90.3,35,90.5z"/>
			<path class="st4" d="M39.9,89.2c-0.6,0.1-1.2-0.3-1.3-0.9c0,0,0,0,0,0.1c-0.1,0.7,0.4,1.2,1.1,1.3c0.1,0,0.2,0,0.3,0
				c0.8-0.2,1.3-0.9,1.3-1.7c0-0.1,0-0.3-0.1-0.4C41.2,88.3,40.6,89,39.9,89.2z"/>
			<path class="st4" d="M42.5,88.5c-0.6,0.1-1.2-0.3-1.3-0.9v0.1c-0.1,0.7,0.4,1.2,1.1,1.3c0.1,0,0.2,0,0.3,0
				c0.8-0.2,1.3-0.9,1.3-1.7c0-0.1,0-0.3-0.1-0.4C43.8,87.6,43.3,88.3,42.5,88.5z"/>
			<path class="st4" d="M45.1,87.7c-0.6,0.1-1.2-0.3-1.3-0.9c0,0,0,0,0,0.1c-0.1,0.7,0.4,1.2,1.1,1.3c0.1,0,0.2,0,0.3,0
				c0.8-0.2,1.3-0.9,1.3-1.7c0-0.1,0-0.3-0.1-0.4C46.4,86.8,45.9,87.5,45.1,87.7z"/>
			<path class="st4" d="M49.7,87c-0.5,0.1-1.1-0.3-1.2-0.9c0,0,0,0,0,0.1c-0.1,0.7,0.4,1.2,1.1,1.3c0.1,0,0.2,0,0.3,0
				c0.8-0.2,1.3-0.9,1.3-1.7c0-0.1,0-0.3-0.1-0.4C51.1,86.1,50.5,86.8,49.7,87z"/>
			<path class="st4" d="M52.4,86.3c-0.6,0.1-1.2-0.3-1.3-0.9v0.1c-0.1,0.7,0.4,1.2,1.1,1.3c0.1,0,0.2,0,0.3,0
				c0.8-0.2,1.3-0.9,1.3-1.7c0-0.1,0-0.3-0.1-0.4C53.7,85.4,53.2,86.1,52.4,86.3z"/>
			<path class="st4" d="M55,85.5c-0.6,0.1-1.2-0.3-1.3-0.9c0,0,0,0,0,0.1c-0.1,0.7,0.4,1.2,1.1,1.3c0.1,0,0.2,0,0.3,0
				c0.8-0.2,1.3-0.9,1.3-1.7c0-0.1,0-0.3-0.1-0.4C56.3,84.6,55.8,85.3,55,85.5z"/>
			<path class="st4" d="M27,79.3c-0.6,0.1-1.1-0.2-1.2-0.8c0,0,0,0,0-0.1c0,0,0,0,0,0.1c0,0.9,0.5,1.4,1.3,1.3
				c0.8-0.2,1.4-1,1.4-1.8c0-0.1,0-0.3-0.1-0.4C28.4,78.3,27.8,79.1,27,79.3z"/>
			<path class="st4" d="M29.7,78.6c-0.6,0.1-1.1-0.2-1.2-0.8c0,0,0,0,0-0.1c0,0,0,0,0,0.1c0,0.9,0.5,1.4,1.3,1.3
				c0.8-0.2,1.4-1,1.4-1.8c0-0.1,0-0.3,0-0.4C31.1,77.7,30.5,78.4,29.7,78.6z"/>
			<path class="st4" d="M32.3,77.7c-0.6,0.1-1.1-0.2-1.2-0.8c0,0,0,0,0-0.1c0,0,0,0,0,0.1c0,0.9,0.5,1.4,1.3,1.3
				c0.8-0.2,1.4-1,1.4-1.8c0-0.1,0-0.3,0-0.4C33.7,76.8,33.1,77.5,32.3,77.7z"/>
			<path class="st4" d="M36.7,76.4c-0.6,0.1-1.1-0.3-1.2-0.9l0,0c0,0,0,0,0,0.1c-0.1,0.9,0.5,1.5,1.2,1.3c0.8-0.2,1.4-0.9,1.5-1.7
				c0-0.1,0-0.3,0-0.4C38.1,75.5,37.5,76.2,36.7,76.4z"/>
			<path class="st4" d="M39.4,75.8c-0.6,0.1-1.1-0.3-1.2-0.9c0,0,0,0,0-0.1c0,0,0,0,0,0.1c-0.1,0.9,0.5,1.5,1.2,1.4
				c0.8-0.2,1.4-0.9,1.5-1.7c0-0.1,0-0.3,0-0.4C40.8,75,40.2,75.6,39.4,75.8z"/>
			<path class="st4" d="M42,75.1c-0.6,0.1-1.1-0.3-1.2-0.9l0,0c0,0,0,0,0,0.1c-0.1,0.9,0.5,1.5,1.2,1.4c0.8-0.2,1.4-0.9,1.5-1.7
				c0-0.1,0-0.3,0-0.4C43.4,74.3,42.8,75,42,75.1z"/>
			<path class="st4" d="M47.2,73.6c-0.6,0.1-1.1-0.3-1.2-0.9l0,0c0,0,0,0,0,0.1c-0.1,0.9,0.5,1.5,1.2,1.3c0.8-0.2,1.4-0.9,1.5-1.7
				c0-0.1,0-0.3,0-0.4C48.6,72.7,48,73.4,47.2,73.6z"/>
			<path class="st4" d="M49.9,73.1c-0.6,0.1-1.1-0.3-1.2-0.9c0,0,0,0,0-0.1c0,0,0,0,0,0.1c-0.1,0.9,0.5,1.5,1.2,1.4
				c0.8-0.2,1.4-0.9,1.5-1.7c0-0.1,0-0.3,0-0.4C51.3,72.2,50.7,72.9,49.9,73.1z"/>
			<path class="st4" d="M52.5,72.4c-0.6,0.1-1.1-0.3-1.2-0.9c0,0,0,0,0-0.1c0,0,0,0,0,0.1c-0.1,0.9,0.5,1.5,1.2,1.4
				c0.8-0.2,1.4-0.9,1.5-1.7c0-0.1,0-0.3,0-0.4C53.9,71.5,53.3,72.2,52.5,72.4z"/>
			<path class="st4" d="M26.3,84c-0.6,0.1-1.2-0.3-1.3-0.9l0,0c-0.1,0.6,0.4,1.2,1.1,1.3c0.1,0,0.2,0,0.3,0c0.8-0.2,1.3-0.9,1.3-1.7
				c0-0.1,0-0.3-0.1-0.4C27.6,83.1,27.1,83.8,26.3,84z"/>
			<path class="st4" d="M28.9,83.3c-0.6,0.1-1.2-0.3-1.3-0.9c0,0,0,0,0,0.1c-0.1,0.7,0.4,1.2,1.1,1.3c0.1,0,0.2,0,0.3,0
				c0.8-0.2,1.3-0.9,1.3-1.7c0-0.1,0-0.3-0.1-0.4C30.3,82.4,29.7,83.1,28.9,83.3z"/>
			<path class="st4" d="M31.6,82.5c-0.6,0.1-1.2-0.3-1.3-0.9v0.1c-0.1,0.6,0.4,1.2,1.1,1.3c0.1,0,0.2,0,0.3,0
				c0.8-0.2,1.3-0.9,1.3-1.7c0-0.1,0-0.3-0.1-0.4C32.9,81.6,32.3,82.3,31.6,82.5z"/>
			<path class="st4" d="M37,81.1c-0.6,0.1-1.2-0.3-1.3-0.9v0.1c-0.1,0.7,0.4,1.2,1.1,1.3c0.1,0,0.1,0,0.2,0c0.8-0.2,1.3-0.9,1.3-1.7
				c0-0.1,0-0.3-0.1-0.4C38.3,80.2,37.8,80.9,37,81.1z"/>
			<path class="st4" d="M39.6,80.5c-0.6,0.1-1.2-0.3-1.3-0.9c0,0,0,0,0,0.1c0,0.7,0.4,1.2,1.1,1.3c0.1,0,0.2,0,0.3,0
				c0.8-0.2,1.3-0.9,1.3-1.7c0-0.1,0-0.3-0.1-0.4C40.9,79.6,40.4,80.3,39.6,80.5z"/>
			<path class="st4" d="M42.3,79.7c-0.6,0.1-1.2-0.3-1.3-0.9v0.1c-0.1,0.6,0.4,1.2,1.1,1.3c0.1,0,0.2,0,0.3,0
				c0.8-0.2,1.3-0.9,1.3-1.7c0-0.1,0-0.3-0.1-0.4C43.6,78.8,43,79.5,42.3,79.7z"/>
			<path class="st4" d="M47.7,78.5c-0.6,0.1-1.2-0.3-1.3-0.9v0.1c-0.1,0.6,0.4,1.2,1.1,1.3c0.1,0,0.2,0,0.3,0
				c0.8-0.2,1.3-0.9,1.3-1.7c0-0.1,0-0.3-0.1-0.4C49,77.6,48.4,78.3,47.7,78.5z"/>
			<path class="st4" d="M50.3,77.8c-0.6,0.1-1.2-0.3-1.3-0.9V77c-0.1,0.7,0.4,1.2,1.1,1.3c0.1,0,0.2,0,0.3,0
				c0.8-0.2,1.3-0.9,1.3-1.7c0-0.1,0-0.3-0.1-0.4C51.6,76.9,51.1,77.6,50.3,77.8z"/>
			<path class="st4" d="M52.9,77c-0.6,0.1-1.2-0.3-1.3-0.9c0,0,0,0,0,0.1c-0.1,0.7,0.4,1.2,1.1,1.3c0.1,0,0.2,0,0.3,0
				c0.8-0.2,1.3-0.9,1.3-1.7c0-0.1,0-0.3-0.1-0.4C54.2,76.1,53.7,76.8,52.9,77z"/>
			<path class="st3" d="M16.5,39.8c-1.6,7.6,6.9,31.8,8.9,33s19.5-5.3,28.2-5.2c1.6,0-4.6-30.1-8-31.6S19.3,26.6,16.5,39.8z"/>
			<path class="st4" d="M30,69.4c-0.1,0.8-0.7,1.4-1.5,1.6c-0.5,0.1-1-0.3-1.1-0.8l0,0c0,0,0,0,0,0.1c-0.1,0.8,0.4,1.4,1.1,1.3
				c0.8-0.2,1.4-0.8,1.5-1.6C30,69.7,30,69.6,30,69.4z"/>
			<path class="st4" d="M32.6,69L32.6,69L32.6,69c-0.1,0.7-0.7,1.3-1.5,1.5c-0.5,0.1-1-0.3-1.1-0.8l0,0c0,0,0,0,0,0.1
				c-0.1,0.6,0.2,1.1,0.8,1.3c0.1,0,0.2,0,0.4,0c0.8-0.2,1.3-0.8,1.4-1.5C32.5,69.3,32.5,69.2,32.6,69z"/>
			<path class="st4" d="M33.7,69.9c-0.5,0.1-1-0.3-1.1-0.8c0,0,0,0,0-0.1l0,0c0,0,0,0,0,0.1s0,0.3,0,0.4c0.1,0.5,0.5,0.9,1.1,0.9
				c0,0,0,0,0.1,0c0.8-0.2,1.4-0.8,1.5-1.6c0-0.1,0-0.3,0-0.4C35.1,69.1,34.5,69.7,33.7,69.9z"/>
			<path class="st4" d="M39.6,66.4c-0.2,0.8-0.8,1.3-1.6,1.4c-0.5,0-1-0.4-1-1c0,0,0,0,0-0.1c0,0,0,0,0,0.1c-0.2,0.8,0.3,1.4,1,1.4
				c0.8-0.1,1.5-0.7,1.6-1.5C39.6,66.6,39.6,66.5,39.6,66.4z"/>
			<path class="st4" d="M42.2,66.3L42.2,66.3L42.2,66.3C42.2,66.2,42.2,66.2,42.2,66.3c-0.2,0.7-0.8,1.2-1.6,1.3c-0.5,0-1-0.4-1-1
				l0,0c0,0,0,0,0,0.1c-0.2,0.8,0.3,1.4,1,1.4c0.8-0.1,1.4-0.6,1.6-1.4C42.2,66.6,42.2,66.4,42.2,66.3z"/>
			<path class="st4" d="M43.2,67.3c-0.5,0-1-0.4-1-1c0,0,0,0,0-0.1l0,0c0,0,0,0,0,0.1s0,0.3,0,0.4c0,0.6,0.4,1,0.9,1.1
				c0,0,0,0,0.1,0c0.8-0.1,1.4-0.7,1.6-1.5c0-0.1,0-0.3,0-0.4C44.7,66.7,44,67.3,43.2,67.3z"/>
			<path class="st4" d="M49.3,66c-0.2,0.8-0.8,1.3-1.6,1.4c-0.5,0-1-0.4-1-1l0,0l0,0c-0.2,0.8,0.3,1.4,1,1.4
				c0.8-0.1,1.4-0.7,1.6-1.5C49.3,66.3,49.3,66.2,49.3,66z"/>
			<path class="st4" d="M51.9,66L51.9,66L51.9,66L51.9,66c-0.2,0.7-0.8,1.2-1.6,1.3c-0.5,0-1-0.4-1-1l0,0l0,0
				c-0.2,0.8,0.3,1.4,1,1.4c0.8-0.1,1.4-0.6,1.6-1.4C51.9,66.2,51.9,66.1,51.9,66z"/>
			<path class="st4" d="M51.9,65.9L51.9,65.9L51.9,65.9c0,0.2,0,0.3,0,0.4c0,0.5,0.4,1,0.9,1c0,0,0,0,0.1,0c0.4,0,0.7-0.2,1-0.4
				c0-0.1,0-0.3,0-0.4c-0.3,0.2-0.6,0.4-0.9,0.4C52.5,66.9,52,66.5,51.9,65.9C51.9,66,51.9,66,51.9,65.9z"/>
			<path class="st4" d="M25.4,72.2c0,0.2-0.1,0.4-0.2,0.6l0.1,0.1l0,0c0-0.1,0-0.2,0.1-0.3C25.5,72.4,25.5,72.3,25.4,72.2z"/>
			<path class="st4" d="M23.3,68.2c0,0.2-0.1,0.4-0.2,0.6l0.1,0.3c0.1-0.1,0.1-0.3,0.1-0.4C23.4,68.5,23.4,68.3,23.3,68.2z"/>
			<path class="st4" d="M24.5,61.1c-0.1,0.8-0.7,1.4-1.5,1.5c-0.5,0-1-0.4-1.1-0.9l0,0l0,0c-0.1,0.8,0.3,1.4,1.1,1.4
				c0.8-0.1,1.4-0.7,1.5-1.5C24.5,61.3,24.5,61.2,24.5,61.1z"/>
			<path class="st4" d="M25.5,62.7c0.8-0.1,1.4-0.7,1.5-1.4c0-0.1,0-0.3,0-0.4c0,0,0,0,0-0.1l0,0v-0.1c-0.1,0.8-0.7,1.4-1.5,1.5
				c-0.5,0-1-0.4-1-0.9l0,0c0,0,0,0,0,0.1c-0.2,0.5,0.1,1.1,0.7,1.3C25.3,62.7,25.4,62.7,25.5,62.7z"/>
			<path class="st4" d="M27,60.9c0,0.1,0,0.3,0,0.4c0,0.5,0.4,1,1,1c0,0,0,0,0.1,0c0.8-0.1,1.4-0.7,1.5-1.5c0-0.1,0-0.3,0-0.4
				c-0.1,0.8-0.7,1.4-1.5,1.5C27.6,61.8,27.1,61.4,27,60.9C27.1,60.9,27.1,60.8,27,60.9L27,60.9C27.1,60.8,27,60.8,27,60.9z"/>
			<path class="st4" d="M35.9,60.9c0.8-0.1,1.4-0.7,1.6-1.5c0-0.1,0-0.3,0-0.4c-0.2,0.7-0.8,1.3-1.6,1.4c-0.5,0-1-0.4-1-1
				c0,0,0,0,0-0.1c0,0,0,0,0,0.1c-0.2,0.5,0.1,1.2,0.6,1.4C35.7,60.9,35.8,60.9,35.9,60.9z"/>
			<path class="st4" d="M40.1,58.9L40.1,58.9L40.1,58.9L40.1,58.9c-0.2,0.7-0.8,1.3-1.6,1.3c-0.5,0-1-0.4-1-1c0,0,0,0,0-0.1
				c0,0,0,0,0,0.1c-0.2,0.5,0.1,1.2,0.6,1.4c0.1,0,0.2,0.1,0.3,0.1c0.8-0.1,1.4-0.6,1.6-1.4C40.1,59.2,40.1,59.1,40.1,58.9z"/>
			<path class="st4" d="M42.7,58.5c-0.2,0.8-0.8,1.3-1.6,1.4c-0.5,0-1-0.4-1-1l0,0l0,0l0,0c0,0.1,0,0.3,0,0.4
				c-0.1,0.5,0.3,1,0.9,1.1c0,0,0,0,0.1,0c0.8-0.1,1.4-0.7,1.6-1.5C42.7,58.8,42.7,58.7,42.7,58.5z"/>
			<path class="st4" d="M46.2,59.1c-0.5,0-1-0.4-1-1c0,0,0,0,0-0.1c0,0,0,0,0,0.1c-0.2,0.8,0.3,1.4,1,1.4c0.8-0.1,1.4-0.7,1.6-1.5
				c0-0.1,0-0.3,0-0.4C47.6,58.5,47,59,46.2,59.1z"/>
			<path class="st4" d="M50.4,57.7C50.4,57.6,50.4,57.6,50.4,57.7L50.4,57.7C50.4,57.6,50.4,57.6,50.4,57.7
				c-0.2,0.7-0.8,1.2-1.6,1.3c-0.5,0-1-0.4-1-1l0,0c0,0,0,0,0,0.1c-0.2,0.8,0.3,1.4,1,1.4c0.8-0.1,1.4-0.6,1.6-1.4
				C50.3,57.9,50.3,57.8,50.4,57.7z"/>
			<path class="st4" d="M51.4,58.6c-0.5,0-1-0.4-1-1l0,0l0,0c0,0,0,0,0,0.1s0,0.3,0,0.4c0,0.5,0.4,1,0.9,1c0,0,0,0,0.1,0
				c0.6-0.1,1.1-0.4,1.3-0.9c0-0.1,0-0.2-0.1-0.3C52.4,58.3,51.9,58.6,51.4,58.6z"/>
			<path class="st4" d="M26.6,64.8c-0.1,0.8-0.7,1.4-1.4,1.5c-0.6,0-1-0.4-1.1-1c0,0,0,0,0,0.1c-0.1,0.6,0.2,1.2,0.8,1.3
				c0.1,0,0.2,0,0.3,0c0.8-0.1,1.4-0.7,1.5-1.5C26.7,65.1,26.6,65,26.6,64.8z"/>
			<path class="st4" d="M29.2,65c0-0.1,0-0.3,0-0.4c0,0,0,0,0-0.1l0,0c0,0,0,0,0-0.1c-0.1,0.8-0.7,1.3-1.5,1.4c-0.5,0-1-0.4-1.1-1
				c0,0,0,0,0,0.1c-0.1,0.6,0.2,1.2,0.8,1.3c0.1,0,0.2,0,0.2,0C28.5,66.4,29.1,65.8,29.2,65z"/>
			<path class="st4" d="M29.2,64.7c0,0.1,0,0.3,0,0.4c0,0.6,0.5,1,1.1,1c0.8-0.1,1.4-0.7,1.5-1.5c0-0.1,0-0.3,0-0.4
				c-0.1,0.8-0.7,1.4-1.5,1.5C29.7,65.6,29.3,65.2,29.2,64.7L29.2,64.7C29.2,64.6,29.2,64.6,29.2,64.7z"/>
			<path class="st4" d="M37.1,63.5c-0.1,0.8-0.7,1.4-1.5,1.5c-0.6,0-1.1-0.4-1.1-1l0,0c-0.1,0.6,0.3,1.2,0.9,1.3c0.1,0,0.2,0,0.3,0
				c0.8-0.1,1.4-0.7,1.5-1.5C37.1,63.7,37.1,63.6,37.1,63.5z"/>
			<path class="st4" d="M38.2,65.1c0.7-0.1,1.3-0.7,1.4-1.4c0-0.1,0-0.3,0-0.4c0,0,0,0,0-0.1v-0.1c-0.1,0.8-0.7,1.4-1.5,1.5
				c-0.6,0-1.1-0.4-1.1-1l0,0c-0.1,0.6,0.3,1.2,0.9,1.3C38.1,65.1,38.1,65.1,38.2,65.1z"/>
			<path class="st4" d="M39.6,63.3c0,0.1,0,0.3,0,0.4c0,0.6,0.5,1,1.1,1l0,0c0.8-0.1,1.4-0.7,1.4-1.5c0-0.1,0-0.3,0-0.4
				c-0.1,0.8-0.7,1.4-1.5,1.4C40.2,64.3,39.7,63.9,39.6,63.3L39.6,63.3C39.7,63.3,39.6,63.3,39.6,63.3z"/>
			<path class="st4" d="M47.5,62.8c0-0.1,0-0.3,0-0.4c-0.1,0.8-0.7,1.4-1.5,1.5c-0.6,0-1.1-0.4-1.1-1l0,0c-0.1,0.6,0.2,1.2,0.8,1.3
				c0.1,0,0.2,0,0.3,0C46.8,64.2,47.4,63.5,47.5,62.8z"/>
			<path class="st4" d="M47.5,62.6c-0.1,0.6,0.3,1.2,0.9,1.4c0.1,0,0.2,0,0.3,0c0.7-0.1,1.3-0.7,1.4-1.4c0-0.1,0-0.3,0-0.4l0,0l0,0
				v-0.1c-0.1,0.8-0.7,1.4-1.5,1.5C48,63.6,47.6,63.2,47.5,62.6L47.5,62.6z"/>
			<path class="st4" d="M50.1,62.2c0,0.1,0,0.3,0,0.4c0,0.6,0.5,1,1.1,1c0.8-0.1,1.4-0.7,1.5-1.5c0-0.1,0-0.3,0-0.4
				c-0.1,0.8-0.7,1.4-1.5,1.5C50.6,63.1,50.1,62.7,50.1,62.2L50.1,62.2C50.1,62.1,50.1,62.1,50.1,62.2z"/>
			<path class="st4" d="M24.6,53.9c-0.5,0.1-1-0.3-1.1-0.8l0,0c0,0,0,0,0,0.1c-0.1,0.8,0.4,1.4,1.1,1.3c0.8-0.2,1.4-0.8,1.5-1.6
				c0-0.1,0-0.3,0-0.4C25.9,53.2,25.3,53.8,24.6,53.9z"/>
			<path class="st4" d="M28.6,52L28.6,52L28.6,52c-0.1,0.7-0.7,1.3-1.5,1.5c-0.5,0.1-1-0.3-1.1-0.8l0,0c0,0,0,0,0,0.1
				c-0.1,0.6,0.2,1.1,0.8,1.3c0.1,0,0.2,0,0.4,0c0.8-0.2,1.3-0.8,1.4-1.5C28.6,52.3,28.6,52.1,28.6,52z"/>
			<path class="st4" d="M28.6,52L28.6,52L28.6,52c0,0.2,0,0.3,0,0.4c0,0.5,0.5,1,1,0.9c0,0,0,0,0.1,0c0.8-0.2,1.4-0.8,1.5-1.6
				c0-0.1,0-0.3,0-0.4c-0.1,0.8-0.7,1.4-1.4,1.6C29.3,53,28.8,52.6,28.6,52C28.6,52,28.6,52,28.6,52z"/>
			<path class="st4" d="M33.2,50.4c-0.2,0.5,0.1,1.2,0.6,1.4c0.1,0,0.2,0.1,0.3,0.1c0.8-0.1,1.4-0.7,1.6-1.5c0-0.1,0-0.3,0-0.4
				c-0.2,0.8-0.8,1.3-1.6,1.4C33.6,51.4,33.2,51,33.2,50.4L33.2,50.4L33.2,50.4z"/>
			<path class="st4" d="M38.4,49.9L38.4,49.9L38.4,49.9C38.4,49.8,38.4,49.8,38.4,49.9c-0.2,0.7-0.8,1.2-1.6,1.3c-0.5,0-1-0.4-1-1
				l0,0l0,0c-0.2,0.8,0.3,1.4,1,1.4c0.8-0.1,1.4-0.6,1.6-1.4C38.3,50.2,38.3,50,38.4,49.9z"/>
			<path class="st4" d="M38.4,49.9L38.4,49.9L38.4,49.9c0,0.2,0,0.3,0,0.4c0,0.5,0.4,1,0.9,1h0.1c0.8-0.1,1.4-0.7,1.6-1.5
				c0-0.1,0-0.3,0-0.4c-0.2,0.8-0.8,1.3-1.6,1.4C38.8,50.9,38.4,50.5,38.4,49.9L38.4,49.9z"/>
			<path class="st4" d="M43.9,51.1c-0.5,0-1-0.4-1-1c0,0,0,0,0-0.1l0,0c-0.2,0.5,0.1,1.2,0.6,1.4c0.1,0,0.2,0.1,0.3,0.1
				c0.8-0.1,1.4-0.7,1.6-1.5c0-0.1,0-0.3,0-0.4C45.3,50.4,44.7,51,43.9,51.1z"/>
			<path class="st4" d="M48.1,49.6L48.1,49.6L48.1,49.6L48.1,49.6c-0.2,0.7-0.8,1.2-1.6,1.3c-0.5,0-1-0.4-1-1l0,0l0,0
				c-0.2,0.5,0.1,1.2,0.6,1.4c0.1,0,0.2,0.1,0.3,0.1c0.8-0.1,1.4-0.6,1.6-1.4C48.1,49.8,48.1,49.7,48.1,49.6z"/>
			<path class="st4" d="M49.1,50.6c-0.5,0-1-0.4-1-1l0,0l0,0c0,0,0,0,0,0.1s0,0.3,0,0.4c0,0.5,0.4,1,0.9,1c0,0,0,0,0.1,0
				c0.8-0.1,1.4-0.7,1.6-1.5c0-0.1,0-0.2,0-0.4l0,0C50.5,50,49.9,50.5,49.1,50.6z"/>
			<path class="st4" d="M22.5,57c-0.1,0.6,0.2,1.2,0.9,1.4c0.1,0,0.2,0,0.3,0c0.8-0.1,1.4-0.7,1.5-1.5c0-0.1,0-0.3,0-0.4
				c-0.1,0.8-0.7,1.4-1.5,1.5C23.1,57.9,22.6,57.5,22.5,57L22.5,57z"/>
			<path class="st4" d="M27.6,56.3L27.6,56.3L27.6,56.3L27.6,56.3c-0.1,0.7-0.7,1.3-1.5,1.4c-0.6,0-1.1-0.4-1.1-1l0,0
				c-0.1,0.6,0.2,1.2,0.9,1.4c0.1,0,0.2,0,0.3,0c0.7-0.1,1.3-0.7,1.4-1.4C27.6,56.5,27.6,56.4,27.6,56.3z"/>
			<path class="st4" d="M30.2,56.2c0-0.1,0-0.3,0-0.4c-0.1,0.8-0.7,1.4-1.5,1.5c-0.6,0-1-0.4-1.1-1l0,0l0,0c0,0.1,0,0.3,0,0.4
				c0,0.6,0.5,1,1.1,1C29.6,57.5,30.1,56.9,30.2,56.2z"/>
			<path class="st4" d="M32.4,55.6L32.4,55.6c-0.1,0.7,0.3,1.3,0.9,1.4c0.1,0,0.2,0,0.3,0c0.8-0.1,1.4-0.7,1.5-1.5
				c0-0.1,0-0.3,0-0.4c-0.1,0.8-0.7,1.4-1.5,1.5C32.9,56.6,32.4,56.2,32.4,55.6z"/>
			<path class="st4" d="M35,55.4c-0.1,0.6,0.3,1.2,0.9,1.3c0.1,0,0.2,0,0.3,0c0.7-0.1,1.3-0.7,1.4-1.4c0-0.1,0-0.2,0-0.4
				c0,0,0,0,0-0.1l0,0v-0.1c-0.1,0.8-0.7,1.4-1.5,1.5C35.5,56.3,35,55.9,35,55.4C35,55.3,35,55.3,35,55.4z"/>
			<path class="st4" d="M37.5,54.9c0,0.1,0,0.2,0,0.4c0,0.6,0.5,1,1.1,1c0.8-0.1,1.4-0.7,1.5-1.5c0-0.1,0-0.3,0-0.4
				c-0.1,0.8-0.7,1.4-1.4,1.5C38.1,55.9,37.6,55.5,37.5,54.9L37.5,54.9L37.5,54.9z"/>
			<path class="st4" d="M44.6,54.7c0-0.1,0-0.3,0-0.4c-0.1,0.8-0.7,1.4-1.5,1.5c-0.6,0-1.1-0.4-1.1-1l0,0c-0.2,0.6,0.2,1.2,0.8,1.4
				c0.1,0,0.2,0,0.3,0C43.9,56.1,44.5,55.5,44.6,54.7z"/>
			<path class="st4" d="M47.1,54.5c0-0.1,0-0.3,0-0.4l0,0l0,0l0,0c-0.1,0.8-0.7,1.3-1.5,1.4c-0.6,0-1.1-0.4-1.1-1l0,0
				c-0.1,0.6,0.2,1.2,0.9,1.4c0.1,0,0.2,0,0.3,0C46.4,55.8,47,55.2,47.1,54.5z"/>
			<path class="st4" d="M47.1,54.1c0,0.1,0,0.3,0,0.4c0,0.6,0.5,1,1.1,1c0.8-0.1,1.4-0.7,1.5-1.5c0-0.1,0-0.3,0-0.4
				c-0.1,0.8-0.7,1.4-1.5,1.5C47.7,55.1,47.2,54.7,47.1,54.1L47.1,54.1L47.1,54.1z"/>
			<path class="st4" d="M22.6,46c0.8-0.1,1.4-0.7,1.5-1.5c0-0.1,0-0.3,0-0.4c-0.1,0.8-0.7,1.4-1.5,1.5c-0.5,0-1-0.4-1.1-0.9
				c0,0,0,0,0-0.1c0,0,0,0,0,0.1C21.4,45.5,21.9,46.1,22.6,46z"/>
			<path class="st4" d="M25.2,45.7c0.8-0.1,1.3-0.7,1.5-1.5c0-0.1,0-0.3,0-0.4c0,0,0,0,0-0.1l0,0v-0.1c-0.1,0.8-0.7,1.4-1.5,1.5
				c-0.5,0-1-0.3-1.1-0.9c0,0,0,0,0-0.1c0,0,0,0,0,0.1c-0.2,0.5,0.1,1.1,0.6,1.3C24.9,45.7,25,45.7,25.2,45.7z"/>
			<path class="st4" d="M26.7,43.9c0,0.1,0,0.3,0,0.4c0,0.5,0.4,1,1,1c0,0,0,0,0.1,0c0.8-0.1,1.4-0.8,1.5-1.5c0-0.1,0-0.3,0-0.4
				c-0.1,0.8-0.7,1.4-1.5,1.5C27.2,44.8,26.7,44.4,26.7,43.9L26.7,43.9L26.7,43.9C26.7,43.8,26.7,43.9,26.7,43.9z"/>
			<path class="st4" d="M32.1,44.5c0.8-0.1,1.4-0.7,1.6-1.5c0-0.1,0-0.3,0-0.4c-0.2,0.8-0.8,1.3-1.6,1.4c-0.5,0-1-0.4-1-1
				c0,0,0,0,0-0.1c0,0,0,0,0,0.1C31,43.9,31.4,44.5,32.1,44.5z"/>
			<path class="st4" d="M34.7,44.3c0.8-0.1,1.4-0.6,1.6-1.4c0-0.1,0-0.3,0-0.4l0,0l0,0c0,0,0,0,0-0.1c-0.2,0.8-0.8,1.3-1.6,1.4
				c-0.5,0-1-0.4-1-1c0,0,0,0,0-0.1c0,0,0,0,0,0.1C33.6,43.7,34,44.3,34.7,44.3z"/>
			<path class="st4" d="M36.3,42.6c0,0.1,0,0.3,0,0.4c0,0.5,0.4,1,0.9,1l0,0c0.8-0.1,1.4-0.7,1.6-1.5c0-0.1,0-0.3,0-0.4
				c-0.2,0.8-0.8,1.3-1.6,1.4C36.8,43.5,36.3,43.1,36.3,42.6L36.3,42.6L36.3,42.6L36.3,42.6z"/>
			<path class="st4" d="M42.3,43.2c0.8-0.1,1.4-0.7,1.6-1.5c0-0.1,0-0.3,0-0.4c-0.2,0.8-0.8,1.3-1.6,1.4c-0.5,0-1-0.4-1-1l0,0l0,0
				c-0.2,0.5,0,1.2,0.6,1.4C42.1,43.2,42.2,43.2,42.3,43.2z"/>
			<path class="st4" d="M46.5,41.3L46.5,41.3L46.5,41.3C46.5,41.2,46.5,41.2,46.5,41.3c-0.2,0.7-0.8,1.2-1.6,1.3c-0.5,0-1-0.4-1-1
				l0,0l0,0c-0.2,0.5,0.1,1.2,0.6,1.4c0.1,0,0.2,0.1,0.3,0.1c0.8-0.1,1.4-0.6,1.6-1.4C46.5,41.6,46.5,41.4,46.5,41.3z"/>
			<path class="st4" d="M47.6,42.3c-0.5,0-1-0.4-1-0.9v-0.1l0,0c0,0,0,0,0,0.1s0,0.3,0,0.4c0,0.5,0.4,1,0.9,1h0.1
				c0.4,0,0.9-0.2,1.1-0.6c0-0.1-0.1-0.2-0.1-0.3C48.3,42.1,47.9,42.3,47.6,42.3z"/>
			<path class="st4" d="M22.8,48.9c0-0.1,0-0.3,0-0.4c-0.1,0.8-0.7,1.4-1.5,1.5c-0.6,0-1.1-0.4-1.1-1c0,0,0,0,0,0.1
				c-0.1,0.6,0.3,1.2,0.9,1.3c0.1,0,0.2,0,0.2,0C22.1,50.2,22.7,49.6,22.8,48.9z"/>
			<path class="st4" d="M25.4,48.3L25.4,48.3L25.4,48.3L25.4,48.3c-0.1,0.7-0.7,1.3-1.4,1.4c-0.6,0-1.1-0.4-1.1-1c0,0,0,0,0,0.1
				c-0.1,0.6,0.3,1.2,0.9,1.3c0.1,0,0.2,0,0.3,0c0.7-0.1,1.3-0.7,1.4-1.4C25.4,48.6,25.4,48.4,25.4,48.3z"/>
			<path class="st4" d="M27.9,48.2c0-0.1,0-0.3,0-0.4c-0.1,0.8-0.7,1.3-1.5,1.4c-0.6,0-1-0.4-1.1-1l0,0l0,0c0,0.1,0,0.3,0,0.4
				c0,0.6,0.5,1,1.1,1C27.3,49.5,27.9,48.9,27.9,48.2z"/>
			<path class="st4" d="M31.9,49c0.8-0.1,1.4-0.7,1.5-1.5c0-0.1,0-0.3,0-0.4c-0.1,0.8-0.7,1.4-1.5,1.5c-0.6,0-1.1-0.4-1.1-1
				c0,0,0,0,0,0.1c-0.1,0.6,0.3,1.2,0.9,1.3C31.7,49,31.8,49,31.9,49z"/>
			<path class="st4" d="M34.4,48.8c0.7-0.1,1.3-0.7,1.5-1.4c0-0.1,0-0.3,0-0.4c0,0,0,0,0-0.1l0,0v-0.1c-0.1,0.8-0.7,1.4-1.5,1.5
				c-0.6,0-1.1-0.4-1.1-1c0,0,0,0,0,0.1c-0.1,0.6,0.3,1.2,0.9,1.3C34.3,48.8,34.4,48.8,34.4,48.8z"/>
			<path class="st4" d="M35.8,47c0,0.1,0,0.3,0,0.4c0.1,0.6,0.5,1,1.1,1c0.8-0.1,1.4-0.7,1.5-1.5c0-0.1,0-0.3,0-0.4
				c-0.1,0.8-0.7,1.4-1.4,1.5C36.4,47.9,35.9,47.5,35.8,47L35.8,47C35.9,46.9,35.8,46.9,35.8,47z"/>
			<path class="st4" d="M42.2,47.9c0.8-0.1,1.4-0.7,1.5-1.5c0-0.1,0-0.3,0-0.4c-0.1,0.8-0.7,1.4-1.5,1.5c-0.6,0-1.1-0.4-1.1-1
				c0,0,0,0,0,0.1c-0.1,0.6,0.3,1.2,0.9,1.3C42,47.9,42.1,47.9,42.2,47.9z"/>
			<path class="st4" d="M43.7,46.2c-0.1,0.6,0.2,1.2,0.8,1.3c0.1,0,0.2,0,0.3,0c0.7-0.1,1.3-0.7,1.4-1.4c0-0.1,0-0.3,0-0.4
				c0,0,0,0,0-0.1l0,0l0,0c-0.1,0.8-0.7,1.3-1.4,1.4C44.2,47.2,43.7,46.8,43.7,46.2L43.7,46.2z"/>
			<path class="st4" d="M46.2,45.8c0,0.1,0,0.3,0,0.4c0,0.6,0.6,1,1.2,1c0.7-0.1,1.3-0.7,1.4-1.5c0-0.1,0-0.3,0-0.4
				c-0.1,0.7-0.7,1.3-1.4,1.4C46.8,46.8,46.3,46.3,46.2,45.8L46.2,45.8C46.3,45.8,46.3,45.8,46.2,45.8z"/>
			<path class="st4" d="M48.5,41.6c2.6,9.5,4.6,24.7,3.5,24.7c-8.2-0.1-23.4,5.9-27.2,5.8c0.1,0.3,0.3,0.5,0.6,0.7
				c2,1.2,19.5-5.3,28.2-5.2C54.8,67.7,51.6,50.6,48.5,41.6z"/>
			<path class="st4" d="M53.8,66.1c-9.2,0.7-22.9,3.6-24.7,2.5c-2-1.2,2-23.6-4-30.5c-0.2-0.2-7.8-2.5-8.6,1.6
				c-1.6,7.6,6.5,32.8,8.5,34c2,1.2,19.9-6.3,28.6-6.2C53.8,67.6,53.9,67.1,53.8,66.1z"/>
			<path class="st1" d="M16.5,56.3c0,0-2.2,6.3-1.9,7.8C14.9,65.5,22.4,76,25.2,79l-4.8,5.7c0,0-16.5-12.1-18-16.8
				C1,63.2,5.2,53.2,5.2,53.2L16.5,56.3z"/>
			<path class="st2" d="M20.5,82.6c-5.7-5.9-8.3-12.6-5.9-15c0.4-0.4,1-0.7,1.6-0.8C15.6,66,15,65,14.6,64.1
				c-0.3-1.4,1.9-7.8,1.9-7.8l-11.2-3c0,0-4.2,10.1-2.8,14.7s18,16.8,18,16.8l1-1.2C21.1,83.2,20.8,82.9,20.5,82.6z"/>
			<path class="st3" d="M26.7,41.7l-7.9-6.4C4.1,42.5,0,59.3,0,59.3s14.6,8.2,23.7,6.4C26.8,57.2,27.6,46.2,26.7,41.7z"/>
			<path class="st4" d="M2.4,59.3c0-0.1,0.1-0.2,0.2-0.3l0,0l0,0v-0.1c-0.3,0.4-0.7,0.6-1.1,0.7l0.3,0.2C2,59.7,2.3,59.6,2.4,59.3z"
				/>
			<path class="st4" d="M4.9,59.9C5,59.8,5,59.7,5,59.5c-0.4,0.6-1.2,0.9-1.9,0.7c-0.4-0.1-0.7-0.7-0.5-1.1c0,0,0,0,0-0.1l0,0l0,0
				c-0.1,0.1-0.1,0.2-0.2,0.3c-0.1,0.2-0.1,0.5,0,0.7l1.2,0.6C4.2,60.6,4.6,60.3,4.9,59.9z"/>
			<path class="st4" d="M9.9,59.9c-0.5,0.6-1.3,0.8-2,0.5c-0.5-0.2-0.7-0.8-0.4-1.3c0,0,0,0,0-0.1l0,0c-0.4,0.4-0.5,1-0.1,1.4
				c0.1,0.1,0.2,0.2,0.3,0.2c0.7,0.3,1.5,0.1,2-0.5C9.7,60.1,9.8,60,9.9,59.9z"/>
			<path class="st4" d="M12.1,60.9L12.1,60.9L12.1,60.9c-0.5,0.5-1.3,0.7-2,0.4c-0.5-0.2-0.7-0.8-0.4-1.3l0,0l0,0
				c-0.4,0.4-0.5,1-0.1,1.4c0.1,0.1,0.2,0.2,0.3,0.2c0.7,0.3,1.5,0.2,2-0.4C12,61.2,12,61.1,12.1,60.9C12.1,61,12.1,60.9,12.1,60.9z
				"/>
			<path class="st4" d="M12.5,62.2c-0.5-0.2-0.7-0.8-0.4-1.3l0,0l0,0l0,0C12,61,12,61.1,11.9,61.2c-0.3,0.4-0.2,1,0.2,1.3
				c0,0,0.1,0,0.1,0.1c0.7,0.3,1.5,0.1,2-0.5c0.1-0.1,0.2-0.2,0.2-0.3C14,62.4,13.2,62.5,12.5,62.2z"/>
			<path class="st4" d="M16.4,64.4c-0.5-0.2-0.7-0.8-0.4-1.3c0,0,0,0,0-0.1l0,0c-0.4,0.4-0.5,1-0.1,1.4c0.1,0.1,0.2,0.2,0.3,0.2
				c0.7,0.3,1.5,0.1,2-0.5c0.1-0.1,0.2-0.2,0.2-0.3C17.9,64.5,17.1,64.7,16.4,64.4z"/>
			<path class="st4" d="M20.6,65L20.6,65L20.6,65L20.6,65c-0.3,0.3-0.8,0.6-1.4,0.6l0.9,0.1c0.1-0.1,0.3-0.2,0.4-0.3
				C20.5,65.2,20.6,65.1,20.6,65z"/>
			<path class="st4" d="M18.3,64.1L18.3,64.1c-0.4,0.3-0.4,0.9-0.2,1.3c0.3,0.1,0.7,0.1,1,0.1c-0.1,0-0.3-0.1-0.4-0.1
				C18.2,65.2,18,64.6,18.3,64.1C18.2,64.1,18.3,64.1,18.3,64.1z"/>
			<path class="st4" d="M20.6,65L20.6,65L20.6,65c-0.1,0.1-0.1,0.2-0.2,0.3c-0.1,0.1-0.1,0.2-0.1,0.3h0.3
				C20.5,65.4,20.6,65.2,20.6,65z"/>
			<path class="st4" d="M9,51.9c-0.4,0.4-0.5,1-0.1,1.4c0.1,0.1,0.2,0.2,0.3,0.2c0.7,0.3,1.5,0.1,2-0.5c0.1-0.1,0.2-0.2,0.2-0.3
				c-0.5,0.6-1.3,0.8-2,0.5C8.9,52.9,8.7,52.4,9,51.9L9,51.9L9,51.9z"/>
			<path class="st4" d="M13.7,53.7L13.7,53.7L13.7,53.7c-0.5,0.5-1.3,0.7-2,0.4c-0.5-0.2-0.7-0.8-0.4-1.3l0,0l0,0
				c-0.4,0.4-0.5,1-0.1,1.4c0.1,0.1,0.2,0.2,0.3,0.2c0.7,0.3,1.5,0.1,2-0.5C13.5,53.9,13.6,53.8,13.7,53.7L13.7,53.7z"/>
			<path class="st4" d="M15.8,54.9c0.1-0.1,0.2-0.2,0.2-0.3c-0.5,0.6-1.3,0.8-2,0.5c-0.5-0.2-0.7-0.8-0.4-1.3l0,0l0,0l0,0
				c-0.1,0.1-0.1,0.2-0.2,0.3c-0.3,0.4-0.2,1,0.2,1.3c0,0,0.1,0,0.1,0.1C14.5,55.7,15.4,55.5,15.8,54.9z"/>
			<path class="st4" d="M20.6,56.5c0.1-0.1,0.2-0.2,0.2-0.3c-0.5,0.6-1.3,0.8-2,0.5c-0.5-0.2-0.7-0.8-0.4-1.3c0,0,0,0,0-0.1l0,0
				c-0.4,0.4-0.5,1-0.1,1.4c0.1,0.1,0.2,0.2,0.3,0.2C19.3,57.3,20.1,57.1,20.6,56.5z"/>
			<path class="st4" d="M23,57.2L23,57.2L23,57.2c-0.5,0.5-1.3,0.7-2,0.4c-0.5-0.2-0.7-0.8-0.4-1.3c0,0,0,0,0-0.1l0,0
				c-0.4,0.4-0.5,1-0.1,1.4c0.1,0.1,0.2,0.2,0.3,0.2c0.7,0.3,1.5,0.1,2-0.5C22.9,57.4,23,57.3,23,57.2L23,57.2z"/>
			<path class="st4" d="M23.4,58.5c-0.5-0.2-0.7-0.8-0.4-1.2c0,0,0,0,0-0.1l0,0l0,0c-0.1,0.1-0.1,0.2-0.2,0.3
				c-0.3,0.4-0.2,1,0.2,1.3c0,0,0.1,0,0.1,0.1c0.7,0.3,1.5,0.1,2-0.5c0.1-0.1,0.2-0.2,0.2-0.3C25,58.6,24.2,58.8,23.4,58.5z"/>
			<path class="st4" d="M3.9,54.8C4,54.7,4,54.6,4.1,54.4C3.7,55,2.9,55.2,2.2,55c-0.1,0.1-0.1,0.3-0.2,0.4
				C2.8,55.7,3.5,55.4,3.9,54.8z"/>
			<path class="st4" d="M8.8,56.7c0.1-0.1,0.1-0.2,0.2-0.4c-0.4,0.6-1.2,0.8-1.9,0.6c-0.5-0.2-0.7-0.8-0.5-1.3l0,0
				c-0.4,0.5-0.3,1.1,0.1,1.5c0.1,0.1,0.1,0.1,0.2,0.1C7.6,57.5,8.4,57.3,8.8,56.7z"/>
			<path class="st4" d="M11.3,57.3L11.3,57.3L11.3,57.3c-0.4,0.5-1.2,0.8-1.9,0.5c-0.5-0.2-0.7-0.8-0.5-1.3l0,0
				C8.5,57,8.6,57.6,9,58c0.1,0.1,0.1,0.1,0.2,0.1c0.7,0.3,1.5,0,1.9-0.6C11.2,57.5,11.2,57.4,11.3,57.3L11.3,57.3z"/>
			<path class="st4" d="M11.6,59c0.7,0.3,1.5,0,1.9-0.6c0.1-0.1,0.1-0.2,0.2-0.3c-0.4,0.6-1.2,0.8-1.9,0.6c-0.5-0.2-0.7-0.8-0.5-1.3
				l0,0l0,0c0,0.1-0.1,0.2-0.1,0.3C10.9,58.1,11.1,58.7,11.6,59L11.6,59z"/>
			<path class="st4" d="M16.3,60.9c0.7,0.3,1.5,0,1.9-0.6c0.1-0.1,0.1-0.2,0.2-0.3c-0.4,0.6-1.2,0.8-1.9,0.6
				c-0.5-0.2-0.7-0.8-0.5-1.3l0,0c-0.4,0.4-0.4,1.1,0.1,1.5C16.1,60.8,16.2,60.9,16.3,60.9z"/>
			<path class="st4" d="M20.7,60.9L20.7,60.9L20.7,60.9c-0.4,0.5-1.2,0.8-1.9,0.5c-0.5-0.2-0.7-0.8-0.5-1.3l0,0
				c-0.4,0.5-0.3,1.1,0.1,1.5c0.1,0.1,0.1,0.1,0.2,0.1c0.7,0.3,1.5,0.1,2-0.6C20.7,61.2,20.7,61.1,20.7,60.9
				C20.8,61,20.7,60.9,20.7,60.9z"/>
			<path class="st4" d="M21.3,62.3c-0.5-0.2-0.7-0.8-0.5-1.3l0,0l0,0c0,0.1-0.1,0.2-0.1,0.3c-0.3,0.5-0.1,1.1,0.4,1.4l0,0
				c0.7,0.3,1.5,0,1.9-0.6c0.1-0.1,0.1-0.2,0.2-0.4C22.8,62.3,22,62.5,21.3,62.3z"/>
			<path class="st4" d="M11.7,45.1c0.7,0.3,1.5,0.1,2-0.5c0.1-0.1,0.2-0.2,0.2-0.3c-0.5,0.6-1.3,0.8-2,0.5c-0.5-0.2-0.7-0.8-0.4-1.3
				l0,0l0,0c-0.4,0.3-0.5,1-0.2,1.4C11.5,44.9,11.6,45,11.7,45.1z"/>
			<path class="st4" d="M16.2,45.3L16.2,45.3C16.2,45.3,16.2,45.2,16.2,45.3c-0.5,0.5-1.3,0.7-2,0.4c-0.5-0.2-0.7-0.8-0.4-1.3
				c0,0,0,0,0-0.1l0,0c-0.4,0.4-0.5,1-0.1,1.4c0.1,0.1,0.2,0.2,0.3,0.2c0.7,0.3,1.5,0.1,2-0.5C16.1,45.5,16.1,45.4,16.2,45.3
				L16.2,45.3z"/>
			<path class="st4" d="M16.6,46.6c-0.5-0.2-0.7-0.8-0.4-1.2l0,0l0,0l0,0c-0.1,0.1-0.1,0.2-0.1,0.3c-0.3,0.4-0.2,1,0.2,1.3
				c0,0,0.1,0,0.1,0.1c0.7,0.3,1.5,0.1,2-0.5c0.1-0.1,0.2-0.2,0.2-0.3C18.1,46.7,17.3,46.9,16.6,46.6z"/>
			<path class="st4" d="M20.4,48.8c-0.5-0.2-0.7-0.8-0.4-1.3l0,0l0,0c-0.4,0.4-0.5,1-0.1,1.4c0.1,0.1,0.2,0.2,0.3,0.2
				c0.7,0.3,1.5,0.1,2-0.5c0.1-0.1,0.2-0.2,0.2-0.3C22,48.8,21.2,49,20.4,48.8z"/>
			<path class="st4" d="M24.7,49.3L24.7,49.3L24.7,49.3c-0.5,0.5-1.3,0.7-2,0.4c-0.5-0.3-0.6-0.8-0.4-1.3l0,0l0,0
				c-0.4,0.4-0.5,1-0.1,1.4c0.1,0.1,0.2,0.2,0.3,0.2c0.7,0.3,1.5,0.1,2-0.5C24.6,49.5,24.7,49.4,24.7,49.3L24.7,49.3z"/>
			<path class="st4" d="M25.1,50.6c-0.5-0.2-0.7-0.8-0.4-1.2c0,0,0,0,0-0.1l0,0l0,0c-0.1,0.1-0.1,0.2-0.2,0.3
				c-0.3,0.4-0.2,1,0.2,1.3c0,0,0.1,0,0.1,0.1c0.7,0.3,1.5,0.1,2-0.5c0,0,0-0.1,0.1-0.1s0-0.1,0-0.1C26.5,50.7,25.8,50.9,25.1,50.6z
				"/>
			<path class="st4" d="M8.8,49.2c0.7,0.3,1.5,0,1.9-0.6c0.1-0.1,0.1-0.2,0.2-0.4C10.5,48.8,9.7,49,9,48.8c-0.5-0.2-0.7-0.8-0.5-1.3
				l0,0c-0.4,0.4-0.4,1.1,0,1.5C8.6,49.1,8.7,49.1,8.8,49.2z"/>
			<path class="st4" d="M10.8,48.4L10.8,48.4c-0.4,0.4-0.4,1.1,0,1.5c0.1,0.1,0.2,0.1,0.3,0.2c0.7,0.3,1.5,0,1.9-0.6
				c0-0.1,0.1-0.2,0.1-0.3l0,0l0,0c0,0,0,0,0-0.1c-0.4,0.6-1.2,0.8-1.9,0.6C10.8,49.5,10.6,48.9,10.8,48.4z"/>
			<path class="st4" d="M13.2,49.2c0,0.1-0.1,0.2-0.1,0.3c-0.3,0.5-0.1,1.1,0.4,1.4h0.1c0.7,0.2,1.5,0,1.9-0.7
				c0.1-0.1,0.1-0.2,0.2-0.4c-0.4,0.6-1.2,0.9-1.9,0.6C13.2,50.3,13,49.7,13.2,49.2L13.2,49.2L13.2,49.2z"/>
			<path class="st4" d="M19.5,51.8c-0.4,0.6-1.2,0.8-1.9,0.6c-0.5-0.2-0.7-0.8-0.5-1.3l0,0c-0.4,0.5-0.3,1.1,0.1,1.5
				c0.1,0.1,0.1,0.1,0.2,0.1c0.7,0.3,1.5,0,1.9-0.6C19.5,52,19.5,51.9,19.5,51.8z"/>
			<path class="st4" d="M21.9,52.8L21.9,52.8L21.9,52.8c-0.4,0.5-1.2,0.8-1.9,0.5c-0.5-0.2-0.7-0.8-0.5-1.3l0,0
				c-0.4,0.4-0.4,1.1,0.1,1.5c0.1,0.1,0.2,0.1,0.3,0.2c0.7,0.3,1.5,0,1.9-0.6C21.7,53,21.8,52.9,21.9,52.8
				C21.8,52.8,21.8,52.8,21.9,52.8z"/>
			<path class="st4" d="M21.9,52.8L21.9,52.8L21.9,52.8c0,0.1-0.1,0.2-0.1,0.3c-0.3,0.5-0.1,1.1,0.4,1.4l0,0c0.7,0.2,1.5,0,1.9-0.6
				c0.1-0.1,0.1-0.2,0.2-0.4c-0.4,0.6-1.2,0.8-1.9,0.6C21.9,53.9,21.6,53.3,21.9,52.8z"/>
			<path class="st4" d="M15.5,38.9c0.7,0.3,1.5,0.1,2-0.5c0-0.1,0.1-0.2,0.2-0.3l0,0l0,0l0,0c-0.5,0.6-1.3,0.8-2,0.5
				c-0.1-0.1-0.2-0.1-0.3-0.3l-0.3,0.2C15.2,38.7,15.3,38.8,15.5,38.9z"/>
			<path class="st4" d="M17.7,38.1c-0.1,0.1-0.1,0.2-0.2,0.3c-0.3,0.4-0.2,1,0.2,1.3c0,0,0.1,0,0.1,0.1c0.7,0.3,1.5,0.1,2-0.5
				c0.1-0.1,0.2-0.2,0.2-0.3c-0.5,0.6-1.3,0.8-2,0.5C17.7,39.2,17.5,38.6,17.7,38.1L17.7,38.1L17.7,38.1L17.7,38.1z"/>
			<path class="st4" d="M22.9,41c-0.5-0.2-0.7-0.8-0.4-1.3c0,0,0,0,0-0.1l0,0c-0.5,0.3-0.6,1-0.2,1.4c0.1,0.1,0.2,0.2,0.4,0.3
				c0.7,0.3,1.5,0.1,2-0.5l0.1-0.1l-0.2,0C24.1,41.1,23.4,41.2,22.9,41z"/>
			<path class="st4" d="M24.9,42.4c0.5,0.2,1.1,0.2,1.6-0.2l-0.2-0.1c-0.4,0.1-0.8,0.1-1.1,0c-0.5-0.2-0.6-0.8-0.4-1.2l0,0
				c-0.4,0.4-0.4,1-0.1,1.4C24.8,42.3,24.9,42.3,24.9,42.4z"/>
			<path class="st4" d="M26.8,42.6L26.8,42.6L26.8,42.6z"/>
			<path class="st4" d="M12.9,41c0.1-0.1,0.1-0.2,0.2-0.4c-0.3,0.5-0.9,0.7-1.5,0.7l-0.4,0.3C11.8,41.8,12.5,41.5,12.9,41z"/>
			<path class="st4" d="M13.3,42.6c0.7,0.3,1.5,0,1.9-0.6c0-0.1,0.1-0.2,0.1-0.3l0,0l0,0v-0.1c-0.4,0.6-1.2,0.8-1.9,0.6
				c-0.5-0.2-0.7-0.8-0.5-1.3l0,0c-0.4,0.4-0.3,1.1,0.1,1.5C13.1,42.4,13.2,42.5,13.3,42.6z"/>
			<path class="st4" d="M15.3,41.7c-0.1,0.1-0.1,0.2-0.1,0.3c-0.3,0.5-0.1,1.1,0.4,1.4l0,0c0.7,0.3,1.5,0,1.9-0.6
				c0.1-0.1,0.1-0.2,0.2-0.4c-0.4,0.6-1.2,0.9-1.9,0.6C15.4,42.7,15.2,42.1,15.3,41.7L15.3,41.7L15.3,41.7z"/>
			<path class="st4" d="M20.4,45.3c0.7,0.3,1.5,0,2-0.6c0.1-0.1,0.1-0.2,0.2-0.4c-0.4,0.6-1.2,0.9-1.9,0.6c-0.5-0.2-0.7-0.8-0.5-1.3
				l0,0c-0.4,0.4-0.4,1.1,0,1.5C20.2,45.2,20.3,45.3,20.4,45.3z"/>
			<path class="st4" d="M24.8,45.3L24.8,45.3L24.8,45.3c-0.4,0.5-1.2,0.8-1.9,0.5c-0.5-0.2-0.7-0.8-0.5-1.3l0,0
				C22,45,22.1,45.6,22.5,46c0.1,0.1,0.1,0.1,0.2,0.2c0.7,0.3,1.5,0,1.9-0.6C24.7,45.5,24.7,45.4,24.8,45.3L24.8,45.3z"/>
			<path class="st4" d="M25.3,46.6c-0.5-0.2-0.7-0.8-0.5-1.3l0,0l0,0c-0.1,0.1-0.1,0.2-0.1,0.3c-0.3,0.5-0.1,1.1,0.4,1.4l0,0
				c0.7,0.3,1.5,0,1.9-0.6c0,0,0,0,0-0.1v-0.1C26.7,46.6,26,46.8,25.3,46.6z"/>
			<path class="st4" d="M26.7,41.7l-7.9-6.4C4.1,42.5,0,59.3,0,59.3s1.6,0.9,4.2,2.1c0.4-3.3,1.2-6.5,2.5-9.6
				c3.5-8.9,9.4-15.1,13-13.5c7.8,3.5,6.8,17.2,3.3,26.1c-0.2,0.5-0.4,1-0.7,1.4c0.5,0,1.7-0.1,2.2-0.2
				C27.4,57.2,27.6,46.2,26.7,41.7z"/>
			<path class="st4" d="M32.3,47.5c9.7,2.9,18.1-0.5,16.1-9.1c-0.2-0.8-0.6-1.5-1.2-2.1c-0.5-0.5-1.1-1-1.7-1.4
				c-1-0.6-2.1-1.2-3.2-1.6c-0.8-0.2-1.5,0.3-1.7,1.1c-6.4-1.9-16.8-3.7-21.6,1l-0.1-0.1c-0.6,0.3-1.1,0.6-1.7,0.9
				C18.9,42,24.9,45.2,32.3,47.5z"/>
			<path class="st15" d="M18.7,35.2c0,4.9,15.5,12.3,23.2,11.7s7.9-9.7,4.4-12.1c-3.4-2.4-11.1-4.3-13.6-7.9
				c-2.5-3.5-4.4-13.7-4.4-13.7L19,20.3c0,0,1.6,6.5,5.4,8.4c0,0-1.7,0.1-1,1.1C23.4,29.7,18.7,32.7,18.7,35.2z"/>
			<path class="st16" d="M26.2,37.8c0-3.6,9.3-4.6,14.9-4.6c1,0,2,0.1,3,0.3c0.1-0.2,1.7-0.9-2.1-1.6c-3.5-0.7-7.7-2.8-9.2-4.9
				c-2.5-3.5-4.4-13.7-4.4-13.7l-9.3,7.1c0,0,1.6,6.5,5.4,8.4c0,0-1.7,0.1-1,1.1c0,0-4.7,3-4.7,5.5c0,4.9,15.5,12.3,23.2,11.7
				c1.6-0.1,3.1-0.7,4.3-1.7C38.8,48.9,26.2,41,26.2,37.8z"/>
			<polygon class="st17" points="40.4,12 45.4,17.8 43.2,18.4 43.4,18.7 46.6,18.2 40.3,11.5 			"/>
			<path class="st18" d="M39.2,11.7l-1.8,0.4c0.1,1.2,0.5,3.1,1.8,2.7C40.4,14.4,39.2,11.7,39.2,11.7z"/>
			<polygon class="st6" points="40.8,12.6 35.1,13.6 34.7,11.5 40.1,10.8 			"/>
			<path class="st19" d="M40.5,11.7l-0.1-0.1l0,0l-0.3-0.9H40c-0.3-1-0.5-2.2-0.9-3.1l-8.5,4.9c0.1,1,0.4,2.1,0.7,3.1
				c0.3,0.8,0.7,1.5,1.2,2.1l8.5-5.3L40.5,11.7z"/>
			<path class="st20" d="M30.9,27.1l2.2,0.2c-0.1-0.1-0.2-0.3-0.3-0.4c-1.2-1.8-2.3-5.2-3.1-8.2l-1.9-4.2l-8.6,6
				c0.3,0.9,0.6,1.7,1,2.6l6.1-4.4L30.9,27.1z"/>
			<path class="st21" d="M19.2,21.7c0,0,11.9-10.2,22.6-14.1c0,0-7.1-12.8-19.4-5.2C12.1,8.6,19.2,21.7,19.2,21.7z"/>
			<path class="st22" d="M34,9.2c-6.8,0-12.3-2.9-12.3-6.4l0,0c-9.5,6.4-2.7,19-2.7,19s10.3-8.9,20.3-13.2C37.6,9,35.8,9.2,34,9.2z"
				/>
			<path class="st23" d="M38.5,4.3C36,1.7,31.3-1.3,24.9,1.8c5.8-2,9,0.8,11.5,3.3L38.5,4.3z"/>
			<path class="st21" d="M18.5,18.4c-1.5-3.8-2.6-9.9,3-14.2c-4.2,4.3-2.8,8.9-1.4,12.7L18.5,18.4z"/>
			<path class="st24" d="M40.9,7.3C41,7.6,47,16.2,47,16.2l1.7-0.3l-7.1-9.2L40.9,7.3z"/>
			<polygon class="st21" points="38.6,6.3 46.2,16.3 47.6,16.1 39.8,5.5 			"/>
			<polygon class="st24" points="33.6,11 36.7,24.1 36.1,24.7 32.6,25.1 28.7,14.4 			"/>
			<polygon class="st22" points="32,11.7 35.5,24.4 31.7,25.7 26.7,15.1 			"/>
			<path class="st25" d="M11.8,150h10.5c0,0,0.4-4-1-4.2C19.8,145.4,13.5,148.2,11.8,150z"/>
			<path class="st25" d="M71.6,150H60c0,0-0.4-4,1.1-4.2S69.7,148.2,71.6,150z"/>
			<path class="st20" d="M38.9,32.4C31.8,32.3,24.6,29.3,26,29C27.2,28.9,33.8,31.8,38.9,32.4z"/>
			<path class="st20" d="M37,31.8c-6.8-2-12.9-7-11.4-6.9C26.8,25.1,32.3,29.7,37,31.8z"/>
			<path class="st16" d="M30.7,38.8c0.3,5.2,8.5,6.9,13.1,5.9c2-0.4,3.4-2.1,3.5-4.1c-0.9,2.7-3.7,4.4-6.6,3.8
				C32.3,43.1,30.7,38.8,30.7,38.8z"/>
			<polygon class="st2" points="74,68.4 75.3,61.3 67.6,59.8 68.1,68.6 			"/>
			<polygon class="st2" points="19.7,83.7 25.3,79.2 20.5,73 15.1,80 			"/>
			<path class="st21" d="M31.4,26.4L26,14.9l6.3-4l3.8,13.9L31.4,26.4z M27.3,15.3l4.6,9.8l2.9-1l-3.2-11.7L27.3,15.3z"/>
			<path class="st24" d="M17.5,20.6c0.3,0.7,0.7,1.4,1.1,2.1c0,0,12.5-11.2,24-15.3c-0.3-0.6-0.7-1.1-1.1-1.6
				C31.2,9.7,20.3,18.3,17.5,20.6z"/>
			<path class="st16" d="M41.9,32.8C27.3,33.6,28.6,38,28.6,38c0.5-2.1,4.3-3.3,15.4-4.6L41.9,32.8z"/>
			<path class="st24" d="M32,22.8c0,0.4,0.3,0.8,0.8,0.8c0.4,0,0.8-0.3,0.8-0.8c0-0.4-0.3-0.8-0.8-0.8l0,0C32.4,22,32,22.4,32,22.8
				L32,22.8z"/>
			<path class="st24" d="M30.9,19.6c0,0.4,0.3,0.8,0.8,0.8c0.5,0,0.8-0.3,0.8-0.8c0-0.4-0.3-0.8-0.8-0.8l0,0
				C31.2,18.8,30.9,19.1,30.9,19.6L30.9,19.6z"/>
			<circle class="st24" cx="30.4" cy="16.3" r="0.8"/>
			<path class="st2" d="M72.7,66.8c0.2,0.3,0.6,0.3,0.9,0.1c0.3-0.2,0.4-0.6,0.2-0.9c-0.2-0.3-0.6-0.4-0.9-0.2c0,0,0,0-0.1,0
				C72.5,66.1,72.5,66.5,72.7,66.8L72.7,66.8z"/>
			<path class="st2" d="M75.2,67c0.2,0.3,0.6,0.3,0.9,0.1c0.3-0.2,0.3-0.6,0.1-0.9c-0.2-0.3-0.6-0.4-0.9-0.2
				C75,66.2,74.9,66.6,75.2,67C75.1,67,75.1,67,75.2,67L75.2,67z"/>
			<path class="st26" d="M38.5,22.7c0.5-2.1,2.7-2.7,4.8-2.1l-0.1,0.3c-1-0.4-3.5,0.2-4,2L38.5,22.7z"/>
			<path class="st26" d="M42.6,21.9c-0.2-0.3-0.6-0.5-0.9-0.4c-0.5,0.1-0.9,0.5-0.9,0.7s0.4-0.1,0.9-0.2
				C42.2,21.9,42.6,22.1,42.6,21.9z"/>
			<path class="st27" d="M33.9,11.6c2.7-1.6,5.6-3,8.6-4.1c-0.3-0.6-0.7-1.1-1.1-1.6c-3.3,1.3-6.5,2.9-9.5,4.7
				C32.5,10.9,33.2,11.3,33.9,11.6z"/>
			<path class="st5" d="M75.8,68.4c3.5,0,8.3,3.9,8.5,4.4c3.7,8,4.5-1.1,3.4-4.6c-0.5-1.5-3-5.4-6-5.7c-1.5-0.1-6.2-0.2-9.2-0.6
				C72.4,62,75.1,68.4,75.8,68.4z"/>
			<path class="st5" d="M80.7,65.4c-1.1,0.5,0.2,6.8,0.1,7.3c-0.1,0.9-1,2.4-1.2,3.3s1.8,1.6,2.3,1.5c0.7-0.2,1.5-2.5,1.7-3.3
				c0.1-0.8,0.4-2.5,1.7-3.1C87.2,70,83.5,64.1,80.7,65.4z"/>
			<polygon class="st28" points="77.4,69.2 79.3,61.9 71.2,59.7 71.5,69.6 			"/>
			<path class="st29" d="M48.8,88.9L45,88.8c-1.4,6-11.2,11.3-11.2,11.3l11.4,2.7C45.2,102.7,47.8,98,48.8,88.9z"/>
			<path class="st30" d="M42.1,97.3c-2.5,1.5-5.2,2.4-8,2.9l11.1,2.6c0,0,2-3.7,3.2-10.7C46.6,94.1,44.5,95.9,42.1,97.3z"/>
			<path class="st5" d="M27.4,82.3c3.2,0.1,4.9,0.1,5.8,1c0.9,0.9,1.7,4.4,1.3,5.2c-0.4,0.8-3.6-0.2-4.2-0.3s-0.9-1.6-0.5-1.9
				s2.3-0.5,2.2-0.8c0-0.3-0.1-0.5-0.3-0.7C31.8,84.9,27.4,84.5,27.4,82.3z"/>
			<polygon class="st12" points="49.2,88 2,85.9 1.1,89.1 49.2,89.2 			"/>
			<path class="st5" d="M24.3,78.7c0,0,2.5,3.1,3.5,3.5c1.9,0.8,3.7,1.8,5.3,3c0.7,0.4,1.1,4.3,1.1,5.8c-0.9-0.3-7.6,1.5-7.6,1.5
				c-1.4-1.4-2.7-2.9-3.7-4.6c-1.1-1.4-2.4-2.7-3.8-3.8C17.3,82.5,24.3,78.7,24.3,78.7z"/>
			<path class="st5" d="M30.7,88.2c0.2-0.9,2-1.1,2.3-0.6c0.3,0.5,2.3,3.2,1.8,3.8c-0.5,0.6-1.9,1.1-2.3,0.7
				C32.1,91.7,30.6,88.9,30.7,88.2z"/>
			<path class="st5" d="M28,88.6c0.2-0.9,2-1.1,2.3-0.6s2.3,3.2,1.8,3.8c-0.5,0.6-1.9,1.1-2.3,0.7S27.8,89.4,28,88.6z"/>
			<path class="st5" d="M25.4,89.4c0.2-0.9,2-1.1,2.2-0.7s2.1,2.9,1.6,3.5S27.3,93.3,27,93C26.7,92.6,25.3,90.1,25.4,89.4z"/>
			<polygon class="st28" points="21.8,86.5 28,82.2 23.3,75.3 17,82.9 			"/>
			<path class="st2" d="M19.3,82.2c0,0.4,0.3,0.6,0.6,0.6c0.4,0,0.6-0.3,0.6-0.6s-0.3-0.6-0.6-0.6l0,0
				C19.6,81.6,19.3,81.9,19.3,82.2z"/>
			<circle class="st2" cx="21.8" cy="83.9" r="0.6"/>
		</g>
	</g>
</g>
</svg>
