<?xml version="1.0" standalone="no"?>
<!DOCTYPE svg PUBLIC "-//W3C//DTD SVG 20010904//EN"
 "http://www.w3.org/TR/2001/REC-SVG-20010904/DTD/svg10.dtd">
<svg version="1.0" xmlns="http://www.w3.org/2000/svg"
 width="496.000000pt" height="496.000000pt" viewBox="0 0 496.000000 496.000000"
 preserveAspectRatio="xMidYMid meet">
<metadata>
Created by potrace 1.14, written by Peter Selinger 2001-2017
</metadata>
<g transform="translate(0.000000,496.000000) scale(0.100000,-0.100000)"
fill="#000000" stroke="none">
<path d="M2250 4888 c0 -70 0 -69 -11 -90 -16 -29 -46 -17 -58 22 -6 20 -24
55 -40 78 l-30 40 -75 -24 c-42 -13 -90 -26 -108 -29 -113 -18 -128 -23 -136
-44 -6 -17 -12 -16 -67 10 -71 34 -96 35 -153 9 -35 -16 -43 -24 -40 -42 5
-38 68 -65 155 -67 87 -2 107 -10 128 -50 l14 -29 -42 -5 c-63 -6 -137 -30
-299 -93 -139 -53 -146 -57 -137 -78 9 -18 3 -29 -41 -76 -55 -59 -191 -275
-192 -306 -1 -24 7 -61 20 -95 36 -92 154 -319 207 -400 74 -110 187 -236 238
-263 l34 -19 1 -226 c0 -218 1 -231 32 -361 18 -74 34 -165 37 -201 5 -63 4
-68 -18 -79 -45 -23 -159 -102 -204 -142 -53 -46 -124 -143 -153 -208 -11 -25
-31 -70 -45 -100 -134 -299 -158 -344 -224 -406 l-32 -31 44 -33 c25 -19 45
-38 45 -42 0 -5 -27 -68 -60 -141 -37 -81 -96 -184 -152 -267 -57 -84 -97
-156 -108 -190 -12 -41 -21 -55 -35 -55 -20 0 -20 1 -29 -105 -4 -41 -9 -88
-11 -105 -4 -31 -10 -80 -20 -195 -4 -36 -8 -71 -10 -77 -3 -7 0 -13 6 -13 28
0 -120 -154 -206 -216 -52 -37 -67 -53 -59 -66 3 -5 -2 -11 -10 -14 -12 -5
-13 -11 -6 -24 7 -13 7 -21 0 -25 -5 -3 -10 -1 -10 4 0 11 -35 10 -46 -1 -3
-4 -13 -4 -22 -1 -14 4 -15 3 -2 -5 10 -8 19 -7 29 1 17 15 15 15 34 -1 10 -9
17 -10 22 -2 3 5 11 10 16 10 6 0 7 -6 3 -12 -6 -10 -5 -10 7 -1 12 10 18 10
29 0 10 -9 11 -9 6 1 -5 7 -1 12 9 12 10 0 13 -5 9 -12 -6 -10 -4 -10 7 -2 16
11 58 12 76 1 6 -4 15 -2 19 4 5 8 3 9 -6 4 -9 -5 -11 -4 -6 3 9 15 12 15 30
-4 9 -8 16 -12 16 -7 0 5 74 8 165 8 103 -1 165 3 165 9 0 6 5 5 12 -2 7 -7
16 -12 22 -12 5 0 1 6 -9 14 -11 8 -25 12 -32 9 -7 -3 -13 2 -13 10 0 14 18
16 55 7 22 -5 25 1 9 27 l-16 28 24 -26 c23 -24 86 -39 72 -17 -3 5 -15 6 -27
3 -19 -5 -19 -4 3 9 23 13 26 13 33 -3 8 -16 67 -27 67 -11 0 3 9 6 20 7 11 1
18 -2 15 -6 -6 -10 42 -7 69 5 14 5 17 4 11 -5 -6 -10 -3 -11 13 -2 14 7 23 8
27 1 3 -5 12 -10 18 -10 7 0 6 4 -3 10 -11 7 -11 10 -2 10 7 0 10 5 6 11 -4 7
-1 10 7 7 8 -3 13 -10 12 -16 -2 -6 11 -10 27 -10 19 1 30 6 30 15 0 8 5 11
10 8 6 -4 7 -11 4 -17 -4 -7 -2 -8 4 -4 7 4 12 2 12 -4 0 -6 5 -8 12 -4 6 4
68 8 138 8 97 1 131 5 145 16 17 14 18 13 12 -3 -3 -9 -2 -17 3 -17 6 0 10 9
10 20 0 11 4 20 9 20 6 0 8 -10 6 -21 -4 -21 -4 -21 17 -3 19 17 21 17 15 2
-4 -10 -2 -18 3 -18 6 0 10 7 10 15 0 8 5 15 11 15 5 0 7 -5 3 -12 -4 -7 -3
-8 5 -4 6 4 9 11 6 16 -3 4 2 11 11 14 24 9 29 7 16 -6 -16 -16 -15 -25 4 -32
9 -3 12 -2 9 4 -4 7 4 9 20 6 15 -3 25 -2 21 1 -7 8 13 33 26 33 6 0 5 -7 -2
-15 -7 -9 -10 -18 -6 -22 3 -3 6 0 6 8 0 11 2 11 10 -1 6 -10 10 -11 10 -2 0
6 5 12 11 12 5 0 8 -4 5 -8 -2 -4 6 -8 19 -8 13 0 22 3 19 7 -2 4 3 9 11 12
10 4 12 1 9 -11 -5 -13 -4 -14 4 -3 8 11 11 11 16 0 3 -8 4 -5 1 6 -4 16 0 21
16 22 17 2 18 -1 8 -13 -6 -8 -9 -17 -5 -21 3 -3 6 0 6 8 0 12 2 11 10 -1 8
-11 9 -8 6 13 -3 18 -1 25 6 21 7 -5 8 -2 3 6 -5 8 -4 11 3 6 6 -3 13 -2 16 3
11 17 -12 22 -27 6 -20 -20 -28 -19 -21 2 4 11 2 14 -3 8 -9 -12 -48 -14 -59
-3 -9 10 -35 -12 -28 -23 3 -5 0 -9 -5 -9 -10 0 -15 13 -12 32 0 5 -29 3 -36
-2 -2 -2 -9 -3 -15 -4 -7 -1 -12 -7 -11 -13 3 -16 -35 -12 -41 4 -3 7 1 10 10
6 7 -3 14 -1 14 5 0 12 -18 11 -39 -2 -8 -5 -16 -3 -22 5 -5 8 -9 9 -9 3 0
-14 -30 -14 -30 0 0 7 -3 8 -8 1 -9 -14 -45 -14 -54 0 -5 6 -8 6 -8 -2 0 -12
-17 -12 -37 0 -6 4 -14 3 -17 -2 -7 -10 -31 -9 -42 2 -4 3 -14 2 -23 -2 -25
-14 -33 -14 -42 1 -5 7 -9 8 -9 2 0 -12 -38 -13 -56 -1 -6 3 -19 -2 -29 -13
-10 -11 -22 -17 -27 -14 -6 4 -5 10 3 15 7 4 10 11 6 16 -5 4 -11 3 -15 -3 -8
-11 -47 -13 -58 -2 -9 10 -35 -12 -28 -23 3 -5 0 -9 -5 -9 -10 0 -15 13 -12
32 1 8 -20 5 -38 -6 -8 -5 -16 -3 -22 5 -5 8 -9 9 -9 3 0 -13 -42 -13 -52 1
-5 7 -8 6 -8 -1 0 -13 -50 -13 -50 0 0 8 -3 8 -8 1 -9 -14 -45 -14 -54 0 -5 6
-8 6 -8 -2 0 -12 -17 -12 -36 0 -6 3 -14 3 -18 0 -11 -11 -56 -11 -56 0 0 6
-5 5 -12 -1 -19 -15 -30 -15 -39 0 -6 9 -9 9 -9 1 0 -7 -10 -10 -27 -7 -21 3
-24 2 -13 -6 8 -5 11 -10 6 -10 -5 0 -3 -6 3 -14 8 -10 8 -16 -2 -24 -10 -9
-13 -6 -14 11 -1 12 -4 61 -7 109 -5 68 -3 86 6 83 16 -6 162 335 163 381 1
21 24 65 68 132 51 77 72 120 88 179 21 76 22 79 75 111 45 28 61 46 95 108
40 72 42 74 63 61 23 -15 57 -24 121 -32 22 -3 48 -8 59 -11 23 -8 302 -7 336
1 14 3 48 8 77 11 49 6 52 5 57 -17 16 -68 13 -120 -11 -186 -13 -37 -30 -88
-37 -113 -13 -47 -10 -130 4 -130 5 0 6 -10 4 -23 -9 -35 -9 -30 53 -247 41
-142 64 -205 74 -205 8 -1 13 -6 12 -12 -16 -81 -28 -166 -25 -175 1 -5 -5 -8
-13 -8 -17 0 -20 -31 -4 -47 7 -7 116 -9 342 -6 293 4 333 6 345 20 17 23 15
44 -4 36 -10 -3 -17 1 -20 13 -8 29 -49 54 -96 60 -24 3 -59 7 -78 10 -62 8
-310 124 -267 124 10 0 22 12 28 27 10 28 5 58 -9 49 -4 -3 -9 55 -11 127 -4
166 -8 338 -10 354 -1 6 -10 10 -21 8 -19 -4 -20 0 -16 52 3 37 12 67 27 87
21 28 24 44 26 150 1 65 4 121 7 123 9 10 165 32 224 33 l62 0 -6 28 c-19 77
-78 210 -239 534 -97 197 -178 368 -181 380 -2 13 -6 37 -10 53 -5 27 0 36 38
71 43 39 171 134 181 134 10 0 17 -54 19 -145 1 -79 4 -94 25 -119 45 -55 169
-99 302 -109 19 -1 38 -9 42 -17 4 -8 26 -55 49 -104 144 -310 376 -559 685
-735 72 -41 98 -51 136 -51 46 0 49 2 117 74 222 239 364 564 417 957 13 98
15 511 2 564 -2 11 -8 47 -12 80 -7 60 -10 80 -20 127 -5 21 -55 62 -233 189
-125 90 -229 166 -232 169 -3 4 -18 14 -35 24 -30 17 -32 17 -165 -29 -149
-52 -462 -200 -554 -263 -33 -23 -63 -39 -68 -36 -4 3 -8 17 -8 32 0 42 -50
119 -139 217 -45 48 -80 90 -78 91 1 2 25 6 52 9 28 3 61 8 75 11 14 2 35 6
48 9 67 12 149 38 160 49 10 9 14 45 15 112 1 55 7 102 12 106 6 4 22 8 38 8
15 0 27 4 27 9 0 13 -73 66 -87 63 -7 -2 -14 4 -14 13 -2 18 -4 25 -12 45 -7
16 -4 46 5 55 3 3 4 -8 3 -25 -2 -24 0 -28 10 -20 10 9 13 7 11 -7 -4 -22 23
-65 35 -57 12 7 6 38 -10 58 -7 9 -10 16 -5 16 4 0 -3 11 -16 25 -13 14 -30
23 -37 21 -19 -8 -16 29 3 45 16 13 44 62 44 77 0 6 -11 13 -24 16 -29 7 -41
37 -27 65 14 25 14 41 1 41 -5 0 -29 21 -52 46 -50 54 -95 79 -165 92 -43 7
-68 5 -143 -14 -174 -44 -240 -91 -240 -171 l0 -32 -34 20 c-47 27 -93 21
-120 -15 -17 -22 -21 -42 -20 -94 1 -78 22 -127 62 -144 15 -7 28 -13 30 -14
2 -1 -5 -20 -14 -42 -13 -33 -42 -59 -61 -54 -1 0 -21 -5 -44 -12 -36 -11 -54
-10 -143 12 -105 25 -127 30 -137 31 -3 1 -31 38 -63 84 -54 75 -66 87 -154
137 -147 85 -140 72 -87 163 25 42 52 77 59 77 7 0 26 34 42 77 l29 76 94 54
c62 36 124 62 184 78 64 17 94 31 105 47 30 41 50 57 71 51 19 -5 19 -7 -8
-84 -16 -44 -25 -81 -22 -84 4 -2 30 -7 57 -10 l50 -7 13 71 c7 39 16 73 19
75 4 2 79 -16 167 -40 249 -70 802 -210 985 -249 216 -47 532 -105 541 -99 21
12 284 73 344 79 39 4 72 9 73 10 2 2 -16 14 -40 26 -48 24 -141 88 -263 178
-44 33 -94 62 -110 65 -17 3 -41 8 -55 11 -64 12 -78 15 -115 20 -23 3 -50 7
-60 9 -11 2 -45 7 -75 11 -30 3 -66 8 -80 10 -84 12 -261 31 -370 40 -36 3
-83 7 -105 10 -22 2 -80 7 -130 10 -49 4 -106 8 -125 10 -19 2 -82 7 -140 10
-58 4 -116 8 -130 10 -14 2 -70 7 -125 10 -85 6 -120 9 -156 14 -4 1 1 44 11
96 19 107 19 108 -54 103 l-36 -2 0 -58z m779 -971 c8 -10 7 -14 -2 -14 -8 0
-14 6 -14 14 0 7 1 13 2 13 2 0 8 -6 14 -13z m28 -69 c3 -22 2 -22 -9 -3 -17
28 -20 51 -5 36 6 -6 12 -21 14 -33z m-1981 -3741 c8 3 12 8 10 12 -2 3 34 6
80 7 46 0 84 -3 84 -8 0 -5 -4 -7 -9 -4 -4 3 -16 0 -26 -8 -15 -11 -16 -13 -1
-13 9 0 16 4 16 9 0 5 5 6 11 2 8 -4 7 -9 -2 -16 -10 -7 -9 -8 6 -3 15 4 17 3
9 -5 -15 -15 -46 -20 -59 -9 -9 6 -50 6 -50 -1 0 -1 -10 -3 -23 -4 -14 -2 -27
4 -33 16 -8 14 -14 16 -29 8 -13 -7 -21 -7 -26 2 -5 7 -3 8 7 3 8 -5 7 0 -4
12 -9 11 -14 23 -10 27 5 4 14 -2 21 -13 8 -11 20 -17 28 -14z m243 15 c6 -12
5 -23 -6 -37 -16 -20 -16 -20 -9 0 6 20 6 20 -9 1 -8 -11 -18 -17 -21 -13 -4
4 -1 15 7 24 13 16 12 17 -3 5 -11 -9 -18 -10 -23 -2 -3 5 -1 10 5 10 6 0 8 4
5 10 -3 5 0 7 8 4 8 -3 18 -1 22 5 9 15 13 14 24 -7z m71 -5 c0 14 23 11 42
-5 12 -10 19 -8 33 8 18 20 35 18 35 -3 0 -8 -3 -8 -9 2 -6 9 -11 10 -15 2 -4
-6 -2 -11 3 -11 6 0 10 -5 9 -11 -2 -6 3 -13 10 -14 7 -2 8 -1 2 2 -15 7 -2
23 15 17 8 -4 12 -11 8 -17 -3 -6 -1 -7 6 -3 6 4 9 10 7 14 -2 4 3 13 10 20
13 11 14 9 10 -13 -4 -23 -3 -25 10 -14 12 10 13 9 9 -3 -5 -11 -22 -15 -73
-14 -72 1 -96 10 -88 32 3 8 0 11 -9 8 -8 -3 -14 -9 -13 -12 2 -19 -3 -30 -14
-28 -24 3 -38 17 -31 29 4 7 8 15 9 20 1 4 2 10 3 15 1 4 8 -2 16 -12 8 -11
15 -15 15 -9z m239 5 c8 -15 4 -17 -29 -17 -26 0 -36 3 -33 12 3 7 8 11 12 9
4 -3 13 -1 21 5 19 11 18 12 29 -9z m87 -15 c8 3 12 8 10 12 -3 4 6 7 20 7 13
0 24 -5 24 -10 0 -7 3 -8 8 -1 4 6 24 10 45 10 33 1 36 -1 21 -12 -9 -7 -20
-10 -25 -8 -4 3 -9 2 -12 -2 -2 -5 -2 -1 0 7 2 8 -6 4 -17 -10 -11 -14 -19
-18 -18 -10 4 22 -34 19 -53 -4 -15 -18 -46 -15 -34 4 3 4 -2 13 -10 20 -8 7
-12 17 -8 23 4 7 12 3 21 -11 7 -11 20 -18 28 -15z m244 14 c7 -14 7 -22 0
-26 -6 -4 -10 -3 -9 2 5 31 -3 35 -26 13 -29 -27 -73 -37 -53 -12 9 10 13 11
16 3 3 -9 7 -9 18 0 8 6 11 16 7 22 -3 5 -1 7 5 3 6 -3 13 -2 17 4 9 14 13 13
25 -9z m70 -4 c0 11 24 12 35 2 5 -5 -11 -9 -47 -10 -10 0 -17 -3 -17 -7 3
-16 -2 -23 -11 -17 -6 4 -7 12 -3 18 4 7 8 15 9 20 1 4 2 10 3 15 1 4 8 -2 16
-12 8 -11 15 -15 15 -9z m-1135 3 c-3 -5 -2 -10 4 -10 5 0 12 6 15 13 3 6 3
-3 0 -20 -2 -19 0 -33 6 -33 5 0 9 4 8 9 -3 10 1 11 34 11 12 0 18 -3 15 -7
-4 -3 1 -12 11 -20 15 -13 15 -13 -4 -4 -11 5 -29 8 -40 6 -10 -2 -23 -4 -27
-4 -4 -1 -3 -9 2 -19 8 -14 6 -18 -10 -19 -21 -2 -25 17 -7 35 9 9 9 12 -1 12
-7 0 -11 6 -8 15 4 8 2 17 -4 20 -9 6 -4 25 7 25 3 0 2 -4 -1 -10z m97 -5 c5
-6 8 -5 8 3 0 21 26 -8 27 -31 2 -19 2 -19 -20 1 -14 12 -34 19 -54 18 -21 -2
-30 1 -27 9 6 15 56 15 66 0z m542 3 c-3 -4 -9 -8 -15 -8 -5 0 -9 4 -9 8 0 5
7 9 15 9 8 0 12 -4 9 -9z m140 -32 c-5 -13 -94 -18 -94 -5 0 5 9 10 20 10 41
3 45 5 42 22 -3 17 -2 17 17 1 10 -9 17 -22 15 -28z"/>
<path d="M1095 111 c-3 -6 -1 -19 4 -28 10 -17 10 -17 11 0 0 9 5 17 10 17 6
0 9 -3 8 -7 -3 -7 7 -15 15 -12 19 6 43 6 51 1 15 -9 39 -12 31 -4 -4 4 -11 8
-16 8 -20 3 -21 4 -11 17 8 10 3 13 -22 12 -24 0 -32 -4 -28 -14 4 -10 -2 -9
-21 3 -16 11 -27 13 -32 7z"/>
<path d="M1296 121 c-3 -5 1 -11 9 -14 9 -4 12 -1 8 9 -6 16 -10 17 -17 5z"/>
<path d="M1357 104 c-11 -11 3 -24 18 -18 8 4 12 10 9 15 -6 11 -18 12 -27 3z"/>
<path d="M1447 96 c-17 -13 -16 -14 6 -12 15 0 23 6 20 14 -6 14 -4 15 -26 -2z"/>
<path d="M1600 120 c-9 -6 -10 -10 -3 -10 6 0 15 5 18 10 8 12 4 12 -15 0z"/>
<path d="M1700 90 c-9 -6 -10 -10 -3 -10 6 0 15 5 18 10 8 12 4 12 -15 0z"/>
<path d="M3016 3847 c3 -10 9 -15 12 -12 3 3 0 11 -7 18 -10 9 -11 8 -5 -6z"/>
<path d="M4340 3580 c0 -5 5 -10 11 -10 5 0 7 5 4 10 -3 6 -8 10 -11 10 -2 0
-4 -4 -4 -10z"/>
<path d="M4100 1150 c0 -5 7 -10 16 -10 8 0 12 5 9 10 -3 6 -10 10 -16 10 -5
0 -9 -4 -9 -10z"/>
<path d="M3265 920 c-3 -5 -1 -10 4 -10 6 0 11 5 11 10 0 6 -2 10 -4 10 -3 0
-8 -4 -11 -10z"/>
<path d="M276 8 c3 -5 10 -6 15 -3 13 9 11 12 -6 12 -8 0 -12 -4 -9 -9z"/>
</g>
</svg>
